<?xml version="1.0" encoding="UTF-8"?>
<svg id="a" data-name="Layer 1" xmlns="http://www.w3.org/2000/svg" width="2.5in" height="3.5in" xmlns:xlink="http://www.w3.org/1999/xlink" viewBox="0 0 180 252">
  <defs>
    <clipPath id="b">
      <rect width="180" height="252" rx="18" ry="18" style="fill: none;"/>
    </clipPath>
  </defs>
  <g style="clip-path: url(#b);">
    <rect x="-.51" width="180" height="252" style="fill: #fff;"/>
    <rect x="9" y="9" width="162" height="234" rx="9" ry="9" style="fill: #231f20;"/>
    <g>
      <path d="M162.78,55.42c-1.25-18.39-7.79-26.79-9.51-28.69-1.91-1.72-10.3-8.26-28.69-9.51l.02-.64h29.84l-.61.56s-.44.41-.93,1.1h4.58v-1.66h5.96v5.96h-1.66v4.57c.7-.49,1.09-.93,1.1-.93l.56-.61v29.84l-.64.03ZM154.33,26.98c2.04,2.53,6.56,9.39,8.45,22.3v-22.15c-.26.22-.6.49-1.02.76v8.39l-.64.06c-.58-3.15-3.28-7.21-3.3-7.25l-.3-.44.53-.06c1.21-.13,2.26-.58,3.07-1.06v-5h-2.7l3.34-3.92v3.27h1.02v-4.67h-4.66v1.01h3.27l-3.92,3.35v-2.7h-5c-.48.8-.93,1.85-1.06,3.07l-.06.53-.44-.3s-4.1-2.73-7.25-3.3l.06-.64h8.39c.27-.41.53-.76.76-1.01h-22.14c12.91,1.89,19.77,6.4,22.3,8.45l.19.1c-.43-2.03.02-4.51.91-5.38.41-.41.9-.48,1.38-.23.54.28.87.68.98,1.18.21.96-.49,1.91-.52,1.95l-.52-.39s.56-.76.41-1.43c-.07-.31-.28-.55-.65-.75-.15-.08-.36-.14-.63.12-.8.79-1.16,3.36-.63,5.21,1.84.53,4.42.18,5.21-.63.26-.27.2-.48.12-.63-.19-.37-.44-.58-.75-.65-.66-.15-1.42.4-1.43.41l-.39-.52s1-.73,1.95-.52c.5.11.9.45,1.18.98.25.48.17.97-.23,1.38-.87.89-3.35,1.34-5.38.91l.09.19ZM158.63,29.16c.53.84,1.7,2.81,2.49,4.86v-5.75c-.7.38-1.53.71-2.49.88ZM159.82,21.89h1.3v-1.53l-1.3,1.53ZM145.97,18.88c2.06.78,4.02,1.96,4.86,2.49.17-.95.51-1.79.88-2.49h-5.75ZM158.11,18.88v1.3l1.53-1.3h-1.53Z" style="fill: #fff;"/>
      <path d="M55.4,235.42h-29.84l.61-.56s.44-.4.93-1.1h-4.58v1.66h-5.96v-5.96h1.66v-4.57c-.69.5-1.09.92-1.1.93l-.56.61v-29.84l.65-.02c1.25,18.39,7.79,26.79,9.51,28.69,1.91,1.72,10.3,8.26,28.69,9.51l-.02.65ZM27.14,234.78h22.14c-12.91-1.88-19.77-6.4-22.3-8.45l-.19-.1c.43,2.03-.03,4.51-.91,5.38-.41.4-.9.48-1.38.23-.54-.28-.87-.68-.98-1.18-.22-.96.49-1.91.52-1.95l.51.39s-.56.76-.41,1.43c.07.31.28.55.65.75.15.08.37.14.63-.12.8-.79,1.16-3.36.63-5.21-1.84-.54-4.42-.18-5.21.63-.26.27-.2.48-.12.63.19.37.44.58.75.65.66.15,1.42-.4,1.43-.41l.39.52s-1,.74-1.95.52c-.5-.11-.89-.44-1.18-.98-.25-.48-.17-.97.23-1.38.87-.89,3.35-1.34,5.38-.91l-.1-.19c-2.04-2.53-6.56-9.39-8.45-22.3v22.14c.26-.22.6-.49,1.01-.75v-8.39l.64-.06c.58,3.15,3.28,7.21,3.3,7.25l.3.44-.53.06c-1.22.13-2.26.58-3.07,1.06v5h2.7l-3.35,3.92v-3.27h-1.01v4.67h4.67v-1.01h-3.27l3.92-3.35v2.7h5c.48-.8.93-1.85,1.06-3.06l.06-.53.44.3s4.1,2.73,7.24,3.3l-.06.64h-8.39c-.27.41-.54.75-.76,1.01ZM28.28,233.12h5.75c-2.06-.78-4.02-1.95-4.86-2.49-.17.95-.51,1.79-.88,2.49ZM20.37,233.12h1.52v-1.3l-1.52,1.3ZM18.88,230.11v1.53l1.3-1.53h-1.3ZM18.88,217.97v5.75c.69-.38,1.53-.71,2.49-.88-.53-.84-1.7-2.81-2.49-4.87Z" style="fill: #fff;"/>
      <path d="M17.22,55.42l-.64-.03v-29.84l.56.62s.41.44,1.1.93v-4.57h-1.66v-5.96h5.95v1.66h4.58c-.49-.7-.92-1.09-.93-1.1l-.62-.56h29.84l.02.64c-18.39,1.25-26.79,7.79-28.69,9.51-1.72,1.91-8.26,10.31-9.51,28.7ZM17.22,27.14v22.15c1.88-12.91,6.41-19.77,8.45-22.3l.1-.19c-2.03.43-4.51-.02-5.38-.91-.4-.41-.48-.9-.23-1.38.28-.54.68-.87,1.18-.98.95-.21,1.91.49,1.95.52l-.39.52s-.76-.56-1.43-.41c-.31.07-.55.28-.75.65-.08.15-.14.37.12.63.79.81,3.36,1.16,5.21.63.54-1.84.18-4.42-.63-5.21-.26-.26-.48-.2-.63-.12-.37.19-.58.44-.65.75-.15.66.4,1.42.41,1.43l-.52.39s-.74-1-.52-1.95c.11-.5.44-.9.98-1.18.48-.25.97-.17,1.38.23.89.87,1.34,3.35.91,5.38l.19-.1c2.53-2.04,9.39-6.56,22.3-8.45h-22.15c.22.26.49.6.76,1.02h8.39l.06.64c-3.15.58-7.21,3.28-7.24,3.3l-.44.3-.06-.53c-.13-1.22-.58-2.26-1.06-3.07h-5v2.7l-3.92-3.35h3.27v-1.01h-4.67v4.67h1.01v-3.27l3.35,3.92h-2.7v5c.8.48,1.85.93,3.07,1.07l.53.06-.3.44s-2.73,4.1-3.3,7.25l-.64-.06v-8.39c-.42-.27-.76-.53-1.02-.76ZM18.88,28.28v5.75c.78-2.06,1.95-4.02,2.49-4.86-.95-.17-1.79-.51-2.49-.88ZM18.88,21.89h1.3l-1.3-1.53v1.53ZM28.28,18.88c.37.7.71,1.54.88,2.49.84-.53,2.81-1.7,4.86-2.49h-5.75ZM20.36,18.88l1.52,1.3v-1.3h-1.52Z" style="fill: #fff;"/>
      <path d="M163.42,235.42h-5.96v-1.66h-4.58c.5.69.93,1.09.93,1.1l.62.56h-29.84l-.02-.64c18.39-1.25,26.79-7.79,28.69-9.51,1.72-1.91,8.26-10.3,9.51-28.69l.65.02v29.84l-.56-.61s-.4-.44-1.1-.93v4.57h1.66v5.96ZM158.11,234.78h4.67v-4.67h-1.01v3.27l-3.34-3.92h2.7v-5c-.8-.48-1.85-.93-3.07-1.07l-.53-.06.3-.44s2.73-4.1,3.3-7.25l.64.06v8.39c.42.27.76.54,1.01.76v-22.15c-1.88,12.91-6.41,19.77-8.45,22.3l-.1.19c2.03-.43,4.51.03,5.38.91.4.41.48.9.23,1.38-.28.54-.68.87-1.18.98-.96.22-1.91-.49-1.95-.52l.39-.52s.76.56,1.43.41c.31-.07.55-.28.75-.65.08-.15.14-.37-.12-.63-.79-.81-3.36-1.16-5.21-.63-.53,1.85-.18,4.42.63,5.21.26.26.48.2.63.12.37-.19.58-.44.65-.75.15-.67-.4-1.42-.41-1.43l.52-.39s.73,1,.52,1.95c-.11.5-.44.9-.98,1.18-.48.25-.97.17-1.38-.23-.89-.87-1.35-3.35-.91-5.38l-.19.1c-2.53,2.04-9.39,6.56-22.3,8.45h22.14c-.22-.26-.49-.6-.76-1.01h-8.39l-.06-.64c3.15-.58,7.21-3.27,7.25-3.3l.44-.3.06.53c.13,1.22.58,2.26,1.06,3.06h5v-2.7l3.92,3.35h-3.27v1.01h0ZM158.11,233.12h1.53l-1.53-1.3v1.3ZM145.97,233.12h5.75c-.37-.69-.71-1.53-.88-2.49-.84.53-2.81,1.71-4.86,2.49ZM159.82,230.11l1.3,1.53v-1.53h-1.3ZM158.63,222.84c.95.17,1.79.51,2.49.88v-5.75c-.78,2.06-1.95,4.02-2.49,4.86Z" style="fill: #fff;"/>
    </g>
    <g>
      <g>
        <path d="M78.97,111.85c1.57,0,2.86,2.56,2.86,5.71s-1.28,5.71-2.86,5.71-2.85-2.56-2.85-5.71c0-3.16,1.27-5.71,2.85-5.71Z" style="fill: #fff;"/>
        <path d="M101.82,111.85c1.58,0,2.86,2.56,2.86,5.71s-1.27,5.71-2.86,5.71-2.85-2.56-2.85-5.71,1.28-5.71,2.85-5.71Z" style="fill: #fff;"/>
        <path d="M72.55,127.51c2.06,0,3.73.84,3.73,1.87s-1.67,1.87-3.73,1.87-3.75-.84-3.75-1.87,1.67-1.87,3.75-1.87Z" style="fill: #fff;"/>
        <path d="M108.25,127.51c2.08,0,3.75.84,3.75,1.87s-1.67,1.87-3.75,1.87-3.73-.84-3.73-1.87,1.67-1.87,3.73-1.87Z" style="fill: #fff;"/>
      </g>
      <path d="M90.4,162.5c-19.74,0-35.8-16.07-35.8-35.81s16.06-35.81,35.8-35.81,35.81,16.07,35.81,35.81-16.07,35.81-35.81,35.81ZM90.4,91.46c-19.42,0-35.23,15.81-35.23,35.23s15.81,35.23,35.23,35.23,35.23-15.81,35.23-35.23c0-19.42-15.8-35.23-35.23-35.23Z" style="fill: #fff;"/>
      <path d="M99.67,206.88c-.17,0-.3-.13-.3-.28v-45.61c0-.16.13-.3.3-.3.16,0,.28.14.28.3v45.61c0,.16-.13.28-.28.28Z" style="fill: #fff;"/>
      <path d="M99.67,92.69c-.17,0-.3-.14-.3-.29v-53.2c0-.16.13-.28.3-.28.16,0,.28.13.28.28v53.2c0,.15-.13.29-.28.29Z" style="fill: #fff;"/>
      <path d="M90.4,217.39c-.16,0-.28-.13-.28-.29v-54.91c0-.16.13-.28.28-.28s.28.13.28.28v54.91c0,.16-.13.29-.28.29Z" style="fill: #fff;"/>
      <path d="M90.4,91.46c-.16,0-.28-.13-.28-.28V28.68c0-.15.13-.28.28-.28s.28.13.28.28v62.5c0,.15-.13.28-.28.28Z" style="fill: #fff;"/>
      <path d="M81.14,206.88c-.17,0-.3-.13-.3-.28v-45.61c0-.15.13-.3.3-.3.15,0,.29.14.29.3v45.61c0,.16-.13.28-.29.28Z" style="fill: #fff;"/>
      <path d="M81.14,92.69c-.17,0-.3-.14-.3-.29v-53.2c0-.16.13-.28.3-.28.15,0,.29.13.29.28v53.2c0,.15-.13.29-.29.29Z" style="fill: #fff;"/>
      <path d="M56.11,136.24h-19.9c-.17,0-.3-.13-.3-.29,0-.17.13-.3.3-.3h19.9c.17,0,.3.13.3.3,0,.16-.14.29-.3.29Z" style="fill: #fff;"/>
      <path d="M146.79,136.24h-22.1c-.16,0-.28-.13-.28-.29,0-.17.13-.3.28-.3h22.1c.17,0,.3.13.3.3,0,.16-.13.29-.3.29Z" style="fill: #fff;"/>
      <path d="M54.89,126.97h-30.61c-.16,0-.28-.13-.28-.29s.13-.28.28-.28h30.61c.16,0,.28.13.28.28s-.13.29-.28.29Z" style="fill: #fff;"/>
      <path d="M158.71,126.97h-32.8c-.16,0-.29-.13-.29-.29s.13-.28.29-.28h32.8c.15,0,.29.13.29.28,0,.16-.13.29-.29.29Z" style="fill: #fff;"/>
      <path d="M56.11,117.71h-19.9c-.17,0-.3-.13-.3-.3,0-.16.13-.29.3-.29h19.9c.17,0,.3.13.3.29,0,.17-.13.3-.3.3Z" style="fill: #fff;"/>
      <path d="M146.79,117.71h-22.1c-.16,0-.28-.13-.28-.3,0-.16.13-.29.28-.29h22.1c.17,0,.3.13.3.29,0,.17-.13.3-.3.3Z" style="fill: #fff;"/>
    </g>
  </g>
</svg>