<?xml version="1.0" encoding="UTF-8"?>
<svg id="Layer_1" data-name="Layer 1" xmlns="http://www.w3.org/2000/svg" viewBox="0 0 180 252">
  <defs>
    <style>
      .cls-1, .cls-2 {
        fill: #010101;
      }

      .cls-3, .cls-4 {
        fill: #fff;
      }

      .cls-3, .cls-4, .cls-2 {
        stroke: #010101;
        stroke-miterlimit: 10;
      }

      .cls-4 {
        stroke-linecap: round;
      }

      .cls-5 {
        fill: #ba2025;
      }
    </style>
  </defs>
  <g>
    <path class="cls-1" d="M112.41,84.32c-6.63-18.45-1.31-37.94,13.04-50.72-5.37.64-10.61,2.26-15.42,4.8-21.9,11.56-28.23,26.15-19.94,45.92"/>
    <path class="cls-1" d="M55.49,58.73c-1.05.15-2.08.35-3.08.6,9.28,3.6,16.39,14.43,17.84,24.99h17.17c-2.13-15.5-16.42-27.72-31.93-25.59Z"/>
    <path class="cls-1" d="M111.88,62.22c-1.12,7.08-.49,14.5,2.09,21.62,1.81-10.21,8.71-21.04,17.63-24.51-1.01-.25-2.03-.46-3.08-.6-5.93-.82-11.68.59-16.64,3.49Z"/>
    <path class="cls-1" d="M56.86,25.37c3.8,0,6.87,3.08,6.87,6.87s-3.08,6.87-6.87,6.87-6.87-3.08-6.87-6.87,3.08-6.87,6.87-6.87Z"/>
    <path class="cls-1" d="M130.28,53.18c3.8,0,6.87,3.08,6.87,6.87s-3.08,6.87-6.87,6.87-6.87-3.08-6.87-6.87,3.08-6.87,6.87-6.87Z"/>
    <path class="cls-1" d="M54.88,52.81c3.79,0,6.87,3.08,6.87,6.87s-3.08,6.87-6.87,6.87-6.87-3.08-6.87-6.87,3.08-6.87,6.87-6.87Z"/>
    <path class="cls-1" d="M85.1,72.61c.07.69.17-.81.28-.11-1.57-9.96.95-16.63,7.52-24.33-3.98-4.16-9.24-7.9-15.65-11.28-7.18-3.79-14.91-5.49-22.49-5.33,10.6,7.17,17.32,17.87,19.39,29.57,1.24.79,2.44,1.68,3.6,2.66,2.94,2.5,5.42,5.51,7.35,8.82Z"/>
    <circle class="cls-1" cx="124.59" cy="33.99" r="6.87"/>
  </g>
  <g>
    <path class="cls-3" d="M138.66,194.85c0-26.13-21.19-47.32-47.31-47.32s-47.32,21.18-47.32,47.32c0,12.18,4.61,23.29,12.17,31.67h70.29c7.56-8.39,12.17-19.49,12.17-31.67Z"/>
    <polygon class="cls-2" points="59.69 141.25 28.03 226.63 64.54 226.63 73.39 148.16 59.69 141.25"/>
    <g>
      <path class="cls-3" d="M131.35,140.73c0,5.52-4.48,10-10,10h-60c-5.52,0-10-4.48-10-10v-40c0-5.52,4.48-10,10-10h60c5.52,0,10,4.48,10,10v40Z"/>
      <g>
        <g>
          <path class="cls-1" d="M82.7,115.69c1.83,0,3.31,2.96,3.31,6.61s-1.48,6.61-3.31,6.61-3.31-2.96-3.31-6.61,1.48-6.61,3.31-6.61Z"/>
          <path class="cls-1" d="M109.16,115.69c1.83,0,3.31,2.96,3.31,6.61s-1.48,6.61-3.31,6.61-3.31-2.96-3.31-6.61,1.48-6.61,3.31-6.61Z"/>
        </g>
        <g>
          <path class="cls-5" d="M75.26,133.81c2.39,0,4.33.97,4.33,2.17s-1.94,2.17-4.33,2.17-4.33-.97-4.33-2.17,1.94-2.17,4.33-2.17Z"/>
          <path class="cls-5" d="M116.59,133.81c2.4,0,4.34.97,4.34,2.17s-1.94,2.17-4.34,2.17-4.33-.97-4.33-2.17,1.94-2.17,4.33-2.17Z"/>
        </g>
      </g>
    </g>
    <path class="cls-3" d="M121.46,86.52c0,2.91-2.35,5.26-5.26,5.26h-50.87c-2.9,0-5.26-2.36-5.26-5.26v-3.5c0-2.91,2.36-5.26,5.26-5.26h50.87c2.9,0,5.26,2.36,5.26,5.26v3.5Z"/>
    <path class="cls-4" d="M73.22,201.03c0-1.24,1-2.25,2.25-2.25s2.25,1.01,2.25,2.25v2.99-9c0-1.25,1.01-2.25,2.25-2.25s2.25,1.01,2.25,2.25v9-9c0-1.25,1.01-2.25,2.25-2.25s2.25,1.01,2.25,2.25v9-2.99c0-1.24,1-2.25,2.25-2.25s2.25,1.01,2.25,2.25v4.12h0c0,1.24-1.01,2.25-2.25,2.25h-13.5c-1.24,0-2.25-1.01-2.25-2.25h0v-4.12Z"/>
    <path class="cls-1" d="M147.61,138.06c-.2-.08-.41-.17-.62-.25-.09-.03-.19-.06-.28-.08-.34-.37-.72-.69-1.16-.96-.48-.3-1.02-.53-1.61-.66-.57-.13-1.13-.16-1.68-.11-.48.05-.95.15-1.39.32-.32-.05-.63-.1-.95-.15-.07-.01-.14-.02-.21-.03v.78c-1.07.74-1.89,1.86-2.2,3.24-.52,2.29.52,4.56,2.41,5.74l-9.02,47.27s.62.43,2.79.76c2.54.39,2.5.18,2.5.18l7.69-47.5c1.97-.43,3.62-1.95,4.1-4.05.32-1.4.05-2.8-.63-3.94l.25-.54ZM132,192.8l8.4-46.62h0l.95.13-8.06,46.72-1.29-.23ZM151.94,131.81c-.15.69-.83,1.14-1.53.99-.12-.03-.24-.08-.34-.13l-2.26,4.82c-.21-.09-.41-.17-.62-.25-.09-.03-.19-.05-.28-.08-.34-.37-.72-.69-1.16-.96-.48-.3-1.02-.53-1.61-.66-.56-.13-1.13-.16-1.68-.11-.48.04-.95.15-1.4.32-.38-.06-.77-.13-1.15-.18l-.07-4.92c-.1,0-.19,0-.29-.02-.69-.15-1.14-.83-.99-1.53.15-.7.83-1.14,1.53-.99.69.15,1.14.83.99,1.53-.07.33-.26.59-.52.77h-.02s1.6,1.87,1.6,1.87l2.99-4.05c-.42-.28-.65-.81-.54-1.33.15-.7.83-1.14,1.53-.99.7.15,1.14.83.99,1.53-.11.49-.49.86-.95.97l1.07,4.97,2.38-1.11c-.18-.28-.26-.62-.18-.97.15-.7.83-1.14,1.53-.99.7.15,1.14.83.99,1.53ZM138.67,139.17c1.07-1.63,2.97-2.56,4.93-2.22,1.96.35,3.43,1.87,3.88,3.77-.74-1.48-2.2-2.62-4.02-2.95-1.82-.32-3.58.25-4.79,1.39ZM145.91,143.45c-.89,1.66-2.31,2.21-3.8,1.95-1.49-.26-2.64-1.27-2.91-3.13.51,1.44,1.59,2.52,2.97,2.76,1.39.24,2.76-.4,3.73-1.58Z"/>
    <path class="cls-4" d="M143.51,170.71c1.23.21,2.04,1.38,1.83,2.6-.22,1.22-1.38,2.04-2.61,1.83l-2.94-.52,8.86,1.56c1.23.22,2.04,1.38,1.83,2.61-.22,1.22-1.38,2.04-2.61,1.82l-8.86-1.56,8.86,1.56c1.23.22,2.05,1.38,1.83,2.61-.21,1.22-1.38,2.05-2.61,1.83l-8.86-1.56,2.95.52c1.22.22,2.04,1.38,1.83,2.6-.22,1.22-1.38,2.04-2.61,1.83l-8-1.41h0c-1.22-.22-2.04-1.38-1.83-2.61l2.35-13.3c.21-1.22,1.38-2.04,2.61-1.82h0l8,1.41Z"/>
  </g>
</svg>