<?xml version="1.0" encoding="UTF-8"?>
<svg id="a" data-name="Layer 1" xmlns="http://www.w3.org/2000/svg" width="2.5in" height="3.5in" xmlns:xlink="http://www.w3.org/1999/xlink" viewBox="0 0 180 252">
  <defs>
    <clipPath id="b">
      <rect width="180" height="252" rx="18" ry="18" style="fill: none;"/>
    </clipPath>
  </defs>
  <g style="clip-path: url(#b);">
    <rect x="-.51" width="180" height="252" style="fill: #fff;"/>
    <path d="M66.02,92.96h14.98v30.24H5.96v-7.7c0-14.09,5.18-26.74,15.54-37.94,4.05-4.29,13.71-11.99,28.97-23.1,10.36-7.56,15.54-14.05,15.54-19.46,0-5.04-2.87-8.96-8.62-11.76-4.52-2.24-9.66-3.36-15.4-3.36-14.04,0-21.06,4.67-21.06,14,0,1.96.51,4.15,1.54,6.58l-14,5.88c-1.68-4.39-2.52-8.54-2.52-12.46,0-9.71,3.65-17.17,10.96-22.4,6.56-4.67,14.89-7,25.01-7s18.88,2.52,26.28,7.56c8.52,5.69,12.79,13.35,12.79,22.96,0,8.96-4.5,17.36-13.5,25.2-8.82,6.72-17.63,13.44-26.45,20.16-10.32,8.59-16.55,17.73-18.71,27.44h43.68v-14.84Z" style="fill: #231f20;"/>
    <path d="M86.06,99.49l.73-11.08c-1.85,2.1-4.55,3.41-7.56,3.41-5.54,0-10.05-4.51-10.05-10.06s4.51-10.05,10.05-10.05c.61,0,1.21.05,1.79.16-.69-1.37-1.08-2.91-1.08-4.53,0-5.54,4.51-10.05,10.05-10.05s10.06,4.51,10.06,10.05c0,1.62-.39,3.16-1.08,4.53.58-.1,1.18-.16,1.79-.16,5.54,0,10.05,4.51,10.05,10.05s-4.51,10.06-10.05,10.06c-3.01,0-5.72-1.31-7.57-3.41l.73,11.08h-7.86Z" style="fill: #fff;"/>
    <path d="M100.76,73.51c-4.28,0-7.8,3.26-8.21,7.43-.55,0-1.1-.02-1.65-.03l-.35-5.34c4.3-.28,7.71-3.85,7.71-8.23s-3.69-8.25-8.26-8.25-8.25,3.7-8.25,8.25,3.41,7.95,7.71,8.23l-.35,5.34c-.55,0-1.1.02-1.65.03-.41-4.18-3.93-7.43-8.21-7.43-4.56,0-8.25,3.69-8.25,8.25s3.69,8.26,8.25,8.26c4.28,0,7.8-3.26,8.21-7.43.51.01,1.02.02,1.54.03l-1,15.07h4.02l-1-15.07c.52,0,1.03-.02,1.54-.03.42,4.17,3.93,7.43,8.21,7.43,4.56,0,8.25-3.7,8.25-8.26s-3.69-8.25-8.25-8.25Z" style="fill: #231f20;"/>
    <path d="M86.06,194.71l.73-11.08c-1.85,2.1-4.55,3.41-7.56,3.41-5.54,0-10.05-4.51-10.05-10.06s4.51-10.05,10.05-10.05c.61,0,1.21.05,1.79.16-.69-1.37-1.08-2.91-1.08-4.53,0-5.54,4.51-10.05,10.05-10.05s10.06,4.51,10.06,10.05c0,1.62-.39,3.16-1.08,4.53.58-.1,1.18-.16,1.79-.16,5.54,0,10.05,4.51,10.05,10.05s-4.51,10.06-10.05,10.06c-3.01,0-5.72-1.31-7.57-3.41l.73,11.08h-7.86Z" style="fill: #fff;"/>
    <path d="M100.76,168.74c-4.28,0-7.8,3.26-8.21,7.43-.55,0-1.1-.02-1.65-.03l-.35-5.34c4.3-.28,7.71-3.85,7.71-8.23s-3.69-8.25-8.26-8.25-8.25,3.7-8.25,8.25,3.41,7.95,7.71,8.23l-.35,5.34c-.55.01-1.1.02-1.65.03-.41-4.17-3.93-7.43-8.21-7.43-4.56,0-8.25,3.7-8.25,8.25s3.69,8.26,8.25,8.26c4.28,0,7.8-3.26,8.21-7.43.51.02,1.02.02,1.54.03l-1,15.07h4.02l-1-15.07c.52-.01,1.03-.02,1.54-.03.42,4.17,3.93,7.43,8.21,7.43,4.56,0,8.25-3.7,8.25-8.26s-3.69-8.25-8.25-8.25Z" style="fill: #231f20;"/>
  </g>
</svg>