<?xml version="1.0" encoding="UTF-8"?>
<svg id="Layer_1" data-name="Layer 1" xmlns="http://www.w3.org/2000/svg" viewBox="0 0 180 252">
  <defs>
    <style>
      .cls-1 {
        fill: #231f20;
      }
    </style>
  </defs>
  <g>
    <path class="cls-1" d="M100.76,73.51c-4.28,0-7.8,3.26-8.21,7.43-.55,0-1.1-.02-1.65-.03l-.35-5.34c4.3-.28,7.71-3.85,7.71-8.23s-3.69-8.25-8.26-8.25-8.25,3.7-8.25,8.25,3.41,7.95,7.71,8.23l-.35,5.34c-.55,0-1.1.02-1.65.03-.41-4.18-3.93-7.43-8.21-7.43-4.56,0-8.25,3.69-8.25,8.25s3.69,8.26,8.25,8.26c4.28,0,7.8-3.26,8.21-7.43.51.01,1.02.02,1.54.03l-1,15.07h4.02l-1-15.07c.52,0,1.03-.02,1.54-.03.42,4.17,3.93,7.43,8.21,7.43,4.56,0,8.25-3.7,8.25-8.26s-3.69-8.25-8.25-8.25Z"/>
    <path class="cls-1" d="M100.76,168.74c-4.28,0-7.8,3.26-8.21,7.43-.55,0-1.1-.02-1.65-.03l-.35-5.34c4.3-.28,7.71-3.85,7.71-8.23s-3.69-8.25-8.26-8.25-8.25,3.7-8.25,8.25,3.41,7.95,7.71,8.23l-.35,5.34c-.55.01-1.1.02-1.65.03-.41-4.17-3.93-7.43-8.21-7.43-4.56,0-8.25,3.7-8.25,8.25s3.69,8.26,8.25,8.26c4.28,0,7.8-3.26,8.21-7.43.51.02,1.02.02,1.54.03l-1,15.07h4.02l-1-15.07c.52-.01,1.03-.02,1.54-.03.42,4.17,3.93,7.43,8.21,7.43,4.56,0,8.25-3.7,8.25-8.26s-3.69-8.25-8.25-8.25Z"/>
  </g>
  <g>
    <path class="cls-1" d="M24.33,31.59h3.82v7.72H9v-1.97c0-3.6,1.32-6.83,3.97-9.68,1.03-1.1,3.5-3.06,7.4-5.9,2.65-1.93,3.97-3.59,3.97-4.97,0-1.29-.73-2.29-2.2-3-1.15-.57-2.47-.86-3.93-.86-3.58,0-5.38,1.19-5.38,3.57,0,.5.13,1.06.39,1.68l-3.57,1.5c-.43-1.12-.64-2.18-.64-3.18,0-2.48.93-4.38,2.8-5.72,1.67-1.19,3.8-1.79,6.38-1.79s4.82.64,6.71,1.93c2.18,1.45,3.26,3.41,3.26,5.86,0,2.29-1.15,4.43-3.45,6.43-2.25,1.72-4.5,3.43-6.75,5.15-2.63,2.19-4.23,4.53-4.78,7h11.15v-3.79Z"/>
    <path class="cls-1" d="M155.67,220.41h-3.82v-7.72h19.16v1.97c0,3.6-1.32,6.83-3.97,9.68-1.03,1.1-3.5,3.06-7.4,5.9-2.65,1.93-3.97,3.59-3.97,4.97,0,1.29.73,2.29,2.2,3,1.15.57,2.47.86,3.93.86,3.58,0,5.38-1.19,5.38-3.57,0-.5-.13-1.06-.39-1.68l3.57-1.5c.43,1.12.64,2.18.64,3.18,0,2.48-.93,4.38-2.8,5.72-1.67,1.19-3.8,1.79-6.38,1.79s-4.82-.64-6.71-1.93c-2.18-1.45-3.26-3.41-3.26-5.86,0-2.29,1.15-4.43,3.45-6.43,2.25-1.72,4.5-3.43,6.75-5.15,2.63-2.19,4.23-4.53,4.78-7h-11.15v3.79Z"/>
  </g>
</svg>