<?xml version="1.0" encoding="UTF-8"?>
<svg id="a" data-name="Layer 1" xmlns="http://www.w3.org/2000/svg" width="2.5in" height="3.5in" xmlns:xlink="http://www.w3.org/1999/xlink" viewBox="0 0 180 252">
  <defs>
    <clipPath id="b">
      <rect width="180" height="252" rx="18" ry="18" style="fill: none;"/>
    </clipPath>
  </defs>
  <g style="clip-path: url(#b);">
    <rect x="-.51" width="180" height="252" style="fill: #fff;"/>
    <path d="M44.32,123.48c-8.96,0-16.99-3.08-24.08-9.24-6.44-5.6-11.2-12.88-14.28-21.84l14.31-5.04c1.96,5.84,4.91,10.62,8.84,14.32,4.49,4.27,9.59,6.4,15.29,6.4,7.11,0,13.23-2.79,18.38-8.38,5.15-5.58,7.72-11.92,7.72-18.99s-2.2-12.66-6.6-17.03c-4.4-4.38-10.15-6.56-17.27-6.56-3.28,0-5.85.42-7.72,1.26s-4.12,2.47-6.74,4.9l-10.81-10.64L56.22,19.88H22.62v14.98H7.64V4.48h76.58v9.64l-29.86,28.25c9.44,1.78,16.98,6.19,22.64,13.24,5.65,7.05,8.48,15.43,8.48,25.14,0,11.3-4.06,21.25-12.18,29.84-8.12,8.59-17.78,12.89-28.98,12.89Z" style="fill: #231f20;"/>
    <path d="M86.06,75.68l.73-11.08c-1.85,2.1-4.55,3.41-7.56,3.41-5.54,0-10.05-4.51-10.05-10.05s4.51-10.05,10.05-10.05c.61,0,1.21.05,1.79.16-.69-1.37-1.08-2.91-1.08-4.53,0-5.54,4.51-10.06,10.05-10.06s10.06,4.51,10.06,10.06c0,1.62-.39,3.17-1.08,4.53.58-.1,1.18-.16,1.79-.16,5.54,0,10.05,4.51,10.05,10.05s-4.51,10.05-10.05,10.05c-3.01,0-5.72-1.31-7.57-3.41l.73,11.08h-7.86Z" style="fill: #fff;"/>
    <path d="M100.76,49.71c-4.28,0-7.8,3.26-8.21,7.43-.55,0-1.1-.03-1.65-.03l-.35-5.34c4.3-.28,7.71-3.85,7.71-8.22s-3.69-8.26-8.26-8.26-8.25,3.7-8.25,8.26,3.41,7.94,7.71,8.22l-.35,5.34c-.55,0-1.1.02-1.65.03-.41-4.17-3.93-7.43-8.21-7.43-4.56,0-8.25,3.69-8.25,8.25s3.69,8.25,8.25,8.25c4.28,0,7.8-3.26,8.21-7.43.51.02,1.02.02,1.54.03l-1,15.07h4.02l-1-15.07c.52,0,1.03-.02,1.54-.03.42,4.17,3.93,7.43,8.21,7.43,4.56,0,8.25-3.7,8.25-8.25s-3.69-8.25-8.25-8.25Z" style="fill: #231f20;"/>
    <path d="M86.06,147.1l.73-11.08c-1.85,2.1-4.55,3.41-7.56,3.41-5.54,0-10.05-4.51-10.05-10.06s4.51-10.05,10.05-10.05c.61,0,1.21.05,1.79.16-.69-1.37-1.08-2.91-1.08-4.53,0-5.54,4.51-10.06,10.05-10.06s10.06,4.51,10.06,10.06c0,1.62-.39,3.16-1.08,4.53.58-.1,1.18-.16,1.79-.16,5.54,0,10.05,4.51,10.05,10.05s-4.51,10.06-10.05,10.06c-3.01,0-5.72-1.31-7.57-3.41l.73,11.08h-7.86Z" style="fill: #fff;"/>
    <path d="M100.76,121.12c-4.28,0-7.8,3.25-8.21,7.43-.55,0-1.1-.03-1.65-.03l-.35-5.34c4.3-.28,7.71-3.85,7.71-8.23s-3.69-8.26-8.26-8.26-8.25,3.7-8.25,8.26,3.41,7.95,7.71,8.23l-.35,5.34c-.55.01-1.1.02-1.65.03-.41-4.18-3.93-7.43-8.21-7.43-4.56,0-8.25,3.7-8.25,8.25s3.69,8.26,8.25,8.26c4.28,0,7.8-3.26,8.21-7.43.51.02,1.02.03,1.54.03l-1,15.07h4.02l-1-15.07c.52,0,1.03-.02,1.54-.03.42,4.17,3.93,7.43,8.21,7.43,4.56,0,8.25-3.7,8.25-8.26s-3.69-8.25-8.25-8.25Z" style="fill: #231f20;"/>
    <path d="M86.06,218.52l.73-11.08c-1.85,2.1-4.55,3.41-7.56,3.41-5.54,0-10.05-4.51-10.05-10.06s4.51-10.05,10.05-10.05c.61,0,1.21.05,1.79.16-.69-1.37-1.08-2.91-1.08-4.53,0-5.54,4.51-10.05,10.05-10.05s10.06,4.51,10.06,10.05c0,1.62-.39,3.16-1.08,4.53.58-.1,1.18-.16,1.79-.16,5.54,0,10.05,4.51,10.05,10.05s-4.51,10.06-10.05,10.06c-3.01,0-5.72-1.31-7.57-3.41l.73,11.08h-7.86Z" style="fill: #fff;"/>
    <path d="M100.76,192.54c-4.28,0-7.8,3.26-8.21,7.43-.55,0-1.1-.03-1.65-.03l-.35-5.34c4.3-.28,7.71-3.85,7.71-8.23s-3.69-8.25-8.26-8.25-8.25,3.69-8.25,8.25,3.41,7.95,7.71,8.23l-.35,5.34c-.55,0-1.1.02-1.65.03-.41-4.17-3.93-7.43-8.21-7.43-4.56,0-8.25,3.7-8.25,8.25s3.69,8.26,8.25,8.26c4.28,0,7.8-3.26,8.21-7.43.51.02,1.02.03,1.54.03l-1,15.07h4.02l-1-15.07c.52,0,1.03-.02,1.54-.03.42,4.17,3.93,7.42,8.21,7.42,4.56,0,8.25-3.7,8.25-8.26s-3.69-8.25-8.25-8.25Z" style="fill: #231f20;"/>
  </g>
</svg>