<?xml version="1.0" encoding="UTF-8"?>
<svg id="Layer_1" data-name="Layer 1" xmlns="http://www.w3.org/2000/svg" viewBox="0 0 180 252">
  <defs>
    <style>
      .cls-1 {
        fill: #231f20;
      }
    </style>
  </defs>
  <g>
    <path class="cls-1" d="M100.76,49.71c-4.28,0-7.8,3.26-8.21,7.43-.55,0-1.1-.03-1.65-.03l-.35-5.34c4.3-.28,7.71-3.85,7.71-8.22s-3.69-8.26-8.26-8.26-8.25,3.7-8.25,8.26,3.41,7.94,7.71,8.22l-.35,5.34c-.55,0-1.1.02-1.65.03-.41-4.17-3.93-7.43-8.21-7.43-4.56,0-8.25,3.69-8.25,8.25s3.69,8.25,8.25,8.25c4.28,0,7.8-3.26,8.21-7.43.51.02,1.02.02,1.54.03l-1,15.07h4.02l-1-15.07c.52,0,1.03-.02,1.54-.03.42,4.17,3.93,7.43,8.21,7.43,4.56,0,8.25-3.7,8.25-8.25s-3.69-8.25-8.25-8.25Z"/>
    <path class="cls-1" d="M100.76,121.12c-4.28,0-7.8,3.25-8.21,7.43-.55,0-1.1-.03-1.65-.03l-.35-5.34c4.3-.28,7.71-3.85,7.71-8.23s-3.69-8.26-8.26-8.26-8.25,3.7-8.25,8.26,3.41,7.95,7.71,8.23l-.35,5.34c-.55.01-1.1.02-1.65.03-.41-4.18-3.93-7.43-8.21-7.43-4.56,0-8.25,3.7-8.25,8.25s3.69,8.26,8.25,8.26c4.28,0,7.8-3.26,8.21-7.43.51.02,1.02.03,1.54.03l-1,15.07h4.02l-1-15.07c.52,0,1.03-.02,1.54-.03.42,4.17,3.93,7.43,8.21,7.43,4.56,0,8.25-3.7,8.25-8.26s-3.69-8.25-8.25-8.25Z"/>
    <path class="cls-1" d="M100.76,192.54c-4.28,0-7.8,3.26-8.21,7.43-.55,0-1.1-.03-1.65-.03l-.35-5.34c4.3-.28,7.71-3.85,7.71-8.23s-3.69-8.25-8.26-8.25-8.25,3.69-8.25,8.25,3.41,7.95,7.71,8.23l-.35,5.34c-.55,0-1.1.02-1.65.03-.41-4.17-3.93-7.43-8.21-7.43-4.56,0-8.25,3.7-8.25,8.25s3.69,8.26,8.25,8.26c4.28,0,7.8-3.26,8.21-7.43.51.02,1.02.03,1.54.03l-1,15.07h4.02l-1-15.07c.52,0,1.03-.02,1.54-.03.42,4.17,3.93,7.42,8.21,7.42,4.56,0,8.25-3.7,8.25-8.26s-3.69-8.25-8.25-8.25Z"/>
  </g>
  <g>
    <path class="cls-1" d="M18.79,39.38c-2.29,0-4.34-.79-6.15-2.36-1.64-1.43-2.86-3.29-3.65-5.58l3.65-1.29c.5,1.49,1.25,2.71,2.26,3.66,1.15,1.09,2.45,1.63,3.9,1.63,1.81,0,3.38-.71,4.69-2.14,1.31-1.43,1.97-3.04,1.97-4.85s-.56-3.23-1.68-4.35c-1.12-1.12-2.59-1.68-4.41-1.68-.84,0-1.49.11-1.97.32-.48.21-1.05.63-1.72,1.25l-2.76-2.72,8.9-8.36h-8.58v3.82h-3.82v-7.76h19.55v2.46l-7.62,7.21c2.41.45,4.34,1.58,5.78,3.38,1.44,1.8,2.16,3.94,2.16,6.42,0,2.88-1.04,5.42-3.11,7.62-2.07,2.19-4.54,3.29-7.4,3.29Z"/>
    <path class="cls-1" d="M161.21,212.62c2.29,0,4.34.79,6.15,2.36,1.64,1.43,2.86,3.29,3.65,5.58l-3.65,1.29c-.5-1.49-1.25-2.71-2.26-3.66-1.15-1.09-2.45-1.63-3.9-1.63-1.81,0-3.38.71-4.69,2.14s-1.97,3.04-1.97,4.85.56,3.23,1.68,4.35c1.12,1.12,2.59,1.68,4.41,1.68.84,0,1.49-.11,1.97-.32.48-.21,1.05-.63,1.72-1.25l2.76,2.72-8.9,8.36h8.58v-3.82h3.82v7.76h-19.55v-2.46l7.62-7.21c-2.41-.45-4.34-1.58-5.78-3.38-1.44-1.8-2.16-3.94-2.16-6.42,0-2.88,1.04-5.42,3.11-7.62,2.07-2.19,4.54-3.29,7.4-3.29Z"/>
  </g>
</svg>