<?xml version="1.0" encoding="UTF-8"?>
<svg id="a" data-name="Layer 1" xmlns="http://www.w3.org/2000/svg" width="2.5in" height="3.5in" xmlns:xlink="http://www.w3.org/1999/xlink" viewBox="0 0 180 252">
  <defs>
    <clipPath id="b">
      <rect width="180" height="252" rx="18" ry="18" style="fill: none;"/>
    </clipPath>
  </defs>
  <g style="clip-path: url(#b);">
    <rect x="-.51" width="180" height="252" style="fill: #fff;"/>
    <path d="M42.92,105.98h9.52v-12.32H5.96v-12.18L54.54,4.48h12.88v73.78h14.42v15.4h-14.42v12.32h7.14v15.4h-31.64v-15.4ZM26.03,78.26h26.41v-41.85l-26.41,41.85Z" style="fill: #231f20;"/>
    <path d="M40.28,75.68l.73-11.07c-1.85,2.1-4.55,3.41-7.56,3.41-5.54,0-10.05-4.51-10.05-10.06s4.51-10.05,10.05-10.05c.61,0,1.21.05,1.79.16-.69-1.37-1.08-2.91-1.08-4.53,0-5.54,4.51-10.05,10.05-10.05s10.06,4.51,10.06,10.05c0,1.62-.39,3.16-1.08,4.53.58-.1,1.18-.16,1.79-.16,5.54,0,10.06,4.51,10.06,10.05s-4.51,10.06-10.06,10.06c-3.01,0-5.72-1.31-7.56-3.41l.73,11.08h-7.87Z" style="fill: #fff;"/>
    <path d="M54.98,49.71c-4.28,0-7.8,3.26-8.21,7.43-.55-.01-1.1-.03-1.65-.03l-.35-5.34c4.3-.28,7.71-3.85,7.71-8.23s-3.69-8.25-8.26-8.25-8.25,3.69-8.25,8.25,3.41,7.95,7.71,8.23l-.35,5.34c-.55.01-1.1.02-1.65.03-.41-4.17-3.93-7.43-8.21-7.43-4.56,0-8.25,3.7-8.25,8.25s3.7,8.26,8.25,8.26c4.28,0,7.8-3.26,8.21-7.43.51.02,1.02.02,1.53.03l-1,15.07h4.02l-1-15.07c.52,0,1.03-.02,1.54-.03.42,4.17,3.93,7.43,8.21,7.43,4.56,0,8.26-3.7,8.26-8.26s-3.69-8.25-8.26-8.25Z" style="fill: #231f20;"/>
    <path d="M131.85,75.68l.73-11.08c-1.85,2.1-4.56,3.41-7.56,3.41-5.54,0-10.05-4.51-10.05-10.06s4.51-10.05,10.05-10.05c.61,0,1.21.05,1.79.16-.69-1.37-1.08-2.91-1.08-4.53,0-5.54,4.51-10.05,10.05-10.05s10.06,4.51,10.06,10.05c0,1.62-.39,3.16-1.08,4.53.58-.1,1.18-.16,1.79-.16,5.54,0,10.05,4.51,10.05,10.05s-4.51,10.06-10.05,10.06c-3.01,0-5.72-1.31-7.57-3.41l.73,11.08h-7.87Z" style="fill: #fff;"/>
    <path d="M146.55,49.71c-4.28,0-7.8,3.26-8.21,7.43-.55-.01-1.1-.03-1.65-.03l-.35-5.34c4.3-.28,7.71-3.85,7.71-8.23s-3.69-8.25-8.26-8.25-8.25,3.69-8.25,8.25,3.41,7.95,7.71,8.23l-.36,5.34c-.55.01-1.1.02-1.65.03-.42-4.17-3.93-7.43-8.21-7.43-4.56,0-8.25,3.7-8.25,8.25s3.69,8.26,8.25,8.26c4.28,0,7.8-3.26,8.21-7.43.51.02,1.02.02,1.54.03l-1,15.07h4.02l-1-15.07c.52,0,1.03-.02,1.54-.03.41,4.17,3.93,7.43,8.21,7.43,4.56,0,8.25-3.7,8.25-8.26s-3.7-8.25-8.25-8.25Z" style="fill: #231f20;"/>
    <path d="M40.28,218.52l.73-11.08c-1.85,2.1-4.55,3.41-7.56,3.41-5.54,0-10.05-4.51-10.05-10.05s4.51-10.06,10.05-10.06c.61,0,1.21.05,1.79.16-.69-1.36-1.08-2.9-1.08-4.53,0-5.54,4.51-10.05,10.05-10.05s10.06,4.51,10.06,10.05c0,1.62-.39,3.16-1.08,4.53.58-.1,1.18-.16,1.79-.16,5.54,0,10.06,4.51,10.06,10.06s-4.51,10.05-10.06,10.05c-3.01,0-5.72-1.31-7.56-3.41l.73,11.08h-7.87Z" style="fill: #fff;"/>
    <path d="M54.98,192.54c-4.28,0-7.8,3.26-8.21,7.43-.55,0-1.1-.02-1.65-.03l-.35-5.34c4.3-.28,7.71-3.85,7.71-8.23s-3.69-8.25-8.26-8.25-8.25,3.7-8.25,8.25,3.41,7.95,7.71,8.23l-.35,5.34c-.55,0-1.1.02-1.65.03-.41-4.17-3.93-7.43-8.21-7.43-4.56,0-8.25,3.7-8.25,8.26s3.7,8.25,8.25,8.25c4.28,0,7.8-3.26,8.21-7.43.51.02,1.02.02,1.53.03l-1,15.07h4.02l-1-15.07c.52-.01,1.03-.02,1.54-.03.42,4.17,3.93,7.43,8.21,7.43,4.56,0,8.26-3.7,8.26-8.25s-3.69-8.26-8.26-8.26Z" style="fill: #231f20;"/>
    <path d="M131.85,218.52l.73-11.08c-1.85,2.1-4.56,3.41-7.56,3.41-5.54,0-10.05-4.51-10.05-10.05s4.51-10.06,10.05-10.06c.61,0,1.21.05,1.79.16-.69-1.36-1.08-2.9-1.08-4.53,0-5.54,4.51-10.05,10.05-10.05s10.06,4.51,10.06,10.05c0,1.62-.39,3.16-1.08,4.53.58-.1,1.18-.16,1.79-.16,5.54,0,10.05,4.51,10.05,10.06s-4.51,10.05-10.05,10.05c-3.01,0-5.72-1.31-7.57-3.41l.73,11.08h-7.87Z" style="fill: #fff;"/>
    <path d="M146.55,192.54c-4.28,0-7.8,3.26-8.21,7.43-.55,0-1.1-.02-1.65-.03l-.35-5.34c4.3-.28,7.71-3.85,7.71-8.23s-3.69-8.25-8.26-8.25-8.25,3.7-8.25,8.25,3.41,7.95,7.71,8.23l-.36,5.34c-.55,0-1.1.02-1.65.03-.42-4.17-3.93-7.43-8.21-7.43-4.56,0-8.25,3.7-8.25,8.26s3.69,8.25,8.25,8.25c4.28,0,7.8-3.26,8.21-7.43.51.02,1.02.02,1.54.03l-1,15.07h4.02l-1-15.07c.52-.01,1.03-.02,1.54-.03.41,4.17,3.93,7.43,8.21,7.43,4.56,0,8.25-3.7,8.25-8.25s-3.7-8.26-8.25-8.26Z" style="fill: #231f20;"/>
  </g>
</svg>