<?xml version="1.0" encoding="UTF-8"?>
<svg id="a" data-name="Layer 1" xmlns="http://www.w3.org/2000/svg" width="2.5in" height="3.5in" xmlns:xlink="http://www.w3.org/1999/xlink" viewBox="0 0 180 252">
  <defs>
    <clipPath id="b">
      <rect width="180" height="252" rx="18" ry="18" style="fill: none;"/>
    </clipPath>
  </defs>
  <g style="clip-path: url(#b);">
    <rect x="-.51" width="180" height="252" style="fill: #fff;"/>
    <path d="M43.48,124.04c-8.4,0-16.1-2.89-23.1-8.68-6.16-5.32-10.97-12.18-14.42-20.58l14.03-5.88c2.24,5.47,5.24,9.96,8.98,13.48,4.4,4.17,9.26,6.26,14.59,6.26,7.48,0,13.7-3.48,18.66-10.45,4.49-6.23,6.74-13.15,6.74-20.77s-2.25-14.59-6.74-20.63c-4.87-6.6-11.09-9.89-18.67-9.89-6.46,0-12.87,3.45-19.23,10.36l-10.95-6.44V4.48h56.84v15.4H28.36v14.98c4.86-2.24,9.87-3.36,15.02-3.36,11.79,0,21.61,4.81,29.47,14.42,7.39,8.96,11.09,19.46,11.09,31.5s-3.64,22.63-10.92,31.78c-7.93,9.89-17.78,14.84-29.54,14.84Z" style="fill: #231f20;"/>
    <path d="M40.28,75.68l.73-11.08c-1.85,2.1-4.55,3.41-7.56,3.41-5.54,0-10.05-4.51-10.05-10.05s4.51-10.06,10.05-10.06c.61,0,1.21.05,1.79.16-.69-1.37-1.08-2.91-1.08-4.53,0-5.54,4.51-10.05,10.05-10.05s10.06,4.51,10.06,10.05c0,1.62-.39,3.16-1.08,4.53.58-.1,1.18-.16,1.79-.16,5.54,0,10.06,4.51,10.06,10.06s-4.51,10.05-10.06,10.05c-3.01,0-5.72-1.31-7.56-3.41l.73,11.08h-7.87Z" style="fill: #fff;"/>
    <path d="M54.98,49.71c-4.28,0-7.8,3.26-8.21,7.43-.55,0-1.1-.03-1.65-.03l-.35-5.34c4.3-.28,7.71-3.85,7.71-8.23s-3.69-8.25-8.26-8.25-8.25,3.7-8.25,8.25,3.41,7.95,7.71,8.23l-.35,5.34c-.55,0-1.1.02-1.65.03-.41-4.17-3.93-7.43-8.21-7.43-4.56,0-8.25,3.7-8.25,8.26s3.7,8.25,8.25,8.25c4.28,0,7.8-3.26,8.21-7.43.51.02,1.02.02,1.53.03l-1,15.07h4.02l-1-15.07c.52,0,1.03-.02,1.54-.03.42,4.17,3.93,7.42,8.21,7.42,4.56,0,8.26-3.7,8.26-8.25s-3.69-8.26-8.26-8.26Z" style="fill: #231f20;"/>
    <path d="M131.85,75.68l.73-11.08c-1.85,2.1-4.56,3.41-7.56,3.41-5.54,0-10.05-4.51-10.05-10.05s4.51-10.06,10.05-10.06c.61,0,1.21.05,1.79.16-.69-1.36-1.08-2.91-1.08-4.53,0-5.54,4.51-10.05,10.05-10.05s10.06,4.51,10.06,10.05c0,1.62-.39,3.16-1.08,4.53.58-.1,1.18-.16,1.79-.16,5.54,0,10.05,4.51,10.05,10.06s-4.51,10.05-10.05,10.05c-3.01,0-5.72-1.31-7.57-3.41l.73,11.08h-7.87Z" style="fill: #fff;"/>
    <path d="M146.55,49.71c-4.28,0-7.8,3.26-8.21,7.43-.55,0-1.1-.03-1.65-.03l-.35-5.34c4.3-.28,7.71-3.85,7.71-8.23s-3.69-8.25-8.26-8.25-8.25,3.7-8.25,8.25,3.41,7.95,7.71,8.23l-.36,5.34c-.55,0-1.1.02-1.65.03-.42-4.17-3.93-7.43-8.21-7.43-4.56,0-8.25,3.7-8.25,8.26s3.69,8.25,8.25,8.25c4.28,0,7.8-3.26,8.21-7.43.51.02,1.02.02,1.54.03l-1,15.07h4.02l-1-15.07c.52,0,1.03-.02,1.54-.03.41,4.17,3.93,7.42,8.21,7.42,4.56,0,8.25-3.7,8.25-8.25s-3.7-8.26-8.25-8.26Z" style="fill: #231f20;"/>
    <path d="M40.28,218.52l.73-11.08c-1.85,2.1-4.55,3.41-7.56,3.41-5.54,0-10.05-4.51-10.05-10.05s4.51-10.05,10.05-10.05c.61,0,1.21.05,1.79.16-.69-1.37-1.08-2.91-1.08-4.53,0-5.54,4.51-10.05,10.05-10.05s10.06,4.51,10.06,10.05c0,1.62-.39,3.16-1.08,4.53.58-.1,1.18-.16,1.79-.16,5.54,0,10.06,4.51,10.06,10.05s-4.51,10.05-10.06,10.05c-3.01,0-5.72-1.31-7.56-3.41l.73,11.08h-7.87Z" style="fill: #fff;"/>
    <path d="M54.98,192.54c-4.28,0-7.8,3.26-8.21,7.43-.55-.01-1.1-.03-1.65-.03l-.35-5.34c4.3-.28,7.71-3.85,7.71-8.23s-3.69-8.25-8.26-8.25-8.25,3.7-8.25,8.25,3.41,7.95,7.71,8.23l-.35,5.34c-.55,0-1.1.02-1.65.03-.41-4.17-3.93-7.43-8.21-7.43-4.56,0-8.25,3.7-8.25,8.25s3.7,8.25,8.25,8.25c4.28,0,7.8-3.26,8.21-7.43.51.02,1.02.03,1.53.03l-1,15.08h4.02l-1-15.07c.52,0,1.03-.02,1.54-.03.42,4.17,3.93,7.43,8.21,7.43,4.56,0,8.26-3.7,8.26-8.25s-3.69-8.25-8.26-8.25Z" style="fill: #231f20;"/>
    <path d="M131.85,218.52l.73-11.08c-1.85,2.1-4.56,3.41-7.56,3.41-5.54,0-10.05-4.51-10.05-10.05s4.51-10.05,10.05-10.05c.61,0,1.21.05,1.79.16-.69-1.36-1.08-2.91-1.08-4.53,0-5.54,4.51-10.05,10.05-10.05s10.06,4.51,10.06,10.05c0,1.62-.39,3.16-1.08,4.53.58-.1,1.18-.16,1.79-.16,5.54,0,10.05,4.51,10.05,10.05s-4.51,10.05-10.05,10.05c-3.01,0-5.72-1.31-7.57-3.41l.73,11.08h-7.87Z" style="fill: #fff;"/>
    <path d="M146.55,192.54c-4.28,0-7.8,3.26-8.21,7.43-.55-.01-1.1-.03-1.65-.03l-.35-5.34c4.3-.28,7.71-3.85,7.71-8.23s-3.69-8.25-8.26-8.25-8.25,3.7-8.25,8.25,3.41,7.95,7.71,8.23l-.36,5.34c-.55,0-1.1.02-1.65.03-.42-4.17-3.93-7.43-8.21-7.43-4.56,0-8.25,3.7-8.25,8.25s3.69,8.25,8.25,8.25c4.28,0,7.8-3.26,8.21-7.43.51.02,1.02.03,1.54.03l-1,15.08h4.02l-1-15.07c.52,0,1.03-.02,1.54-.03.41,4.17,3.93,7.43,8.21,7.43,4.56,0,8.25-3.7,8.25-8.25s-3.7-8.25-8.25-8.25Z" style="fill: #231f20;"/>
    <path d="M86.07,147.1l.73-11.08c-1.85,2.1-4.55,3.41-7.56,3.41-5.54,0-10.05-4.51-10.05-10.05s4.51-10.05,10.05-10.05c.61,0,1.21.05,1.79.16-.69-1.37-1.08-2.91-1.08-4.53,0-5.54,4.51-10.05,10.05-10.05s10.06,4.51,10.06,10.05c0,1.62-.39,3.16-1.08,4.53.58-.1,1.18-.16,1.79-.16,5.54,0,10.06,4.51,10.06,10.05s-4.51,10.05-10.06,10.05c-3.01,0-5.72-1.31-7.57-3.41l.73,11.08h-7.86Z" style="fill: #fff;"/>
    <path d="M100.76,121.12c-4.28,0-7.8,3.26-8.21,7.43-.55,0-1.1-.02-1.65-.03l-.35-5.34c4.3-.28,7.71-3.85,7.71-8.23s-3.7-8.25-8.26-8.25-8.25,3.7-8.25,8.25,3.41,7.95,7.71,8.23l-.35,5.34c-.55.01-1.1.02-1.65.04-.41-4.18-3.93-7.43-8.21-7.43-4.56,0-8.25,3.7-8.25,8.25s3.69,8.25,8.25,8.25c4.28,0,7.8-3.26,8.21-7.43.51.01,1.02.02,1.54.03l-1,15.07h4.02l-1-15.07c.52-.01,1.03-.02,1.54-.03.41,4.17,3.93,7.43,8.21,7.43,4.56,0,8.26-3.7,8.26-8.25s-3.7-8.25-8.26-8.25Z" style="fill: #231f20;"/>
  </g>
</svg>