<?xml version="1.0" encoding="UTF-8"?>
<svg id="Layer_1" data-name="Layer 1" xmlns="http://www.w3.org/2000/svg" viewBox="0 0 180 252">
  <defs>
    <style>
      .cls-1 {
        fill: #231f20;
      }
    </style>
  </defs>
  <g>
    <g>
      <path class="cls-1" d="M54.98,49.71c-4.28,0-7.8,3.26-8.21,7.43-.55,0-1.1-.03-1.65-.03l-.35-5.34c4.3-.28,7.71-3.85,7.71-8.23s-3.69-8.25-8.26-8.25-8.25,3.7-8.25,8.25,3.41,7.95,7.71,8.23l-.35,5.34c-.55,0-1.1.02-1.65.03-.41-4.17-3.93-7.43-8.21-7.43-4.56,0-8.25,3.7-8.25,8.26s3.7,8.25,8.25,8.25c4.28,0,7.8-3.26,8.21-7.43.51.02,1.02.02,1.53.03l-1,15.07h4.02l-1-15.07c.52,0,1.03-.02,1.54-.03.42,4.17,3.93,7.42,8.21,7.42,4.56,0,8.26-3.7,8.26-8.25s-3.69-8.26-8.26-8.26Z"/>
      <path class="cls-1" d="M146.55,49.71c-4.28,0-7.8,3.26-8.21,7.43-.55,0-1.1-.03-1.65-.03l-.35-5.34c4.3-.28,7.71-3.85,7.71-8.23s-3.69-8.25-8.26-8.25-8.25,3.7-8.25,8.25,3.41,7.95,7.71,8.23l-.36,5.34c-.55,0-1.1.02-1.65.03-.42-4.17-3.93-7.43-8.21-7.43-4.56,0-8.25,3.7-8.25,8.26s3.69,8.25,8.25,8.25c4.28,0,7.8-3.26,8.21-7.43.51.02,1.02.02,1.54.03l-1,15.07h4.02l-1-15.07c.52,0,1.03-.02,1.54-.03.41,4.17,3.93,7.42,8.21,7.42,4.56,0,8.25-3.7,8.25-8.25s-3.7-8.26-8.25-8.26Z"/>
    </g>
    <g>
      <path class="cls-1" d="M54.98,192.54c-4.28,0-7.8,3.26-8.21,7.43-.55-.01-1.1-.03-1.65-.03l-.35-5.34c4.3-.28,7.71-3.85,7.71-8.23s-3.69-8.25-8.26-8.25-8.25,3.7-8.25,8.25,3.41,7.95,7.71,8.23l-.35,5.34c-.55,0-1.1.02-1.65.03-.41-4.17-3.93-7.43-8.21-7.43-4.56,0-8.25,3.7-8.25,8.25s3.7,8.25,8.25,8.25c4.28,0,7.8-3.26,8.21-7.43.51.02,1.02.03,1.53.03l-1,15.08h4.02l-1-15.07c.52,0,1.03-.02,1.54-.03.42,4.17,3.93,7.43,8.21,7.43,4.56,0,8.26-3.7,8.26-8.25s-3.69-8.25-8.26-8.25Z"/>
      <path class="cls-1" d="M146.55,192.54c-4.28,0-7.8,3.26-8.21,7.43-.55-.01-1.1-.03-1.65-.03l-.35-5.34c4.3-.28,7.71-3.85,7.71-8.23s-3.69-8.25-8.26-8.25-8.25,3.7-8.25,8.25,3.41,7.95,7.71,8.23l-.36,5.34c-.55,0-1.1.02-1.65.03-.42-4.17-3.93-7.43-8.21-7.43-4.56,0-8.25,3.7-8.25,8.25s3.69,8.25,8.25,8.25c4.28,0,7.8-3.26,8.21-7.43.51.02,1.02.03,1.54.03l-1,15.08h4.02l-1-15.07c.52,0,1.03-.02,1.54-.03.41,4.17,3.93,7.43,8.21,7.43,4.56,0,8.25-3.7,8.25-8.25s-3.7-8.25-8.25-8.25Z"/>
    </g>
    <path class="cls-1" d="M100.76,121.12c-4.28,0-7.8,3.26-8.21,7.43-.55,0-1.1-.02-1.65-.03l-.35-5.34c4.3-.28,7.71-3.85,7.71-8.23s-3.7-8.25-8.26-8.25-8.25,3.7-8.25,8.25,3.41,7.95,7.71,8.23l-.35,5.34c-.55.01-1.1.02-1.65.04-.41-4.18-3.93-7.43-8.21-7.43-4.56,0-8.25,3.7-8.25,8.25s3.69,8.25,8.25,8.25c4.28,0,7.8-3.26,8.21-7.43.51.01,1.02.02,1.54.03l-1,15.07h4.02l-1-15.07c.52-.01,1.03-.02,1.54-.03.41,4.17,3.93,7.43,8.21,7.43,4.56,0,8.26-3.7,8.26-8.25s-3.7-8.25-8.26-8.25Z"/>
  </g>
  <g>
    <path class="cls-1" d="M161.42,212.48c2.14,0,4.11.74,5.9,2.22,1.57,1.36,2.8,3.11,3.68,5.25l-3.58,1.5c-.57-1.4-1.34-2.54-2.29-3.44-1.12-1.07-2.36-1.6-3.72-1.6-1.91,0-3.5.89-4.76,2.67-1.15,1.59-1.72,3.36-1.72,5.3s.57,3.72,1.72,5.27c1.24,1.68,2.83,2.53,4.76,2.53,1.65,0,3.28-.88,4.91-2.64l2.79,1.64v11.83h-14.51v-3.93h10.69v-3.82c-1.24.57-2.52.86-3.83.86-3.01,0-5.52-1.23-7.52-3.68-1.89-2.29-2.83-4.97-2.83-8.04s.93-5.78,2.79-8.11c2.03-2.53,4.54-3.79,7.54-3.79Z"/>
    <path class="cls-1" d="M18.58,39.52c-2.14,0-4.11-.74-5.9-2.22-1.57-1.36-2.8-3.11-3.68-5.25l3.58-1.5c.57,1.4,1.34,2.54,2.29,3.44,1.12,1.07,2.36,1.6,3.72,1.6,1.91,0,3.5-.89,4.76-2.67,1.15-1.59,1.72-3.36,1.72-5.3,0-1.97-.57-3.72-1.72-5.27-1.24-1.68-2.83-2.53-4.76-2.53-1.65,0-3.28.88-4.91,2.64l-2.79-1.64v-11.83h14.51v3.93h-10.69s0,3.82,0,3.82c1.24-.57,2.52-.86,3.83-.86,3.01,0,5.52,1.23,7.52,3.68,1.89,2.29,2.83,4.97,2.83,8.04,0,3.07-.93,5.78-2.79,8.11-2.03,2.53-4.54,3.79-7.54,3.79Z"/>
  </g>
</svg>