<?xml version="1.0" encoding="UTF-8"?>
<svg id="Layer_1" data-name="Layer 1" xmlns="http://www.w3.org/2000/svg" viewBox="0 0 180 252">
  <defs>
    <style>
      .cls-1 {
        fill: #231f20;
      }
    </style>
  </defs>
  <g>
    <g>
      <path class="cls-1" d="M54.98,49.71c-4.28,0-7.8,3.26-8.21,7.43-.55-.01-1.1-.02-1.65-.03l-.35-5.34c4.3-.28,7.71-3.85,7.71-8.23s-3.69-8.25-8.26-8.25-8.25,3.69-8.25,8.25,3.41,7.95,7.71,8.23l-.35,5.34c-.55,0-1.1.02-1.65.04-.41-4.18-3.93-7.43-8.21-7.43-4.56,0-8.25,3.69-8.25,8.25s3.7,8.26,8.25,8.26c4.28,0,7.8-3.26,8.21-7.43.51.02,1.02.03,1.53.03l-1,15.07h4.02l-1-15.07c.52,0,1.03-.02,1.54-.03.42,4.17,3.93,7.43,8.21,7.43,4.56,0,8.26-3.7,8.26-8.26s-3.69-8.25-8.26-8.25Z"/>
      <path class="cls-1" d="M146.55,49.71c-4.28,0-7.8,3.26-8.21,7.43-.55-.01-1.1-.02-1.65-.03l-.35-5.34c4.3-.28,7.71-3.85,7.71-8.23s-3.69-8.25-8.26-8.25-8.25,3.69-8.25,8.25,3.41,7.95,7.71,8.23l-.36,5.34c-.55,0-1.1.02-1.65.04-.42-4.18-3.93-7.43-8.21-7.43-4.56,0-8.25,3.69-8.25,8.25s3.69,8.26,8.25,8.26c4.28,0,7.8-3.26,8.21-7.43.51.02,1.02.03,1.54.03l-1,15.07h4.02l-1-15.07c.52,0,1.03-.02,1.54-.03.41,4.17,3.93,7.43,8.21,7.43,4.56,0,8.25-3.7,8.25-8.26s-3.7-8.25-8.25-8.25Z"/>
    </g>
    <g>
      <path class="cls-1" d="M54.98,121.12c-4.28,0-7.8,3.26-8.21,7.42-.55,0-1.1-.03-1.65-.03l-.35-5.34c4.3-.28,7.71-3.85,7.71-8.23s-3.69-8.26-8.26-8.26-8.25,3.7-8.25,8.26,3.41,7.94,7.71,8.23l-.35,5.34c-.55,0-1.1.02-1.65.03-.41-4.17-3.93-7.43-8.21-7.43-4.56,0-8.25,3.69-8.25,8.25s3.7,8.25,8.25,8.25c4.28,0,7.8-3.26,8.21-7.43.51.02,1.02.03,1.53.03l-1,15.08h4.02l-1-15.07c.52,0,1.03-.02,1.54-.03.42,4.17,3.93,7.43,8.21,7.43,4.56,0,8.26-3.69,8.26-8.25s-3.69-8.25-8.26-8.25Z"/>
      <path class="cls-1" d="M146.55,121.12c-4.28,0-7.8,3.26-8.21,7.42-.55,0-1.1-.03-1.65-.03l-.35-5.34c4.3-.28,7.71-3.85,7.71-8.23s-3.69-8.26-8.26-8.26-8.25,3.7-8.25,8.26,3.41,7.94,7.71,8.23l-.36,5.34c-.55,0-1.1.02-1.65.03-.42-4.17-3.93-7.43-8.21-7.43-4.56,0-8.25,3.69-8.25,8.25s3.69,8.25,8.25,8.25c4.28,0,7.8-3.26,8.21-7.43.51.02,1.02.03,1.54.03l-1,15.08h4.02l-1-15.07c.52,0,1.03-.02,1.54-.03.41,4.17,3.93,7.43,8.21,7.43,4.56,0,8.25-3.69,8.25-8.25s-3.7-8.25-8.25-8.25Z"/>
    </g>
    <g>
      <path class="cls-1" d="M54.98,192.54c-4.28,0-7.8,3.25-8.21,7.42-.55,0-1.1-.02-1.65-.03l-.35-5.34c4.3-.28,7.71-3.85,7.71-8.22s-3.69-8.26-8.26-8.26-8.25,3.7-8.25,8.26,3.41,7.94,7.71,8.22l-.35,5.34c-.55,0-1.1.02-1.65.03-.41-4.17-3.93-7.43-8.21-7.43-4.56,0-8.25,3.69-8.25,8.25s3.7,8.25,8.25,8.25c4.28,0,7.8-3.26,8.21-7.43.51.02,1.02.03,1.53.03l-1,15.07h4.02l-1-15.07c.52,0,1.03-.02,1.54-.03.42,4.17,3.93,7.42,8.21,7.42,4.56,0,8.26-3.69,8.26-8.25s-3.69-8.25-8.26-8.25Z"/>
      <path class="cls-1" d="M146.55,192.54c-4.28,0-7.8,3.25-8.21,7.42-.55,0-1.1-.02-1.65-.03l-.35-5.34c4.3-.28,7.71-3.85,7.71-8.22s-3.69-8.26-8.26-8.26-8.25,3.7-8.25,8.26,3.41,7.94,7.71,8.22l-.36,5.34c-.55,0-1.1.02-1.65.03-.42-4.17-3.93-7.43-8.21-7.43-4.56,0-8.25,3.69-8.25,8.25s3.69,8.25,8.25,8.25c4.28,0,7.8-3.26,8.21-7.43.51.02,1.02.03,1.54.03l-1,15.07h4.02l-1-15.07c.52,0,1.03-.02,1.54-.03.41,4.17,3.93,7.42,8.21,7.42,4.56,0,8.25-3.69,8.25-8.25s-3.7-8.25-8.25-8.25Z"/>
    </g>
  </g>
  <g>
    <path class="cls-1" d="M9.11,26.9h-.04c-.05.1-.07-.75-.07-2.54,0-4.19.57-7.56,1.72-10.11,1.62-3.5,4.28-5.25,7.97-5.25,1.81,0,3.49.49,5.04,1.47,1.48.95,2.68,2.24,3.61,3.86l-3.32,2c-1.29-2.26-3.06-3.4-5.32-3.4-2.95,0-4.79,2.2-5.5,6.61,1.64-1.45,3.47-2.18,5.47-2.18,2.95,0,5.36,1.23,7.22,3.68,1.67,2.22,2.5,4.86,2.5,7.93,0,2.86-.89,5.38-2.68,7.58-1.91,2.31-4.25,3.47-7.04,3.47-1.38,0-2.82-.45-4.32-1.36-1.6-.95-2.87-2.7-3.82-5.25-.74-1.98-1.2-4.15-1.39-6.5ZM18.65,36.09c1.72,0,3.15-.78,4.29-2.35,1.07-1.43,1.61-3.02,1.61-4.78,0-1.97-.49-3.68-1.47-5.13-1.1-1.69-2.57-2.53-4.43-2.53-1.36,0-2.59.65-3.68,1.96-.91,1.09-1.57,2.38-2,3.85.21,2.19.69,4.06,1.43,5.63,1.05,2.23,2.47,3.35,4.25,3.35Z"/>
    <path class="cls-1" d="M18.58,39.52c-2.14,0-4.11-.74-5.9-2.22-1.57-1.36-2.8-3.11-3.68-5.25l3.58-1.5c.57,1.4,1.34,2.54,2.29,3.44,1.12,1.07,2.36,1.6,3.72,1.6,1.91,0,3.5-.89,4.76-2.67,1.15-1.59,1.72-3.36,1.72-5.3s-.57-3.72-1.72-5.27c-1.24-1.68-2.83-2.53-4.76-2.53-1.65,0-3.28.88-4.91,2.64l-2.79-1.64v-11.83h14.51v3.93h-10.69v3.82c1.24-.57,2.52-.86,3.83-.86,3.01,0,5.52,1.23,7.52,3.68,1.89,2.29,2.83,4.97,2.83,8.04s-.93,5.78-2.79,8.11c-2.03,2.53-4.54,3.79-7.54,3.79Z"/>
    <path class="cls-1" d="M170.89,225.1h.04c.05-.1.07.75.07,2.54,0,4.19-.57,7.56-1.72,10.11-1.62,3.5-4.28,5.25-7.97,5.25-1.81,0-3.49-.49-5.04-1.47-1.48-.95-2.68-2.24-3.61-3.86l3.32-2c1.29,2.26,3.06,3.4,5.32,3.4,2.95,0,4.79-2.2,5.5-6.61-1.64,1.45-3.47,2.18-5.47,2.18-2.95,0-5.36-1.23-7.22-3.68-1.67-2.22-2.5-4.86-2.5-7.93,0-2.86.89-5.38,2.68-7.58,1.91-2.31,4.25-3.47,7.04-3.47,1.38,0,2.82.45,4.32,1.36,1.6.95,2.87,2.7,3.82,5.25.74,1.98,1.2,4.15,1.39,6.5ZM161.35,215.91c-1.72,0-3.15.78-4.29,2.35-1.07,1.43-1.61,3.02-1.61,4.78,0,1.97.49,3.68,1.47,5.13,1.1,1.69,2.57,2.53,4.43,2.53,1.36,0,2.59-.65,3.68-1.96.91-1.09,1.57-2.38,2-3.85-.21-2.19-.69-4.06-1.43-5.63-1.05-2.23-2.47-3.35-4.25-3.35Z"/>
  </g>
</svg>