<?xml version="1.0" encoding="UTF-8"?>
<svg id="Layer_1" data-name="Layer 1" xmlns="http://www.w3.org/2000/svg" viewBox="0 0 180 252">
  <defs>
    <style>
      .cls-1 {
        fill: #231f20;
      }
    </style>
  </defs>
  <g>
    <g>
      <path class="cls-1" d="M100.76,49.71c-4.28,0-7.8,3.25-8.21,7.43-.55,0-1.1-.03-1.65-.03l-.35-5.34c4.3-.28,7.71-3.85,7.71-8.23s-3.7-8.26-8.26-8.26-8.25,3.7-8.25,8.26,3.41,7.95,7.71,8.23l-.35,5.34c-.55,0-1.1.02-1.65.03-.41-4.18-3.93-7.43-8.21-7.43-4.56,0-8.25,3.69-8.25,8.25s3.69,8.26,8.25,8.26c4.28,0,7.8-3.26,8.21-7.43.51.02,1.02.03,1.54.03l-1,15.07h4.02l-1-15.07c.52,0,1.03-.02,1.54-.03.41,4.17,3.93,7.43,8.21,7.43,4.56,0,8.26-3.7,8.26-8.26s-3.7-8.25-8.26-8.25Z"/>
      <path class="cls-1" d="M100.76,121.12c-4.28,0-7.8,3.26-8.21,7.43-.55,0-1.1-.03-1.65-.03l-.35-5.34c4.3-.28,7.71-3.85,7.71-8.23s-3.7-8.25-8.26-8.25-8.25,3.7-8.25,8.25,3.41,7.95,7.71,8.23l-.35,5.34c-.55,0-1.1.02-1.65.03-.41-4.17-3.93-7.43-8.21-7.43-4.56,0-8.25,3.7-8.25,8.25s3.69,8.26,8.25,8.26c4.28,0,7.8-3.26,8.21-7.43.51.02,1.02.02,1.54.03l-1,15.07h4.02l-1-15.07c.52,0,1.03-.02,1.54-.03.41,4.17,3.93,7.43,8.21,7.43,4.56,0,8.26-3.7,8.26-8.26s-3.7-8.25-8.26-8.25Z"/>
      <path class="cls-1" d="M100.76,192.54c-4.28,0-7.8,3.25-8.21,7.42-.55,0-1.1-.02-1.65-.03l-.35-5.34c4.3-.28,7.71-3.85,7.71-8.22s-3.7-8.26-8.26-8.26-8.25,3.7-8.25,8.26,3.41,7.94,7.71,8.22l-.35,5.34c-.55,0-1.1.02-1.65.03-.41-4.17-3.93-7.43-8.21-7.43-4.56,0-8.25,3.69-8.25,8.25s3.69,8.26,8.25,8.26c4.28,0,7.8-3.26,8.21-7.43.51.01,1.02.02,1.54.03l-1,15.07h4.02l-1-15.07c.52-.01,1.03-.02,1.54-.03.41,4.17,3.93,7.43,8.21,7.43,4.56,0,8.26-3.7,8.26-8.26s-3.7-8.25-8.26-8.25Z"/>
    </g>
    <g>
      <path class="cls-1" d="M54.98,73.51c-4.28,0-7.8,3.26-8.21,7.43-.55,0-1.1-.02-1.65-.03l-.35-5.34c4.3-.28,7.71-3.85,7.71-8.23s-3.69-8.25-8.26-8.25-8.25,3.7-8.25,8.25,3.41,7.95,7.71,8.23l-.35,5.34c-.55,0-1.1.02-1.65.03-.41-4.18-3.93-7.43-8.21-7.43-4.56,0-8.25,3.69-8.25,8.25s3.7,8.26,8.25,8.26c4.28,0,7.8-3.26,8.21-7.43.51.02,1.02.02,1.53.03l-1,15.07h4.02l-1-15.07c.52,0,1.03-.02,1.54-.03.42,4.17,3.93,7.43,8.21,7.43,4.56,0,8.26-3.7,8.26-8.26s-3.69-8.25-8.26-8.25Z"/>
      <path class="cls-1" d="M54.98,168.74c-4.28,0-7.8,3.26-8.21,7.43-.55,0-1.1-.03-1.65-.03l-.35-5.34c4.3-.28,7.71-3.85,7.71-8.23s-3.69-8.25-8.26-8.25-8.25,3.7-8.25,8.25,3.41,7.95,7.71,8.23l-.35,5.34c-.55.01-1.1.02-1.65.03-.41-4.17-3.93-7.43-8.21-7.43-4.56,0-8.25,3.7-8.25,8.25s3.7,8.26,8.25,8.26c4.28,0,7.8-3.26,8.21-7.43.51.02,1.02.02,1.53.03l-1,15.07h4.02l-1-15.07c.52,0,1.03-.02,1.54-.03.42,4.17,3.93,7.43,8.21,7.43,4.56,0,8.26-3.7,8.26-8.26s-3.69-8.25-8.26-8.25Z"/>
    </g>
    <g>
      <path class="cls-1" d="M146.55,73.51c-4.28,0-7.8,3.26-8.21,7.43-.55,0-1.1-.03-1.65-.03l-.35-5.34c4.3-.28,7.71-3.85,7.71-8.22s-3.69-8.26-8.26-8.26-8.25,3.7-8.25,8.26,3.41,7.94,7.71,8.22l-.36,5.34c-.55,0-1.1.02-1.65.03-.42-4.17-3.93-7.43-8.21-7.43-4.56,0-8.25,3.7-8.25,8.26s3.69,8.25,8.25,8.25c4.28,0,7.8-3.26,8.21-7.43.51.01,1.02.02,1.54.03l-1,15.07h4.02l-1-15.07c.52,0,1.03-.02,1.54-.03.41,4.17,3.93,7.43,8.21,7.43,4.56,0,8.25-3.69,8.25-8.25s-3.7-8.26-8.25-8.26Z"/>
      <path class="cls-1" d="M146.55,168.74c-4.28,0-7.8,3.26-8.21,7.43-.55-.01-1.1-.03-1.65-.03l-.35-5.34c4.3-.28,7.71-3.85,7.71-8.23s-3.69-8.25-8.26-8.25-8.25,3.69-8.25,8.25,3.41,7.95,7.71,8.23l-.36,5.34c-.55,0-1.1.02-1.65.03-.42-4.17-3.93-7.43-8.21-7.43-4.56,0-8.25,3.69-8.25,8.25s3.69,8.26,8.25,8.26c4.28,0,7.8-3.26,8.21-7.44.51.02,1.02.03,1.54.03l-1,15.07h4.02l-1-15.07c.52,0,1.03-.02,1.54-.03.41,4.17,3.93,7.43,8.21,7.43,4.56,0,8.25-3.7,8.25-8.26s-3.7-8.25-8.25-8.25Z"/>
    </g>
  </g>
  <g>
    <path class="cls-1" d="M9,16.97v-7.97h17.48l1.97,3.43c-4.88,7-8.28,15.77-10.19,26.3h-4.18c1.69-9.65,4.66-18.15,8.9-25.52h-9.86v3.75h-4.11Z"/>
    <path class="cls-1" d="M171,235.03v7.97h-17.48l-1.97-3.43c4.88-7,8.28-15.77,10.19-26.3h4.18c-1.69,9.65-4.66,18.15-8.9,25.52h9.86v-3.75h4.11Z"/>
  </g>
</svg>