<?xml version="1.0" encoding="UTF-8"?>
<svg id="Layer_1" data-name="Layer 1" xmlns="http://www.w3.org/2000/svg" viewBox="0 0 180 252">
  <defs>
    <style>
      .cls-1 {
        fill: #231f20;
      }
    </style>
  </defs>
  <g>
    <g>
      <path class="cls-1" d="M54.98,49.71c-4.28,0-7.8,3.26-8.21,7.43-.55,0-1.1-.03-1.65-.03l-.35-5.34c4.3-.28,7.71-3.85,7.71-8.23s-3.69-8.25-8.26-8.25-8.25,3.7-8.25,8.25,3.41,7.95,7.71,8.23l-.35,5.34c-.55,0-1.1.02-1.65.03-.42-4.17-3.93-7.43-8.22-7.43-4.56,0-8.25,3.7-8.25,8.26s3.69,8.25,8.25,8.25c4.28,0,7.8-3.26,8.22-7.43.51.02,1.02.02,1.53.03l-1,15.07h4.02l-1-15.07c.52,0,1.03-.02,1.54-.03.42,4.17,3.93,7.43,8.21,7.43,4.56,0,8.26-3.7,8.26-8.25s-3.69-8.26-8.26-8.26Z"/>
      <path class="cls-1" d="M146.55,49.71c-4.28,0-7.8,3.26-8.21,7.43-.55,0-1.1-.03-1.65-.03l-.35-5.34c4.3-.28,7.71-3.85,7.71-8.23s-3.69-8.25-8.26-8.25-8.25,3.7-8.25,8.25,3.41,7.95,7.71,8.23l-.36,5.34c-.55,0-1.1.02-1.65.03-.42-4.17-3.93-7.43-8.21-7.43-4.56,0-8.25,3.7-8.25,8.26s3.69,8.25,8.25,8.25c4.28,0,7.8-3.26,8.21-7.43.51.02,1.02.02,1.54.03l-1,15.07h4.02l-1-15.07c.52,0,1.03-.02,1.54-.03.42,4.17,3.93,7.43,8.21,7.43,4.56,0,8.25-3.7,8.25-8.25s-3.69-8.26-8.25-8.26Z"/>
    </g>
    <g>
      <path class="cls-1" d="M54.98,121.12c-4.28,0-7.8,3.25-8.21,7.43-.55,0-1.1-.03-1.65-.03l-.35-5.34c4.3-.28,7.71-3.85,7.71-8.23s-3.69-8.26-8.26-8.26-8.25,3.7-8.25,8.26,3.41,7.95,7.71,8.23l-.35,5.34c-.55.01-1.1.02-1.65.03-.42-4.18-3.93-7.43-8.22-7.43-4.56,0-8.25,3.7-8.25,8.25s3.69,8.26,8.25,8.26c4.28,0,7.8-3.26,8.22-7.43.51.02,1.02.03,1.53.03l-1,15.07h4.02l-1-15.07c.52,0,1.03-.02,1.54-.03.42,4.17,3.93,7.43,8.21,7.43,4.56,0,8.26-3.7,8.26-8.26s-3.69-8.25-8.26-8.25Z"/>
      <path class="cls-1" d="M146.55,121.12c-4.28,0-7.8,3.25-8.21,7.43-.55,0-1.1-.03-1.65-.03l-.35-5.34c4.3-.28,7.71-3.85,7.71-8.23s-3.69-8.26-8.26-8.26-8.25,3.7-8.25,8.26,3.41,7.95,7.71,8.23l-.36,5.34c-.55.01-1.1.02-1.65.03-.42-4.18-3.93-7.43-8.21-7.43-4.56,0-8.25,3.7-8.25,8.25s3.69,8.26,8.25,8.26c4.28,0,7.8-3.26,8.21-7.43.51.02,1.02.03,1.54.03l-1,15.07h4.02l-1-15.07c.52,0,1.03-.02,1.54-.03.42,4.17,3.93,7.43,8.21,7.43,4.56,0,8.25-3.7,8.25-8.26s-3.69-8.25-8.25-8.25Z"/>
    </g>
    <path class="cls-1" d="M100.76,73.51c-4.28,0-7.8,3.26-8.21,7.43-.55,0-1.1-.03-1.65-.03l-.35-5.34c4.3-.28,7.71-3.85,7.71-8.23s-3.69-8.25-8.26-8.25-8.25,3.7-8.25,8.25,3.41,7.95,7.71,8.23l-.35,5.34c-.55,0-1.1.02-1.65.03-.41-4.17-3.93-7.43-8.21-7.43-4.56,0-8.25,3.69-8.25,8.26s3.69,8.25,8.25,8.25c4.28,0,7.8-3.26,8.21-7.43.51.02,1.02.03,1.53.03l-1,15.07h4.02l-1-15.07c.52,0,1.03-.02,1.54-.03.41,4.17,3.93,7.43,8.21,7.43,4.56,0,8.25-3.7,8.25-8.25s-3.7-8.26-8.25-8.26Z"/>
    <g>
      <path class="cls-1" d="M54.98,192.54c-4.28,0-7.8,3.26-8.21,7.43-.55,0-1.1-.03-1.65-.03l-.35-5.34c4.3-.28,7.71-3.85,7.71-8.23s-3.69-8.25-8.26-8.25-8.25,3.69-8.25,8.25,3.41,7.95,7.71,8.23l-.35,5.34c-.55,0-1.1.02-1.65.03-.42-4.17-3.93-7.43-8.22-7.43-4.56,0-8.25,3.7-8.25,8.25s3.69,8.26,8.25,8.26c4.28,0,7.8-3.26,8.22-7.43.51.02,1.02.03,1.53.03l-1,15.07h4.02l-1-15.07c.52,0,1.03-.02,1.54-.03.42,4.17,3.93,7.42,8.21,7.42,4.56,0,8.26-3.7,8.26-8.26s-3.69-8.25-8.26-8.25Z"/>
      <path class="cls-1" d="M146.55,192.54c-4.28,0-7.8,3.26-8.21,7.43-.55,0-1.1-.03-1.65-.03l-.35-5.34c4.3-.28,7.71-3.85,7.71-8.23s-3.69-8.25-8.26-8.25-8.25,3.69-8.25,8.25,3.41,7.95,7.71,8.23l-.36,5.34c-.55,0-1.1.02-1.65.03-.42-4.17-3.93-7.43-8.21-7.43-4.56,0-8.25,3.7-8.25,8.25s3.69,8.26,8.25,8.26c4.28,0,7.8-3.26,8.21-7.43.51.02,1.02.03,1.54.03l-1,15.07h4.02l-1-15.07c.52,0,1.03-.02,1.54-.03.42,4.17,3.93,7.42,8.21,7.42,4.56,0,8.25-3.7,8.25-8.26s-3.69-8.25-8.25-8.25Z"/>
    </g>
    <path class="cls-1" d="M100.76,168.74c-4.28,0-7.8,3.26-8.21,7.43-.55,0-1.1-.03-1.65-.03l-.35-5.34c4.3-.28,7.71-3.85,7.71-8.23s-3.69-8.25-8.26-8.25-8.25,3.7-8.25,8.25,3.41,7.95,7.71,8.23l-.35,5.34c-.55,0-1.1.02-1.65.03-.41-4.17-3.93-7.43-8.21-7.43-4.56,0-8.25,3.7-8.25,8.26s3.69,8.25,8.25,8.25c4.28,0,7.8-3.26,8.21-7.43.51.02,1.02.02,1.53.03l-1,15.07h4.02l-1-15.07c.52,0,1.03-.02,1.54-.03.41,4.17,3.93,7.42,8.21,7.42,4.56,0,8.25-3.7,8.25-8.25s-3.7-8.26-8.25-8.26Z"/>
  </g>
  <g>
    <path class="cls-1" d="M18.86,39.48c-2.64,0-4.93-.86-6.86-2.57-2-1.76-3-3.94-3-6.54,0-3.05,1.32-5.49,3.97-7.33-1.91-1.57-2.86-3.56-2.86-5.97s.89-4.25,2.68-5.83c1.72-1.5,3.74-2.25,6.08-2.25s4.36.75,6.08,2.25c1.79,1.57,2.68,3.51,2.68,5.83s-.95,4.37-2.86,5.97c2.64,1.81,3.97,4.25,3.97,7.33,0,2.6-.98,4.77-2.95,6.5-1.97,1.74-4.27,2.61-6.92,2.61ZM18.86,25.19c-1.55,0-2.92.48-4.11,1.42-1.29,1-1.93,2.26-1.93,3.78s.64,2.75,1.93,3.78c1.19.93,2.56,1.39,4.11,1.39s2.92-.46,4.11-1.39c1.29-1.02,1.93-2.28,1.93-3.78s-.64-2.78-1.93-3.78c-1.19-.95-2.56-1.42-4.11-1.42ZM18.86,12.93c-1.26,0-2.37.38-3.32,1.14-1.07.81-1.61,1.82-1.61,3.02s.54,2.22,1.61,3.02c.95.76,2.06,1.14,3.32,1.14s2.37-.38,3.32-1.14c1.07-.81,1.61-1.81,1.61-3.02s-.54-2.22-1.61-3.02c-.95-.76-2.06-1.14-3.32-1.14Z"/>
    <path class="cls-1" d="M161.14,212.52c2.64,0,4.93.86,6.86,2.57,2,1.76,3,3.94,3,6.54,0,3.05-1.32,5.49-3.97,7.33,1.91,1.57,2.86,3.56,2.86,5.97s-.89,4.25-2.68,5.83c-1.72,1.5-3.74,2.25-6.08,2.25s-4.36-.75-6.08-2.25c-1.79-1.57-2.68-3.51-2.68-5.83s.95-4.37,2.86-5.97c-2.64-1.81-3.97-4.25-3.97-7.33,0-2.6.98-4.77,2.95-6.5,1.97-1.74,4.27-2.61,6.92-2.61ZM161.14,226.81c1.55,0,2.92-.48,4.11-1.42,1.29-1,1.93-2.26,1.93-3.78s-.64-2.75-1.93-3.78c-1.19-.93-2.56-1.39-4.11-1.39s-2.92.46-4.11,1.39c-1.29,1.02-1.93,2.28-1.93,3.78s.64,2.78,1.93,3.78c1.19.95,2.56,1.42,4.11,1.42ZM161.14,239.07c1.26,0,2.37-.38,3.32-1.14,1.07-.81,1.61-1.82,1.61-3.02s-.54-2.22-1.61-3.02c-.95-.76-2.06-1.14-3.32-1.14s-2.37.38-3.32,1.14c-1.07.81-1.61,1.81-1.61,3.02s.54,2.22,1.61,3.02c.95.76,2.06,1.14,3.32,1.14Z"/>
  </g>
</svg>