<?xml version="1.0" encoding="UTF-8"?>
<svg id="a" data-name="Layer 1" xmlns="http://www.w3.org/2000/svg" width="2.5in" height="3.5in" xmlns:xlink="http://www.w3.org/1999/xlink" viewBox="0 0 180 252">
  <defs>
    <clipPath id="b">
      <rect width="180" height="252" rx="18" ry="18" style="fill: none;"/>
    </clipPath>
  </defs>
  <g style="clip-path: url(#b);">
    <rect x="-.51" width="180" height="252" style="fill: #fff;"/>
    <path d="M44.6,123.9c-10.36,0-19.32-3.36-26.88-10.08-7.84-6.91-11.76-15.45-11.76-25.62,0-11.95,5.18-21.51,15.54-28.7-7.47-6.16-11.2-13.95-11.2-23.38s3.5-16.66,10.5-22.82c6.72-5.88,14.65-8.82,23.8-8.82s17.08,2.94,23.8,8.82c7,6.16,10.5,13.77,10.5,22.82s-3.73,17.13-11.2,23.38c10.36,7.09,15.54,16.66,15.54,28.7,0,10.17-3.85,18.67-11.55,25.48-7.7,6.81-16.73,10.22-27.09,10.22ZM44.6,67.9c-6.07,0-11.43,1.86-16.1,5.58-5.04,3.91-7.56,8.84-7.56,14.79s2.52,10.79,7.56,14.79c4.67,3.63,10.03,5.44,16.1,5.44s11.43-1.81,16.1-5.44c5.04-4,7.56-8.93,7.56-14.79s-2.52-10.88-7.56-14.79c-4.67-3.72-10.03-5.58-16.1-5.58ZM44.6,19.88c-4.95,0-9.29,1.49-13.02,4.46-4.2,3.16-6.3,7.11-6.3,11.85s2.1,8.69,6.3,11.85c3.73,2.97,8.07,4.46,13.02,4.46s9.29-1.49,13.02-4.46c4.2-3.16,6.3-7.11,6.3-11.85s-2.1-8.69-6.3-11.85c-3.73-2.97-8.07-4.46-13.02-4.46Z" style="fill: #231f20;"/>
    <path d="M40.28,75.68l.73-11.08c-1.85,2.1-4.55,3.41-7.56,3.41-5.54,0-10.05-4.51-10.05-10.05s4.51-10.06,10.05-10.06c.61,0,1.21.05,1.79.16-.69-1.37-1.08-2.91-1.08-4.53,0-5.54,4.51-10.05,10.05-10.05s10.06,4.51,10.06,10.05c0,1.62-.39,3.16-1.08,4.53.58-.1,1.18-.16,1.79-.16,5.54,0,10.06,4.51,10.06,10.06s-4.51,10.05-10.06,10.05c-3.01,0-5.72-1.31-7.56-3.41l.73,11.08h-7.87Z" style="fill: #fff;"/>
    <path d="M54.98,49.71c-4.28,0-7.8,3.26-8.21,7.43-.55,0-1.1-.03-1.65-.03l-.35-5.34c4.3-.28,7.71-3.85,7.71-8.23s-3.69-8.25-8.26-8.25-8.25,3.7-8.25,8.25,3.41,7.95,7.71,8.23l-.35,5.34c-.55,0-1.1.02-1.65.03-.42-4.17-3.93-7.43-8.22-7.43-4.56,0-8.25,3.7-8.25,8.26s3.69,8.25,8.25,8.25c4.28,0,7.8-3.26,8.22-7.43.51.02,1.02.02,1.53.03l-1,15.07h4.02l-1-15.07c.52,0,1.03-.02,1.54-.03.42,4.17,3.93,7.43,8.21,7.43,4.56,0,8.26-3.7,8.26-8.25s-3.69-8.26-8.26-8.26Z" style="fill: #231f20;"/>
    <path d="M131.85,75.68l.73-11.08c-1.85,2.1-4.55,3.41-7.56,3.41-5.54,0-10.05-4.51-10.05-10.05s4.51-10.06,10.05-10.06c.61,0,1.21.05,1.79.16-.69-1.37-1.08-2.91-1.08-4.53,0-5.54,4.51-10.05,10.05-10.05s10.06,4.51,10.06,10.05c0,1.62-.39,3.17-1.08,4.53.58-.1,1.18-.16,1.79-.16,5.54,0,10.05,4.51,10.05,10.06s-4.51,10.05-10.05,10.05c-3.01,0-5.72-1.31-7.57-3.41l.73,11.08h-7.87Z" style="fill: #fff;"/>
    <path d="M146.55,49.71c-4.28,0-7.8,3.26-8.21,7.43-.55,0-1.1-.03-1.65-.03l-.35-5.34c4.3-.28,7.71-3.85,7.71-8.23s-3.69-8.25-8.26-8.25-8.25,3.7-8.25,8.25,3.41,7.95,7.71,8.23l-.36,5.34c-.55,0-1.1.02-1.65.03-.42-4.17-3.93-7.43-8.21-7.43-4.56,0-8.25,3.7-8.25,8.26s3.69,8.25,8.25,8.25c4.28,0,7.8-3.26,8.21-7.43.51.02,1.02.02,1.54.03l-1,15.07h4.02l-1-15.07c.52,0,1.03-.02,1.54-.03.42,4.17,3.93,7.43,8.21,7.43,4.56,0,8.25-3.7,8.25-8.25s-3.69-8.26-8.25-8.26Z" style="fill: #231f20;"/>
    <path d="M40.28,147.1l.73-11.08c-1.85,2.1-4.56,3.41-7.56,3.41-5.54,0-10.05-4.51-10.05-10.06s4.51-10.05,10.05-10.05c.61,0,1.21.05,1.79.16-.69-1.37-1.08-2.91-1.08-4.53,0-5.54,4.51-10.06,10.05-10.06s10.06,4.51,10.06,10.06c0,1.62-.39,3.16-1.08,4.53.58-.1,1.18-.16,1.79-.16,5.54,0,10.06,4.51,10.06,10.05s-4.51,10.06-10.06,10.06c-3.01,0-5.72-1.31-7.56-3.41l.73,11.08h-7.87Z" style="fill: #fff;"/>
    <path d="M54.98,121.12c-4.28,0-7.8,3.25-8.21,7.43-.55,0-1.1-.03-1.65-.03l-.35-5.34c4.3-.28,7.71-3.85,7.71-8.23s-3.69-8.26-8.26-8.26-8.25,3.7-8.25,8.26,3.41,7.95,7.71,8.23l-.35,5.34c-.55.01-1.1.02-1.65.03-.42-4.18-3.93-7.43-8.22-7.43-4.56,0-8.25,3.7-8.25,8.25s3.69,8.26,8.25,8.26c4.28,0,7.8-3.26,8.22-7.43.51.02,1.02.03,1.53.03l-1,15.07h4.02l-1-15.07c.52,0,1.03-.02,1.54-.03.42,4.17,3.93,7.43,8.21,7.43,4.56,0,8.26-3.7,8.26-8.26s-3.69-8.25-8.26-8.25Z" style="fill: #231f20;"/>
    <path d="M131.85,147.1l.73-11.08c-1.85,2.1-4.55,3.41-7.56,3.41-5.54,0-10.05-4.51-10.05-10.06s4.51-10.05,10.05-10.05c.61,0,1.21.05,1.79.16-.69-1.37-1.08-2.91-1.08-4.53,0-5.54,4.51-10.06,10.05-10.06s10.06,4.51,10.06,10.06c0,1.62-.39,3.17-1.08,4.53.58-.1,1.18-.16,1.79-.16,5.54,0,10.05,4.51,10.05,10.05s-4.51,10.06-10.05,10.06c-3.01,0-5.72-1.31-7.57-3.41l.73,11.08h-7.87Z" style="fill: #fff;"/>
    <path d="M146.55,121.12c-4.28,0-7.8,3.25-8.21,7.43-.55,0-1.1-.03-1.65-.03l-.35-5.34c4.3-.28,7.71-3.85,7.71-8.23s-3.69-8.26-8.26-8.26-8.25,3.7-8.25,8.26,3.41,7.95,7.71,8.23l-.36,5.34c-.55.01-1.1.02-1.65.03-.42-4.18-3.93-7.43-8.21-7.43-4.56,0-8.25,3.7-8.25,8.25s3.69,8.26,8.25,8.26c4.28,0,7.8-3.26,8.21-7.43.51.02,1.02.03,1.54.03l-1,15.07h4.02l-1-15.07c.52,0,1.03-.02,1.54-.03.42,4.17,3.93,7.43,8.21,7.43,4.56,0,8.25-3.7,8.25-8.26s-3.69-8.25-8.25-8.25Z" style="fill: #231f20;"/>
    <path d="M86.06,99.49l.73-11.08c-1.85,2.1-4.55,3.41-7.56,3.41-5.54,0-10.05-4.51-10.05-10.05s4.51-10.06,10.05-10.06c.61,0,1.21.05,1.79.16-.69-1.37-1.08-2.91-1.08-4.53,0-5.54,4.51-10.05,10.05-10.05s10.06,4.51,10.06,10.05c0,1.62-.39,3.16-1.08,4.53.58-.1,1.18-.16,1.79-.16,5.54,0,10.05,4.51,10.05,10.06s-4.51,10.05-10.05,10.05c-3.01,0-5.72-1.31-7.57-3.41l.73,11.08h-7.86Z" style="fill: #fff;"/>
    <path d="M100.76,73.51c-4.28,0-7.8,3.26-8.21,7.43-.55,0-1.1-.03-1.65-.03l-.35-5.34c4.3-.28,7.71-3.85,7.71-8.23s-3.69-8.25-8.26-8.25-8.25,3.7-8.25,8.25,3.41,7.95,7.71,8.23l-.35,5.34c-.55,0-1.1.02-1.65.03-.41-4.17-3.93-7.43-8.21-7.43-4.56,0-8.25,3.69-8.25,8.26s3.69,8.25,8.25,8.25c4.28,0,7.8-3.26,8.21-7.43.51.02,1.02.03,1.53.03l-1,15.07h4.02l-1-15.07c.52,0,1.03-.02,1.54-.03.41,4.17,3.93,7.43,8.21,7.43,4.56,0,8.25-3.7,8.25-8.25s-3.7-8.26-8.25-8.26Z" style="fill: #231f20;"/>
    <path d="M40.28,218.52l.73-11.08c-1.85,2.1-4.56,3.41-7.56,3.41-5.54,0-10.05-4.51-10.05-10.06s4.51-10.05,10.05-10.05c.61,0,1.21.05,1.79.16-.69-1.37-1.08-2.91-1.08-4.53,0-5.54,4.51-10.05,10.05-10.05s10.06,4.51,10.06,10.05c0,1.62-.39,3.16-1.08,4.53.58-.1,1.18-.16,1.79-.16,5.54,0,10.06,4.51,10.06,10.05s-4.51,10.06-10.06,10.06c-3.01,0-5.72-1.31-7.56-3.41l.73,11.08h-7.87Z" style="fill: #fff;"/>
    <path d="M54.98,192.54c-4.28,0-7.8,3.26-8.21,7.43-.55,0-1.1-.03-1.65-.03l-.35-5.34c4.3-.28,7.71-3.85,7.71-8.23s-3.69-8.25-8.26-8.25-8.25,3.69-8.25,8.25,3.41,7.95,7.71,8.23l-.35,5.34c-.55,0-1.1.02-1.65.03-.42-4.17-3.93-7.43-8.22-7.43-4.56,0-8.25,3.7-8.25,8.25s3.69,8.26,8.25,8.26c4.28,0,7.8-3.26,8.22-7.43.51.02,1.02.03,1.53.03l-1,15.07h4.02l-1-15.07c.52,0,1.03-.02,1.54-.03.42,4.17,3.93,7.42,8.21,7.42,4.56,0,8.26-3.7,8.26-8.26s-3.69-8.25-8.26-8.25Z" style="fill: #231f20;"/>
    <path d="M131.85,218.52l.73-11.08c-1.85,2.1-4.55,3.41-7.56,3.41-5.54,0-10.05-4.51-10.05-10.06s4.51-10.05,10.05-10.05c.61,0,1.21.05,1.79.16-.69-1.37-1.08-2.91-1.08-4.53,0-5.54,4.51-10.05,10.05-10.05s10.06,4.51,10.06,10.05c0,1.62-.39,3.16-1.08,4.53.58-.1,1.18-.16,1.79-.16,5.54,0,10.05,4.51,10.05,10.05s-4.51,10.06-10.05,10.06c-3.01,0-5.72-1.31-7.57-3.41l.73,11.08h-7.87Z" style="fill: #fff;"/>
    <path d="M146.55,192.54c-4.28,0-7.8,3.26-8.21,7.43-.55,0-1.1-.03-1.65-.03l-.35-5.34c4.3-.28,7.71-3.85,7.71-8.23s-3.69-8.25-8.26-8.25-8.25,3.69-8.25,8.25,3.41,7.95,7.71,8.23l-.36,5.34c-.55,0-1.1.02-1.65.03-.42-4.17-3.93-7.43-8.21-7.43-4.56,0-8.25,3.7-8.25,8.25s3.69,8.26,8.25,8.26c4.28,0,7.8-3.26,8.21-7.43.51.02,1.02.03,1.54.03l-1,15.07h4.02l-1-15.07c.52,0,1.03-.02,1.54-.03.42,4.17,3.93,7.42,8.21,7.42,4.56,0,8.25-3.7,8.25-8.26s-3.69-8.25-8.25-8.25Z" style="fill: #231f20;"/>
    <path d="M86.06,194.72l.73-11.08c-1.85,2.1-4.55,3.4-7.56,3.4-5.54,0-10.05-4.51-10.05-10.05s4.51-10.06,10.05-10.06c.61,0,1.21.05,1.79.16-.69-1.37-1.08-2.91-1.08-4.53,0-5.54,4.51-10.05,10.05-10.05s10.06,4.51,10.06,10.05c0,1.62-.39,3.16-1.08,4.53.58-.1,1.18-.16,1.79-.16,5.54,0,10.05,4.51,10.05,10.06s-4.51,10.05-10.05,10.05c-3.01,0-5.72-1.31-7.57-3.41l.73,11.08h-7.86Z" style="fill: #fff;"/>
    <path d="M100.76,168.74c-4.28,0-7.8,3.26-8.21,7.43-.55,0-1.1-.03-1.65-.03l-.35-5.34c4.3-.28,7.71-3.85,7.71-8.23s-3.69-8.25-8.26-8.25-8.25,3.7-8.25,8.25,3.41,7.95,7.71,8.23l-.35,5.34c-.55,0-1.1.02-1.65.03-.41-4.17-3.93-7.43-8.21-7.43-4.56,0-8.25,3.7-8.25,8.26s3.69,8.25,8.25,8.25c4.28,0,7.8-3.26,8.21-7.43.51.02,1.02.02,1.53.03l-1,15.07h4.02l-1-15.07c.52,0,1.03-.02,1.54-.03.41,4.17,3.93,7.42,8.21,7.42,4.56,0,8.25-3.7,8.25-8.25s-3.7-8.26-8.25-8.26Z" style="fill: #231f20;"/>
  </g>
</svg>