<?xml version="1.0" encoding="UTF-8"?>
<svg id="a" data-name="Layer 1" xmlns="http://www.w3.org/2000/svg" width="2.5in" height="3.5in" xmlns:xlink="http://www.w3.org/1999/xlink" viewBox="0 0 180 252">
  <defs>
    <clipPath id="b">
      <rect width="180" height="252" rx="18" ry="18" style="fill: none;"/>
    </clipPath>
  </defs>
  <g style="clip-path: url(#b);">
    <rect x="-.51" width="180" height="252" style="fill: #fff;"/>
    <path d="M66.3,81.34c-6.53,5.23-13.91,7.84-22.12,7.84-11.01,0-20.21-4.34-27.58-13.02-7.09-8.4-10.64-18.15-10.64-29.26s3.55-20.95,10.64-29.26c7.37-8.77,16.57-13.16,27.58-13.16,13.63,0,23.85,7.05,30.66,21.14,5.23,10.92,7.84,24.03,7.84,39.34,0,16.05-2.57,29.35-7.7,39.9-6.72,13.91-17.27,20.86-31.64,20.86s-25.11-7.19-33.32-21.56l13.16-7.7c5.23,9.24,11.95,13.86,20.16,13.86,12.23,0,19.88-9.66,22.96-28.98ZM44.11,19.88c-6.74,0-12.36,2.89-16.85,8.66-4.21,5.31-6.32,11.4-6.32,18.29s2.11,12.99,6.32,18.29c4.49,5.77,10.11,8.66,16.85,8.66,5.71,0,10.67-2.19,14.89-6.56,3.75-3.91,6.32-8.8,7.72-14.66-2.72-21.78-10.25-32.67-22.61-32.67Z" style="fill: #231f20;"/>
    <path d="M40.28,75.68l.73-11.08c-1.85,2.1-4.55,3.41-7.56,3.41-5.54,0-10.05-4.51-10.05-10.06s4.51-10.05,10.05-10.05c.61,0,1.21.05,1.79.16-.69-1.37-1.08-2.91-1.08-4.53,0-5.54,4.51-10.06,10.05-10.06s10.06,4.51,10.06,10.06c0,1.62-.39,3.16-1.08,4.53.58-.1,1.18-.16,1.79-.16,5.54,0,10.06,4.51,10.06,10.05s-4.51,10.06-10.06,10.06c-3.01,0-5.72-1.31-7.56-3.41l.73,11.08h-7.87Z" style="fill: #fff;"/>
    <path d="M54.98,49.71c-4.28,0-7.8,3.26-8.21,7.43-.55,0-1.1-.03-1.65-.03l-.35-5.34c4.3-.28,7.71-3.85,7.71-8.23s-3.69-8.26-8.26-8.26-8.25,3.7-8.25,8.26,3.41,7.95,7.71,8.23l-.35,5.34c-.55.01-1.1.02-1.65.03-.42-4.17-3.93-7.43-8.22-7.43-4.56,0-8.25,3.69-8.25,8.25s3.69,8.26,8.25,8.26c4.28,0,7.8-3.26,8.22-7.43.51.02,1.02.03,1.53.03l-1,15.07h4.02l-1-15.07c.52,0,1.03-.02,1.54-.03.42,4.17,3.93,7.43,8.21,7.43,4.56,0,8.26-3.7,8.26-8.26s-3.69-8.25-8.26-8.25Z" style="fill: #231f20;"/>
    <path d="M131.85,75.68l.73-11.08c-1.85,2.1-4.55,3.41-7.56,3.41-5.54,0-10.05-4.51-10.05-10.06s4.51-10.05,10.05-10.05c.61,0,1.21.05,1.79.16-.69-1.37-1.08-2.91-1.08-4.53,0-5.54,4.51-10.06,10.05-10.06s10.06,4.51,10.06,10.06c0,1.62-.39,3.16-1.08,4.53.58-.1,1.18-.16,1.79-.16,5.54,0,10.05,4.51,10.05,10.05s-4.51,10.06-10.05,10.06c-3.01,0-5.72-1.31-7.57-3.41l.73,11.08h-7.87Z" style="fill: #fff;"/>
    <path d="M146.55,49.71c-4.28,0-7.8,3.26-8.22,7.43-.55,0-1.1-.03-1.65-.03l-.35-5.34c4.3-.28,7.71-3.85,7.71-8.23s-3.69-8.26-8.26-8.26-8.25,3.7-8.25,8.26,3.41,7.95,7.71,8.23l-.36,5.34c-.55.01-1.1.02-1.65.03-.42-4.17-3.93-7.43-8.21-7.43-4.56,0-8.25,3.69-8.25,8.25s3.69,8.26,8.25,8.26c4.28,0,7.8-3.26,8.21-7.43.51.02,1.02.03,1.53.03l-1,15.07h4.02l-1-15.07c.52,0,1.03-.02,1.54-.03.42,4.17,3.93,7.43,8.22,7.43,4.56,0,8.25-3.7,8.25-8.26s-3.69-8.25-8.25-8.25Z" style="fill: #231f20;"/>
    <path d="M40.28,123.3l.73-11.08c-1.85,2.1-4.55,3.41-7.56,3.41-5.54,0-10.05-4.51-10.05-10.05s4.51-10.05,10.05-10.05c.61,0,1.21.05,1.79.16-.69-1.37-1.08-2.91-1.08-4.53,0-5.54,4.51-10.06,10.05-10.06s10.06,4.51,10.06,10.06c0,1.62-.39,3.16-1.08,4.53.58-.1,1.18-.16,1.79-.16,5.54,0,10.06,4.51,10.06,10.05s-4.51,10.05-10.06,10.05c-3.01,0-5.72-1.31-7.56-3.41l.73,11.08h-7.87Z" style="fill: #fff;"/>
    <path d="M54.98,97.32c-4.28,0-7.8,3.26-8.21,7.43-.55,0-1.1-.03-1.65-.03l-.35-5.34c4.3-.28,7.71-3.85,7.71-8.23s-3.69-8.26-8.26-8.26-8.25,3.7-8.25,8.26,3.41,7.95,7.71,8.23l-.35,5.34c-.55,0-1.1.02-1.65.03-.42-4.17-3.93-7.43-8.22-7.43-4.56,0-8.25,3.69-8.25,8.25s3.69,8.25,8.25,8.25c4.28,0,7.8-3.26,8.22-7.43.51.02,1.02.03,1.53.03l-1,15.07h4.02l-1-15.07c.52,0,1.03-.02,1.54-.03.42,4.17,3.93,7.43,8.21,7.43,4.56,0,8.26-3.7,8.26-8.25s-3.69-8.25-8.26-8.25Z" style="fill: #231f20;"/>
    <path d="M131.85,123.3l.73-11.08c-1.85,2.1-4.55,3.41-7.56,3.41-5.54,0-10.05-4.51-10.05-10.05s4.51-10.05,10.05-10.05c.61,0,1.21.05,1.79.16-.69-1.37-1.08-2.91-1.08-4.53,0-5.54,4.51-10.06,10.05-10.06s10.06,4.51,10.06,10.06c0,1.62-.39,3.16-1.08,4.53.58-.1,1.18-.16,1.79-.16,5.54,0,10.05,4.51,10.05,10.05s-4.51,10.05-10.05,10.05c-3.01,0-5.72-1.31-7.57-3.41l.73,11.08h-7.87Z" style="fill: #fff;"/>
    <path d="M146.55,97.32c-4.28,0-7.8,3.26-8.22,7.43-.55,0-1.1-.03-1.65-.03l-.35-5.34c4.3-.28,7.71-3.85,7.71-8.23s-3.69-8.26-8.26-8.26-8.25,3.7-8.25,8.26,3.41,7.95,7.71,8.23l-.36,5.34c-.55,0-1.1.02-1.65.03-.42-4.17-3.93-7.43-8.21-7.43-4.56,0-8.25,3.69-8.25,8.25s3.69,8.25,8.25,8.25c4.28,0,7.8-3.26,8.21-7.43.51.02,1.02.03,1.53.03l-1,15.07h4.02l-1-15.07c.52,0,1.03-.02,1.54-.03.42,4.17,3.93,7.43,8.22,7.43,4.56,0,8.25-3.7,8.25-8.25s-3.69-8.25-8.25-8.25Z" style="fill: #231f20;"/>
    <path d="M40.28,170.91l.73-11.08c-1.85,2.1-4.55,3.41-7.56,3.41-5.54,0-10.05-4.51-10.05-10.05s4.51-10.06,10.05-10.06c.61,0,1.21.05,1.79.16-.69-1.37-1.08-2.91-1.08-4.53,0-5.54,4.51-10.05,10.05-10.05s10.06,4.51,10.06,10.05c0,1.62-.39,3.16-1.08,4.53.58-.1,1.18-.16,1.79-.16,5.54,0,10.06,4.51,10.06,10.06s-4.51,10.05-10.06,10.05c-3.01,0-5.72-1.31-7.56-3.41l.73,11.08h-7.87Z" style="fill: #fff;"/>
    <path d="M54.98,144.93c-4.28,0-7.8,3.26-8.21,7.43-.55,0-1.1-.03-1.65-.03l-.35-5.34c4.3-.28,7.71-3.85,7.71-8.23s-3.69-8.25-8.26-8.25-8.25,3.7-8.25,8.25,3.41,7.95,7.71,8.23l-.35,5.34c-.55,0-1.1.02-1.65.03-.42-4.17-3.93-7.43-8.22-7.43-4.56,0-8.25,3.7-8.25,8.26s3.69,8.25,8.25,8.25c4.28,0,7.8-3.26,8.22-7.43.51.02,1.02.03,1.53.03l-1,15.07h4.02l-1-15.07c.52,0,1.03-.02,1.54-.03.42,4.17,3.93,7.43,8.21,7.43,4.56,0,8.26-3.7,8.26-8.25s-3.69-8.26-8.26-8.26Z" style="fill: #231f20;"/>
    <path d="M131.85,170.91l.73-11.08c-1.85,2.1-4.55,3.41-7.56,3.41-5.54,0-10.05-4.51-10.05-10.05s4.51-10.06,10.05-10.06c.61,0,1.21.05,1.79.16-.69-1.37-1.08-2.91-1.08-4.53,0-5.54,4.51-10.05,10.05-10.05s10.06,4.51,10.06,10.05c0,1.62-.39,3.16-1.08,4.53.58-.1,1.18-.16,1.79-.16,5.54,0,10.05,4.51,10.05,10.06s-4.51,10.05-10.05,10.05c-3.01,0-5.72-1.31-7.57-3.41l.73,11.08h-7.87Z" style="fill: #fff;"/>
    <path d="M146.55,144.93c-4.28,0-7.8,3.26-8.22,7.43-.55,0-1.1-.03-1.65-.03l-.35-5.34c4.3-.28,7.71-3.85,7.71-8.23s-3.69-8.25-8.26-8.25-8.25,3.7-8.25,8.25,3.41,7.95,7.71,8.23l-.36,5.34c-.55,0-1.1.02-1.65.03-.42-4.17-3.93-7.43-8.21-7.43-4.56,0-8.25,3.7-8.25,8.26s3.69,8.25,8.25,8.25c4.28,0,7.8-3.26,8.21-7.43.51.02,1.02.03,1.53.03l-1,15.07h4.02l-1-15.07c.52,0,1.03-.02,1.54-.03.42,4.17,3.93,7.43,8.22,7.43,4.56,0,8.25-3.7,8.25-8.25s-3.69-8.26-8.25-8.26Z" style="fill: #231f20;"/>
    <path d="M40.28,218.52l.73-11.08c-1.85,2.1-4.55,3.41-7.56,3.41-5.54,0-10.05-4.51-10.05-10.06s4.51-10.05,10.05-10.05c.61,0,1.21.05,1.79.16-.69-1.37-1.08-2.91-1.08-4.53,0-5.54,4.51-10.06,10.05-10.06s10.06,4.51,10.06,10.06c0,1.62-.39,3.16-1.08,4.53.58-.1,1.18-.16,1.79-.16,5.54,0,10.06,4.51,10.06,10.05s-4.51,10.06-10.06,10.06c-3.01,0-5.72-1.31-7.56-3.41l.73,11.08h-7.87Z" style="fill: #fff;"/>
    <path d="M54.98,192.54c-4.28,0-7.8,3.26-8.21,7.43-.55,0-1.1-.03-1.65-.03l-.35-5.34c4.3-.28,7.71-3.85,7.71-8.23s-3.69-8.26-8.26-8.26-8.25,3.7-8.25,8.26,3.41,7.95,7.71,8.23l-.35,5.34c-.55,0-1.1.02-1.65.03-.42-4.17-3.93-7.43-8.22-7.43-4.56,0-8.25,3.69-8.25,8.25s3.69,8.26,8.25,8.26c4.28,0,7.8-3.26,8.22-7.43.51.02,1.02.02,1.53.03l-1,15.07h4.02l-1-15.07c.52,0,1.03-.02,1.54-.03.42,4.17,3.93,7.43,8.21,7.43,4.56,0,8.26-3.7,8.26-8.26s-3.69-8.25-8.26-8.25Z" style="fill: #231f20;"/>
    <path d="M131.85,218.52l.73-11.08c-1.85,2.1-4.55,3.41-7.56,3.41-5.54,0-10.05-4.51-10.05-10.06s4.51-10.05,10.05-10.05c.61,0,1.21.05,1.79.16-.69-1.37-1.08-2.91-1.08-4.53,0-5.54,4.51-10.06,10.05-10.06s10.06,4.51,10.06,10.06c0,1.62-.39,3.16-1.08,4.53.58-.1,1.18-.16,1.79-.16,5.54,0,10.05,4.51,10.05,10.05s-4.51,10.06-10.05,10.06c-3.01,0-5.72-1.31-7.57-3.41l.73,11.08h-7.87Z" style="fill: #fff;"/>
    <path d="M146.55,192.54c-4.28,0-7.8,3.26-8.22,7.43-.55,0-1.1-.03-1.65-.03l-.35-5.34c4.3-.28,7.71-3.85,7.71-8.23s-3.69-8.26-8.26-8.26-8.25,3.7-8.25,8.26,3.41,7.95,7.71,8.23l-.36,5.34c-.55,0-1.1.02-1.65.03-.42-4.17-3.93-7.43-8.21-7.43-4.56,0-8.25,3.69-8.25,8.25s3.69,8.26,8.25,8.26c4.28,0,7.8-3.26,8.21-7.43.51.02,1.02.02,1.53.03l-1,15.07h4.02l-1-15.07c.52,0,1.03-.02,1.54-.03.42,4.17,3.93,7.43,8.22,7.43,4.56,0,8.25-3.7,8.25-8.26s-3.69-8.25-8.25-8.25Z" style="fill: #231f20;"/>
    <path d="M86.06,147.1l.73-11.08c-1.85,2.1-4.55,3.41-7.56,3.41-5.54,0-10.05-4.51-10.05-10.05s4.51-10.06,10.05-10.06c.61,0,1.21.05,1.79.16-.69-1.37-1.08-2.91-1.08-4.53,0-5.54,4.51-10.05,10.05-10.05s10.06,4.51,10.06,10.05c0,1.62-.39,3.16-1.08,4.53.58-.1,1.18-.16,1.79-.16,5.54,0,10.05,4.51,10.05,10.06s-4.51,10.05-10.05,10.05c-3.01,0-5.72-1.31-7.57-3.41l.73,11.08h-7.86Z" style="fill: #fff;"/>
    <path d="M100.76,121.12c-4.28,0-7.8,3.26-8.21,7.43-.55,0-1.1-.03-1.65-.03l-.35-5.34c4.3-.28,7.71-3.85,7.71-8.23s-3.69-8.25-8.26-8.25-8.25,3.7-8.25,8.25,3.41,7.95,7.71,8.23l-.35,5.34c-.55,0-1.1.02-1.65.03-.41-4.17-3.93-7.43-8.21-7.43-4.56,0-8.25,3.7-8.25,8.26s3.69,8.25,8.25,8.25c4.28,0,7.8-3.26,8.21-7.43.51.02,1.02.02,1.53.03l-1,15.07h4.02l-1-15.07c.52,0,1.03-.02,1.54-.03.41,4.17,3.93,7.43,8.21,7.43,4.56,0,8.25-3.7,8.25-8.25s-3.7-8.26-8.25-8.26Z" style="fill: #231f20;"/>
  </g>
</svg>