<?xml version="1.0" encoding="UTF-8"?>
<svg id="Layer_1" data-name="Layer 1" xmlns="http://www.w3.org/2000/svg" viewBox="0 0 180 252">
  <defs>
    <style>
      .cls-1 {
        fill: #231f20;
      }
    </style>
  </defs>
  <g>
    <g>
      <path class="cls-1" d="M54.98,49.71c-4.28,0-7.8,3.26-8.21,7.43-.55,0-1.1-.03-1.65-.03l-.35-5.34c4.3-.28,7.71-3.85,7.71-8.23s-3.69-8.26-8.26-8.26-8.25,3.7-8.25,8.26,3.41,7.95,7.71,8.23l-.35,5.34c-.55,0-1.1.02-1.65.03-.42-4.17-3.93-7.43-8.22-7.43-4.56,0-8.25,3.69-8.25,8.25s3.69,8.25,8.25,8.25c4.28,0,7.8-3.26,8.22-7.43.51.02,1.02.02,1.53.03l-1,15.07h4.02l-1-15.07c.52,0,1.03-.02,1.54-.03.42,4.17,3.93,7.43,8.21,7.43,4.56,0,8.26-3.7,8.26-8.25s-3.69-8.25-8.26-8.25Z"/>
      <path class="cls-1" d="M146.55,49.71c-4.28,0-7.8,3.26-8.21,7.43-.55,0-1.1-.03-1.65-.03l-.35-5.34c4.3-.28,7.71-3.85,7.71-8.23s-3.69-8.26-8.26-8.26-8.25,3.7-8.25,8.26,3.41,7.95,7.71,8.23l-.36,5.34c-.55,0-1.1.02-1.65.03-.41-4.17-3.93-7.43-8.21-7.43-4.56,0-8.25,3.69-8.25,8.25s3.69,8.25,8.25,8.25c4.28,0,7.8-3.26,8.21-7.43.51.02,1.02.02,1.54.03l-1,15.07h4.02l-1-15.07c.52,0,1.03-.02,1.54-.03.42,4.17,3.93,7.43,8.21,7.43,4.56,0,8.25-3.7,8.25-8.25s-3.69-8.25-8.25-8.25Z"/>
    </g>
    <g>
      <path class="cls-1" d="M54.98,97.32c-4.28,0-7.8,3.26-8.21,7.43-.55,0-1.1-.02-1.65-.03l-.35-5.34c4.3-.28,7.71-3.85,7.71-8.23s-3.69-8.25-8.26-8.25-8.25,3.7-8.25,8.25,3.41,7.95,7.71,8.23l-.35,5.34c-.55,0-1.1.02-1.65.03-.42-4.17-3.93-7.43-8.22-7.43-4.56,0-8.25,3.69-8.25,8.25s3.69,8.25,8.25,8.25c4.28,0,7.8-3.26,8.22-7.43.51.02,1.02.02,1.53.03l-1,15.07h4.02l-1-15.07c.52,0,1.03-.02,1.54-.03.42,4.17,3.93,7.43,8.21,7.43,4.56,0,8.26-3.7,8.26-8.25s-3.69-8.25-8.26-8.25Z"/>
      <path class="cls-1" d="M146.55,97.32c-4.28,0-7.8,3.26-8.21,7.43-.55,0-1.1-.02-1.65-.03l-.35-5.34c4.3-.28,7.71-3.85,7.71-8.23s-3.69-8.25-8.26-8.25-8.25,3.7-8.25,8.25,3.41,7.95,7.71,8.23l-.36,5.34c-.55,0-1.1.02-1.65.03-.41-4.17-3.93-7.43-8.21-7.43-4.56,0-8.25,3.69-8.25,8.25s3.69,8.25,8.25,8.25c4.28,0,7.8-3.26,8.21-7.43.51.02,1.02.02,1.54.03l-1,15.07h4.02l-1-15.07c.52,0,1.03-.02,1.54-.03.42,4.17,3.93,7.43,8.21,7.43,4.56,0,8.25-3.7,8.25-8.25s-3.69-8.25-8.25-8.25Z"/>
    </g>
    <path class="cls-1" d="M100.76,73.51c-4.28,0-7.8,3.26-8.21,7.43-.55,0-1.1-.02-1.65-.03l-.35-5.34c4.3-.28,7.71-3.85,7.71-8.23s-3.69-8.25-8.26-8.25-8.25,3.7-8.25,8.25,3.41,7.95,7.71,8.23l-.35,5.34c-.55,0-1.1.02-1.65.03-.41-4.17-3.93-7.43-8.21-7.43-4.56,0-8.25,3.7-8.25,8.25s3.69,8.25,8.25,8.25c4.28,0,7.8-3.26,8.21-7.43.51.02,1.02.03,1.53.03l-1,15.07h4.02l-1-15.07c.52,0,1.03-.02,1.54-.03.41,4.17,3.93,7.43,8.21,7.43,4.56,0,8.25-3.7,8.25-8.25s-3.7-8.25-8.25-8.25Z"/>
    <g>
      <path class="cls-1" d="M54.98,144.93c-4.28,0-7.8,3.26-8.21,7.43-.55,0-1.1-.03-1.65-.03l-.35-5.34c4.3-.28,7.71-3.85,7.71-8.23s-3.69-8.25-8.26-8.25-8.25,3.7-8.25,8.25,3.41,7.95,7.71,8.23l-.35,5.34c-.55,0-1.1.02-1.65.03-.42-4.17-3.93-7.43-8.22-7.43-4.56,0-8.25,3.69-8.25,8.25s3.69,8.25,8.25,8.25c4.28,0,7.8-3.26,8.22-7.43.51.02,1.02.02,1.53.03l-1,15.07h4.02l-1-15.07c.52,0,1.03-.02,1.54-.03.42,4.17,3.93,7.43,8.21,7.43,4.56,0,8.26-3.7,8.26-8.25s-3.69-8.25-8.26-8.25Z"/>
      <path class="cls-1" d="M146.55,144.93c-4.28,0-7.8,3.26-8.21,7.43-.55,0-1.1-.03-1.65-.03l-.35-5.34c4.3-.28,7.71-3.85,7.71-8.23s-3.69-8.25-8.26-8.25-8.25,3.7-8.25,8.25,3.41,7.95,7.71,8.23l-.36,5.34c-.55,0-1.1.02-1.65.03-.41-4.17-3.93-7.43-8.21-7.43-4.56,0-8.25,3.69-8.25,8.25s3.69,8.25,8.25,8.25c4.28,0,7.8-3.26,8.21-7.43.51.02,1.02.02,1.54.03l-1,15.07h4.02l-1-15.07c.52,0,1.03-.02,1.54-.03.42,4.17,3.93,7.43,8.21,7.43,4.56,0,8.25-3.7,8.25-8.25s-3.69-8.25-8.25-8.25Z"/>
    </g>
    <g>
      <path class="cls-1" d="M54.98,192.54c-4.28,0-7.8,3.26-8.21,7.43-.55,0-1.1-.03-1.65-.03l-.35-5.34c4.3-.28,7.71-3.85,7.71-8.23s-3.69-8.25-8.26-8.25-8.25,3.7-8.25,8.25,3.41,7.95,7.71,8.23l-.35,5.34c-.55,0-1.1.02-1.65.03-.42-4.17-3.93-7.43-8.22-7.43-4.56,0-8.25,3.7-8.25,8.25s3.69,8.26,8.25,8.26c4.28,0,7.8-3.26,8.22-7.43.51.02,1.02.02,1.53.03l-1,15.07h4.02l-1-15.07c.52,0,1.03-.02,1.54-.03.42,4.17,3.93,7.43,8.21,7.43,4.56,0,8.26-3.7,8.26-8.26s-3.69-8.25-8.26-8.25Z"/>
      <path class="cls-1" d="M146.55,192.54c-4.28,0-7.8,3.26-8.21,7.43-.55,0-1.1-.03-1.65-.03l-.35-5.34c4.3-.28,7.71-3.85,7.71-8.23s-3.69-8.25-8.26-8.25-8.25,3.7-8.25,8.25,3.41,7.95,7.71,8.23l-.36,5.34c-.55,0-1.1.02-1.65.03-.41-4.17-3.93-7.43-8.21-7.43-4.56,0-8.25,3.7-8.25,8.25s3.69,8.26,8.25,8.26c4.28,0,7.8-3.26,8.21-7.43.51.02,1.02.02,1.54.03l-1,15.07h4.02l-1-15.07c.52,0,1.03-.02,1.54-.03.42,4.17,3.93,7.43,8.21,7.43,4.56,0,8.25-3.7,8.25-8.26s-3.69-8.25-8.25-8.25Z"/>
    </g>
    <path class="cls-1" d="M100.76,168.74c-4.28,0-7.8,3.26-8.21,7.43-.55,0-1.1-.02-1.65-.03l-.35-5.34c4.3-.28,7.71-3.85,7.71-8.23s-3.69-8.25-8.26-8.25-8.25,3.7-8.25,8.25,3.41,7.95,7.71,8.23l-.35,5.34c-.55.01-1.1.02-1.65.03-.41-4.17-3.93-7.43-8.21-7.43-4.56,0-8.25,3.69-8.25,8.25s3.69,8.25,8.25,8.25c4.28,0,7.8-3.26,8.21-7.43.51.02,1.02.03,1.53.03l-1,15.07h4.02l-1-15.07c.52,0,1.03-.02,1.54-.03.41,4.17,3.93,7.43,8.21,7.43,4.56,0,8.25-3.7,8.25-8.25s-3.7-8.25-8.25-8.25Z"/>
  </g>
  <g>
    <path class="cls-1" d="M9,9.54h3.82v29.84h-3.82V9.54ZM21.33,40.02c-1.74,0-3.22-.63-4.45-1.89-1.23-1.26-1.84-2.78-1.84-4.54V15.43c0-1.74.61-3.25,1.84-4.52,1.23-1.27,2.71-1.91,4.45-1.91s3.26.64,4.48,1.91c1.23,1.28,1.84,2.78,1.84,4.52v18.15c0,1.76-.61,3.28-1.84,4.54-1.23,1.26-2.72,1.89-4.48,1.89ZM21.33,12.93c-.68,0-1.26.25-1.74.75-.48.5-.72,1.08-.72,1.75v18.13c0,.69.24,1.28.72,1.78.48.5,1.06.75,1.74.75s1.29-.25,1.78-.75c.48-.5.73-1.09.73-1.78V15.43c0-.67-.24-1.25-.73-1.75-.48-.5-1.08-.75-1.78-.75Z"/>
    <path class="cls-1" d="M171,242.46h-3.82v-29.84h3.82v29.84ZM158.67,211.98c1.74,0,3.22.63,4.45,1.89,1.23,1.26,1.84,2.78,1.84,4.54v18.15c0,1.74-.61,3.25-1.84,4.52-1.23,1.27-2.71,1.91-4.45,1.91s-3.26-.64-4.48-1.91c-1.23-1.28-1.84-2.78-1.84-4.52v-18.15c0-1.76.61-3.28,1.84-4.54,1.23-1.26,2.72-1.89,4.48-1.89ZM158.67,239.07c.68,0,1.26-.25,1.74-.75.48-.5.72-1.08.72-1.75v-18.13c0-.69-.24-1.28-.72-1.78-.48-.5-1.06-.75-1.74-.75s-1.29.25-1.78.75c-.48.5-.73,1.09-.73,1.78v18.13c0,.67.24,1.25.73,1.75.48.5,1.08.75,1.78.75Z"/>
  </g>
</svg>