<?xml version="1.0" encoding="UTF-8"?>
<svg id="Layer_1" data-name="Layer 1" xmlns="http://www.w3.org/2000/svg" xmlns:xlink="http://www.w3.org/1999/xlink" viewBox="0 0 180 252">
  <defs>
    <style>
      .cls-1, .cls-2 {
        fill: none;
      }

      .cls-2, .cls-3, .cls-4, .cls-5, .cls-6 {
        stroke: #010101;
        stroke-miterlimit: 10;
      }

      .cls-7, .cls-6 {
        fill: #010101;
      }

      .cls-8 {
        fill: #231f20;
      }

      .cls-3, .cls-9, .cls-5 {
        fill: #fff;
      }

      .cls-4 {
        fill: url(#New_Pattern_Swatch_1);
        stroke-width: 11px;
      }

      .cls-10 {
        fill: #020202;
      }

      .cls-5 {
        stroke-linecap: round;
      }

      .cls-11 {
        fill: #ba2025;
      }

      .cls-12 {
        clip-path: url(#clippath);
      }
    </style>
    <clipPath id="clippath">
      <path class="cls-3" d="M137.87,193.27c0-26.13-21.19-47.32-47.31-47.32s-47.31,21.19-47.31,47.32c0,12.18,4.61,23.29,12.17,31.67h70.29c7.56-8.39,12.17-19.49,12.17-31.67Z"/>
    </clipPath>
    <pattern id="New_Pattern_Swatch_1" data-name="New Pattern Swatch 1" x="0" y="0" width="10.8" height="16.2" patternTransform="translate(-702 -918)" patternUnits="userSpaceOnUse" viewBox="0 0 10.8 16.2">
      <g>
        <rect class="cls-1" y="0" width="10.8" height="16.2"/>
        <circle class="cls-8" cx="10.8" cy="16.2" r="2.87"/>
        <circle class="cls-8" cx="0" cy="16.2" r="2.87"/>
        <circle class="cls-8" cx="5.4" cy="8.1" r="2.87"/>
        <circle class="cls-8" cx="10.8" cy="0" r="2.87"/>
        <circle class="cls-8" cx="0" cy="0" r="2.87"/>
      </g>
    </pattern>
  </defs>
  <g>
    <g>
      <g>
        <path class="cls-9" d="M137.87,193.27c0-26.13-21.19-47.32-47.31-47.32s-47.31,21.19-47.31,47.32c0,12.18,4.61,23.29,12.17,31.67h70.29c7.56-8.39,12.17-19.49,12.17-31.67Z"/>
        <g class="cls-12">
          <g>
            <path class="cls-10" d="M22.59,187.87c-1.48.59-2.22,2.2-1.77,3.62-.19.08-.38.15-.56.23l-.89-1.69c1.43-.72,2.1-2.39,1.5-3.83-.62-1.5-2.43-2.15-4.06-1.46-1.61.73-2.36,2.51-1.66,3.98.66,1.41,2.36,2.04,3.85,1.47l.65,1.79c-.18.09-.36.17-.54.26-.74-1.29-2.42-1.83-3.87-1.12-1.55.73-2.18,2.54-1.44,3.98.75,1.45,2.5,2.02,3.97,1.33,1.37-.67,2.06-2.22,1.58-3.65.17-.07.34-.15.51-.22l1.86,5.05c.43-.2.86-.38,1.29-.57l-2.48-4.77c.18-.08.34-.16.52-.24.73,1.31,2.34,1.85,3.76,1.28,1.51-.61,2.27-2.33,1.69-3.84-.59-1.53-2.34-2.24-3.92-1.6Z"/>
            <path class="cls-10" d="M39.98,181.83c-1.53.45-2.45,1.93-2.15,3.39-.2.06-.39.12-.58.17l-.7-1.77c1.49-.58,2.35-2.13,1.91-3.64-.45-1.55-2.19-2.44-3.86-1.9-1.66.54-2.6,2.22-2.08,3.76.5,1.48,2.1,2.3,3.65,1.9l.45,1.86c-.19.07-.38.13-.57.2-.59-1.37-2.2-2.08-3.72-1.57-1.6.56-2.46,2.25-1.91,3.78.55,1.53,2.25,2.32,3.79,1.78,1.46-.49,2.31-1.97,2.01-3.44.18-.05.35-.11.54-.17l1.28,5.23,1.36-.44-1.94-5.01c.18-.06.36-.12.54-.19.58,1.37,2.14,2.13,3.61,1.7,1.57-.48,2.51-2.07,2.09-3.64-.42-1.57-2.1-2.51-3.73-2.01Z"/>
            <path class="cls-10" d="M57.89,177.61c-1.57.27-2.63,1.7-2.48,3.18-.2.04-.4.07-.6.11l-.51-1.84c1.54-.42,2.54-1.92,2.26-3.45-.3-1.6-1.92-2.61-3.64-2.26-1.71.34-2.81,1.92-2.45,3.52.34,1.51,1.85,2.48,3.44,2.27l.25,1.89c-.2.04-.39.09-.58.13-.45-1.42-1.98-2.31-3.54-1.93-1.65.39-2.68,1.98-2.29,3.55.39,1.57,2,2.55,3.6,2.17,1.5-.37,2.5-1.74,2.35-3.23.18-.03.36-.07.55-.1l.74,5.33,1.4-.28-1.42-5.18c.19-.04.37-.08.56-.13.44,1.43,1.9,2.29,3.42,2.03,1.62-.28,2.71-1.8,2.45-3.4-.26-1.61-1.83-2.67-3.51-2.39Z"/>
            <path class="cls-10" d="M76.13,175.22c-1.59.09-2.78,1.43-2.79,2.91-.2.02-.41.03-.61.05l-.32-1.88c1.58-.26,2.72-1.67,2.6-3.21-.13-1.63-1.65-2.79-3.39-2.61-1.74.18-2.99,1.63-2.79,3.24.19,1.55,1.59,2.68,3.19,2.62l.06,1.91c-.2.03-.4.05-.59.08-.31-1.45-1.74-2.5-3.33-2.29-1.68.23-2.86,1.72-2.63,3.33.23,1.61,1.74,2.73,3.36,2.5,1.53-.2,2.67-1.45,2.66-2.96.18-.02.37-.03.56-.05l.2,5.38,1.42-.15-.89-5.3c.19-.02.37-.05.57-.07.3,1.48,1.66,2.45,3.2,2.37,1.63-.11,2.88-1.51,2.78-3.13-.1-1.63-1.55-2.85-3.25-2.73Z"/>
            <path class="cls-10" d="M94.52,174.7c-1.6-.01-2.92,1.14-3.07,2.63-.21,0-.41-.01-.61-.02l-.13-1.9c1.59-.09,2.88-1.35,2.91-2.91.04-1.62-1.36-2.95-3.11-2.96-1.75-.02-3.14,1.3-3.11,2.94.03,1.55,1.31,2.81,2.91,2.93l-.13,1.9c-.2,0-.4,0-.6.01-.15-1.48-1.47-2.68-3.07-2.61-1.7.05-3.02,1.41-2.96,3.03.07,1.62,1.45,2.89,3.08,2.84,1.54-.07,2.8-1.19,2.95-2.68.19,0,.37,0,.56.01l-.35,5.37h1.43s-.34-5.35-.34-5.35c.19,0,.38,0,.57-.01.14,1.48,1.4,2.66,2.94,2.67,1.64.05,3.02-1.19,3.09-2.81.07-1.62-1.25-3.02-2.95-3.07Z"/>
            <path class="cls-10" d="M112.87,176.13c-1.58-.2-3.01.78-3.32,2.24-.2-.03-.4-.06-.6-.09l.07-1.91c1.59.1,3-1,3.19-2.55.2-1.61-1.04-3.11-2.78-3.31-1.74-.15-3.27,1.04-3.41,2.65-.13,1.55,1.01,2.93,2.59,3.17l-.33,1.88c-.2-.01-.4-.02-.6-.04,0-1.49-1.19-2.76-2.79-2.9-1.69-.14-3.15,1.04-3.25,2.67-.1,1.61,1.14,3.05,2.77,3.19,1.53.13,2.91-.91,3.21-2.38.18.02.37.04.56.06l-.91,5.31c.47.04.95.07,1.42.14l.22-5.38c.19.02.37.04.57.06-.01,1.49,1.11,2.81,2.64,3.01,1.62.21,3.13-.92,3.37-2.53.24-1.61-.93-3.09-2.62-3.31Z"/>
            <path class="cls-10" d="M130.98,179.4c-1.56-.34-3.09.51-3.55,1.94-.2-.05-.4-.09-.59-.14l.27-1.89c1.58.24,3.1-.73,3.45-2.25.37-1.58-.72-3.16-2.43-3.54-1.71-.37-3.34.62-3.65,2.22-.29,1.53.7,3.05,2.24,3.48l-.52,1.83c-.2-.04-.4-.08-.59-.11.15-1.47-.89-2.94-2.47-3.2-1.68-.29-3.25.77-3.52,2.38-.27,1.6.82,3.12,2.43,3.4,1.52.24,2.98-.56,3.44-2,.18.04.36.08.55.13l-1.45,5.18,1.39.3.77-5.32c.19.04.37.07.56.11-.17,1.48.82,2.89,2.32,3.21,1.6.34,3.2-.54,3.6-2.13.4-1.56-.59-3.24-2.26-3.6Z"/>
            <path class="cls-10" d="M148.65,184.51c-1.49-.56-3.13.21-3.72,1.56-.19-.07-.39-.13-.58-.19l.46-1.85c1.55.38,3.17-.45,3.67-1.92.53-1.54-.4-3.21-2.07-3.73-1.67-.52-3.4.31-3.86,1.87-.45,1.49.39,3.09,1.88,3.66l-.71,1.77c-.19-.06-.39-.11-.58-.17.3-1.46-.6-2.96-2.13-3.44-1.61-.54-3.31.44-3.74,1.99-.43,1.58.52,3.13,2.07,3.65,1.47.46,3.03-.27,3.62-1.64.18.06.35.12.53.18l-1.97,5.01,1.36.43,1.3-5.21c.19.05.36.1.55.16-.32,1.47.55,2.9,1.99,3.44,1.54.56,3.24-.22,3.8-1.74.56-1.53-.28-3.24-1.88-3.82Z"/>
            <path class="cls-10" d="M165.72,191.34c-1.43-.7-3.11-.14-3.84,1.17-.19-.08-.37-.16-.56-.24l.63-1.8c1.52.5,3.18-.12,3.82-1.54.33-.74.32-1.56.02-2.29-.31-.71-.9-1.31-1.71-1.65-1.61-.67-3.41,0-4.03,1.5-.59,1.44.09,3.11,1.52,3.81l-.87,1.7c-.19-.07-.38-.15-.56-.22.44-1.43-.31-3-1.79-3.61-1.57-.65-3.31.04-3.9,1.57-.58,1.49.17,3.24,1.69,3.87,1.42.59,3.05.01,3.77-1.29.17.07.34.15.52.22l-2.45,4.8,1.32.55,1.8-5.06c.18.07.35.14.53.21-.45,1.41.26,2.96,1.64,3.64,1.49.7,3.25.08,3.95-1.38.7-1.47.02-3.24-1.52-3.97Z"/>
          </g>
          <path class="cls-4" d="M36.56,202.13v38.34h108v-38.14c-50.92-23.29-94.3-6.75-108-.2Z"/>
        </g>
        <path class="cls-2" d="M137.87,193.27c0-26.13-21.19-47.32-47.31-47.32s-47.31,21.19-47.31,47.32c0,12.18,4.61,23.29,12.17,31.67h70.29c7.56-8.39,12.17-19.49,12.17-31.67Z"/>
      </g>
      <g>
        <g>
          <path class="cls-7" d="M139.64,194.19s.08.18-2.49.23c-2.19.05-2.87-.23-2.87-.23l.69-43.38h3.99l.69,43.38ZM136.42,151.02h-.95l-.18,42.69h1.31l-.18-42.69Z"/>
          <path class="cls-7" d="M133.8,149.91l.04.44c.03.3.31.55.61.55h4.88c.3,0,.58-.25.61-.55l.04-.44c.45.08.89.2,1.28.34,1.02.36,1.7.91,1.73,1.87,0,.78-.26,1.36-.67,1.77-.41.41-.99.67-1.77.67-.32,0-.61.29-.61.61v4.27c0,.32.29.61.61.61,3.19,0,6.25-1.12,8.51-3.3,2.26-2.18,3.7-5.41,3.7-9.52s-1.44-7.34-3.7-9.52c-2.26-2.18-5.31-3.3-8.51-3.3-.4.02-.59.33-.61.61v4.27c0,.32.29.61.61.61,1.52.06,2.43,1.14,2.44,2.44,0,1.24-1.36,1.78-2.46,2.08.07-.53-.08-.83-.59-.86h-.9l.28-3.01c.02-.33-.28-.65-.61-.65h-3.78c-.29.05-.52.35-.5.65l.29,3.01h-1.01c-.45.04-.56.39-.48.86l.56,5.48ZM135.73,141.13h2.33l-.23,2.44h-1.87l-.23-2.44ZM134.53,144.79h4.73l-.48,4.88h-3.78l-.48-4.88Z"/>
        </g>
        <path class="cls-5" d="M142.16,168.17c1.24,0,2.25,1,2.25,2.25s-1.01,2.25-2.25,2.25h-2.99,8.99c1.25,0,2.26,1.01,2.25,2.25,0,1.24-1.01,2.25-2.25,2.25h-9,9c1.24,0,2.25,1.01,2.25,2.25,0,1.24-1.01,2.25-2.25,2.25h-9,2.99c1.24,0,2.25,1,2.25,2.25s-1.01,2.25-2.25,2.25h-8.12c-1.24,0-2.25-1-2.25-2.25v-13.5c0-1.24,1.01-2.25,2.25-2.25h8.12Z"/>
      </g>
    </g>
    <polygon class="cls-6" points="58.9 139.67 27.24 225.05 63.75 225.05 72.6 146.58 58.9 139.67"/>
    <g>
      <path class="cls-3" d="M130.56,139.15c0,5.52-4.48,10-10,10h-60c-5.52,0-10-4.48-10-10v-40c0-5.52,4.48-10,10-10h60c5.52,0,10,4.48,10,10v40Z"/>
      <g>
        <g>
          <path class="cls-7" d="M81.91,114.11c1.83,0,3.31,2.96,3.31,6.61s-1.48,6.61-3.31,6.61-3.31-2.96-3.31-6.61,1.48-6.61,3.31-6.61Z"/>
          <path class="cls-7" d="M108.37,114.11c1.83,0,3.31,2.96,3.31,6.61s-1.48,6.61-3.31,6.61-3.31-2.96-3.31-6.61,1.48-6.61,3.31-6.61Z"/>
        </g>
        <g>
          <path class="cls-11" d="M74.47,132.23c2.39,0,4.33.97,4.33,2.17s-1.94,2.17-4.33,2.17-4.33-.97-4.33-2.17,1.94-2.17,4.33-2.17Z"/>
          <path class="cls-11" d="M115.81,132.23c2.39,0,4.34.97,4.34,2.17s-1.94,2.17-4.34,2.17-4.33-.97-4.33-2.17,1.94-2.17,4.33-2.17Z"/>
        </g>
      </g>
    </g>
    <path class="cls-7" d="M109.75,143.55c-1.63-.92-3.8-1.83-5.88-2.68-.52-.21-1.03-.42-1.53-.63-.48-.23-1.01-.39-1.44-.62-.46-.2-.92-.39-1.3-.6-.43-.19-.79-.39-1.12-.61-.37-.2-.63-.42-.89-.65-.27-.21-.53-.43-.66-.64-.36-.45-.58-.71-.58-.71,0,0-.21.26-.58.71-.13.22-.39.43-.66.64-.26.23-.52.45-.89.65-.33.22-.69.42-1.12.61-.38.22-.84.4-1.3.6-.43.23-.96.38-1.44.62-.51.21-1.02.42-1.53.63-2.08.85-4.25,1.76-5.88,2.68-1.64.86-2.74,1.71-2.74,1.71,0,0,1.31.53,3.24.61.98.08,2.1.03,3.29-.15,1.19-.18,2.44-.52,3.66-.99.6-.29,1.2-.52,1.77-.88.57-.35,1.12-.67,1.62-1.12.51-.41.97-.84,1.35-1.34.19-.25.39-.47.54-.71.14-.27.27-.53.4-.78.12-.2.2-.41.27-.62.06.21.14.42.26.62.13.25.26.51.39.78.16.25.35.46.54.71.38.5.85.93,1.35,1.34.5.45,1.05.77,1.62,1.12.57.35,1.18.59,1.77.87,1.22.47,2.47.82,3.66.99,1.19.18,2.31.23,3.29.15,1.93-.09,3.24-.61,3.24-.61,0,0-1.11-.85-2.74-1.71Z"/>
    <g>
      <path class="cls-10" d="M72.16,55.25c2.82,0,5.3-1.24,6.99-3.27,1.58-1.92,2.93-4.17,4.17-6.65-7.33,1.24-13.2,4.4-16.24,8.46h.11c1.46,1.02,3.16,1.46,4.96,1.46ZM108.93,55.25h0c1.8,0,3.5-.45,4.96-1.46h.11c-3.05-4.06-8.91-7.1-16.24-8.35,1.24,2.48,2.71,4.74,4.17,6.65,1.69,1.92,4.18,3.16,6.99,3.16ZM117.28,75.33l4.62-27.97h.45c2.37,0,4.29-1.92,4.29-4.29s-1.92-4.17-4.29-4.17-4.29,1.92-4.29,4.29c0,1.91,1.24,3.61,3.04,4.06-.9,2.37-2.03,4.4-3.5,6.2-.68.9-1.58,1.58-2.48,2.25-4.73,3.05-11.39,2.26-15-2.25-2.14-2.71-3.83-5.64-5.19-8.46-1.69-3.61-2.82-7.1-3.5-9.59,1.92-.45,3.27-2.14,3.27-4.17,0-2.37-1.92-4.28-4.29-4.28s-4.28,1.92-4.28,4.28c0,2.03,1.47,3.72,3.27,4.17-.68,2.59-1.81,5.98-3.5,9.59-1.35,2.82-3.04,5.86-5.19,8.46-3.61,4.62-10.38,5.3-15,2.37-.9-.56-1.8-1.35-2.48-2.25-1.46-1.8-2.59-3.84-3.5-6.2,1.8-.56,3.05-2.15,3.05-4.06,0-2.37-1.92-4.29-4.29-4.29s-4.29,1.92-4.29,4.29,1.92,4.29,4.29,4.29h.45l4.74,27.97,53.57-.22ZM98.63,61.46c0,4.53-3.67,8.2-8.2,8.2s-8.19-3.67-8.19-8.2,3.67-8.19,8.19-8.19,8.2,3.67,8.2,8.19ZM93.34,60.14c-1.15,0-2.1.88-2.21,2-.15,0-.3,0-.45,0l-.09-1.44c1.16-.08,2.08-1.04,2.08-2.22s-1-2.23-2.23-2.23-2.23,1-2.23,2.23.92,2.14,2.08,2.22l-.09,1.44c-.15,0-.3,0-.45,0-.11-1.12-1.06-2-2.21-2-1.23,0-2.23,1-2.23,2.23s1,2.23,2.23,2.23c1.16,0,2.11-.88,2.21-2,.14,0,.27,0,.41,0l-.27,4.06h1.09l-.27-4.06c.14,0,.28,0,.41,0,.11,1.12,1.06,2,2.21,2,1.23,0,2.23-1,2.23-2.23,0-1.23-.99-2.23-2.22-2.23Z"/>
      <path class="cls-3" d="M121.13,84.94c0,2.91-2.36,5.26-5.26,5.26h-50.87c-2.91,0-5.26-2.35-5.26-5.26v-3.5c0-2.91,2.35-5.26,5.26-5.26h50.87c2.91,0,5.26,2.36,5.26,5.26v3.5h0Z"/>
    </g>
  </g>
  <g>
    <path class="cls-8" d="M13.11,28.51c0,1.45,0,2.06,0,1.82,0,1.43.3,2.57.89,3.43.71,1.02,1.79,1.54,3.22,1.54,1.22,0,2.19-.44,2.93-1.32.67-.81,1-1.82,1-3.04V13.25h-3.25v-4.25h10.47v4.25h-3.11v17.69c0,2.41-.73,4.42-2.18,6.04-1.52,1.69-3.48,2.54-5.86,2.54s-4.38-.83-5.93-2.5c-1.55-1.67-2.31-3.7-2.29-6.11v-2.39h4.11Z"/>
    <path class="cls-8" d="M166.89,223.49c0-1.45,0-2.06,0-1.82,0-1.43-.3-2.57-.89-3.43-.71-1.02-1.79-1.54-3.22-1.54-1.22,0-2.19.44-2.93,1.32-.67.81-1,1.82-1,3.04v17.69h3.25v4.25h-10.47v-4.25h3.11v-17.69c0-2.41.73-4.42,2.18-6.04,1.52-1.69,3.48-2.54,5.86-2.54s4.38.83,5.93,2.5c1.55,1.67,2.31,3.7,2.29,6.11v2.39h-4.11Z"/>
  </g>
</svg>