<?xml version="1.0" encoding="UTF-8"?>
<svg id="a" data-name="Layer 1" xmlns="http://www.w3.org/2000/svg" width="2.5in" height="3.5in" xmlns:xlink="http://www.w3.org/1999/xlink" viewBox="0 0 180 252">
  <defs>
    <clipPath id="b">
      <rect width="180" height="252" rx="18" ry="18" style="fill: none;"/>
    </clipPath>
    <clipPath id="c">
      <path d="M137.87,193.27c0-26.13-21.19-47.32-47.31-47.32s-47.31,21.19-47.31,47.32c0,12.18,4.61,23.29,12.17,31.67h70.29c7.56-8.39,12.17-19.49,12.17-31.67Z" style="fill: #fff; stroke: #010101; stroke-miterlimit: 10;"/>
    </clipPath>
    <pattern id="d" data-name="New Pattern Swatch 1" x="0" y="0" width="10.8" height="16.2" patternTransform="translate(-702 -918)" patternUnits="userSpaceOnUse" viewBox="0 0 10.8 16.2">
      <g>
        <rect y="0" width="10.8" height="16.2" style="fill: none;"/>
        <circle cx="10.8" cy="16.2" r="2.87" style="fill: #231f20;"/>
        <circle cx="0" cy="16.2" r="2.87" style="fill: #231f20;"/>
        <circle cx="5.4" cy="8.1" r="2.87" style="fill: #231f20;"/>
        <circle cx="10.8" cy="0" r="2.87" style="fill: #231f20;"/>
        <circle cx="0" cy="0" r="2.87" style="fill: #231f20;"/>
      </g>
    </pattern>
  </defs>
  <g style="clip-path: url(#b);">
    <rect x="-.51" width="180" height="252" style="fill: #fff;"/>
    <path d="M22.06,80.92c0,5.69,0,8.07,0,7.14,0,5.6,1.17,10.08,3.5,13.44,2.8,4.01,7,6.02,12.6,6.02,4.76,0,8.59-1.73,11.48-5.18,2.61-3.17,3.92-7.14,3.92-11.9V21.14h-12.74V4.48h41.02v16.66h-12.18v69.3c0,9.43-2.85,17.31-8.54,23.66-5.97,6.63-13.63,9.94-22.96,9.94s-17.17-3.27-23.24-9.8c-6.07-6.53-9.05-14.51-8.96-23.94v-9.38h16.1Z" style="fill: #231f20;"/>
    <path d="M24.65,226.85l28.98-78.15c-3.04-2.2-4.88-5.74-4.88-9.56v-40c0-5.78,4.18-10.6,9.67-11.61-.32-.81-.49-1.69-.49-2.6v-3.5c0-2.75,1.58-5.13,3.87-6.3l-4.38-25.84c-2.84-.51-5-3-5-5.99,0-3.36,2.73-6.09,6.09-6.09s6.08,2.73,6.08,6.09c0,1.99-.97,3.79-2.54,4.91.73,1.59,1.58,2.98,2.59,4.22.2.26.41.51.65.75l.35-.47c3.39-4.52,9.72-7.86,17.38-9.15l1.71-.29c1.18-2.64,1.99-5.01,2.53-6.84-1.76-1.1-2.92-3.06-2.92-5.19,0-3.35,2.73-6.08,6.08-6.08s6.09,2.73,6.09,6.08c0,2.19-1.13,4.13-2.9,5.21.58,1.93,1.42,4.36,2.55,6.91l1.89.32c7.72,1.31,14.05,4.6,17.38,9.04l.19.26c.2-.19.37-.39.53-.6,1.03-1.27,1.89-2.66,2.62-4.24-1.55-1.09-2.52-2.91-2.52-4.94,0-3.36,2.73-6.09,6.08-6.09s6.08,2.68,6.08,5.97c0,2.98-2.16,5.47-4.99,5.99l-4.32,26.1c2.26,1.18,3.8,3.55,3.8,6.27v3.5c0,.88-.17,1.75-.49,2.56,5.61.91,9.91,5.79,9.91,11.65v40c0,1.31-.21,2.57-.61,3.75.05-.08.1-.16.15-.23.23-.3.53-.54.88-.69l-.12-1.25c-.11-1.23.75-2.36,1.96-2.59l.16-.03h3.36v-3.2c.08-1.25,1.05-2.21,2.3-2.29h.11c3.75,0,7.22,1.35,9.76,3.8,2.78,2.68,4.25,6.42,4.25,10.81s-1.47,8.13-4.25,10.82c-2.46,2.37-5.78,3.71-9.38,3.8l.07,4.52h1.16c2.24,0,4.05,1.81,4.05,4.04,0,.15,0,.3-.02.45h1.98c1.09,0,2.11.42,2.87,1.19.76.77,1.18,1.78,1.18,2.86,0,.81-.24,1.59-.68,2.25.43.64.68,1.42.68,2.24,0,2.24-1.82,4.06-4.05,4.06h-1.98c.02.15.02.29.02.45,0,2.24-1.82,4.05-4.05,4.05h-.82s.09,5.81.09,5.81l.24.53-.51.83c-.35.56-.84.81-1.58.93-.63,11.14-5.05,21.76-12.55,30.08l-.54.59h-61.13v.11H24.65ZM62.15,223.14l7.96-70.55c-15.33,7.7-25.07,23.34-25.07,40.68,0,11.01,3.96,21.59,11.18,29.87h5.93ZM115.49,150.95c6.66,3.93,12.34,9.41,16.53,15.98.28-.16.58-.29.9-.38l.23-14.24c-.59-.39-1.01-1.04-1.09-1.78l-.04-.46-.55-5.4c-.06-.39-.05-.73.01-1.02-1.77,4.28-5.99,7.31-10.91,7.31h-5.07ZM140.78,152.74c.18-.03.25-.1.28-.12.08-.08.12-.22.13-.41-.04-.03-.11-.08-.24-.14-.06.05-.12.1-.18.15v.53ZM137.15,147.88l.12-1.29h-.76l.12,1.29h.51ZM141.15,142.07c-.03-.08-.07-.14-.13-.2v.12s.09.05.13.07ZM92.82,67.39c.74-.3,1.42-.74,1.99-1.28-.46.18-.96.28-1.48.28-.2,0-.39-.01-.58-.04l.07,1.03ZM86.06,66.12c.57.54,1.24.97,1.98,1.27l.07-1.03c-.19.03-.38.04-.58.04-.52,0-1.01-.1-1.47-.28ZM94.46,58.5c.65.19,1.24.53,1.73,1.02.19.19.36.4.51.62-.39-1.87-1.6-3.44-3.23-4.32.62.71,1,1.64,1,2.65v.02ZM87.4,55.83c-1.63.88-2.83,2.45-3.22,4.31.52-.78,1.31-1.37,2.23-1.64v-.02c0-1.01.38-1.94,1-2.65Z" style="fill: #fff;"/>
    <g>
      <g>
        <g>
          <path d="M137.87,193.27c0-26.13-21.19-47.32-47.31-47.32s-47.31,21.19-47.31,47.32c0,12.18,4.61,23.29,12.17,31.67h70.29c7.56-8.39,12.17-19.49,12.17-31.67Z" style="fill: #fff;"/>
          <g style="clip-path: url(#c);">
            <g>
              <path d="M22.59,187.87c-1.48.59-2.22,2.2-1.77,3.62-.19.08-.38.15-.56.23l-.89-1.69c1.43-.72,2.1-2.39,1.5-3.83-.62-1.5-2.43-2.15-4.06-1.46-1.61.73-2.36,2.51-1.66,3.98.66,1.41,2.36,2.04,3.85,1.47l.65,1.79c-.18.09-.36.17-.54.26-.74-1.29-2.42-1.83-3.87-1.12-1.55.73-2.18,2.54-1.44,3.98.75,1.45,2.5,2.02,3.97,1.33,1.37-.67,2.06-2.22,1.58-3.65.17-.07.34-.15.51-.22l1.86,5.05c.43-.2.86-.38,1.29-.57l-2.48-4.77c.18-.08.34-.16.52-.24.73,1.31,2.34,1.85,3.76,1.28,1.51-.61,2.27-2.33,1.69-3.84-.59-1.53-2.34-2.24-3.92-1.6Z" style="fill: #020202;"/>
              <path d="M39.98,181.83c-1.53.45-2.45,1.93-2.15,3.39-.2.06-.39.12-.58.17l-.7-1.77c1.49-.58,2.35-2.13,1.91-3.64-.45-1.55-2.19-2.44-3.86-1.9-1.66.54-2.6,2.22-2.08,3.76.5,1.48,2.1,2.3,3.65,1.9l.45,1.86c-.19.07-.38.13-.57.2-.59-1.37-2.2-2.08-3.72-1.57-1.6.56-2.46,2.25-1.91,3.78.55,1.53,2.25,2.32,3.79,1.78,1.46-.49,2.31-1.97,2.01-3.44.18-.05.35-.11.54-.17l1.28,5.23,1.36-.44-1.94-5.01c.18-.06.36-.12.54-.19.58,1.37,2.14,2.13,3.61,1.7,1.57-.48,2.51-2.07,2.09-3.64-.42-1.57-2.1-2.51-3.73-2.01Z" style="fill: #020202;"/>
              <path d="M57.89,177.61c-1.57.27-2.63,1.7-2.48,3.18-.2.04-.4.07-.6.11l-.51-1.84c1.54-.42,2.54-1.92,2.26-3.45-.3-1.6-1.92-2.61-3.64-2.26-1.71.34-2.81,1.92-2.45,3.52.34,1.51,1.85,2.48,3.44,2.27l.25,1.89c-.2.04-.39.09-.58.13-.45-1.42-1.98-2.31-3.54-1.93-1.65.39-2.68,1.98-2.29,3.55.39,1.57,2,2.55,3.6,2.17,1.5-.37,2.5-1.74,2.35-3.23.18-.03.36-.07.55-.1l.74,5.33,1.4-.28-1.42-5.18c.19-.04.37-.08.56-.13.44,1.43,1.9,2.29,3.42,2.03,1.62-.28,2.71-1.8,2.45-3.4-.26-1.61-1.83-2.67-3.51-2.39Z" style="fill: #020202;"/>
              <path d="M76.13,175.22c-1.59.09-2.78,1.43-2.79,2.91-.2.02-.41.03-.61.05l-.32-1.88c1.58-.26,2.72-1.67,2.6-3.21-.13-1.63-1.65-2.79-3.39-2.61-1.74.18-2.99,1.63-2.79,3.24.19,1.55,1.59,2.68,3.19,2.62l.06,1.91c-.2.03-.4.05-.59.08-.31-1.45-1.74-2.5-3.33-2.29-1.68.23-2.86,1.72-2.63,3.33.23,1.61,1.74,2.73,3.36,2.5,1.53-.2,2.67-1.45,2.66-2.96.18-.02.37-.03.56-.05l.2,5.38,1.42-.15-.89-5.3c.19-.02.37-.05.57-.07.3,1.48,1.66,2.45,3.2,2.37,1.63-.11,2.88-1.51,2.78-3.13-.1-1.63-1.55-2.85-3.25-2.73Z" style="fill: #020202;"/>
              <path d="M94.52,174.7c-1.6-.01-2.92,1.14-3.07,2.63-.21,0-.41-.01-.61-.02l-.13-1.9c1.59-.09,2.88-1.35,2.91-2.91.04-1.62-1.36-2.95-3.11-2.96-1.75-.02-3.14,1.3-3.11,2.94.03,1.55,1.31,2.81,2.91,2.93l-.13,1.9c-.2,0-.4,0-.6.01-.15-1.48-1.47-2.68-3.07-2.61-1.7.05-3.02,1.41-2.96,3.03.07,1.62,1.45,2.89,3.08,2.84,1.54-.07,2.8-1.19,2.95-2.68.19,0,.37,0,.56.01l-.35,5.37h1.43s-.34-5.35-.34-5.35c.19,0,.38,0,.57-.01.14,1.48,1.4,2.66,2.94,2.67,1.64.05,3.02-1.19,3.09-2.81.07-1.62-1.25-3.02-2.95-3.07Z" style="fill: #020202;"/>
              <path d="M112.87,176.13c-1.58-.2-3.01.78-3.32,2.24-.2-.03-.4-.06-.6-.09l.07-1.91c1.59.1,3-1,3.19-2.55.2-1.61-1.04-3.11-2.78-3.31-1.74-.15-3.27,1.04-3.41,2.65-.13,1.55,1.01,2.93,2.59,3.17l-.33,1.88c-.2-.01-.4-.02-.6-.04,0-1.49-1.19-2.76-2.79-2.9-1.69-.14-3.15,1.04-3.25,2.67-.1,1.61,1.14,3.05,2.77,3.19,1.53.13,2.91-.91,3.21-2.38.18.02.37.04.56.06l-.91,5.31c.47.04.95.07,1.42.14l.22-5.38c.19.02.37.04.57.06-.01,1.49,1.11,2.81,2.64,3.01,1.62.21,3.13-.92,3.37-2.53.24-1.61-.93-3.09-2.62-3.31Z" style="fill: #020202;"/>
              <path d="M130.98,179.4c-1.56-.34-3.09.51-3.55,1.94-.2-.05-.4-.09-.59-.14l.27-1.89c1.58.24,3.1-.73,3.45-2.25.37-1.58-.72-3.16-2.43-3.54-1.71-.37-3.34.62-3.65,2.22-.29,1.53.7,3.05,2.24,3.48l-.52,1.83c-.2-.04-.4-.08-.59-.11.15-1.47-.89-2.94-2.47-3.2-1.68-.29-3.25.77-3.52,2.38-.27,1.6.82,3.12,2.43,3.4,1.52.24,2.98-.56,3.44-2,.18.04.36.08.55.13l-1.45,5.18,1.39.3.77-5.32c.19.04.37.07.56.11-.17,1.48.82,2.89,2.32,3.21,1.6.34,3.2-.54,3.6-2.13.4-1.56-.59-3.24-2.26-3.6Z" style="fill: #020202;"/>
              <path d="M148.65,184.51c-1.49-.56-3.13.21-3.72,1.56-.19-.07-.39-.13-.58-.19l.46-1.85c1.55.38,3.17-.45,3.67-1.92.53-1.54-.4-3.21-2.07-3.73-1.67-.52-3.4.31-3.86,1.87-.45,1.49.39,3.09,1.88,3.66l-.71,1.77c-.19-.06-.39-.11-.58-.17.3-1.46-.6-2.96-2.13-3.44-1.61-.54-3.31.44-3.74,1.99-.43,1.58.52,3.13,2.07,3.65,1.47.46,3.03-.27,3.62-1.64.18.06.35.12.53.18l-1.97,5.01,1.36.43,1.3-5.21c.19.05.36.1.55.16-.32,1.47.55,2.9,1.99,3.44,1.54.56,3.24-.22,3.8-1.74.56-1.53-.28-3.24-1.88-3.82Z" style="fill: #020202;"/>
              <path d="M165.72,191.34c-1.43-.7-3.11-.14-3.84,1.17-.19-.08-.37-.16-.56-.24l.63-1.8c1.52.5,3.18-.12,3.82-1.54.33-.74.32-1.56.02-2.29-.31-.71-.9-1.31-1.71-1.65-1.61-.67-3.41,0-4.03,1.5-.59,1.44.09,3.11,1.52,3.81l-.87,1.7c-.19-.07-.38-.15-.56-.22.44-1.43-.31-3-1.79-3.61-1.57-.65-3.31.04-3.9,1.57-.58,1.49.17,3.24,1.69,3.87,1.42.59,3.05.01,3.77-1.29.17.07.34.15.52.22l-2.45,4.8,1.32.55,1.8-5.06c.18.07.35.14.53.21-.45,1.41.26,2.96,1.64,3.64,1.49.7,3.25.08,3.95-1.38.7-1.47.02-3.24-1.52-3.97Z" style="fill: #020202;"/>
            </g>
            <path d="M36.56,202.13v38.34h108v-38.14c-50.92-23.29-94.3-6.75-108-.2Z" style="fill: url(#d); stroke: #010101; stroke-miterlimit: 10; stroke-width: 11px;"/>
          </g>
          <path d="M137.87,193.27c0-26.13-21.19-47.32-47.31-47.32s-47.31,21.19-47.31,47.32c0,12.18,4.61,23.29,12.17,31.67h70.29c7.56-8.39,12.17-19.49,12.17-31.67Z" style="fill: none; stroke: #010101; stroke-miterlimit: 10;"/>
        </g>
        <g>
          <g>
            <path d="M139.64,194.19s.08.18-2.49.23c-2.19.05-2.87-.23-2.87-.23l.69-43.38h3.99l.69,43.38ZM136.42,151.02h-.95l-.18,42.69h1.31l-.18-42.69Z" style="fill: #010101;"/>
            <path d="M133.8,149.91l.04.44c.03.3.31.55.61.55h4.88c.3,0,.58-.25.61-.55l.04-.44c.45.08.89.2,1.28.34,1.02.36,1.7.91,1.73,1.87,0,.78-.26,1.36-.67,1.77-.41.41-.99.67-1.77.67-.32,0-.61.29-.61.61v4.27c0,.32.29.61.61.61,3.19,0,6.25-1.12,8.51-3.3,2.26-2.18,3.7-5.41,3.7-9.52s-1.44-7.34-3.7-9.52c-2.26-2.18-5.31-3.3-8.51-3.3-.4.02-.59.33-.61.61v4.27c0,.32.29.61.61.61,1.52.06,2.43,1.14,2.44,2.44,0,1.24-1.36,1.78-2.46,2.08.07-.53-.08-.83-.59-.86h-.9l.28-3.01c.02-.33-.28-.65-.61-.65h-3.78c-.29.05-.52.35-.5.65l.29,3.01h-1.01c-.45.04-.56.39-.48.86l.56,5.48ZM135.73,141.13h2.33l-.23,2.44h-1.87l-.23-2.44ZM134.53,144.79h4.73l-.48,4.88h-3.78l-.48-4.88Z" style="fill: #010101;"/>
          </g>
          <path d="M142.16,168.17c1.24,0,2.25,1,2.25,2.25s-1.01,2.25-2.25,2.25h-2.99,8.99c1.25,0,2.26,1.01,2.25,2.25,0,1.24-1.01,2.25-2.25,2.25h-9,9c1.24,0,2.25,1.01,2.25,2.25,0,1.24-1.01,2.25-2.25,2.25h-9,2.99c1.24,0,2.25,1,2.25,2.25s-1.01,2.25-2.25,2.25h-8.12c-1.24,0-2.25-1-2.25-2.25v-13.5c0-1.24,1.01-2.25,2.25-2.25h8.12Z" style="fill: #fff; stroke: #010101; stroke-linecap: round; stroke-miterlimit: 10;"/>
        </g>
      </g>
      <polygon points="58.9 139.67 27.24 225.05 63.75 225.05 72.6 146.58 58.9 139.67" style="fill: #010101; stroke: #010101; stroke-miterlimit: 10;"/>
      <g>
        <path d="M130.56,139.15c0,5.52-4.48,10-10,10h-60c-5.52,0-10-4.48-10-10v-40c0-5.52,4.48-10,10-10h60c5.52,0,10,4.48,10,10v40Z" style="fill: #fff; stroke: #010101; stroke-miterlimit: 10;"/>
        <g>
          <g>
            <path d="M81.91,114.11c1.83,0,3.31,2.96,3.31,6.61s-1.48,6.61-3.31,6.61-3.31-2.96-3.31-6.61,1.48-6.61,3.31-6.61Z" style="fill: #010101;"/>
            <path d="M108.37,114.11c1.83,0,3.31,2.96,3.31,6.61s-1.48,6.61-3.31,6.61-3.31-2.96-3.31-6.61,1.48-6.61,3.31-6.61Z" style="fill: #010101;"/>
          </g>
          <g>
            <path d="M74.47,132.23c2.39,0,4.33.97,4.33,2.17s-1.94,2.17-4.33,2.17-4.33-.97-4.33-2.17,1.94-2.17,4.33-2.17Z" style="fill: #ba2025;"/>
            <path d="M115.81,132.23c2.39,0,4.34.97,4.34,2.17s-1.94,2.17-4.34,2.17-4.33-.97-4.33-2.17,1.94-2.17,4.33-2.17Z" style="fill: #ba2025;"/>
          </g>
        </g>
      </g>
      <path d="M109.75,143.55c-1.63-.92-3.8-1.83-5.88-2.68-.52-.21-1.03-.42-1.53-.63-.48-.23-1.01-.39-1.44-.62-.46-.2-.92-.39-1.3-.6-.43-.19-.79-.39-1.12-.61-.37-.2-.63-.42-.89-.65-.27-.21-.53-.43-.66-.64-.36-.45-.58-.71-.58-.71,0,0-.21.26-.58.71-.13.22-.39.43-.66.64-.26.23-.52.45-.89.65-.33.22-.69.42-1.12.61-.38.22-.84.4-1.3.6-.43.23-.96.38-1.44.62-.51.21-1.02.42-1.53.63-2.08.85-4.25,1.76-5.88,2.68-1.64.86-2.74,1.71-2.74,1.71,0,0,1.31.53,3.24.61.98.08,2.1.03,3.29-.15,1.19-.18,2.44-.52,3.66-.99.6-.29,1.2-.52,1.77-.88.57-.35,1.12-.67,1.62-1.12.51-.41.97-.84,1.35-1.34.19-.25.39-.47.54-.71.14-.27.27-.53.4-.78.12-.2.2-.41.27-.62.06.21.14.42.26.62.13.25.26.51.39.78.16.25.35.46.54.71.38.5.85.93,1.35,1.34.5.45,1.05.77,1.62,1.12.57.35,1.18.59,1.77.87,1.22.47,2.47.82,3.66.99,1.19.18,2.31.23,3.29.15,1.93-.09,3.24-.61,3.24-.61,0,0-1.11-.85-2.74-1.71Z" style="fill: #010101;"/>
      <g>
        <path d="M72.16,55.25c2.82,0,5.3-1.24,6.99-3.27,1.58-1.92,2.93-4.17,4.17-6.65-7.33,1.24-13.2,4.4-16.24,8.46h.11c1.46,1.02,3.16,1.46,4.96,1.46ZM108.93,55.25h0c1.8,0,3.5-.45,4.96-1.46h.11c-3.05-4.06-8.91-7.1-16.24-8.35,1.24,2.48,2.71,4.74,4.17,6.65,1.69,1.92,4.18,3.16,6.99,3.16ZM117.28,75.33l4.62-27.97h.45c2.37,0,4.29-1.92,4.29-4.29s-1.92-4.17-4.29-4.17-4.29,1.92-4.29,4.29c0,1.91,1.24,3.61,3.04,4.06-.9,2.37-2.03,4.4-3.5,6.2-.68.9-1.58,1.58-2.48,2.25-4.73,3.05-11.39,2.26-15-2.25-2.14-2.71-3.83-5.64-5.19-8.46-1.69-3.61-2.82-7.1-3.5-9.59,1.92-.45,3.27-2.14,3.27-4.17,0-2.37-1.92-4.28-4.29-4.28s-4.28,1.92-4.28,4.28c0,2.03,1.47,3.72,3.27,4.17-.68,2.59-1.81,5.98-3.5,9.59-1.35,2.82-3.04,5.86-5.19,8.46-3.61,4.62-10.38,5.3-15,2.37-.9-.56-1.8-1.35-2.48-2.25-1.46-1.8-2.59-3.84-3.5-6.2,1.8-.56,3.05-2.15,3.05-4.06,0-2.37-1.92-4.29-4.29-4.29s-4.29,1.92-4.29,4.29,1.92,4.29,4.29,4.29h.45l4.74,27.97,53.57-.22ZM98.63,61.46c0,4.53-3.67,8.2-8.2,8.2s-8.19-3.67-8.19-8.2,3.67-8.19,8.19-8.19,8.2,3.67,8.2,8.19ZM93.34,60.14c-1.15,0-2.1.88-2.21,2-.15,0-.3,0-.45,0l-.09-1.44c1.16-.08,2.08-1.04,2.08-2.22s-1-2.23-2.23-2.23-2.23,1-2.23,2.23.92,2.14,2.08,2.22l-.09,1.44c-.15,0-.3,0-.45,0-.11-1.12-1.06-2-2.21-2-1.23,0-2.23,1-2.23,2.23s1,2.23,2.23,2.23c1.16,0,2.11-.88,2.21-2,.14,0,.27,0,.41,0l-.27,4.06h1.09l-.27-4.06c.14,0,.28,0,.41,0,.11,1.12,1.06,2,2.21,2,1.23,0,2.23-1,2.23-2.23,0-1.23-.99-2.23-2.22-2.23Z" style="fill: #020202;"/>
        <path d="M121.13,84.94c0,2.91-2.36,5.26-5.26,5.26h-50.87c-2.91,0-5.26-2.35-5.26-5.26v-3.5c0-2.91,2.35-5.26,5.26-5.26h50.87c2.91,0,5.26,2.36,5.26,5.26v3.5h0Z" style="fill: #fff; stroke: #010101; stroke-miterlimit: 10;"/>
      </g>
    </g>
  </g>
</svg>