<?xml version="1.0" encoding="UTF-8"?>
<svg id="a" data-name="Layer 1" xmlns="http://www.w3.org/2000/svg" width="2.5in" height="3.5in" xmlns:xlink="http://www.w3.org/1999/xlink" viewBox="0 0 180 252">
  <defs>
    <clipPath id="b">
      <rect width="180" height="252" rx="18" ry="18" style="fill: none;"/>
    </clipPath>
    <clipPath id="c">
      <path d="M139.04,196.49c0-26.13-21.19-47.32-47.31-47.32s-47.31,21.19-47.31,47.32c0,12.18,4.61,23.29,12.17,31.67h70.29c7.56-8.39,12.17-19.49,12.17-31.67Z" style="fill: #fff; stroke: #010101; stroke-miterlimit: 10;"/>
    </clipPath>
    <pattern id="d" data-name="New Pattern Swatch 1" x="0" y="0" width="10.8" height="16.2" patternTransform="translate(-468 -918)" patternUnits="userSpaceOnUse" viewBox="0 0 10.8 16.2">
      <g>
        <rect y="0" width="10.8" height="16.2" style="fill: none;"/>
        <circle cx="10.8" cy="16.2" r="2.87" style="fill: #231f20;"/>
        <circle cx="0" cy="16.2" r="2.87" style="fill: #231f20;"/>
        <circle cx="5.4" cy="8.1" r="2.87" style="fill: #231f20;"/>
        <circle cx="10.8" cy="0" r="2.87" style="fill: #231f20;"/>
        <circle cx="0" cy="0" r="2.87" style="fill: #231f20;"/>
      </g>
    </pattern>
    <clipPath id="f">
      <rect x="51.73" y="92.36" width="80" height="60" rx="10" ry="10" style="fill: none;"/>
    </clipPath>
  </defs>
  <g style="clip-path: url(#b);">
    <rect x="-.51" width="180" height="252" style="fill: #fff;"/>
    <path d="M82.68,123.48c-5.51,0-9.47-.23-11.9-.7-2.8-.65-5.51-1.96-8.12-3.92-5.88,4.76-12.32,7.14-19.32,7.14-7.56,0-14.33-2.71-20.3-8.12-6.25-5.6-9.38-12.13-9.38-19.6v-10.36h-7.7v-13.44c.28-.09,2.85-.28,7.7-.56v-41.58c0-7.56,3.13-14.14,9.38-19.74,5.97-5.41,12.74-8.12,20.3-8.12s14.4,2.75,20.51,8.26c6.11,5.51,9.17,12.04,9.17,19.6v65.94c0,3.17-.65,6.3-1.96,9.38,1.31.84,2.52,1.4,3.64,1.68h7.98v14.14ZM27.94,73.92c5.69.65,11.39,3.27,17.08,7.84,3.55,2.8,8.07,7.28,13.58,13.44v-62.86c0-3.36-1.61-6.39-4.83-9.1-3.22-2.71-6.7-4.06-10.43-4.06s-7.23,1.35-10.5,4.06c-3.27,2.71-4.9,5.74-4.9,9.1v41.58ZM51.74,108.61l-18.06-17.85c-1.49-1.51-3.41-2.46-5.74-2.83v10.2c0,3.31,1.63,6.33,4.9,9.07,3.27,2.74,6.77,4.11,10.5,4.11,2.89,0,5.69-.9,8.4-2.69Z" style="fill: #231f20;"/>
    <path d="M26.15,230.07l23.78-103.22v-24.49c0-5.16,3.4-9.72,8.23-11.25l.67-2.91.04.02c.02-3.34,2.38-6.14,5.52-6.84-1.33-4.53-3.22-9-5.2-13.7l-1.06-2.52c-1.03-2.46-1.34-7.4,8.12-12.88,4.26-2.53,9.56-4.43,15.36-5.52,1.51-2.63,3.63-4.58,6.07-5.6-.58.19-1.21.29-1.85.29-3.33,0-6.04-2.71-6.04-6.04s2.52-5.85,5.69-6.03c-.1-.44-.16-.91-.16-1.38,0-3.33,2.71-6.05,6.04-6.05s6.05,2.71,6.05,6.05c0,.47-.06.94-.16,1.38,1.48.08,2.87.7,3.92,1.76,1.14,1.14,1.77,2.66,1.77,4.28,0,3.33-2.71,6.04-6.04,6.04-.12,0-.25,0-.37-.01,2.17,1.09,4.09,2.92,5.49,5.32,5.53,1,10.96,2.92,15.37,5.45,9.49,5.49,9.17,10.47,8.13,12.96l-1.04,2.51c-2,4.79-3.9,9.35-5.2,13.98,2.7,1,4.59,3.59,4.59,6.62v2.48c5.54,1,9.66,5.8,9.66,11.61v38.1c.36-.34.9-.56,1.45-.56h.21l.87.17,5.17-1.74.06-.02c.2-.05.39-.08.59-.08.48,0,.93.15,1.31.44.58.44.91,1.09.91,1.79v.22c.17.04.34.11.51.19.7.34,1.17,1.11,1.17,1.94v8.08c0,2.96-1.87,5.56-4.54,6.58v.65c1.34-.45,2.66-.57,2.68-.57.55,0,1.09.23,1.49.62.23.24.35.45.4.55l.44.65-.21.73c-.34,2.16-.87,3.54-1.66,4.34-.59.55-1.26.94-1.95,1.15l-1.16,2.19v1.78h2.05c2.24,0,4.05,1.81,4.05,4.04,0,.15,0,.3-.02.45h1.98c1.09,0,2.11.42,2.87,1.19.76.77,1.18,1.78,1.18,2.86,0,.81-.24,1.59-.68,2.25.43.64.68,1.42.68,2.24,0,2.24-1.82,4.06-4.05,4.06h-1.98c.02.15.02.29.02.45,0,2.24-1.82,4.05-4.05,4.05h-2.77c.19,1.75.28,3.53.28,5.29,0,12.17-4.49,23.84-12.63,32.88l-.54.59h-61.07v.11H26.15ZM63.25,226.36l4.66-68.66c-13.46,8.26-21.69,22.84-21.69,38.79,0,11.01,3.96,21.59,11.18,29.87h5.85ZM134.75,187.14c0,.25.2.45.45.45h1.17c-.4-2.04-.94-4.04-1.62-6v5.54ZM116.66,154.16c6.66,3.93,12.34,9.41,16.53,15.98.6-.35,1.29-.55,2.02-.55h1.17s-1.13-2.15-1.13-2.15c-.99-.08-1.97-.54-2.72-1.29-1.43-1.48-1.71-4.73-1.71-4.76,0-.54.22-1.08.6-1.47.53-.53,1.11-.64,1.51-.64h.23l.15.04c1.58.26,2.73.6,3.54,1.05v-.09l-1.79-3.39c-.41-.25-.79-.55-1.15-.89l-.08-.07-.2-.24c-1.24-1.32-1.92-3.03-1.92-4.84v-2.21c-2.09,3.31-5.79,5.51-9.98,5.51h-5.07ZM141.32,149.71c-.5,1.33-1.18,2.6-2.02,3.74.49-.11.93-.35,1.29-.71.48-.49.74-1.13.73-1.82v-1.21ZM136.12,150.27c.5-.78.9-1.63,1.2-2.53l-1.2.48v2.05ZM114.49,86.58c.1-.59.2-1.17.32-1.77h-45.83c.12.59.24,1.18.34,1.77h45.18ZM68.41,70.08c.38.4.76.8,1.14,1.22,2.58,2.84,4.26,3.44,5.2,3.44,2.74-.11,4.43-3.33,4.42-8.25-1.19-1.86-3.07-2.96-5.11-2.96-3.08,0-5.71,2.55-6.24,5.93.2.21.39.41.59.62ZM104.42,66.81c.15,4.85,1.81,7.87,4.37,7.92h.11c.95,0,2.62-.59,5.2-3.43.65-.71,1.24-1.36,1.86-1.97-.61-3.32-3.16-5.73-6.22-5.73-2.15,0-4.11,1.19-5.32,3.21ZM85.52,67c1.37,4.57,3.83,7.51,6.3,7.51,2.61-.06,5.05-3.04,6.37-7.82-.49-3.49-3.2-6.19-6.29-6.19-3.32,0-6.07,2.83-6.38,6.5ZM79.36,52.75c-3.46.88-6.81,2.19-9.65,3.8-2.61,1.5-6.85,4.42-5.81,7.03.21.58.44,1.11.69,1.59,1.87-3.67,5.51-6.14,9.55-6.14,1.64,0,3.22.39,4.66,1.12-.13-2.67.06-5.14.57-7.4ZM109.67,58.95c4.05,0,7.65,2.39,9.52,6.03.23-.46.44-.93.63-1.44.72-1.9-1.46-4.54-5.82-7.08-2.85-1.57-6.18-2.86-9.75-3.77.49,2.31.67,4.83.52,7.53,1.51-.82,3.18-1.27,4.89-1.27ZM91.83,45.62c-2.01,0-4.18,1.8-5.51,4.59-1.25,2.46-1.9,5.56-1.91,8.96,1.99-2.04,4.66-3.27,7.5-3.27s5.35,1.12,7.31,3.03c-.06-3.33-.69-6.3-1.87-8.71-1.42-2.84-3.54-4.61-5.52-4.61ZM88.72,40.71c-.13.07-.25.13-.39.19.13-.04.25-.08.38-.12v-.07Z" style="fill: #fff;"/>
    <g>
      <g>
        <g>
          <path d="M139.04,196.49c0-26.13-21.19-47.32-47.31-47.32s-47.31,21.19-47.31,47.32c0,12.18,4.61,23.29,12.17,31.67h70.29c7.56-8.39,12.17-19.49,12.17-31.67Z" style="fill: #fff;"/>
          <g style="clip-path: url(#c);">
            <g>
              <path d="M23.77,191.09c-1.48.59-2.22,2.2-1.77,3.62-.19.08-.38.15-.56.23l-.89-1.69c1.43-.72,2.1-2.39,1.5-3.83-.62-1.5-2.43-2.15-4.06-1.46-1.61.73-2.36,2.51-1.66,3.98.66,1.41,2.36,2.04,3.85,1.47l.65,1.79c-.18.09-.36.17-.54.26-.74-1.29-2.42-1.83-3.87-1.12-1.55.73-2.18,2.54-1.44,3.98.75,1.45,2.5,2.02,3.97,1.33,1.37-.67,2.06-2.22,1.58-3.65.17-.07.34-.15.51-.22l1.86,5.05c.43-.2.86-.38,1.29-.57l-2.48-4.77c.18-.08.34-.16.52-.24.73,1.31,2.34,1.85,3.76,1.28,1.51-.61,2.27-2.33,1.69-3.84-.59-1.53-2.34-2.24-3.92-1.6Z" style="fill: #020202;"/>
              <path d="M41.15,185.05c-1.53.45-2.45,1.93-2.15,3.39-.2.06-.39.12-.58.17l-.69-1.77c1.49-.58,2.35-2.13,1.91-3.64-.45-1.55-2.19-2.44-3.86-1.9-1.66.54-2.6,2.22-2.08,3.76.5,1.48,2.1,2.3,3.65,1.9l.45,1.86c-.19.07-.38.13-.57.2-.59-1.37-2.2-2.08-3.72-1.57-1.6.56-2.46,2.25-1.91,3.78.55,1.53,2.25,2.32,3.79,1.78,1.46-.49,2.31-1.97,2.01-3.44.18-.05.35-.11.54-.17l1.28,5.23,1.36-.44-1.94-5.01c.18-.06.36-.12.54-.19.58,1.37,2.14,2.13,3.61,1.7,1.57-.48,2.51-2.07,2.09-3.64-.42-1.57-2.1-2.51-3.73-2.01Z" style="fill: #020202;"/>
              <path d="M59.06,180.82c-1.57.27-2.63,1.7-2.48,3.18-.2.04-.4.07-.6.11l-.51-1.84c1.54-.42,2.54-1.92,2.26-3.45-.3-1.6-1.92-2.61-3.64-2.26-1.71.34-2.81,1.92-2.45,3.52.34,1.51,1.85,2.48,3.44,2.27l.25,1.89c-.2.04-.39.09-.58.13-.45-1.42-1.98-2.31-3.54-1.93-1.65.39-2.68,1.98-2.29,3.55.39,1.57,2,2.55,3.6,2.17,1.5-.37,2.5-1.74,2.35-3.23.18-.03.36-.07.55-.1l.74,5.33,1.4-.28-1.42-5.18c.19-.04.37-.08.56-.13.44,1.43,1.9,2.29,3.42,2.03,1.62-.28,2.71-1.8,2.45-3.4-.26-1.61-1.83-2.67-3.51-2.39Z" style="fill: #020202;"/>
              <path d="M77.3,178.44c-1.59.09-2.78,1.43-2.79,2.91-.2.02-.41.03-.61.05l-.32-1.88c1.58-.26,2.72-1.67,2.6-3.21-.13-1.63-1.65-2.79-3.39-2.61-1.74.18-2.99,1.63-2.79,3.24.19,1.55,1.59,2.68,3.19,2.62l.06,1.91c-.2.03-.4.05-.59.08-.3-1.45-1.74-2.5-3.33-2.29-1.68.23-2.86,1.72-2.63,3.33.23,1.61,1.74,2.73,3.36,2.5,1.53-.2,2.67-1.45,2.66-2.96.18-.02.37-.03.56-.05l.2,5.38,1.42-.15-.89-5.3c.19-.02.37-.05.57-.07.3,1.48,1.66,2.45,3.2,2.37,1.63-.11,2.88-1.51,2.78-3.13-.1-1.63-1.55-2.85-3.25-2.73Z" style="fill: #020202;"/>
              <path d="M95.7,177.92c-1.6-.01-2.92,1.14-3.07,2.63-.21,0-.41-.01-.61-.02l-.13-1.9c1.59-.09,2.88-1.35,2.91-2.91.04-1.62-1.36-2.95-3.11-2.96-1.75-.02-3.14,1.3-3.11,2.94.03,1.55,1.31,2.81,2.91,2.93l-.13,1.9c-.2,0-.4,0-.6.01-.15-1.48-1.47-2.68-3.07-2.61-1.7.05-3.02,1.41-2.96,3.03.07,1.62,1.45,2.89,3.08,2.84,1.54-.07,2.8-1.19,2.95-2.68.19,0,.37,0,.56.01l-.35,5.37h1.43s-.34-5.35-.34-5.35c.19,0,.38,0,.57-.01.14,1.48,1.4,2.66,2.94,2.67,1.64.05,3.02-1.19,3.09-2.81.07-1.62-1.25-3.02-2.95-3.07Z" style="fill: #020202;"/>
              <path d="M114.04,179.34c-1.58-.2-3.01.78-3.32,2.24-.2-.03-.4-.06-.6-.09l.07-1.91c1.59.1,3-1,3.19-2.55.2-1.61-1.04-3.11-2.78-3.31-1.74-.15-3.27,1.04-3.41,2.65-.13,1.55,1.01,2.93,2.59,3.17l-.33,1.88c-.2-.01-.4-.02-.6-.04,0-1.49-1.19-2.76-2.79-2.9-1.69-.14-3.15,1.04-3.25,2.67-.1,1.61,1.14,3.05,2.77,3.19,1.53.13,2.91-.91,3.21-2.38.18.02.37.04.56.06l-.91,5.31c.47.04.95.07,1.42.14l.22-5.38c.19.02.37.04.57.06-.01,1.49,1.11,2.81,2.64,3.01,1.62.21,3.13-.92,3.37-2.53.24-1.61-.93-3.09-2.62-3.31Z" style="fill: #020202;"/>
              <path d="M132.15,182.61c-1.56-.34-3.09.51-3.55,1.94-.2-.05-.4-.09-.59-.14l.27-1.89c1.58.24,3.1-.73,3.45-2.25.37-1.58-.72-3.16-2.43-3.54-1.71-.37-3.34.62-3.65,2.22-.29,1.53.7,3.05,2.24,3.48l-.52,1.83c-.2-.04-.4-.08-.59-.11.15-1.47-.89-2.94-2.47-3.2-1.68-.29-3.25.77-3.52,2.38-.27,1.6.82,3.12,2.43,3.4,1.52.24,2.98-.56,3.44-2,.18.04.36.08.55.13l-1.45,5.18,1.39.3.77-5.32c.19.04.37.07.56.11-.17,1.48.82,2.89,2.32,3.21,1.6.34,3.2-.54,3.6-2.13.4-1.56-.59-3.24-2.26-3.6Z" style="fill: #020202;"/>
              <path d="M149.82,187.73c-1.49-.56-3.13.21-3.72,1.56-.19-.07-.39-.13-.58-.19l.46-1.85c1.55.38,3.17-.45,3.67-1.92.53-1.54-.4-3.21-2.07-3.73-1.67-.52-3.4.31-3.86,1.87-.45,1.49.39,3.09,1.88,3.66l-.71,1.77c-.19-.06-.39-.11-.58-.17.3-1.46-.6-2.96-2.13-3.44-1.61-.54-3.31.44-3.74,1.99-.43,1.58.52,3.13,2.07,3.65,1.47.46,3.03-.27,3.62-1.64.18.06.35.12.53.18l-1.97,5.01,1.36.43,1.3-5.21c.19.05.36.1.55.16-.32,1.47.55,2.9,1.99,3.44,1.54.56,3.24-.22,3.8-1.74.56-1.53-.28-3.24-1.88-3.82Z" style="fill: #020202;"/>
              <path d="M166.89,194.56c-1.43-.7-3.11-.14-3.84,1.17-.19-.08-.37-.16-.56-.24l.63-1.8c1.52.5,3.18-.12,3.82-1.54.33-.74.32-1.56.02-2.29-.31-.71-.9-1.31-1.71-1.65-1.61-.67-3.41,0-4.03,1.5-.59,1.44.09,3.11,1.52,3.81l-.87,1.7c-.19-.07-.38-.15-.56-.22.44-1.43-.31-3-1.79-3.61-1.57-.65-3.31.04-3.9,1.57-.58,1.49.17,3.24,1.69,3.87,1.42.59,3.05.01,3.77-1.29.17.07.34.15.52.22l-2.45,4.8,1.32.55,1.8-5.06c.18.07.35.14.53.21-.45,1.41.26,2.96,1.64,3.64,1.49.7,3.25.08,3.95-1.38.7-1.47.02-3.24-1.52-3.97Z" style="fill: #020202;"/>
            </g>
            <path d="M37.73,205.35v38.34h108v-38.14c-50.92-23.29-94.3-6.75-108-.2Z" style="fill: url(#d); stroke: #010101; stroke-miterlimit: 10; stroke-width: 11px;"/>
          </g>
          <path d="M139.04,196.49c0-26.13-21.19-47.32-47.31-47.32s-47.31,21.19-47.31,47.32c0,12.18,4.61,23.29,12.17,31.67h70.29c7.56-8.39,12.17-19.49,12.17-31.67Z" style="fill: none; stroke: #010101; stroke-miterlimit: 10;"/>
        </g>
        <g>
          <path d="M144.15,159.47c-.06-.06-.15-.09-.21-.09-.09,0-2.61.34-3.48,1.18-.81.84-.99,1.99-.46,2.74l-.53.53v-7.71c2.55-.34,4.54-2.55,4.54-5.19v-8.08c0-.12-.06-.28-.19-.34-.12-.06-.25-.1-.37-.03l-1.12.43v-2.42c0-.12-.06-.25-.19-.34-.12-.09-.25-.09-.37-.06l-5.56,1.87-1.12-.22c-.12-.03-.25,0-.34.09-.09.09-.16.19-.16.31v3.89l-.81.31c-.16.06-.25.22-.25.38v4.16c0,1.49.62,2.83,1.62,3.79v.03l.03.03c.9.87,2.15,1.4,3.48,1.4v2.86l-.62-.31.62,1.18v6.96l-.62-.62-.09-.87-.28.5-.78-.81c.53-.75.34-1.9-.47-2.74-.84-.84-3.36-1.15-3.48-1.18-.09,0-.15.03-.21.09-.06.06-.09.16-.09.22,0,.09.34,2.61,1.18,3.48.5.5,1.15.78,1.77.78.37,0,.72-.09.99-.31l2.12,2.11v1.77l-.62-.31.62,1.18v.68c0,.21.18.4.4.4s.4-.19.4-.4v-3.42l.62-1.18-.62.31v-1.99h.03l.84-.84c.28.19.62.31,1,.31.59,0,1.24-.28,1.77-.78.84-.84,1.15-3.35,1.18-3.48-.06-.09-.09-.18-.15-.25ZM136.47,164.63l-.4-.4-.34-.34v-1.12c0-.13-.09-.25-.25-.25-.13,0-.25.09-.25.25v.62l-.84-.84c-.09-.09-.25-.09-.35,0-.09.09-.09.25,0,.34l1.28,1.27h-.65c-.12,0-.25.09-.25.25,0,.12.09.25.25.25h1.12l.34.34c-.53.31-1.33.12-1.96-.47-.5-.5-.84-1.96-.96-2.77.84.12,2.27.47,2.77.96.65.53.81,1.37.5,1.9ZM141.47,141.06v1.93h0l-1.71-.34-1.93-.37,3.64-1.21ZM135.38,142.65l5.04.99-5.04,2.05v-3.05ZM135.44,153.81c-.68-.78-1.12-1.81-1.12-2.93v-3.88l.78-.31h0l4.57-1.84c-.15,3.23-1.52,6.34-3.83,8.58l-.4.38ZM138.74,155.3c-1.02,0-1.96-.34-2.71-.93l.37-.34c2.55-2.45,4.04-5.94,4.1-9.54l1.53-.62h0l1.09-.44v7.46c.03,2.46-1.96,4.42-4.38,4.42ZM142.65,162.8c-.59.59-1.43.78-1.96.46l.41-.4h0l.34-.34h1.12c.12,0,.25-.09.25-.25s-.09-.25-.25-.25h-.65l.87-.87c.09-.09.09-.25,0-.34-.09-.09-.25-.09-.34,0l-1.27,1.27v-.65c0-.12-.09-.25-.25-.25-.13,0-.25.09-.25.25v1.12l-.34.34c-.31-.53-.12-1.34.46-1.96.5-.5,1.96-.84,2.77-.97-.06.87-.4,2.3-.9,2.83Z" style="fill: #020202;"/>
          <path d="M143.33,171.39c1.24,0,2.25,1,2.25,2.25s-1.01,2.25-2.25,2.25h-2.99,8.99c1.25,0,2.26,1.01,2.25,2.25,0,1.24-1.01,2.25-2.25,2.25h-9,9c1.24,0,2.25,1.01,2.25,2.25,0,1.24-1.01,2.25-2.25,2.25h-9,2.99c1.24,0,2.25,1,2.25,2.25s-1.01,2.25-2.25,2.25h-8.12c-1.24,0-2.25-1-2.25-2.25v-13.5c0-1.24,1.01-2.25,2.25-2.25h8.12Z" style="fill: #fff; stroke: #010101; stroke-linecap: round; stroke-miterlimit: 10;"/>
        </g>
      </g>
      <polygon points="60.07 90.84 28.41 228.27 64.92 228.27 73.77 97.75 60.07 90.84" style="fill: #010101; stroke: #010101; stroke-miterlimit: 10;"/>
      <g>
        <g>
          <path id="e" data-name="SVGID" d="M131.73,142.36c0,5.52-4.48,10-10,10h-60c-5.52,0-10-4.48-10-10v-40c0-5.52,4.48-10,10-10h60c5.52,0,10,4.48,10,10v40Z" style="fill: #fff;"/>
          <g style="clip-path: url(#f);">
            <path d="M61.73,92.37c-5.52,0-10,4.48-10,10v40c0,.5.08.98.15,1.46,12.48-10.32,23.11-39.4,27.11-51.46h-17.26Z" style="fill: #010101;"/>
          </g>
          <path id="g" data-name="SVGID" d="M131.73,142.36c0,5.52-4.48,10-10,10h-60c-5.52,0-10-4.48-10-10v-40c0-5.52,4.48-10,10-10h60c5.52,0,10,4.48,10,10v40Z" style="fill: none; stroke: #010101; stroke-miterlimit: 10;"/>
        </g>
        <g>
          <g>
            <path d="M83.09,117.33c1.83,0,3.31,2.96,3.31,6.61s-1.48,6.61-3.31,6.61-3.31-2.96-3.31-6.61,1.48-6.61,3.31-6.61Z" style="fill: #010101;"/>
            <path d="M109.54,117.33c1.83,0,3.31,2.96,3.31,6.61s-1.48,6.61-3.31,6.61-3.31-2.96-3.31-6.61,1.48-6.61,3.31-6.61Z" style="fill: #010101;"/>
          </g>
          <g>
            <ellipse cx="75.65" cy="137.61" rx="4.33" ry="2.17" style="fill: #ba2025;"/>
            <path d="M116.98,135.45c2.39,0,4.34.97,4.34,2.17s-1.94,2.17-4.34,2.17-4.33-.97-4.33-2.17,1.94-2.17,4.33-2.17Z" style="fill: #ba2025;"/>
          </g>
        </g>
      </g>
      <g>
        <g>
          <path d="M68.15,94.07h47.52v-1.44h-47.52v1.44Z" style="fill: #020202;"/>
          <path d="M68.07,91.79h47.67c.08-.84.08-1.67.23-2.5h-48.12c.15.84.23,1.67.23,2.5Z" style="fill: #020202;"/>
          <path d="M91.15,42.15c-3.41.23-6.53,2.58-8.35,6.22-6.15,1.06-11.54,3.04-15.64,5.46-6.3,3.64-8.73,7.36-7.36,10.63h0c3.49,8.35,6.83,15.64,7.97,23.91h48.28c1.06-8.27,4.4-15.63,7.82-23.91,1.36-3.26-1.07-7.06-7.36-10.7-4.1-2.35-9.57-4.4-15.64-5.39-1.82-3.57-4.86-5.92-8.2-6.22M74.9,76.53c-2.12.08-4.4-1.52-6.68-4.02-.76-.83-1.52-1.59-2.28-2.43.31-4.7,3.87-8.35,8.12-8.35,2.89,0,5.47,1.67,6.91,4.25.15,6.68-2.43,10.4-6.07,10.55ZM80.82,62.72c.07.53.07,1.06.15,1.52-1.67-2.12-4.1-3.41-6.83-3.41-4.48,0-8.27,3.64-8.96,8.35-1.14-1.37-2.2-2.81-2.96-4.94h0c-1.14-2.88,1.06-6.07,6.6-9.26,3.49-1.97,8.05-3.72,13.13-4.63-1.44,3.72-1.67,8.05-1.14,12.38ZM91.83,76.31c-3.26,0-6.45-3.27-8.12-9.11.23-4.78,3.8-8.5,8.2-8.5s7.67,3.57,8.12,8.12c-1.59,6.07-4.78,9.41-8.2,9.49ZM100.86,62.64c-.08.68-.15,1.29-.3,1.9-1.21-3.95-4.63-6.83-8.65-6.83s-7.59,3.04-8.73,7.14c-.15-.68-.23-1.44-.38-2.2-.53-4.78,0-9.49,1.9-13.21,1.67-3.49,4.4-5.62,7.13-5.62s5.39,2.12,7.14,5.62c1.82,3.72,2.35,8.43,1.9,13.21h0ZM115.44,72.51c-2.28,2.51-4.56,4.1-6.68,4.02-3.57-.07-6.07-3.72-6.15-10.17,1.44-2.73,4.1-4.55,7.13-4.55,4.25,0,7.74,3.57,8.12,8.2-.83.76-1.59,1.6-2.43,2.5ZM121.51,64.16h0c-.76,2.05-1.75,3.49-2.88,4.78-.76-4.63-4.48-8.2-8.96-8.2-2.81,0-5.39,1.44-7.06,3.72,0-.61.07-1.21.15-1.82.53-4.33.3-8.65-1.06-12.37,5.16.99,9.64,2.66,13.21,4.63,5.47,3.19,7.66,6.45,6.6,9.26Z" style="fill: #020202;"/>
        </g>
        <path d="M122.07,91.78c0,2.91-2.35,5.26-5.26,5.26h-50.87c-2.9,0-5.26-2.36-5.26-5.26v-3.5c0-2.91,2.36-5.26,5.26-5.26h50.87c2.91,0,5.26,2.36,5.26,5.26v3.5h0Z" style="fill: #fff; stroke: #010101; stroke-miterlimit: 10;"/>
        <path d="M96.9,31.15c-2.2,0-4.01,1.68-4.22,3.82-.28,0-.56-.02-.85-.02l-.18-2.75c2.21-.14,3.97-1.98,3.97-4.23s-1.9-4.25-4.25-4.25-4.25,1.9-4.25,4.25,1.75,4.08,3.96,4.23l-.18,2.75c-.29,0-.57,0-.85.02-.21-2.15-2.02-3.82-4.23-3.82-2.34,0-4.24,1.9-4.24,4.24s1.9,4.25,4.24,4.25c2.2,0,4.01-1.68,4.23-3.82.26,0,.52.01.79.02l-.51,7.75h2.06l-.51-7.75c.27,0,.53,0,.79-.02.21,2.14,2.02,3.82,4.22,3.82,2.34,0,4.24-1.9,4.24-4.25,0-2.34-1.9-4.24-4.24-4.24Z" style="fill: #010101;"/>
      </g>
    </g>
  </g>
</svg>