<?xml version="1.0" encoding="UTF-8"?>
<svg id="Layer_1" data-name="Layer 1" xmlns="http://www.w3.org/2000/svg" xmlns:xlink="http://www.w3.org/1999/xlink" viewBox="0 0 180 252">
  <defs>
    <style>
      .cls-1, .cls-2, .cls-3 {
        fill: none;
      }

      .cls-2, .cls-4, .cls-5, .cls-6, .cls-7, .cls-3 {
        stroke: #010101;
        stroke-miterlimit: 10;
      }

      .cls-8, .cls-7 {
        fill: #010101;
      }

      .cls-9 {
        fill: #231f20;
      }

      .cls-4, .cls-10, .cls-6 {
        fill: #fff;
      }

      .cls-5 {
        fill: url(#New_Pattern_Swatch_1);
      }

      .cls-5, .cls-3 {
        stroke-width: 11px;
      }

      .cls-11 {
        clip-path: url(#clippath-1);
      }

      .cls-12 {
        fill: #020202;
      }

      .cls-6 {
        stroke-linecap: round;
      }

      .cls-13 {
        fill: #ba2025;
      }

      .cls-14 {
        clip-path: url(#clippath);
      }
    </style>
    <clipPath id="clippath">
      <path class="cls-4" d="M139.54,197.2c0-26.13-21.19-47.32-47.31-47.32s-47.31,21.19-47.31,47.32c0,12.18,4.61,23.29,12.17,31.67h70.29c7.56-8.39,12.17-19.49,12.17-31.67Z"/>
    </clipPath>
    <pattern id="New_Pattern_Swatch_1" data-name="New Pattern Swatch 1" x="0" y="0" width="10.8" height="16.2" patternTransform="translate(-234 -918)" patternUnits="userSpaceOnUse" viewBox="0 0 10.8 16.2">
      <g>
        <rect class="cls-1" y="0" width="10.8" height="16.2"/>
        <circle class="cls-9" cx="10.8" cy="16.2" r="2.87"/>
        <circle class="cls-9" cx="0" cy="16.2" r="2.87"/>
        <circle class="cls-9" cx="5.4" cy="8.1" r="2.87"/>
        <circle class="cls-9" cx="10.8" cy="0" r="2.87"/>
        <circle class="cls-9" cx="0" cy="0" r="2.87"/>
      </g>
    </pattern>
    <clipPath id="clippath-1">
      <path class="cls-4" d="M83.1,171.49c8.56,0,15.49,6.94,15.49,15.49s-6.94,15.49-15.49,15.49-15.49-6.94-15.49-15.49,6.94-15.49,15.49-15.49Z"/>
    </clipPath>
  </defs>
  <g>
    <g>
      <path class="cls-12" d="M123.8,48.03c-1.8-1.97-5.48-3.51-8.73-3.51-1.02,0-1.97.17-2.74.43-.17.09-.26.17-.26.26,0,.17,0,.26.09.43,0,0,.85,1.2.77,3.94-.09,2.31-.77,4.11-.77,4.11-.09.17,0,.34.08.51.17.09.34.17.52.09.69-.34,1.45-.51,2.14-.51,1.54,0,2.91.77,3.77,2.14,1.03,1.71.94,4.02-.17,6.5-.69-.34-1.29-.51-1.97-.51-2.48,0-4.53,2.05-4.53,4.54,0,2.14,1.54,4.02,3.51,4.45-1.2,2.22-3.94,4.28-7.1,4.88-4.11.68-7.62-4.71-8.22-9.16.51.26,1.2.34,1.8.34h0c1.2,0,2.31-.51,3.16-1.37.86-.86,1.29-2.05,1.29-3.25,0-.6-.09-1.28-.35-1.8,1.29-.86,3.34-2.57,4.62-5.13.94-1.88,2.65-6.85-1.37-11.38-1.8-1.97-5.48-3.51-8.73-3.51-1.03,0-1.97.17-2.74.43-.17.09-.26.17-.26.26,0,.17,0,.26.09.43,0,0,.85,1.2.77,3.94-.08,2.31-.77,4.11-.77,4.11-.09.17,0,.34.08.51.17.09.34.17.51.09.69-.34,1.46-.51,2.14-.51,1.54,0,2.91.77,3.76,2.14,1.03,1.71.94,4.02-.17,6.5-.68-.34-1.29-.51-1.97-.51-2.48,0-4.54,2.05-4.54,4.54,0,1.54.77,2.99,1.97,3.76-.17,4.45-3.68,10.7-8.04,10.78-4.28,0-7.7-6.16-8.04-10.61,1.28-.77,2.23-2.23,2.23-3.94,0-2.48-2.06-4.54-4.54-4.54-.69,0-1.37.17-1.97.51-1.11-2.4-1.2-4.79-.17-6.5.77-1.37,2.22-2.14,3.77-2.14.77,0,1.46.17,2.14.51.17.08.34.08.51-.09.17-.08.17-.34.08-.51,0,0-.77-1.8-.77-4.11-.09-2.74.77-3.94.77-3.94.09-.08.09-.26.09-.43s-.17-.26-.26-.26c-.77-.26-1.71-.43-2.74-.43-3.25,0-7.02,1.54-8.73,3.51-4.03,4.54-2.31,9.5-1.37,11.38,1.29,2.57,3.34,4.28,4.62,5.13-.26.51-.34,1.11-.34,1.8,0,1.2.43,2.4,1.28,3.25.85.85,1.97,1.37,3.17,1.37h0c.51,0,1.03-.09,1.54-.26-.6,4.45-4.11,9.67-8.13,8.98-3.17-.6-5.82-2.57-7.02-4.79,2.14-.43,3.68-2.23,3.68-4.45,0-2.48-2.05-4.54-4.53-4.54-.69,0-1.37.17-1.97.51-1.11-2.4-1.2-4.79-.17-6.5.77-1.37,2.23-2.14,3.77-2.14.77,0,1.45.17,2.14.51.17.09.34.09.51-.09.17-.08.17-.34.09-.51,0,0-.77-1.8-.77-4.11-.09-2.74.77-3.94.77-3.94.09-.09.09-.26.09-.43s-.17-.26-.26-.26c-.77-.26-1.71-.43-2.74-.43-3.25,0-7.02,1.54-8.73,3.51-4.02,4.54-2.31,9.5-1.37,11.38,1.28,2.57,3.34,4.28,4.62,5.13-.25.51-.34,1.11-.34,1.8,0,1.2.43,2.4,1.28,3.25.86.86,1.97,1.37,3.17,1.37h0c1.11,4.45.69,6.59,2.14,14.29,12.49,7.79,33.72,7.62,46.04-.34,1.29-7.53.69-9.5,1.62-13.95,1.2,0,2.31-.51,3.17-1.37.85-.86,1.28-2.05,1.28-3.25,0-.6-.08-1.28-.34-1.8,1.28-.85,3.34-2.57,4.62-5.13.77-1.88,2.57-6.84-1.54-11.38Z"/>
      <path class="cls-12" d="M91.41,39.64c3.1,0,5.61,2.51,5.61,5.61s-2.51,5.61-5.61,5.61-5.61-2.51-5.61-5.61,2.51-5.61,5.61-5.61Z"/>
    </g>
    <g>
      <path class="cls-10" d="M139.54,197.2c0-26.13-21.19-47.32-47.31-47.32s-47.31,21.19-47.31,47.32c0,12.18,4.61,23.29,12.17,31.67h70.29c7.56-8.39,12.17-19.49,12.17-31.67Z"/>
      <g class="cls-14">
        <g>
          <path class="cls-12" d="M24.27,191.8c-1.48.6-2.22,2.2-1.77,3.62-.19.08-.38.15-.56.23l-.89-1.69c1.43-.72,2.1-2.39,1.5-3.83-.62-1.5-2.43-2.15-4.06-1.46-1.61.73-2.36,2.51-1.66,3.98.66,1.41,2.36,2.04,3.85,1.47l.65,1.79c-.18.09-.36.18-.54.26-.74-1.29-2.42-1.83-3.87-1.12-1.55.73-2.18,2.54-1.44,3.98.75,1.45,2.5,2.01,3.97,1.33,1.37-.67,2.06-2.22,1.58-3.65.17-.07.34-.15.51-.22l1.86,5.05c.43-.2.86-.38,1.29-.57l-2.48-4.77c.18-.08.34-.16.52-.24.73,1.31,2.34,1.85,3.76,1.28,1.51-.61,2.27-2.33,1.69-3.84-.59-1.53-2.34-2.24-3.92-1.6Z"/>
          <path class="cls-12" d="M41.65,185.76c-1.53.45-2.45,1.93-2.15,3.39-.2.06-.39.12-.58.17l-.69-1.77c1.49-.58,2.35-2.13,1.91-3.64-.45-1.55-2.19-2.44-3.86-1.9-1.66.54-2.6,2.22-2.08,3.76.5,1.48,2.1,2.3,3.65,1.9l.45,1.86c-.19.07-.38.13-.57.2-.59-1.37-2.2-2.08-3.72-1.57-1.6.56-2.46,2.26-1.91,3.78.55,1.53,2.25,2.32,3.79,1.78,1.46-.49,2.31-1.97,2.01-3.44.18-.05.35-.11.54-.17l1.28,5.23,1.36-.44-1.94-5.01c.18-.06.36-.12.54-.19.58,1.37,2.14,2.13,3.61,1.7,1.57-.48,2.51-2.07,2.09-3.64-.42-1.57-2.1-2.51-3.73-2.01Z"/>
          <path class="cls-12" d="M59.56,181.53c-1.57.27-2.63,1.7-2.48,3.18-.2.04-.4.07-.6.11l-.51-1.84c1.54-.42,2.54-1.92,2.26-3.45-.3-1.6-1.92-2.61-3.64-2.26-1.71.34-2.81,1.92-2.45,3.52.34,1.51,1.85,2.48,3.44,2.27l.25,1.89c-.2.04-.39.09-.58.13-.45-1.42-1.98-2.31-3.54-1.93-1.65.39-2.68,1.98-2.29,3.55.39,1.57,2,2.55,3.6,2.17,1.5-.37,2.5-1.74,2.35-3.23.18-.03.36-.07.55-.1l.74,5.33,1.4-.28-1.42-5.18c.19-.04.37-.08.56-.13.44,1.43,1.9,2.29,3.42,2.03,1.62-.28,2.71-1.8,2.45-3.4-.26-1.61-1.83-2.67-3.51-2.39Z"/>
          <path class="cls-12" d="M77.8,179.15c-1.59.09-2.78,1.43-2.79,2.91-.2.02-.41.03-.61.05l-.32-1.88c1.58-.26,2.72-1.67,2.6-3.21-.13-1.63-1.65-2.79-3.39-2.61-1.74.18-2.99,1.63-2.79,3.24.19,1.55,1.59,2.68,3.19,2.62l.06,1.91c-.2.03-.4.05-.59.08-.31-1.45-1.74-2.5-3.33-2.29-1.68.23-2.86,1.72-2.63,3.33.23,1.61,1.74,2.73,3.36,2.5,1.53-.2,2.67-1.45,2.66-2.96.18-.02.37-.03.56-.05l.2,5.38,1.42-.15-.89-5.3c.19-.02.37-.05.57-.07.3,1.48,1.66,2.45,3.2,2.37,1.63-.11,2.88-1.51,2.78-3.13-.1-1.63-1.55-2.85-3.25-2.73Z"/>
          <path class="cls-12" d="M96.2,178.63c-1.6-.01-2.92,1.14-3.07,2.63-.21,0-.41-.01-.61-.02l-.13-1.9c1.59-.09,2.88-1.35,2.91-2.91.04-1.62-1.36-2.95-3.11-2.96-1.75-.02-3.14,1.3-3.11,2.94.03,1.55,1.31,2.81,2.91,2.93l-.13,1.9c-.2,0-.4,0-.6.01-.15-1.48-1.47-2.68-3.07-2.61-1.7.05-3.02,1.41-2.96,3.03.07,1.62,1.45,2.89,3.08,2.84,1.54-.07,2.8-1.19,2.95-2.68.19,0,.37,0,.56.01l-.35,5.37h1.43s-.34-5.35-.34-5.35c.19,0,.38,0,.57,0,.14,1.48,1.4,2.66,2.94,2.67,1.64.05,3.02-1.19,3.09-2.81.07-1.62-1.25-3.02-2.95-3.07Z"/>
          <path class="cls-12" d="M114.54,180.06c-1.58-.2-3.01.78-3.32,2.24-.2-.03-.4-.06-.6-.09l.07-1.91c1.59.1,3-1,3.19-2.55.2-1.61-1.04-3.11-2.78-3.31-1.74-.15-3.27,1.04-3.41,2.65-.13,1.55,1.01,2.93,2.59,3.17l-.33,1.88c-.2-.01-.4-.02-.6-.04,0-1.49-1.19-2.76-2.79-2.9-1.69-.14-3.15,1.04-3.25,2.67-.1,1.61,1.14,3.05,2.77,3.19,1.53.13,2.91-.91,3.21-2.38.18.02.37.04.56.06l-.91,5.31c.47.04.95.07,1.42.14l.22-5.38c.19.02.37.04.57.06-.01,1.49,1.11,2.81,2.64,3.01,1.62.21,3.13-.92,3.37-2.53.24-1.61-.93-3.09-2.62-3.31Z"/>
          <path class="cls-12" d="M132.65,183.32c-1.56-.34-3.09.51-3.55,1.94-.2-.05-.4-.09-.59-.14l.27-1.89c1.58.24,3.1-.73,3.45-2.25.37-1.58-.72-3.16-2.43-3.54-1.71-.37-3.34.62-3.65,2.22-.29,1.53.7,3.05,2.24,3.48l-.52,1.83c-.2-.04-.4-.08-.59-.11.15-1.47-.89-2.94-2.47-3.2-1.68-.29-3.25.77-3.52,2.38-.27,1.6.82,3.12,2.43,3.4,1.52.24,2.98-.56,3.44-2,.18.04.36.08.55.13l-1.45,5.18,1.39.3.77-5.32c.19.04.37.07.56.11-.17,1.48.82,2.89,2.32,3.21,1.6.34,3.2-.54,3.6-2.13.4-1.56-.59-3.24-2.26-3.6Z"/>
          <path class="cls-12" d="M150.32,188.44c-1.49-.56-3.13.21-3.72,1.56-.19-.07-.39-.13-.58-.19l.46-1.85c1.55.38,3.17-.45,3.67-1.92.53-1.54-.4-3.21-2.07-3.73-1.67-.52-3.4.31-3.86,1.87-.45,1.49.39,3.09,1.88,3.66l-.71,1.77c-.19-.06-.39-.11-.58-.17.3-1.46-.6-2.96-2.13-3.44-1.61-.54-3.31.44-3.74,1.99-.43,1.58.52,3.13,2.07,3.65,1.47.46,3.03-.27,3.62-1.64.18.06.35.12.53.18l-1.97,5.01,1.36.43,1.3-5.21c.19.05.36.1.55.16-.32,1.47.55,2.9,1.99,3.44,1.54.56,3.24-.22,3.8-1.74.56-1.53-.28-3.24-1.88-3.82Z"/>
          <path class="cls-12" d="M167.39,195.27c-1.43-.7-3.11-.14-3.84,1.17-.19-.08-.37-.16-.56-.24l.63-1.8c1.52.5,3.18-.12,3.82-1.54.33-.74.32-1.56.02-2.29-.31-.71-.9-1.31-1.71-1.65-1.61-.67-3.41,0-4.03,1.5-.59,1.44.09,3.11,1.52,3.81l-.87,1.7c-.19-.07-.38-.15-.56-.22.44-1.43-.31-3-1.79-3.61-1.57-.65-3.31.04-3.9,1.57-.58,1.49.17,3.24,1.69,3.87,1.42.59,3.05.01,3.77-1.29.17.07.34.15.52.22l-2.45,4.8,1.32.55,1.8-5.06c.18.07.35.14.53.21-.45,1.41.26,2.96,1.64,3.64,1.49.7,3.25.08,3.95-1.38.7-1.47.02-3.24-1.52-3.97Z"/>
        </g>
        <path class="cls-5" d="M38.23,206.06v38.34h108v-38.14c-50.92-23.29-94.3-6.75-108-.2Z"/>
      </g>
      <path class="cls-2" d="M139.54,197.2c0-26.13-21.19-47.32-47.31-47.32s-47.31,21.19-47.31,47.32c0,12.18,4.61,23.29,12.17,31.67h70.29c7.56-8.39,12.17-19.49,12.17-31.67Z"/>
    </g>
    <polygon class="cls-7" points="60.58 143.6 28.91 228.98 65.42 228.98 74.27 150.5 60.58 143.6"/>
    <g>
      <path class="cls-4" d="M132.23,143.08c0,5.52-4.48,10-10,10h-60c-5.52,0-10-4.48-10-10v-40c0-5.52,4.48-10,10-10h60c5.52,0,10,4.48,10,10v40Z"/>
      <g>
        <g>
          <path class="cls-8" d="M83.59,118.03c1.83,0,3.31,2.96,3.31,6.61s-1.48,6.61-3.31,6.61-3.31-2.96-3.31-6.61,1.48-6.61,3.31-6.61Z"/>
          <ellipse class="cls-8" cx="110.04" cy="124.65" rx="3.31" ry="6.61"/>
        </g>
        <g>
          <path class="cls-13" d="M76.15,136.16c2.39,0,4.33.97,4.33,2.17s-1.94,2.17-4.33,2.17-4.33-.97-4.33-2.17,1.94-2.17,4.33-2.17Z"/>
          <path class="cls-13" d="M117.48,136.16c2.4,0,4.34.97,4.34,2.17s-1.94,2.17-4.34,2.17-4.33-.97-4.33-2.17,1.94-2.17,4.33-2.17Z"/>
        </g>
      </g>
      <path class="cls-8" d="M101.82,143.08v4.73h-10.01v-4.73h-39.58c0,5.52,4.48,10,10,10h60c5.52,0,10-4.48,10-10h-30.41Z"/>
    </g>
    <path class="cls-4" d="M122.35,88.86c0,2.91-2.35,5.26-5.26,5.26h-50.87c-2.9,0-5.26-2.36-5.26-5.26v-3.5c0-2.91,2.36-5.26,5.26-5.26h50.87c2.91,0,5.26,2.36,5.26,5.26v3.5Z"/>
    <path class="cls-8" d="M96.33,29.62c-1.96,0-3.56,1.49-3.76,3.4-.25,0-.5-.01-.75-.01l-.16-2.44c1.97-.13,3.53-1.76,3.53-3.76s-1.69-3.78-3.77-3.78-3.78,1.69-3.78,3.78,1.56,3.63,3.53,3.76l-.16,2.44c-.25,0-.5,0-.75.02-.19-1.91-1.8-3.4-3.76-3.4-2.08,0-3.77,1.69-3.77,3.77s1.69,3.77,3.77,3.77c1.96,0,3.57-1.49,3.76-3.4.23,0,.46.01.7.01l-.46,6.89h1.84l-.46-6.89c.24,0,.47,0,.7-.01.19,1.91,1.8,3.4,3.76,3.4,2.09,0,3.77-1.69,3.77-3.78s-1.68-3.78-3.77-3.78Z"/>
    <g>
      <g>
        <path class="cls-10" d="M83.1,171.49c8.56,0,15.49,6.94,15.49,15.49s-6.94,15.49-15.49,15.49-15.49-6.94-15.49-15.49,6.94-15.49,15.49-15.49Z"/>
        <g class="cls-11">
          <path class="cls-3" d="M111.15,195.25c-26.45-12.1-48.99-3.51-56.1-.1"/>
        </g>
        <path class="cls-2" d="M83.1,171.49c8.56,0,15.49,6.94,15.49,15.49s-6.94,15.49-15.49,15.49-15.49-6.94-15.49-15.49,6.94-15.49,15.49-15.49Z"/>
      </g>
      <path class="cls-12" d="M86.94,163.26c-1.52,0-2.78,1.16-2.92,2.65-.2,0-.39-.01-.59-.01l-.13-1.9c1.54-.1,2.75-1.37,2.75-2.93s-1.32-2.94-2.94-2.94-2.94,1.31-2.94,2.94,1.21,2.83,2.75,2.93l-.13,1.9c-.19,0-.39,0-.58.01-.15-1.49-1.4-2.65-2.93-2.65-1.62,0-2.94,1.31-2.94,2.94s1.32,2.94,2.94,2.94c1.53,0,2.78-1.16,2.93-2.65.18,0,.36,0,.55,0l-.36,5.37h1.43l-.36-5.36c.19,0,.37,0,.56-.01.14,1.48,1.4,2.65,2.92,2.65,1.62,0,2.94-1.32,2.94-2.94,0-1.63-1.31-2.94-2.94-2.94Z"/>
      <path class="cls-6" d="M74.1,203.38c0-1.24,1-2.25,2.25-2.25s2.25,1.01,2.25,2.25v2.99-9c0-1.25,1.01-2.25,2.25-2.25s2.25,1.01,2.25,2.25v9-9c0-1.25,1.01-2.25,2.25-2.25s2.25,1.01,2.25,2.25v9-2.99c0-1.24,1-2.25,2.25-2.25s2.25,1.01,2.25,2.25v4.12h0c0,1.24-1.01,2.25-2.25,2.25h-13.5c-1.24,0-2.25-1.01-2.25-2.25h0v-4.12Z"/>
    </g>
    <g>
      <path class="cls-8" d="M139.25,189.12c2,0,3.63,1.62,3.63,3.63s-1.62,3.63-3.63,3.63-3.63-1.62-3.63-3.63,1.62-3.63,3.63-3.63Z"/>
      <path class="cls-8" d="M141.66,192.96h-4.82v-64.3l2.41-6.95,2.41,6.95v64.3ZM139.25,125.45l-1.19,3.42v62.87h1.18v-66.28Z"/>
      <path class="cls-8" d="M128.81,170.02s.33-.29.9-.71c.29-.21.63-.47,1.03-.71.2-.13.41-.26.64-.41.22-.14.46.05.7,0h14.35c.25.06.48-.14.7.03.22.14.44.28.63.41.4.25.75.5,1.03.71.57.42.9.69.9.69,0,0-.32.28-.9.7-.29.21-.63.46-1.03.71-.2.13-.41.27-.63.41-.22.17-.46-.03-.7.03h-14.35c-.24-.05-.48.13-.7,0-.22-.15-.44-.28-.64-.41-.4-.24-.74-.5-1.03-.71-.57-.42-.9-.71-.9-.71Z"/>
      <path class="cls-6" d="M142.83,172.1c1.24,0,2.25,1,2.25,2.25s-1.01,2.25-2.25,2.25h-2.99,9c1.25,0,2.25,1.01,2.25,2.25s-1.01,2.25-2.25,2.25h-9,9c1.25,0,2.25,1.01,2.25,2.25s-1.01,2.25-2.25,2.25h-9,2.99c1.24,0,2.25,1,2.25,2.25s-1.01,2.25-2.25,2.25h-8.12c-1.24,0-2.25-1-2.25-2.25v-13.5c0-1.24,1.01-2.25,2.25-2.25h8.12Z"/>
    </g>
  </g>
  <g>
    <path class="cls-9" d="M9,35.73h2.75V12.29h-2.75v-3.29h8.33v3.29h-2.32v11.4l7.33-11.4h-2.82v-3.29h9.15v3.29h-2.63l-5.95,9.26,6.08,14.19h2.5v3.29h-9.15v-3.29h2.95l-4.6-10.74-2.86,4.45v6.29h2.32v3.29h-8.33v-3.29Z"/>
    <path class="cls-9" d="M171,216.27h-2.75v23.44h2.75v3.29h-8.33v-3.29h2.32v-11.4l-7.33,11.4h2.82v3.29h-9.15v-3.29h2.63l5.95-9.26-6.08-14.19h-2.5v-3.29h9.15v3.29h-2.95l4.6,10.74,2.86-4.45v-6.29h-2.32v-3.29h8.33v3.29Z"/>
  </g>
</svg>