<?xml version="1.0" encoding="UTF-8"?>
<svg id="a" data-name="Layer 1" xmlns="http://www.w3.org/2000/svg" width="2.5in" height="3.5in" xmlns:xlink="http://www.w3.org/1999/xlink" viewBox="0 0 180 252">
  <defs>
    <clipPath id="b">
      <rect width="180" height="252" rx="18" ry="18" style="fill: none;"/>
    </clipPath>
  </defs>
  <g style="clip-path: url(#b);">
    <rect x="-.51" width="180" height="252" style="fill: #fff;"/>
    <path d="M37.18,107.66v14.14H5.96v-14.14h10.22L35.5,4.48h17.5l19.46,103.18h10.22v14.14h-31.22v-14.14h6.76s-2.24-12.32-2.24-12.32h-23.25l-2.31,12.31h6.75ZM35.24,81.2h18.13l-9.1-48.24-9.03,48.24Z" style="fill: #231f20;"/>
    <g>
      <path d="M80.61,199.46l3.7-55.98c-.73-.01-1.46-.02-2.19-.04-2.38,15.82-15.89,27.55-32.08,27.55-17.89,0-32.44-14.55-32.44-32.44s14.55-32.44,32.44-32.44c16.19,0,29.7,11.73,32.08,27.55.95-.02,1.9-.04,2.85-.06l1.09-16.43c-16.13-1.96-28.51-15.76-28.51-32.17,0-17.89,14.55-32.44,32.44-32.44s32.45,14.55,32.45,32.44c0,16.42-12.38,30.22-28.51,32.17l1.08,16.42c.83.01,2.86.05,2.86.05,2.38-15.81,15.89-27.54,32.08-27.54,17.89,0,32.44,14.55,32.44,32.44s-14.55,32.44-32.44,32.44c-16.19,0-29.7-11.73-32.08-27.54l-2.21.04,3.71,55.97h-18.77Z" style="fill: #fff;"/>
      <path d="M129.96,107.9c-15.89,0-28.96,12.09-30.49,27.57-2.03-.04-4.07-.09-6.13-.11l-1.31-19.83c15.97-1.05,28.62-14.3,28.62-30.54s-13.72-30.64-30.65-30.64-30.64,13.72-30.64,30.64,12.65,29.5,28.62,30.54l-1.31,19.83c-2.06.04-4.1.07-6.12.12-1.54-15.49-14.6-27.58-30.49-27.58-16.93,0-30.64,13.71-30.64,30.64s13.71,30.64,30.64,30.64c15.9,0,28.95-12.1,30.49-27.59,1.88.06,3.78.09,5.7.11l-3.7,55.96h14.92l-3.7-55.94c1.92-.04,3.82-.07,5.71-.11,1.54,15.47,14.6,27.57,30.49,27.57,16.93,0,30.64-13.72,30.64-30.64s-13.72-30.64-30.64-30.64Z" style="fill: #010101;"/>
      <g>
        <g>
          <path d="M79.47,73.79c1.45,0,2.63,2.36,2.63,5.26s-1.18,5.26-2.63,5.26-2.63-2.36-2.63-5.26,1.18-5.26,2.63-5.26Z" style="fill: #fff;"/>
          <path d="M100.53,73.79c1.45,0,2.63,2.36,2.63,5.26s-1.18,5.26-2.63,5.26-2.63-2.36-2.63-5.26,1.18-5.26,2.63-5.26Z" style="fill: #fff;"/>
        </g>
        <g>
          <path d="M73.55,88.22c1.9,0,3.45.77,3.45,1.72s-1.54,1.72-3.45,1.72-3.45-.77-3.45-1.72,1.54-1.72,3.45-1.72Z" style="fill: #fff;"/>
          <path d="M106.45,88.22c1.9,0,3.45.77,3.45,1.72s-1.54,1.72-3.45,1.72-3.45-.77-3.45-1.72,1.54-1.72,3.45-1.72Z" style="fill: #fff;"/>
        </g>
      </g>
    </g>
  </g>
</svg>