<?xml version="1.0" encoding="UTF-8"?>
<svg id="Layer_1" data-name="Layer 1" xmlns="http://www.w3.org/2000/svg" viewBox="0 0 180 252">
  <defs>
    <style>
      .cls-1 {
        fill: #010101;
      }

      .cls-2 {
        fill: #231f20;
      }

      .cls-3 {
        fill: #fff;
      }
    </style>
  </defs>
  <g>
    <path class="cls-1" d="M129.96,107.9c-15.89,0-28.96,12.09-30.49,27.57-2.03-.04-4.07-.09-6.13-.11l-1.31-19.83c15.97-1.05,28.62-14.3,28.62-30.54s-13.72-30.64-30.65-30.64-30.64,13.72-30.64,30.64,12.65,29.5,28.62,30.54l-1.31,19.83c-2.06.04-4.1.07-6.12.12-1.54-15.49-14.6-27.58-30.49-27.58-16.93,0-30.64,13.71-30.64,30.64s13.71,30.64,30.64,30.64c15.9,0,28.95-12.1,30.49-27.59,1.88.06,3.78.09,5.7.11l-3.7,55.96h14.92l-3.7-55.94c1.92-.04,3.82-.07,5.71-.11,1.54,15.47,14.6,27.57,30.49,27.57,16.93,0,30.64-13.72,30.64-30.64s-13.72-30.64-30.64-30.64Z"/>
    <g>
      <g>
        <path class="cls-3" d="M79.47,73.79c1.45,0,2.63,2.36,2.63,5.26s-1.18,5.26-2.63,5.26-2.63-2.36-2.63-5.26,1.18-5.26,2.63-5.26Z"/>
        <path class="cls-3" d="M100.53,73.79c1.45,0,2.63,2.36,2.63,5.26s-1.18,5.26-2.63,5.26-2.63-2.36-2.63-5.26,1.18-5.26,2.63-5.26Z"/>
      </g>
      <g>
        <path class="cls-3" d="M73.55,88.22c1.9,0,3.45.77,3.45,1.72s-1.54,1.72-3.45,1.72-3.45-.77-3.45-1.72,1.54-1.72,3.45-1.72Z"/>
        <path class="cls-3" d="M106.45,88.22c1.9,0,3.45.77,3.45,1.72s-1.54,1.72-3.45,1.72-3.45-.77-3.45-1.72,1.54-1.72,3.45-1.72Z"/>
      </g>
    </g>
  </g>
  <g>
    <path class="cls-2" d="M16.97,35.34v3.61h-7.97v-3.61h2.61l4.93-26.34h4.47l4.97,26.34h2.61v3.61h-7.97v-3.61h1.72s-.57-3.14-.57-3.14h-5.93l-.59,3.14h1.72ZM16.47,28.58h4.63l-2.32-12.31-2.31,12.31Z"/>
    <path class="cls-2" d="M163.03,216.66v-3.61h7.97v3.61h-2.61l-4.93,26.34h-4.47l-4.97-26.34h-2.61v-3.61h7.97v3.61h-1.72s.57,3.14.57,3.14h5.93l.59-3.14h-1.72ZM163.53,223.42h-4.63l2.32,12.31,2.31-12.31Z"/>
  </g>
</svg>