<?xml version="1.0" encoding="UTF-8"?>
<svg id="a" data-name="Layer 1" xmlns="http://www.w3.org/2000/svg" width="2.5in" height="3.5in" xmlns:xlink="http://www.w3.org/1999/xlink" viewBox="0 0 180 252">
  <defs>
    <clipPath id="b">
      <rect width="180" height="252" rx="18" ry="18" style="fill: none;"/>
    </clipPath>
  </defs>
  <g style="clip-path: url(#b);">
    <rect x="-.51" width="180" height="252" style="fill: #fff;"/>
    <path d="M66.02,92.96h14.98v30.24H5.96v-7.7c0-14.09,5.18-26.74,15.54-37.94,4.05-4.29,13.71-11.99,28.97-23.1,10.36-7.56,15.54-14.05,15.54-19.46,0-5.04-2.87-8.96-8.62-11.76-4.52-2.24-9.66-3.36-15.4-3.36-14.04,0-21.06,4.67-21.06,14,0,1.96.51,4.15,1.54,6.58l-14,5.88c-1.68-4.39-2.52-8.54-2.52-12.46,0-9.71,3.65-17.17,10.96-22.4,6.56-4.67,14.89-7,25.01-7s18.88,2.52,26.28,7.56c8.52,5.69,12.79,13.35,12.79,22.96,0,8.96-4.5,17.36-13.5,25.2-8.82,6.72-17.63,13.44-26.45,20.16-10.32,8.59-16.55,17.73-18.71,27.44h43.68v-14.84Z" style="fill: #ba2025;"/>
    <polygon points="74.97 78.39 90 55.84 105.03 78.39 90 100.94 74.97 78.39" style="fill: #fff;"/>
    <polygon points="77.13 78.39 90 59.09 102.87 78.39 90 97.69 77.13 78.39" style="fill: #ba141a;"/>
    <polygon points="74.97 173.61 90 151.07 105.03 173.61 90 196.16 74.97 173.61" style="fill: #fff;"/>
    <polygon points="77.13 173.61 90 154.31 102.87 173.61 90 192.91 77.13 173.61" style="fill: #ba141a;"/>
  </g>
</svg>