<?xml version="1.0" encoding="UTF-8"?>
<svg id="Layer_1" data-name="Layer 1" xmlns="http://www.w3.org/2000/svg" viewBox="0 0 180 252">
  <defs>
    <style>
      .cls-1 {
        fill: #ba141a;
      }

      .cls-2 {
        fill: #ba2025;
      }
    </style>
  </defs>
  <g>
    <polygon class="cls-1" points="77.13 78.39 90 59.09 102.87 78.39 90 97.69 77.13 78.39"/>
    <polygon class="cls-1" points="77.13 173.61 90 154.31 102.87 173.61 90 192.91 77.13 173.61"/>
  </g>
  <g>
    <path class="cls-2" d="M24.33,31.59h3.82v7.72H9v-1.97c0-3.6,1.32-6.83,3.97-9.68,1.03-1.1,3.5-3.06,7.4-5.9,2.65-1.93,3.97-3.59,3.97-4.97,0-1.29-.73-2.29-2.2-3-1.15-.57-2.47-.86-3.93-.86-3.58,0-5.38,1.19-5.38,3.57,0,.5.13,1.06.39,1.68l-3.57,1.5c-.43-1.12-.64-2.18-.64-3.18,0-2.48.93-4.38,2.8-5.72,1.67-1.19,3.8-1.79,6.38-1.79s4.82.64,6.71,1.93c2.18,1.45,3.26,3.41,3.26,5.86,0,2.29-1.15,4.43-3.45,6.43-2.25,1.72-4.5,3.43-6.75,5.15-2.63,2.19-4.23,4.53-4.78,7h11.15v-3.79Z"/>
    <path class="cls-2" d="M155.67,220.41h-3.82v-7.72h19.16v1.97c0,3.6-1.32,6.83-3.97,9.68-1.03,1.1-3.5,3.06-7.4,5.9-2.65,1.93-3.97,3.59-3.97,4.97,0,1.29.73,2.29,2.2,3,1.15.57,2.47.86,3.93.86,3.58,0,5.38-1.19,5.38-3.57,0-.5-.13-1.06-.39-1.68l3.57-1.5c.43,1.12.64,2.18.64,3.18,0,2.48-.93,4.38-2.8,5.72-1.67,1.19-3.8,1.79-6.38,1.79s-4.82-.64-6.71-1.93c-2.18-1.45-3.26-3.41-3.26-5.86,0-2.29,1.15-4.43,3.45-6.43,2.25-1.72,4.5-3.43,6.75-5.15,2.63-2.19,4.23-4.53,4.78-7h-11.15v3.79Z"/>
  </g>
</svg>