<?xml version="1.0" encoding="UTF-8"?>
<svg id="Layer_1" data-name="Layer 1" xmlns="http://www.w3.org/2000/svg" viewBox="0 0 180 252">
  <defs>
    <style>
      .cls-1 {
        fill: #ba141a;
      }

      .cls-2 {
        fill: #ba2025;
      }
    </style>
  </defs>
  <g>
    <polygon class="cls-1" points="77.13 54.58 90 35.28 102.87 54.58 90 73.88 77.13 54.58"/>
    <polygon class="cls-1" points="77.13 126 90 106.7 102.87 126 90 145.3 77.13 126"/>
    <polygon class="cls-1" points="77.13 197.42 90 178.12 102.87 197.42 90 216.72 77.13 197.42"/>
  </g>
  <g>
    <path class="cls-2" d="M18.79,39.38c-2.29,0-4.34-.79-6.15-2.36-1.64-1.43-2.86-3.29-3.65-5.58l3.65-1.29c.5,1.49,1.25,2.71,2.26,3.66,1.15,1.09,2.45,1.63,3.9,1.63,1.81,0,3.38-.71,4.69-2.14,1.31-1.43,1.97-3.04,1.97-4.85s-.56-3.23-1.68-4.35c-1.12-1.12-2.59-1.68-4.41-1.68-.84,0-1.49.11-1.97.32-.48.21-1.05.63-1.72,1.25l-2.76-2.72,8.9-8.36h-8.58v3.82h-3.82v-7.76h19.55v2.46l-7.62,7.21c2.41.45,4.34,1.58,5.78,3.38,1.44,1.8,2.16,3.94,2.16,6.42,0,2.88-1.04,5.42-3.11,7.62-2.07,2.19-4.54,3.29-7.4,3.29Z"/>
    <path class="cls-2" d="M161.21,212.62c2.29,0,4.34.79,6.15,2.36,1.64,1.43,2.86,3.29,3.65,5.58l-3.65,1.29c-.5-1.49-1.25-2.71-2.26-3.66-1.15-1.09-2.45-1.63-3.9-1.63-1.81,0-3.38.71-4.69,2.14s-1.97,3.04-1.97,4.85.56,3.23,1.68,4.35c1.12,1.12,2.59,1.68,4.41,1.68.84,0,1.49-.11,1.97-.32.48-.21,1.05-.63,1.72-1.25l2.76,2.72-8.9,8.36h8.58v-3.82h3.82v7.76h-19.55v-2.46l7.62-7.21c-2.41-.45-4.34-1.58-5.78-3.38-1.44-1.8-2.16-3.94-2.16-6.42,0-2.88,1.04-5.42,3.11-7.62,2.07-2.19,4.54-3.29,7.4-3.29Z"/>
  </g>
</svg>