<?xml version="1.0" encoding="UTF-8"?>
<svg id="a" data-name="Layer 1" xmlns="http://www.w3.org/2000/svg" width="2.5in" height="3.5in" xmlns:xlink="http://www.w3.org/1999/xlink" viewBox="0 0 180 252">
  <defs>
    <clipPath id="b">
      <rect width="180" height="252" rx="18" ry="18" style="fill: none;"/>
    </clipPath>
  </defs>
  <g style="clip-path: url(#b);">
    <rect x="-.51" width="180" height="252" style="fill: #fff;"/>
    <path d="M44.32,123.48c-8.96,0-16.99-3.08-24.08-9.24-6.44-5.6-11.2-12.88-14.28-21.84l14.31-5.04c1.96,5.84,4.91,10.62,8.84,14.32,4.49,4.27,9.59,6.4,15.29,6.4,7.11,0,13.23-2.79,18.38-8.38,5.15-5.58,7.72-11.92,7.72-18.99s-2.2-12.66-6.6-17.03c-4.4-4.38-10.15-6.56-17.27-6.56-3.28,0-5.85.42-7.72,1.26s-4.12,2.47-6.74,4.9l-10.81-10.64L56.22,19.88H22.62v14.98H7.64V4.48h76.58v9.64l-29.86,28.25c9.44,1.78,16.98,6.19,22.64,13.24,5.65,7.05,8.48,15.43,8.48,25.14,0,11.3-4.06,21.25-12.18,29.84-8.12,8.59-17.78,12.89-28.98,12.89Z" style="fill: #ba2025;"/>
    <polygon points="74.97 54.58 90 32.03 105.03 54.58 90 77.13 74.97 54.58" style="fill: #fff;"/>
    <polygon points="77.13 54.58 90 35.28 102.87 54.58 90 73.88 77.13 54.58" style="fill: #ba141a;"/>
    <polygon points="74.97 126 90 103.45 105.03 126 90 148.55 74.97 126" style="fill: #fff;"/>
    <polygon points="77.13 126 90 106.7 102.87 126 90 145.3 77.13 126" style="fill: #ba141a;"/>
    <polygon points="74.97 197.42 90 174.87 105.03 197.42 90 219.97 74.97 197.42" style="fill: #fff;"/>
    <polygon points="77.13 197.42 90 178.12 102.87 197.42 90 216.72 77.13 197.42" style="fill: #ba141a;"/>
  </g>
</svg>