<?xml version="1.0" encoding="UTF-8"?>
<svg id="Layer_1" data-name="Layer 1" xmlns="http://www.w3.org/2000/svg" viewBox="0 0 180 252">
  <defs>
    <style>
      .cls-1 {
        fill: #ba141a;
      }

      .cls-2 {
        fill: #ba2025;
      }
    </style>
  </defs>
  <g>
    <g>
      <polygon class="cls-1" points="25.2 54.58 38.07 35.28 50.94 54.58 38.07 73.88 25.2 54.58"/>
      <polygon class="cls-1" points="129.06 54.58 141.93 35.28 154.8 54.58 141.93 73.88 129.06 54.58"/>
    </g>
    <polygon class="cls-1" points="77.13 126 90 106.7 102.87 126 90 145.3 77.13 126"/>
    <g>
      <polygon class="cls-1" points="129.06 197.42 141.93 178.12 154.8 197.42 141.93 216.72 129.06 197.42"/>
      <polygon class="cls-1" points="25.2 197.42 38.07 178.12 50.94 197.42 38.07 216.72 25.2 197.42"/>
    </g>
  </g>
  <g>
    <path class="cls-2" d="M161.42,212.48c2.14,0,4.11.74,5.9,2.22,1.57,1.36,2.8,3.11,3.68,5.25l-3.58,1.5c-.57-1.4-1.34-2.54-2.29-3.44-1.12-1.07-2.36-1.6-3.72-1.6-1.91,0-3.5.89-4.76,2.67-1.15,1.59-1.72,3.36-1.72,5.3s.57,3.72,1.72,5.27c1.24,1.68,2.83,2.53,4.76,2.53,1.65,0,3.28-.88,4.91-2.64l2.79,1.64v11.83h-14.51v-3.93h10.69v-3.82c-1.24.57-2.52.86-3.83.86-3.01,0-5.52-1.23-7.52-3.68-1.89-2.29-2.83-4.97-2.83-8.04s.93-5.78,2.79-8.11c2.03-2.53,4.54-3.79,7.54-3.79Z"/>
    <path class="cls-2" d="M18.58,39.52c-2.14,0-4.11-.74-5.9-2.22-1.57-1.36-2.8-3.11-3.68-5.25l3.58-1.5c.57,1.4,1.34,2.54,2.29,3.44,1.12,1.07,2.36,1.6,3.72,1.6,1.91,0,3.5-.89,4.76-2.67,1.15-1.59,1.72-3.36,1.72-5.3,0-1.97-.57-3.72-1.72-5.27-1.24-1.68-2.83-2.53-4.76-2.53-1.65,0-3.28.88-4.91,2.64l-2.79-1.64v-11.83h14.51v3.93h-10.69s0,3.82,0,3.82c1.24-.57,2.52-.86,3.83-.86,3.01,0,5.52,1.23,7.52,3.68,1.89,2.29,2.83,4.97,2.83,8.04,0,3.07-.93,5.78-2.79,8.11-2.03,2.53-4.54,3.79-7.54,3.79Z"/>
  </g>
</svg>