<?xml version="1.0" encoding="UTF-8"?>
<svg id="a" data-name="Layer 1" xmlns="http://www.w3.org/2000/svg" width="2.5in" height="3.5in" xmlns:xlink="http://www.w3.org/1999/xlink" viewBox="0 0 180 252">
  <defs>
    <clipPath id="b">
      <rect width="180" height="252" rx="18" ry="18" style="fill: none;"/>
    </clipPath>
  </defs>
  <g style="clip-path: url(#b);">
    <rect x="-.51" width="180" height="252" style="fill: #fff;"/>
    <path d="M43.48,124.04c-8.4,0-16.1-2.89-23.1-8.68-6.16-5.32-10.97-12.18-14.42-20.58l14.03-5.88c2.24,5.47,5.24,9.96,8.98,13.48,4.4,4.17,9.26,6.26,14.59,6.26,7.48,0,13.7-3.48,18.66-10.45,4.49-6.23,6.74-13.15,6.74-20.77s-2.25-14.59-6.74-20.63c-4.87-6.6-11.09-9.89-18.67-9.89-6.46,0-12.87,3.45-19.23,10.36l-10.95-6.44V4.48h56.84v15.4H28.36v14.98c4.86-2.24,9.87-3.36,15.02-3.36,11.79,0,21.61,4.81,29.47,14.42,7.39,8.96,11.09,19.46,11.09,31.5s-3.64,22.63-10.92,31.78c-7.93,9.89-17.78,14.84-29.54,14.84Z" style="fill: #ba2025;"/>
    <polygon points="23.04 54.58 38.07 32.03 53.1 54.58 38.07 77.13 23.04 54.58" style="fill: #fff;"/>
    <polygon points="25.2 54.58 38.07 35.28 50.94 54.58 38.07 73.88 25.2 54.58" style="fill: #ba141a;"/>
    <polygon points="126.9 54.58 141.93 32.03 156.96 54.58 141.93 77.13 126.9 54.58" style="fill: #fff;"/>
    <polygon points="129.06 54.58 141.93 35.28 154.8 54.58 141.93 73.88 129.06 54.58" style="fill: #ba141a;"/>
    <polygon points="74.97 126 90 103.45 105.04 126 90 148.54 74.97 126" style="fill: #fff;"/>
    <polygon points="77.13 126 90 106.7 102.87 126 90 145.3 77.13 126" style="fill: #ba141a;"/>
    <polygon points="126.9 197.42 141.93 174.87 156.96 197.42 141.93 219.97 126.9 197.42" style="fill: #fff;"/>
    <polygon points="129.06 197.42 141.93 178.12 154.8 197.42 141.93 216.72 129.06 197.42" style="fill: #ba141a;"/>
    <polygon points="23.04 197.42 38.07 174.87 53.1 197.42 38.07 219.97 23.04 197.42" style="fill: #fff;"/>
    <polygon points="25.2 197.42 38.07 178.12 50.94 197.42 38.07 216.72 25.2 197.42" style="fill: #ba141a;"/>
  </g>
</svg>