<?xml version="1.0" encoding="UTF-8"?>
<svg id="a" data-name="Layer 1" xmlns="http://www.w3.org/2000/svg" width="2.5in" height="3.5in" xmlns:xlink="http://www.w3.org/1999/xlink" viewBox="0 0 180 252">
  <defs>
    <clipPath id="b">
      <rect width="180" height="252" rx="18" ry="18" style="fill: none;"/>
    </clipPath>
  </defs>
  <g style="clip-path: url(#b);">
    <rect x="-.51" width="180" height="252" style="fill: #fff;"/>
    <path d="M6.38,74.62h-.14c-.19.37-.28-2.94-.28-9.94,0-16.43,2.24-29.63,6.72-39.62C19.03,11.34,29.43,4.48,43.9,4.48c7.09,0,13.67,1.91,19.74,5.74,5.79,3.73,10.5,8.77,14.14,15.12l-13.02,7.84c-5.04-8.87-11.99-13.3-20.86-13.3-11.57,0-18.76,8.63-21.56,25.9,6.44-5.69,13.58-8.54,21.42-8.54,11.57,0,21,4.81,28.28,14.42,6.53,8.68,9.8,19.04,9.8,31.08,0,11.2-3.5,21.09-10.5,29.68-7.47,9.05-16.66,13.58-27.58,13.58-5.41,0-11.06-1.77-16.94-5.32-6.25-3.73-11.25-10.59-14.98-20.58-2.89-7.75-4.71-16.24-5.46-25.48ZM43.76,110.6c6.72,0,12.32-3.07,16.8-9.22,4.2-5.59,6.3-11.82,6.3-18.71,0-7.73-1.91-14.43-5.74-20.11-4.29-6.61-10.08-9.92-17.36-9.92-5.32,0-10.13,2.56-14.42,7.68-3.55,4.28-6.16,9.31-7.84,15.08.84,8.57,2.71,15.92,5.6,22.06,4.11,8.75,9.66,13.13,16.66,13.13Z" style="fill: #ba2025;"/>
    <polygon points="23.04 54.58 38.07 32.04 53.1 54.58 38.07 77.13 23.04 54.58" style="fill: #fff;"/>
    <polygon points="25.2 54.58 38.07 35.28 50.94 54.58 38.07 73.88 25.2 54.58" style="fill: #ba141a;"/>
    <polygon points="126.9 54.58 141.93 32.04 156.96 54.58 141.93 77.13 126.9 54.58" style="fill: #fff;"/>
    <polygon points="129.06 54.58 141.93 35.28 154.8 54.58 141.93 73.88 129.06 54.58" style="fill: #ba141a;"/>
    <polygon points="23.04 126 38.07 103.45 53.1 126 38.07 148.55 23.04 126" style="fill: #fff;"/>
    <polygon points="25.2 126 38.07 106.7 50.94 126 38.07 145.3 25.2 126" style="fill: #ba141a;"/>
    <polygon points="126.9 126 141.93 103.45 156.96 126 141.93 148.55 126.9 126" style="fill: #fff;"/>
    <polygon points="129.06 126 141.93 106.7 154.8 126 141.93 145.3 129.06 126" style="fill: #ba141a;"/>
    <polygon points="126.9 197.42 141.93 174.87 156.96 197.42 141.93 219.96 126.9 197.42" style="fill: #fff;"/>
    <polygon points="129.06 197.42 141.93 178.12 154.8 197.42 141.93 216.72 129.06 197.42" style="fill: #ba141a;"/>
    <polygon points="23.04 197.42 38.07 174.87 53.1 197.42 38.07 219.96 23.04 197.42" style="fill: #fff;"/>
    <polygon points="25.2 197.42 38.07 178.12 50.94 197.42 38.07 216.72 25.2 197.42" style="fill: #ba141a;"/>
  </g>
</svg>