<?xml version="1.0" encoding="UTF-8"?>
<svg id="a" data-name="Layer 1" xmlns="http://www.w3.org/2000/svg" width="2.5in" height="3.5in" xmlns:xlink="http://www.w3.org/1999/xlink" viewBox="0 0 180 252">
  <defs>
    <clipPath id="b">
      <rect width="180" height="252" rx="18" ry="18" style="fill: none;"/>
    </clipPath>
  </defs>
  <g style="clip-path: url(#b);">
    <rect x="-.51" width="180" height="252" style="fill: #fff;"/>
    <path d="M5.96,35.7V4.48h68.46l7.7,13.44c-19.13,27.44-32.43,61.79-39.9,103.04h-16.38c6.63-37.8,18.25-71.12,34.86-99.96H22.06v14.7H5.96Z" style="fill: #ba2025;"/>
    <polygon points="23.04 78.39 38.07 55.84 53.1 78.39 38.07 100.93 23.04 78.39" style="fill: #fff;"/>
    <polygon points="25.2 78.39 38.07 59.09 50.94 78.39 38.07 97.69 25.2 78.39" style="fill: #ba141a;"/>
    <polygon points="23.04 173.61 38.07 151.07 53.1 173.61 38.07 196.16 23.04 173.61" style="fill: #fff;"/>
    <polygon points="25.2 173.61 38.07 154.31 50.94 173.61 45.05 182.45 38.07 192.91 25.2 173.61" style="fill: #ba141a;"/>
    <polygon points="74.97 54.58 90 32.03 105.04 54.58 90 77.13 74.97 54.58" style="fill: #fff;"/>
    <polygon points="77.13 54.58 90 35.28 102.87 54.58 90 73.88 77.13 54.58" style="fill: #ba141a;"/>
    <polygon points="74.97 126 90 103.45 105.04 126 90 148.55 74.97 126" style="fill: #fff;"/>
    <polygon points="77.13 126 90 106.7 102.87 126 90 145.3 77.13 126" style="fill: #ba141a;"/>
    <polygon points="74.97 197.42 90 174.87 105.04 197.42 90 219.97 74.97 197.42" style="fill: #fff;"/>
    <polygon points="77.13 197.42 90 178.12 102.87 197.42 90 216.72 77.13 197.42" style="fill: #ba141a;"/>
    <polygon points="126.9 78.39 141.93 55.84 156.96 78.39 141.93 100.94 126.9 78.39" style="fill: #fff;"/>
    <polygon points="129.06 78.39 141.93 59.08 154.8 78.39 141.93 97.69 129.06 78.39" style="fill: #ba141a;"/>
    <polygon points="126.9 173.61 141.93 151.07 156.96 173.61 141.93 196.16 126.9 173.61" style="fill: #fff;"/>
    <polygon points="129.06 173.61 141.93 154.31 154.8 173.61 148.91 182.44 141.93 192.92 129.06 173.61" style="fill: #ba141a;"/>
  </g>
</svg>