<?xml version="1.0" encoding="UTF-8"?>
<svg id="Layer_1" data-name="Layer 1" xmlns="http://www.w3.org/2000/svg" viewBox="0 0 180 252">
  <defs>
    <style>
      .cls-1 {
        fill: #ba141a;
      }

      .cls-2 {
        fill: #ba2025;
      }
    </style>
  </defs>
  <g>
    <g>
      <polygon class="cls-1" points="25.2 78.39 38.07 59.09 50.94 78.39 38.07 97.69 25.2 78.39"/>
      <polygon class="cls-1" points="25.2 173.61 38.07 154.31 50.94 173.61 45.05 182.45 38.07 192.91 25.2 173.61"/>
    </g>
    <g>
      <polygon class="cls-1" points="77.13 54.58 90 35.28 102.87 54.58 90 73.88 77.13 54.58"/>
      <polygon class="cls-1" points="77.13 126 90 106.7 102.87 126 90 145.3 77.13 126"/>
      <polygon class="cls-1" points="77.13 197.42 90 178.12 102.87 197.42 90 216.72 77.13 197.42"/>
    </g>
    <g>
      <polygon class="cls-1" points="129.06 78.39 141.93 59.08 154.8 78.39 141.93 97.69 129.06 78.39"/>
      <polygon class="cls-1" points="129.06 173.61 141.93 154.31 154.8 173.61 148.91 182.44 141.93 192.92 129.06 173.61"/>
    </g>
  </g>
  <g>
    <path class="cls-2" d="M9,16.97v-7.97h17.48l1.97,3.43c-4.88,7-8.28,15.77-10.19,26.3h-4.18c1.69-9.65,4.66-18.15,8.9-25.52h-9.86v3.75h-4.11Z"/>
    <path class="cls-2" d="M171,235.03v7.97h-17.48l-1.97-3.43c4.88-7,8.28-15.77,10.19-26.3h4.18c-1.69,9.65-4.66,18.15-8.9,25.52h9.86v-3.75h4.11Z"/>
  </g>
</svg>