<?xml version="1.0" encoding="UTF-8"?>
<svg id="Layer_1" data-name="Layer 1" xmlns="http://www.w3.org/2000/svg" viewBox="0 0 180 252">
  <defs>
    <style>
      .cls-1 {
        fill: #ba141a;
      }

      .cls-2 {
        fill: #ba2025;
      }
    </style>
  </defs>
  <g>
    <g>
      <polygon class="cls-1" points="25.2 54.58 38.07 35.28 50.94 54.58 38.07 73.88 25.2 54.58"/>
      <polygon class="cls-1" points="129.06 54.58 141.93 35.28 154.8 54.58 141.93 73.88 129.06 54.58"/>
    </g>
    <polygon class="cls-1" points="77.13 78.39 90 59.09 102.87 78.39 90 97.69 77.13 78.39"/>
    <g>
      <polygon class="cls-1" points="25.2 126 38.07 106.7 50.94 126 38.07 145.3 25.2 126"/>
      <polygon class="cls-1" points="129.06 126 141.93 106.7 154.8 126 141.93 145.3 129.06 126"/>
    </g>
    <polygon class="cls-1" points="77.13 173.61 90 154.31 102.87 173.61 90 192.92 77.13 173.61"/>
    <g>
      <polygon class="cls-1" points="129.06 197.42 141.93 178.12 154.8 197.42 141.93 216.72 129.06 197.42"/>
      <polygon class="cls-1" points="25.2 197.42 38.07 178.12 50.94 197.42 38.07 216.72 25.2 197.42"/>
    </g>
  </g>
  <g>
    <path class="cls-2" d="M18.86,39.48c-2.64,0-4.93-.86-6.86-2.57-2-1.76-3-3.94-3-6.54,0-3.05,1.32-5.49,3.97-7.33-1.91-1.57-2.86-3.56-2.86-5.97s.89-4.25,2.68-5.83c1.72-1.5,3.74-2.25,6.08-2.25s4.36.75,6.08,2.25c1.79,1.57,2.68,3.51,2.68,5.83s-.95,4.37-2.86,5.97c2.64,1.81,3.97,4.25,3.97,7.33,0,2.6-.98,4.77-2.95,6.5-1.97,1.74-4.27,2.61-6.92,2.61ZM18.86,25.19c-1.55,0-2.92.48-4.11,1.42-1.29,1-1.93,2.26-1.93,3.78s.64,2.75,1.93,3.78c1.19.93,2.56,1.39,4.11,1.39s2.92-.46,4.11-1.39c1.29-1.02,1.93-2.28,1.93-3.78s-.64-2.78-1.93-3.78c-1.19-.95-2.56-1.42-4.11-1.42ZM18.86,12.93c-1.26,0-2.37.38-3.32,1.14-1.07.81-1.61,1.82-1.61,3.02s.54,2.22,1.61,3.02c.95.76,2.06,1.14,3.32,1.14s2.37-.38,3.32-1.14c1.07-.81,1.61-1.81,1.61-3.02s-.54-2.22-1.61-3.02c-.95-.76-2.06-1.14-3.32-1.14Z"/>
    <path class="cls-2" d="M161.14,212.52c2.64,0,4.93.86,6.86,2.57,2,1.76,3,3.94,3,6.54,0,3.05-1.32,5.49-3.97,7.33,1.91,1.57,2.86,3.56,2.86,5.97s-.89,4.25-2.68,5.83c-1.72,1.5-3.74,2.25-6.08,2.25s-4.36-.75-6.08-2.25c-1.79-1.57-2.68-3.51-2.68-5.83s.95-4.37,2.86-5.97c-2.64-1.81-3.97-4.25-3.97-7.33,0-2.6.98-4.77,2.95-6.5,1.97-1.74,4.27-2.61,6.92-2.61ZM161.14,226.81c1.55,0,2.92-.48,4.11-1.42,1.29-1,1.93-2.26,1.93-3.78s-.64-2.75-1.93-3.78c-1.19-.93-2.56-1.39-4.11-1.39s-2.92.46-4.11,1.39c-1.29,1.02-1.93,2.28-1.93,3.78s.64,2.78,1.93,3.78c1.19.95,2.56,1.42,4.11,1.42ZM161.14,239.07c1.26,0,2.37-.38,3.32-1.14,1.07-.81,1.61-1.82,1.61-3.02s-.54-2.22-1.61-3.02c-.95-.76-2.06-1.14-3.32-1.14s-2.37.38-3.32,1.14c-1.07.81-1.61,1.81-1.61,3.02s.54,2.22,1.61,3.02c.95.76,2.06,1.14,3.32,1.14Z"/>
  </g>
</svg>