<?xml version="1.0" encoding="UTF-8"?>
<svg id="a" data-name="Layer 1" xmlns="http://www.w3.org/2000/svg" width="2.5in" height="3.5in" xmlns:xlink="http://www.w3.org/1999/xlink" viewBox="0 0 180 252">
  <defs>
    <clipPath id="b">
      <rect width="180" height="252" rx="18" ry="18" style="fill: none;"/>
    </clipPath>
  </defs>
  <g style="clip-path: url(#b);">
    <rect x="-.51" width="180" height="252" style="fill: #fff;"/>
    <path d="M44.6,123.9c-10.36,0-19.32-3.36-26.88-10.08-7.84-6.91-11.76-15.45-11.76-25.62,0-11.95,5.18-21.51,15.54-28.7-7.47-6.16-11.2-13.95-11.2-23.38s3.5-16.66,10.5-22.82c6.72-5.88,14.65-8.82,23.8-8.82s17.08,2.94,23.8,8.82c7,6.16,10.5,13.77,10.5,22.82s-3.73,17.13-11.2,23.38c10.36,7.09,15.54,16.66,15.54,28.7,0,10.17-3.85,18.67-11.55,25.48-7.7,6.81-16.73,10.22-27.09,10.22ZM44.6,67.9c-6.07,0-11.43,1.86-16.1,5.58-5.04,3.91-7.56,8.84-7.56,14.79s2.52,10.79,7.56,14.79c4.67,3.63,10.03,5.44,16.1,5.44s11.43-1.81,16.1-5.44c5.04-4,7.56-8.93,7.56-14.79s-2.52-10.88-7.56-14.79c-4.67-3.72-10.03-5.58-16.1-5.58ZM44.6,19.88c-4.95,0-9.29,1.49-13.02,4.46-4.2,3.16-6.3,7.11-6.3,11.85s2.1,8.69,6.3,11.85c3.73,2.97,8.07,4.46,13.02,4.46s9.29-1.49,13.02-4.46c4.2-3.16,6.3-7.11,6.3-11.85s-2.1-8.69-6.3-11.85c-3.73-2.97-8.07-4.46-13.02-4.46Z" style="fill: #ba2025;"/>
    <polygon points="23.04 54.58 38.07 32.04 53.1 54.58 38.07 77.13 23.04 54.58" style="fill: #fff;"/>
    <polygon points="25.2 54.58 38.07 35.28 50.94 54.58 38.07 73.88 25.2 54.58" style="fill: #ba141a;"/>
    <polygon points="126.9 54.58 141.93 32.03 156.96 54.58 141.93 77.13 126.9 54.58" style="fill: #fff;"/>
    <polygon points="129.06 54.58 141.93 35.28 154.8 54.58 141.93 73.88 129.06 54.58" style="fill: #ba141a;"/>
    <polygon points="74.97 78.39 90 55.84 105.04 78.39 90 100.94 74.97 78.39" style="fill: #fff;"/>
    <polygon points="77.13 78.39 90 59.09 102.87 78.39 90 97.69 77.13 78.39" style="fill: #ba141a;"/>
    <polygon points="23.04 126 38.07 103.45 53.1 126 38.07 148.55 23.04 126" style="fill: #fff;"/>
    <polygon points="25.2 126 38.07 106.7 50.94 126 38.07 145.3 25.2 126" style="fill: #ba141a;"/>
    <polygon points="126.9 126 141.93 103.45 156.96 126 141.93 148.55 126.9 126" style="fill: #fff;"/>
    <polygon points="129.06 126 141.93 106.7 154.8 126 141.93 145.3 129.06 126" style="fill: #ba141a;"/>
    <polygon points="74.97 173.61 90 151.07 105.04 173.61 90 196.16 74.97 173.61" style="fill: #fff;"/>
    <polygon points="77.13 173.61 90 154.31 102.87 173.61 90 192.92 77.13 173.61" style="fill: #ba141a;"/>
    <polygon points="126.9 197.42 141.93 174.87 156.96 197.42 141.93 219.97 126.9 197.42" style="fill: #fff;"/>
    <polygon points="129.06 197.42 141.93 178.12 154.8 197.42 141.93 216.72 129.06 197.42" style="fill: #ba141a;"/>
    <polygon points="23.04 197.42 38.07 174.87 53.1 197.42 38.07 219.97 23.04 197.42" style="fill: #fff;"/>
    <polygon points="25.2 197.42 38.07 178.12 50.94 197.42 38.07 216.72 25.2 197.42" style="fill: #ba141a;"/>
  </g>
</svg>