<?xml version="1.0" encoding="UTF-8"?>
<svg id="a" data-name="Layer 1" xmlns="http://www.w3.org/2000/svg" width="2.5in" height="3.5in" xmlns:xlink="http://www.w3.org/1999/xlink" viewBox="0 0 180 252">
  <defs>
    <clipPath id="b">
      <rect width="180" height="252" rx="18" ry="18" style="fill: none;"/>
    </clipPath>
  </defs>
  <g style="clip-path: url(#b);">
    <rect x="-.51" width="180" height="252" style="fill: #fff;"/>
    <path d="M66.3,81.34c-6.53,5.23-13.91,7.84-22.12,7.84-11.01,0-20.21-4.34-27.58-13.02-7.09-8.4-10.64-18.15-10.64-29.26s3.55-20.95,10.64-29.26c7.37-8.77,16.57-13.16,27.58-13.16,13.63,0,23.85,7.05,30.66,21.14,5.23,10.92,7.84,24.03,7.84,39.34,0,16.05-2.57,29.35-7.7,39.9-6.72,13.91-17.27,20.86-31.64,20.86s-25.11-7.19-33.32-21.56l13.16-7.7c5.23,9.24,11.95,13.86,20.16,13.86,12.23,0,19.88-9.66,22.96-28.98ZM44.11,19.88c-6.74,0-12.36,2.89-16.85,8.66-4.21,5.31-6.32,11.4-6.32,18.29s2.11,12.99,6.32,18.29c4.49,5.77,10.11,8.66,16.85,8.66,5.71,0,10.67-2.19,14.89-6.56,3.75-3.91,6.32-8.8,7.72-14.66-2.72-21.78-10.25-32.67-22.61-32.67Z" style="fill: #ba2025;"/>
    <polygon points="23.04 54.58 38.07 32.03 53.1 54.58 38.07 77.13 23.04 54.58" style="fill: #fff;"/>
    <polygon points="25.2 54.58 38.07 35.28 50.94 54.58 38.07 73.88 25.2 54.58" style="fill: #ba141a;"/>
    <polygon points="126.9 54.58 141.93 32.03 156.96 54.58 141.93 77.13 126.9 54.58" style="fill: #fff;"/>
    <polygon points="129.06 54.58 141.93 35.28 154.8 54.58 141.93 73.88 129.06 54.58" style="fill: #ba141a;"/>
    <polygon points="126.9 102.19 141.93 79.65 156.96 102.19 141.93 124.74 126.9 102.19" style="fill: #fff;"/>
    <polygon points="129.06 102.19 141.93 82.89 154.8 102.19 141.93 121.5 129.06 102.19" style="fill: #ba141a;"/>
    <polygon points="23.04 102.19 38.07 79.65 53.1 102.19 38.07 124.74 23.04 102.19" style="fill: #fff;"/>
    <polygon points="25.2 102.19 38.07 82.89 50.94 102.19 38.07 121.5 25.2 102.19" style="fill: #ba141a;"/>
    <polygon points="23.04 149.81 38.07 127.26 53.1 149.81 38.07 172.35 23.04 149.81" style="fill: #fff;"/>
    <polygon points="25.2 149.81 38.07 130.51 50.94 149.81 38.07 169.11 25.2 149.81" style="fill: #ba141a;"/>
    <polygon points="126.9 149.81 141.93 127.26 156.96 149.81 141.93 172.35 126.9 149.81" style="fill: #fff;"/>
    <polygon points="129.06 149.81 141.93 130.51 154.8 149.81 141.93 169.11 129.06 149.81" style="fill: #ba141a;"/>
    <polygon points="74.97 126 90 103.46 105.04 126 90 148.55 74.97 126" style="fill: #fff;"/>
    <polygon points="77.13 126 90 106.7 102.87 126 90 145.3 77.13 126" style="fill: #ba141a;"/>
    <polygon points="126.9 197.42 141.93 174.87 156.96 197.42 141.93 219.97 126.9 197.42" style="fill: #fff;"/>
    <polygon points="129.06 197.42 141.93 178.12 154.8 197.42 141.93 216.72 129.06 197.42" style="fill: #ba141a;"/>
    <polygon points="23.04 197.42 38.07 174.87 53.1 197.42 38.07 219.97 23.04 197.42" style="fill: #fff;"/>
    <polygon points="25.2 197.42 38.07 178.12 50.94 197.42 38.07 216.72 25.2 197.42" style="fill: #ba141a;"/>
  </g>
</svg>