<?xml version="1.0" encoding="UTF-8"?>
<svg id="Layer_1" data-name="Layer 1" xmlns="http://www.w3.org/2000/svg" viewBox="0 0 180 252">
  <defs>
    <style>
      .cls-1 {
        fill: #ba141a;
      }

      .cls-2 {
        fill: #ba2025;
      }
    </style>
  </defs>
  <g>
    <g>
      <polygon class="cls-1" points="25.2 54.58 38.07 35.28 50.94 54.58 38.07 73.88 25.2 54.58"/>
      <polygon class="cls-1" points="129.06 54.58 141.93 35.28 154.8 54.58 141.93 73.88 129.06 54.58"/>
    </g>
    <g>
      <polygon class="cls-1" points="129.06 102.19 141.93 82.89 154.8 102.19 141.93 121.5 129.06 102.19"/>
      <polygon class="cls-1" points="25.2 102.19 38.07 82.89 50.94 102.19 38.07 121.5 25.2 102.19"/>
    </g>
    <g>
      <polygon class="cls-1" points="25.2 149.81 38.07 130.51 50.94 149.81 38.07 169.11 25.2 149.81"/>
      <polygon class="cls-1" points="129.06 149.81 141.93 130.51 154.8 149.81 141.93 169.11 129.06 149.81"/>
    </g>
    <polygon class="cls-1" points="77.13 126 90 106.7 102.87 126 90 145.3 77.13 126"/>
    <g>
      <polygon class="cls-1" points="129.06 197.42 141.93 178.12 154.8 197.42 141.93 216.72 129.06 197.42"/>
      <polygon class="cls-1" points="25.2 197.42 38.07 178.12 50.94 197.42 38.07 216.72 25.2 197.42"/>
    </g>
  </g>
  <g>
    <path class="cls-2" d="M24.4,28.62c-1.67,1.33-3.55,2-5.65,2-2.81,0-5.16-1.11-7.04-3.32-1.81-2.14-2.72-4.63-2.72-7.47s.91-5.35,2.72-7.47c1.88-2.24,4.23-3.36,7.04-3.36,3.48,0,6.09,1.8,7.83,5.4,1.33,2.79,2,6.14,2,10.04,0,4.1-.66,7.49-1.97,10.19-1.72,3.55-4.41,5.32-8.08,5.32s-6.41-1.83-8.51-5.5l3.36-1.97c1.33,2.36,3.05,3.54,5.15,3.54,3.12,0,5.07-2.47,5.86-7.4ZM18.74,12.93c-1.72,0-3.15.74-4.3,2.21-1.08,1.35-1.61,2.91-1.61,4.67s.54,3.32,1.61,4.67c1.15,1.47,2.58,2.21,4.3,2.21,1.46,0,2.72-.56,3.8-1.68.96-1,1.61-2.25,1.97-3.74-.69-5.56-2.62-8.34-5.77-8.34Z"/>
    <path class="cls-2" d="M155.6,223.38c1.67-1.33,3.55-2,5.65-2,2.81,0,5.16,1.11,7.04,3.32,1.81,2.14,2.72,4.63,2.72,7.47s-.91,5.35-2.72,7.47c-1.88,2.24-4.23,3.36-7.04,3.36-3.48,0-6.09-1.8-7.83-5.4-1.33-2.79-2-6.14-2-10.04,0-4.1.66-7.49,1.97-10.19,1.72-3.55,4.41-5.32,8.08-5.32s6.41,1.83,8.51,5.5l-3.36,1.97c-1.33-2.36-3.05-3.54-5.15-3.54-3.12,0-5.07,2.47-5.86,7.4ZM161.26,239.07c1.72,0,3.15-.74,4.3-2.21,1.08-1.35,1.61-2.91,1.61-4.67s-.54-3.32-1.61-4.67c-1.15-1.47-2.58-2.21-4.3-2.21-1.46,0-2.72.56-3.8,1.68-.96,1-1.61,2.25-1.97,3.74.69,5.56,2.62,8.34,5.77,8.34Z"/>
  </g>
</svg>