<?xml version="1.0" encoding="UTF-8"?>
<svg id="Layer_1" data-name="Layer 1" xmlns="http://www.w3.org/2000/svg" viewBox="0 0 180 252">
  <defs>
    <style>
      .cls-1 {
        fill: #ba141a;
      }

      .cls-2 {
        fill: #ba2025;
      }
    </style>
  </defs>
  <g>
    <g>
      <polygon class="cls-1" points="25.2 54.58 38.07 35.28 50.94 54.58 38.07 73.88 25.2 54.58"/>
      <polygon class="cls-1" points="129.06 54.58 141.93 35.28 154.8 54.58 141.93 73.88 129.06 54.58"/>
    </g>
    <polygon class="cls-1" points="77.13 78.39 90 59.09 102.87 78.39 90 97.69 77.13 78.39"/>
    <g>
      <polygon class="cls-1" points="129.06 102.19 141.93 82.89 154.8 102.19 141.93 121.5 129.06 102.19"/>
      <polygon class="cls-1" points="25.2 102.19 38.07 82.89 50.94 102.19 38.07 121.5 25.2 102.19"/>
    </g>
    <g>
      <polygon class="cls-1" points="25.2 149.81 38.07 130.5 50.94 149.81 38.07 169.11 25.2 149.81"/>
      <polygon class="cls-1" points="129.06 149.81 141.93 130.5 154.8 149.81 141.93 169.11 129.06 149.81"/>
    </g>
    <polygon class="cls-1" points="77.13 173.61 90 154.31 102.87 173.61 90 192.91 77.13 173.61"/>
    <g>
      <polygon class="cls-1" points="129.06 197.42 141.93 178.12 154.8 197.42 141.93 216.72 129.06 197.42"/>
      <polygon class="cls-1" points="25.2 197.42 38.07 178.12 50.94 197.42 38.07 216.72 25.2 197.42"/>
    </g>
  </g>
  <g>
    <path class="cls-2" d="M9,9.54h3.82v29.84h-3.82V9.54ZM21.33,40.02c-1.74,0-3.22-.63-4.45-1.89-1.23-1.26-1.84-2.78-1.84-4.54V15.43c0-1.74.61-3.25,1.84-4.52,1.23-1.27,2.71-1.91,4.45-1.91s3.26.64,4.48,1.91c1.23,1.28,1.84,2.78,1.84,4.52v18.15c0,1.76-.61,3.28-1.84,4.54-1.23,1.26-2.72,1.89-4.48,1.89ZM21.33,12.93c-.68,0-1.26.25-1.74.75-.48.5-.72,1.08-.72,1.75v18.13c0,.69.24,1.28.72,1.78.48.5,1.06.75,1.74.75s1.29-.25,1.78-.75c.48-.5.73-1.09.73-1.78V15.43c0-.67-.24-1.25-.73-1.75-.48-.5-1.08-.75-1.78-.75Z"/>
    <path class="cls-2" d="M171,242.46h-3.82v-29.84h3.82v29.84ZM158.67,211.98c1.74,0,3.22.63,4.45,1.89,1.23,1.26,1.84,2.78,1.84,4.54v18.15c0,1.74-.61,3.25-1.84,4.52-1.23,1.27-2.71,1.91-4.45,1.91s-3.26-.64-4.48-1.91c-1.23-1.28-1.84-2.78-1.84-4.52v-18.15c0-1.76.61-3.28,1.84-4.54,1.23-1.26,2.72-1.89,4.48-1.89ZM158.67,239.07c.68,0,1.26-.25,1.74-.75.48-.5.72-1.08.72-1.75v-18.13c0-.69-.24-1.28-.72-1.78-.48-.5-1.06-.75-1.74-.75s-1.29.25-1.78.75c-.48.5-.73,1.09-.73,1.78v18.13c0,.67.24,1.25.73,1.75.48.5,1.08.75,1.78.75Z"/>
  </g>
</svg>