<?xml version="1.0" encoding="UTF-8"?>
<svg id="a" data-name="Layer 1" xmlns="http://www.w3.org/2000/svg" width="2.5in" height="3.5in" xmlns:xlink="http://www.w3.org/1999/xlink" viewBox="0 0 180 252">
  <defs>
    <clipPath id="b">
      <rect width="180" height="252" rx="18" ry="18" style="fill: none;"/>
    </clipPath>
  </defs>
  <g style="clip-path: url(#b);">
    <rect x="-.51" width="180" height="252" style="fill: #fff;"/>
    <path d="M5.96,6.58h14.98v116.9H5.96V6.58ZM54.26,126c-6.81,0-12.62-2.47-17.43-7.42-4.81-4.95-7.21-10.87-7.21-17.78V29.68c0-6.81,2.4-12.72,7.21-17.71,4.81-4.99,10.62-7.49,17.43-7.49s12.76,2.5,17.57,7.49c4.81,4.99,7.21,10.9,7.21,17.71v71.12c0,6.91-2.4,12.83-7.21,17.78-4.81,4.95-10.66,7.42-17.57,7.42ZM54.26,19.88c-2.65,0-4.93.98-6.82,2.94-1.89,1.96-2.84,4.24-2.84,6.85v71.01c0,2.7.94,5.03,2.84,6.99,1.89,1.96,4.17,2.94,6.82,2.94s5.06-.98,6.96-2.94c1.89-1.96,2.84-4.29,2.84-6.99V29.66c0-2.61-.95-4.89-2.84-6.85-1.89-1.96-4.21-2.94-6.96-2.94Z" style="fill: #ba2025;"/>
    <polygon points="23.04 54.58 38.07 32.03 53.1 54.58 38.07 77.13 23.04 54.58" style="fill: #fff;"/>
    <polygon points="25.2 54.58 38.07 35.28 50.94 54.58 38.07 73.88 25.2 54.58" style="fill: #ba141a;"/>
    <polygon points="126.9 54.58 141.93 32.03 156.96 54.58 141.93 77.13 126.9 54.58" style="fill: #fff;"/>
    <polygon points="129.06 54.58 141.93 35.28 154.8 54.58 141.93 73.88 129.06 54.58" style="fill: #ba141a;"/>
    <polygon points="74.97 78.39 90 55.84 105.03 78.39 90 100.93 74.97 78.39" style="fill: #fff;"/>
    <polygon points="77.13 78.39 90 59.09 102.87 78.39 90 97.69 77.13 78.39" style="fill: #ba141a;"/>
    <polygon points="126.9 102.19 141.93 79.65 156.96 102.19 141.93 124.74 126.9 102.19" style="fill: #fff;"/>
    <polygon points="129.06 102.19 141.93 82.89 154.8 102.19 141.93 121.5 129.06 102.19" style="fill: #ba141a;"/>
    <polygon points="23.04 102.19 38.07 79.65 53.1 102.19 38.07 124.74 23.04 102.19" style="fill: #fff;"/>
    <polygon points="25.2 102.19 38.07 82.89 50.94 102.19 38.07 121.5 25.2 102.19" style="fill: #ba141a;"/>
    <polygon points="23.04 149.81 38.07 127.26 53.1 149.81 38.07 172.35 23.04 149.81" style="fill: #fff;"/>
    <polygon points="25.2 149.81 38.07 130.5 50.94 149.81 38.07 169.11 25.2 149.81" style="fill: #ba141a;"/>
    <polygon points="126.9 149.81 141.93 127.26 156.96 149.81 141.93 172.35 126.9 149.81" style="fill: #fff;"/>
    <polygon points="129.06 149.81 141.93 130.5 154.8 149.81 141.93 169.11 129.06 149.81" style="fill: #ba141a;"/>
    <polygon points="74.97 173.61 90 151.07 105.03 173.61 90 196.16 74.97 173.61" style="fill: #fff;"/>
    <polygon points="77.13 173.61 90 154.31 102.87 173.61 90 192.91 77.13 173.61" style="fill: #ba141a;"/>
    <polygon points="126.9 197.42 141.93 174.87 156.96 197.42 141.93 219.97 126.9 197.42" style="fill: #fff;"/>
    <polygon points="129.06 197.42 141.93 178.12 154.8 197.42 141.93 216.72 129.06 197.42" style="fill: #ba141a;"/>
    <polygon points="23.04 197.42 38.07 174.87 53.1 197.42 38.07 219.97 23.04 197.42" style="fill: #fff;"/>
    <polygon points="25.2 197.42 38.07 178.12 50.94 197.42 38.07 216.72 25.2 197.42" style="fill: #ba141a;"/>
  </g>
</svg>