<?xml version="1.0" encoding="UTF-8"?>
<svg id="a" data-name="Layer 1" xmlns="http://www.w3.org/2000/svg" width="2.5in" height="3.5in" xmlns:xlink="http://www.w3.org/1999/xlink" viewBox="0 0 180 252">
  <defs>
    <clipPath id="b">
      <rect width="180" height="252" rx="18" ry="18" style="fill: none;"/>
    </clipPath>
    <clipPath id="c">
      <path d="M138.4,188.86c0-26.13-21.19-47.32-47.31-47.32s-47.31,21.19-47.31,47.32c0,12.18,4.61,23.29,12.17,31.67h70.29c7.56-8.39,12.17-19.49,12.17-31.67Z" style="fill: #fff; stroke: #010101; stroke-miterlimit: 10;"/>
    </clipPath>
    <pattern id="d" data-name="New Pattern Swatch 1 copy" x="0" y="0" width="10.8" height="16.2" patternTransform="translate(-702 -612)" patternUnits="userSpaceOnUse" viewBox="0 0 10.8 16.2">
      <g>
        <rect y="0" width="10.8" height="16.2" style="fill: none;"/>
        <circle cx="10.8" cy="16.2" r="2.87" style="fill: #ba2025;"/>
        <circle cx="0" cy="16.2" r="2.87" style="fill: #ba2025;"/>
        <circle cx="5.4" cy="8.1" r="2.87" style="fill: #ba2025;"/>
        <circle cx="10.8" cy="0" r="2.87" style="fill: #ba2025;"/>
        <circle cx="0" cy="0" r="2.87" style="fill: #ba2025;"/>
      </g>
    </pattern>
  </defs>
  <g style="clip-path: url(#b);">
    <rect x="-.51" width="180" height="252" style="fill: #fff;"/>
    <path d="M22.06,80.92c0,5.69,0,8.07,0,7.14,0,5.6,1.17,10.08,3.5,13.44,2.8,4.01,7,6.02,12.6,6.02,4.76,0,8.59-1.73,11.48-5.18,2.61-3.17,3.92-7.14,3.92-11.9V21.14h-12.74V4.48h41.02v16.66h-12.18v69.3c0,9.43-2.85,17.31-8.54,23.66-5.97,6.63-13.63,9.94-22.96,9.94s-17.17-3.27-23.24-9.8c-6.07-6.53-9.05-14.51-8.96-23.94v-9.38h16.1Z" style="fill: #ba2025;"/>
    <path d="M25.18,222.44l28.98-78.15c-3.04-2.2-4.87-5.74-4.87-9.56v-40c0-5.63,3.97-10.36,9.26-11.52-.35-.84-.54-1.76-.54-2.69v-3.5c0-3.17,2.09-5.85,4.97-6.75l-4.79-16.98c-.76-.2-1.43-.67-1.89-1.32-1.07-1.53-.7-3.64.83-4.71.58-.4,1.25-.61,1.94-.61,1.1,0,2.14.54,2.77,1.44.46.66.66,1.45.6,2.22l10.4,7.49c1.9-3.69,4.95-6.74,8.65-8.63.59-2,1.82-3.73,3.49-4.94l-2.72-4.08,8.01-12.02,8.01,12.02-2.58,3.87c1.81,1.21,3.16,3.02,3.8,5.11,3.73,1.89,6.8,4.94,8.73,8.64l10.34-7.44c-.07-.77.13-1.55.6-2.22.64-.91,1.68-1.45,2.78-1.45.7,0,1.36.21,1.94.61,1.52,1.07,1.9,3.18.84,4.71-.47.66-1.14,1.13-1.89,1.33l-4.79,16.98c2.88.89,4.97,3.58,4.97,6.75v3.5c0,.86-.16,1.71-.46,2.5,5.82.72,10.34,5.7,10.34,11.71v39.85l4.48-4.48,5.34,5.34-.4.6c.69-.15,1.37-.39,2-.7,1.02-.51,1.86-1.35,2.37-2.37l2.22-4.44,2.69,5.9c1.62,3.57,2.44,7.37,2.44,11.29,0,2.45-.58,4.9-1.67,7.08-1.52,3.04-4.04,5.56-7.08,7.08l-3.75,1.88v.21h1.16c2.24,0,4.05,1.81,4.05,4.05,0,.15,0,.3-.02.45h1.98c1.09,0,2.11.42,2.87,1.19.76.77,1.18,1.78,1.18,2.86,0,.81-.24,1.59-.68,2.25.43.64.68,1.42.68,2.24,0,2.24-1.82,4.06-4.05,4.06h-1.98c.02.15.02.3.02.45,0,2.24-1.82,4.05-4.05,4.05h-.82s.09,5.81.09,5.81l.24.53-.51.83c-.35.56-.84.81-1.58.93-.63,11.14-5.06,21.76-12.55,30.08l-.54.59h-61.13v.11H25.18ZM62.68,218.73l7.96-70.55c-15.33,7.7-25.07,23.34-25.07,40.68,0,11.01,3.96,21.59,11.18,29.87h5.93ZM116.02,146.54c6.66,3.93,12.34,9.41,16.52,15.98.28-.16.58-.29.9-.39l.22-13.93c-.59-.54-.95-1.31-.95-2.17v-8c0-.42.09-.83.25-1.19l-.21-.31c-.86,5.66-5.77,10.01-11.67,10.01h-5.07ZM144.09,145.54c.5.81.79,1.76.79,2.77v2.85c.19-.25.38-.5.55-.75,1.03-1.56,1.57-3.29,1.57-5.01,0-1.9-.31-3.8-.93-5.65-.01,0-.03.01-.04.02v3.49h-1.14v2.29h-.79Z" style="fill: #fff;"/>
    <g>
      <g>
        <g>
          <path d="M138.4,188.86c0-26.13-21.19-47.32-47.31-47.32s-47.31,21.19-47.31,47.32c0,12.18,4.61,23.29,12.17,31.67h70.29c7.56-8.39,12.17-19.49,12.17-31.67Z" style="fill: #fff;"/>
          <g style="clip-path: url(#c);">
            <g>
              <path d="M13.84,189.58c.36-3.21.85-6.46,1.44-9.7,2.83,1.68,5.58,3.46,8.25,5.28-.6,3.19-1.13,6.35-1.52,9.52-2.65-1.78-5.36-3.48-8.17-5.1Z" style="fill: #ba2025;"/>
              <path d="M27.49,183.6c.69-3.17,1.48-6.33,2.35-9.5,2.63,1.92,5.22,3.98,7.71,6.01-.88,3.14-1.7,6.21-2.4,9.35-2.49-2.01-5.04-3.97-7.66-5.87Z" style="fill: #ba2025;"/>
              <path d="M41.63,178.9c.96-3.11,2.02-6.15,3.14-9.27,2.46,2.16,4.87,4.41,7.18,6.64-1.14,3.06-2.2,6.06-3.18,9.11-2.3-2.18-4.7-4.39-7.14-6.49Z" style="fill: #ba2025;"/>
              <path d="M56.12,175.41c1.21-3.03,2.51-5.98,3.89-8.97,2.27,2.34,4.48,4.77,6.61,7.21-1.39,2.92-2.7,5.84-3.92,8.82-2.12-2.38-4.32-4.78-6.58-7.06Z" style="fill: #ba2025;"/>
              <path d="M70.85,173.12c1.46-2.87,3-5.78,4.62-8.63,2.08,2.57,4.07,5.15,5.99,7.74-1.63,2.83-3.17,5.65-4.64,8.46-1.91-2.56-3.9-5.05-5.97-7.57Z" style="fill: #ba2025;"/>
              <path d="M85.72,172.07c.85-1.38,1.72-2.76,2.6-4.15.89-1.36,1.8-2.7,2.73-4.05,1.85,2.74,3.63,5.4,5.31,8.2-1.86,2.62-3.64,5.37-5.34,8.06-.84-1.36-1.71-2.73-2.6-4.08-.89-1.33-1.79-2.65-2.72-3.98Z" style="fill: #ba2025;"/>
              <path d="M100.62,172.27c1.93-2.66,3.93-5.16,6.01-7.71,1.62,2.87,3.16,5.68,4.6,8.63-2.07,2.43-4.08,5.02-6,7.57-1.45-2.84-2.98-5.73-4.61-8.49Z" style="fill: #ba2025;"/>
              <path d="M115.46,173.73c2.15-2.49,4.35-4.79,6.64-7.16,1.37,3,2.66,5.92,3.85,8.98-2.27,2.24-4.49,4.67-6.62,7.04-1.21-2.93-2.49-5.98-3.87-8.86Z" style="fill: #ba2025;"/>
              <path d="M130.11,176.46c2.35-2.3,4.74-4.43,7.22-6.58,1.11,3.11,2.15,6.14,3.09,9.25-2.46,2.09-4.87,4.3-7.19,6.48-.96-3.05-1.98-6.16-3.12-9.15Z" style="fill: #ba2025;"/>
              <path d="M144.48,180.4c2.51-2.05,5.11-4.1,7.74-5.99.85,3.19,1.62,6.35,2.32,9.49-2.64,1.92-5.2,3.88-7.69,5.85-.69-3.17-1.49-6.24-2.37-9.35Z" style="fill: #ba2025;"/>
              <path d="M158.49,185.48c2.66-1.83,5.39-3.62,8.19-5.39.6,3.23,1.1,6.49,1.55,9.69-2.77,1.7-5.46,3.39-8.11,5.19-.48-3.13-1.02-6.3-1.63-9.49Z" style="fill: #ba2025;"/>
            </g>
            <path d="M37.09,197.72v38.34h108v-38.14c-50.92-23.29-94.3-6.75-108-.2Z" style="fill: url(#d); stroke: #ba2025; stroke-miterlimit: 10; stroke-width: 11px;"/>
          </g>
          <path d="M138.4,188.86c0-26.13-21.19-47.32-47.31-47.32s-47.31,21.19-47.31,47.32c0,12.18,4.61,23.29,12.17,31.67h70.29c7.56-8.39,12.17-19.49,12.17-31.67Z" style="fill: none; stroke: #010101; stroke-miterlimit: 10;"/>
        </g>
        <g>
          <g>
            <path d="M140.17,189.77s.08.18-2.49.23c-2.19.05-2.87-.23-2.87-.23l.69-43.38h3.99l.69,43.38ZM136.95,146.61h-.95l-.18,42.69h1.31l-.18-42.69Z" style="fill: #ba2025;"/>
            <path d="M139.09,147.17c.6,0,1.09-.47,1.14-1.06.99.25,1.72,1.14,1.72,2.21v11.21l2.53-1.26c2.7-1.35,4.93-3.58,6.28-6.28.97-1.94,1.48-4.11,1.48-6.28,0-3.66-.77-7.21-2.28-10.54l-1.12-2.47-.54,1.07c-.68,1.36-1.81,2.49-3.17,3.17-1.42.71-3,1.08-4.59,1.08h-.3c0-.48-.29-.88-.71-1.06l.87-1.3-3.02-3.02-3.02,3.02.87,1.3c-.41.17-.71.58-.71,1.06v8c0,.63.51,1.14,1.14,1.14M138.92,135.81l-.71,1.07h-1.67l-.71-1.07,1.55-1.55,1.55,1.55ZM143.09,157.67v-1.02c2-1.28,3.62-2.84,4.8-4.63,1.35-2.04,2.06-4.34,2.06-6.63,0-3.11-.71-6.16-2.1-9.08.32-.33.62-.68.88-1.06l.17.38c1.45,3.18,2.18,6.57,2.18,10.07,0,1.99-.47,3.99-1.36,5.77-1.24,2.48-3.29,4.53-5.77,5.77l-.87.44ZM140.23,144.94v-1.2h2.86v-1.14h-2.86v-1.14h4v-1.14h-4v-1.14h.3c1.76,0,3.52-.42,5.1-1.2.48-.24.91-.53,1.33-.85,1.22,2.67,1.84,5.46,1.84,8.29,0,2.07-.65,4.14-1.87,6-.97,1.47-2.26,2.77-3.85,3.88v-6.97c0-1.7-1.24-3.1-2.86-3.38ZM136.8,147.17h1.14M135.65,146.03v-8h3.43v8h-3.43Z" style="fill: #ba2025;"/>
          </g>
          <path d="M142.69,163.76c1.24,0,2.25,1,2.25,2.25s-1.01,2.25-2.25,2.25h-2.99,8.99c1.25,0,2.26,1.01,2.25,2.25,0,1.24-1.01,2.25-2.25,2.25h-9,9c1.24,0,2.25,1.01,2.25,2.25,0,1.24-1.01,2.25-2.25,2.25h-9,2.99c1.24,0,2.25,1,2.25,2.25s-1.01,2.25-2.25,2.25h-8.12c-1.24,0-2.25-1-2.25-2.25v-13.5c0-1.24,1.01-2.25,2.25-2.25h8.12Z" style="fill: #fff; stroke: #010101; stroke-linecap: round; stroke-miterlimit: 10;"/>
        </g>
      </g>
      <polygon points="59.43 135.26 27.77 220.64 64.28 220.64 73.13 142.17 59.43 135.26" style="fill: #ba2025; stroke: #ba2025; stroke-miterlimit: 10;"/>
      <g>
        <path d="M131.09,134.74c0,5.52-4.48,10-10,10h-60c-5.52,0-10-4.48-10-10v-40c0-5.52,4.48-10,10-10h60c5.52,0,10,4.48,10,10v40Z" style="fill: #fff; stroke: #010101; stroke-miterlimit: 10;"/>
        <g>
          <g>
            <path d="M82.44,109.69c1.83,0,3.31,2.96,3.31,6.61s-1.48,6.61-3.31,6.61-3.31-2.96-3.31-6.61,1.48-6.61,3.31-6.61Z" style="fill: #010101;"/>
            <path d="M108.9,109.69c1.83,0,3.31,2.96,3.31,6.61s-1.48,6.61-3.31,6.61-3.31-2.96-3.31-6.61,1.48-6.61,3.31-6.61Z" style="fill: #010101;"/>
          </g>
          <g>
            <ellipse cx="75" cy="129.98" rx="4.33" ry="2.17" style="fill: #ba2025;"/>
            <path d="M116.34,127.82c2.39,0,4.34.97,4.34,2.17s-1.94,2.17-4.34,2.17-4.33-.97-4.33-2.17,1.94-2.17,4.33-2.17Z" style="fill: #ba2025;"/>
          </g>
        </g>
      </g>
      <path d="M110.29,139.14c-1.63-.92-3.8-1.83-5.88-2.68-.52-.21-1.03-.42-1.53-.63-.48-.23-1.01-.39-1.44-.62-.46-.2-.92-.39-1.3-.61-.43-.19-.79-.39-1.12-.61-.37-.2-.64-.42-.89-.65-.27-.21-.52-.43-.66-.64-.36-.45-.58-.71-.58-.71,0,0-.22.26-.58.71-.13.22-.39.43-.66.64-.26.23-.52.44-.89.65-.33.22-.69.42-1.12.61-.38.22-.84.4-1.3.61-.43.23-.96.38-1.44.62-.51.21-1.02.42-1.53.63-2.08.85-4.25,1.76-5.88,2.68-1.64.86-2.74,1.71-2.74,1.71,0,0,1.31.53,3.24.61.98.08,2.1.02,3.29-.15,1.19-.18,2.44-.52,3.66-.99.6-.29,1.2-.52,1.77-.88.57-.35,1.12-.67,1.62-1.12.51-.41.97-.84,1.35-1.34.19-.25.39-.46.54-.71.14-.27.27-.53.4-.78.12-.2.2-.41.27-.62.06.21.14.42.26.62.13.25.26.51.4.78.16.25.35.46.54.71.39.5.85.93,1.35,1.34.5.45,1.05.77,1.62,1.12.57.35,1.18.59,1.77.87,1.22.47,2.47.82,3.66.99,1.19.18,2.31.23,3.28.15,1.93-.09,3.24-.61,3.24-.61,0,0-1.1-.85-2.74-1.71Z" style="fill: #010101;"/>
      <g>
        <g>
          <path d="M122.84,48.73c-.72-.5-1.7-.33-2.21.39-.41.58-.37,1.35.05,1.88l-13.2,9.5c-1.7-4.51-5.15-8.16-9.53-10.13-.68-3.5-3.76-6.14-7.45-6.14s-6.8,2.67-7.46,6.18c-4.35,1.98-7.77,5.64-9.46,10.14l-13.26-9.54c.42-.53.46-1.3.05-1.88-.5-.72-1.49-.89-2.21-.39-.72.5-.89,1.49-.39,2.21.41.58,1.14.81,1.79.6l6.47,22.95h48.94l6.47-22.95c.64.21,1.38-.01,1.79-.6.5-.72.33-1.71-.39-2.21ZM90.51,45.22c2.97,0,5.49,1.98,6.31,4.68-1.95-.72-4.06-1.12-6.27-1.12s-4.38.41-6.36,1.15c.81-2.72,3.33-4.71,6.32-4.71Z" style="fill: #ba2025;"/>
          <path d="M84.61,65.92h4.95v-11.27c-2.65.75-4.78,5.54-4.95,11.27ZM78.23,65.92h4.93c.12-4.58,1.38-8.49,3.27-10.75-4.57,1.54-7.9,5.74-8.2,10.75ZM91,54.66v11.27h4.95c-.17-5.72-2.3-10.51-4.95-11.27ZM111.09,67.37h-41.62l-.32-1.45h7.62c.38-7.13,6.29-12.83,13.52-12.83s13.13,5.69,13.51,12.83h7.75l-.45,1.45ZM94.12,55.18c1.89,2.26,3.15,6.17,3.27,10.75h4.93c-.3-5.01-3.63-9.21-8.2-10.75Z" style="fill: #fff;"/>
        </g>
        <polygon points="84.43 40.13 90.27 31.36 96.12 40.13 90.27 48.9 84.43 40.13" style="fill: #ba2025;"/>
        <path d="M121.21,80.52c0,2.91-2.36,5.26-5.26,5.26h-50.87c-2.91,0-5.26-2.36-5.26-5.26v-3.5c0-2.91,2.36-5.26,5.26-5.26h50.87c2.91,0,5.26,2.36,5.26,5.26v3.5h0Z" style="fill: #fff; stroke: #ba2025; stroke-miterlimit: 10;"/>
      </g>
    </g>
  </g>
</svg>