<?xml version="1.0" encoding="UTF-8"?>
<svg id="Layer_1" data-name="Layer 1" xmlns="http://www.w3.org/2000/svg" xmlns:xlink="http://www.w3.org/1999/xlink" viewBox="0 0 180 252">
  <defs>
    <style>
      .cls-1, .cls-2 {
        fill: none;
      }

      .cls-2, .cls-3, .cls-4, .cls-5, .cls-6, .cls-7 {
        stroke-miterlimit: 10;
      }

      .cls-2, .cls-4, .cls-6 {
        stroke: #010101;
      }

      .cls-8 {
        fill: #010101;
      }

      .cls-3 {
        fill: url(#New_Pattern_Swatch_1_copy);
        stroke-width: 11px;
      }

      .cls-3, .cls-5, .cls-7 {
        stroke: #ba2025;
      }

      .cls-4, .cls-5, .cls-9, .cls-6 {
        fill: #fff;
      }

      .cls-6 {
        stroke-linecap: round;
      }

      .cls-10, .cls-7 {
        fill: #ba2025;
      }

      .cls-11 {
        clip-path: url(#clippath);
      }
    </style>
    <clipPath id="clippath">
      <path class="cls-4" d="M138.4,188.86c0-26.13-21.19-47.32-47.31-47.32s-47.31,21.19-47.31,47.32c0,12.18,4.61,23.29,12.17,31.67h70.29c7.56-8.39,12.17-19.49,12.17-31.67Z"/>
    </clipPath>
    <pattern id="New_Pattern_Swatch_1_copy" data-name="New Pattern Swatch 1 copy" x="0" y="0" width="10.8" height="16.2" patternTransform="translate(-702 -612)" patternUnits="userSpaceOnUse" viewBox="0 0 10.8 16.2">
      <g>
        <rect class="cls-1" y="0" width="10.8" height="16.2"/>
        <circle class="cls-10" cx="10.8" cy="16.2" r="2.87"/>
        <circle class="cls-10" cx="0" cy="16.2" r="2.87"/>
        <circle class="cls-10" cx="5.4" cy="8.1" r="2.87"/>
        <circle class="cls-10" cx="10.8" cy="0" r="2.87"/>
        <circle class="cls-10" cx="0" cy="0" r="2.87"/>
      </g>
    </pattern>
  </defs>
  <g>
    <g>
      <g>
        <path class="cls-9" d="M138.4,188.86c0-26.13-21.19-47.32-47.31-47.32s-47.31,21.19-47.31,47.32c0,12.18,4.61,23.29,12.17,31.67h70.29c7.56-8.39,12.17-19.49,12.17-31.67Z"/>
        <g class="cls-11">
          <g>
            <path class="cls-10" d="M13.84,189.58c.36-3.21.85-6.46,1.44-9.7,2.83,1.68,5.58,3.46,8.25,5.28-.6,3.19-1.13,6.35-1.52,9.52-2.65-1.78-5.36-3.48-8.17-5.1Z"/>
            <path class="cls-10" d="M27.49,183.6c.69-3.17,1.48-6.33,2.35-9.5,2.63,1.92,5.22,3.98,7.71,6.01-.88,3.14-1.7,6.21-2.4,9.35-2.49-2.01-5.04-3.97-7.66-5.87Z"/>
            <path class="cls-10" d="M41.63,178.9c.96-3.11,2.02-6.15,3.14-9.27,2.46,2.16,4.87,4.41,7.18,6.64-1.14,3.06-2.2,6.06-3.18,9.11-2.3-2.18-4.7-4.39-7.14-6.49Z"/>
            <path class="cls-10" d="M56.12,175.41c1.21-3.03,2.51-5.98,3.89-8.97,2.27,2.34,4.48,4.77,6.61,7.21-1.39,2.92-2.7,5.84-3.92,8.82-2.12-2.38-4.32-4.78-6.58-7.06Z"/>
            <path class="cls-10" d="M70.85,173.12c1.46-2.87,3-5.78,4.62-8.63,2.08,2.57,4.07,5.15,5.99,7.74-1.63,2.83-3.17,5.65-4.64,8.46-1.91-2.56-3.9-5.05-5.97-7.57Z"/>
            <path class="cls-10" d="M85.72,172.07c.85-1.38,1.72-2.76,2.6-4.15.89-1.36,1.8-2.7,2.73-4.05,1.85,2.74,3.63,5.4,5.31,8.2-1.86,2.62-3.64,5.37-5.34,8.06-.84-1.36-1.71-2.73-2.6-4.08-.89-1.33-1.79-2.65-2.72-3.98Z"/>
            <path class="cls-10" d="M100.62,172.27c1.93-2.66,3.93-5.16,6.01-7.71,1.62,2.87,3.16,5.68,4.6,8.63-2.07,2.43-4.08,5.02-6,7.57-1.45-2.84-2.98-5.73-4.61-8.49Z"/>
            <path class="cls-10" d="M115.46,173.73c2.15-2.49,4.35-4.79,6.64-7.16,1.37,3,2.66,5.92,3.85,8.98-2.27,2.24-4.49,4.67-6.62,7.04-1.21-2.93-2.49-5.98-3.87-8.86Z"/>
            <path class="cls-10" d="M130.11,176.46c2.35-2.3,4.74-4.43,7.22-6.58,1.11,3.11,2.15,6.14,3.09,9.25-2.46,2.09-4.87,4.3-7.19,6.48-.96-3.05-1.98-6.16-3.12-9.15Z"/>
            <path class="cls-10" d="M144.48,180.4c2.51-2.05,5.11-4.1,7.74-5.99.85,3.19,1.62,6.35,2.32,9.49-2.64,1.92-5.2,3.88-7.69,5.85-.69-3.17-1.49-6.24-2.37-9.35Z"/>
            <path class="cls-10" d="M158.49,185.48c2.66-1.83,5.39-3.62,8.19-5.39.6,3.23,1.1,6.49,1.55,9.69-2.77,1.7-5.46,3.39-8.11,5.19-.48-3.13-1.02-6.3-1.63-9.49Z"/>
          </g>
          <path class="cls-3" d="M37.09,197.72v38.34h108v-38.14c-50.92-23.29-94.3-6.75-108-.2Z"/>
        </g>
        <path class="cls-2" d="M138.4,188.86c0-26.13-21.19-47.32-47.31-47.32s-47.31,21.19-47.31,47.32c0,12.18,4.61,23.29,12.17,31.67h70.29c7.56-8.39,12.17-19.49,12.17-31.67Z"/>
      </g>
      <g>
        <g>
          <path class="cls-10" d="M140.17,189.77s.08.18-2.49.23c-2.19.05-2.87-.23-2.87-.23l.69-43.38h3.99l.69,43.38ZM136.95,146.61h-.95l-.18,42.69h1.31l-.18-42.69Z"/>
          <path class="cls-10" d="M139.09,147.17c.6,0,1.09-.47,1.14-1.06.99.25,1.72,1.14,1.72,2.21v11.21l2.53-1.26c2.7-1.35,4.93-3.58,6.28-6.28.97-1.94,1.48-4.11,1.48-6.28,0-3.66-.77-7.21-2.28-10.54l-1.12-2.47-.54,1.07c-.68,1.36-1.81,2.49-3.17,3.17-1.42.71-3,1.08-4.59,1.08h-.3c0-.48-.29-.88-.71-1.06l.87-1.3-3.02-3.02-3.02,3.02.87,1.3c-.41.17-.71.58-.71,1.06v8c0,.63.51,1.14,1.14,1.14M138.92,135.81l-.71,1.07h-1.67l-.71-1.07,1.55-1.55,1.55,1.55ZM143.09,157.67v-1.02c2-1.28,3.62-2.84,4.8-4.63,1.35-2.04,2.06-4.34,2.06-6.63,0-3.11-.71-6.16-2.1-9.08.32-.33.62-.68.88-1.06l.17.38c1.45,3.18,2.18,6.57,2.18,10.07,0,1.99-.47,3.99-1.36,5.77-1.24,2.48-3.29,4.53-5.77,5.77l-.87.44ZM140.23,144.94v-1.2h2.86v-1.14h-2.86v-1.14h4v-1.14h-4v-1.14h.3c1.76,0,3.52-.42,5.1-1.2.48-.24.91-.53,1.33-.85,1.22,2.67,1.84,5.46,1.84,8.29,0,2.07-.65,4.14-1.87,6-.97,1.47-2.26,2.77-3.85,3.88v-6.97c0-1.7-1.24-3.1-2.86-3.38ZM136.8,147.17h1.14M135.65,146.03v-8h3.43v8h-3.43Z"/>
        </g>
        <path class="cls-6" d="M142.69,163.76c1.24,0,2.25,1,2.25,2.25s-1.01,2.25-2.25,2.25h-2.99,8.99c1.25,0,2.26,1.01,2.25,2.25,0,1.24-1.01,2.25-2.25,2.25h-9,9c1.24,0,2.25,1.01,2.25,2.25,0,1.24-1.01,2.25-2.25,2.25h-9,2.99c1.24,0,2.25,1,2.25,2.25s-1.01,2.25-2.25,2.25h-8.12c-1.24,0-2.25-1-2.25-2.25v-13.5c0-1.24,1.01-2.25,2.25-2.25h8.12Z"/>
      </g>
    </g>
    <polygon class="cls-7" points="59.43 135.26 27.77 220.64 64.28 220.64 73.13 142.17 59.43 135.26"/>
    <g>
      <path class="cls-4" d="M131.09,134.74c0,5.52-4.48,10-10,10h-60c-5.52,0-10-4.48-10-10v-40c0-5.52,4.48-10,10-10h60c5.52,0,10,4.48,10,10v40Z"/>
      <g>
        <g>
          <path class="cls-8" d="M82.44,109.69c1.83,0,3.31,2.96,3.31,6.61s-1.48,6.61-3.31,6.61-3.31-2.96-3.31-6.61,1.48-6.61,3.31-6.61Z"/>
          <path class="cls-8" d="M108.9,109.69c1.83,0,3.31,2.96,3.31,6.61s-1.48,6.61-3.31,6.61-3.31-2.96-3.31-6.61,1.48-6.61,3.31-6.61Z"/>
        </g>
        <g>
          <ellipse class="cls-10" cx="75" cy="129.98" rx="4.33" ry="2.17"/>
          <path class="cls-10" d="M116.34,127.82c2.39,0,4.34.97,4.34,2.17s-1.94,2.17-4.34,2.17-4.33-.97-4.33-2.17,1.94-2.17,4.33-2.17Z"/>
        </g>
      </g>
    </g>
    <path class="cls-8" d="M110.29,139.14c-1.63-.92-3.8-1.83-5.88-2.68-.52-.21-1.03-.42-1.53-.63-.48-.23-1.01-.39-1.44-.62-.46-.2-.92-.39-1.3-.61-.43-.19-.79-.39-1.12-.61-.37-.2-.64-.42-.89-.65-.27-.21-.52-.43-.66-.64-.36-.45-.58-.71-.58-.71,0,0-.22.26-.58.71-.13.22-.39.43-.66.64-.26.23-.52.44-.89.65-.33.22-.69.42-1.12.61-.38.22-.84.4-1.3.61-.43.23-.96.38-1.44.62-.51.21-1.02.42-1.53.63-2.08.85-4.25,1.76-5.88,2.68-1.64.86-2.74,1.71-2.74,1.71,0,0,1.31.53,3.24.61.98.08,2.1.02,3.29-.15,1.19-.18,2.44-.52,3.66-.99.6-.29,1.2-.52,1.77-.88.57-.35,1.12-.67,1.62-1.12.51-.41.97-.84,1.35-1.34.19-.25.39-.46.54-.71.14-.27.27-.53.4-.78.12-.2.2-.41.27-.62.06.21.14.42.26.62.13.25.26.51.4.78.16.25.35.46.54.71.39.5.85.93,1.35,1.34.5.45,1.05.77,1.62,1.12.57.35,1.18.59,1.77.87,1.22.47,2.47.82,3.66.99,1.19.18,2.31.23,3.28.15,1.93-.09,3.24-.61,3.24-.61,0,0-1.1-.85-2.74-1.71Z"/>
    <g>
      <g>
        <path class="cls-10" d="M122.84,48.73c-.72-.5-1.7-.33-2.21.39-.41.58-.37,1.35.05,1.88l-13.2,9.5c-1.7-4.51-5.15-8.16-9.53-10.13-.68-3.5-3.76-6.14-7.45-6.14s-6.8,2.67-7.46,6.18c-4.35,1.98-7.77,5.64-9.46,10.14l-13.26-9.54c.42-.53.46-1.3.05-1.88-.5-.72-1.49-.89-2.21-.39-.72.5-.89,1.49-.39,2.21.41.58,1.14.81,1.79.6l6.47,22.95h48.94l6.47-22.95c.64.21,1.38-.01,1.79-.6.5-.72.33-1.71-.39-2.21ZM90.51,45.22c2.97,0,5.49,1.98,6.31,4.68-1.95-.72-4.06-1.12-6.27-1.12s-4.38.41-6.36,1.15c.81-2.72,3.33-4.71,6.32-4.71Z"/>
        <path class="cls-9" d="M84.61,65.92h4.95v-11.27c-2.65.75-4.78,5.54-4.95,11.27ZM78.23,65.92h4.93c.12-4.58,1.38-8.49,3.27-10.75-4.57,1.54-7.9,5.74-8.2,10.75ZM91,54.66v11.27h4.95c-.17-5.72-2.3-10.51-4.95-11.27ZM111.09,67.37h-41.62l-.32-1.45h7.62c.38-7.13,6.29-12.83,13.52-12.83s13.13,5.69,13.51,12.83h7.75l-.45,1.45ZM94.12,55.18c1.89,2.26,3.15,6.17,3.27,10.75h4.93c-.3-5.01-3.63-9.21-8.2-10.75Z"/>
      </g>
      <polygon class="cls-10" points="84.43 40.13 90.27 31.36 96.12 40.13 90.27 48.9 84.43 40.13"/>
      <path class="cls-5" d="M121.21,80.52c0,2.91-2.36,5.26-5.26,5.26h-50.87c-2.91,0-5.26-2.36-5.26-5.26v-3.5c0-2.91,2.36-5.26,5.26-5.26h50.87c2.91,0,5.26,2.36,5.26,5.26v3.5h0Z"/>
    </g>
  </g>
  <g>
    <path class="cls-10" d="M13.11,28.51c0,1.45,0,2.06,0,1.82,0,1.43.3,2.57.89,3.43.71,1.02,1.79,1.54,3.22,1.54,1.22,0,2.19-.44,2.93-1.32.67-.81,1-1.82,1-3.04V13.25h-3.25v-4.25h10.47v4.25h-3.11v17.69c0,2.41-.73,4.42-2.18,6.04-1.52,1.69-3.48,2.54-5.86,2.54s-4.38-.83-5.93-2.5c-1.55-1.67-2.31-3.7-2.29-6.11v-2.39h4.11Z"/>
    <path class="cls-10" d="M166.89,223.49c0-1.45,0-2.06,0-1.82,0-1.43-.3-2.57-.89-3.43-.71-1.02-1.79-1.54-3.22-1.54-1.22,0-2.19.44-2.93,1.32-.67.81-1,1.82-1,3.04v17.69h3.25v4.25h-10.47v-4.25h3.11v-17.69c0-2.41.73-4.42,2.18-6.04,1.52-1.69,3.48-2.54,5.86-2.54s4.38.83,5.93,2.5c1.55,1.67,2.31,3.7,2.29,6.11v2.39h-4.11Z"/>
  </g>
</svg>