<?xml version="1.0" encoding="UTF-8"?>
<svg id="Layer_1" data-name="Layer 1" xmlns="http://www.w3.org/2000/svg" xmlns:xlink="http://www.w3.org/1999/xlink" viewBox="0 0 180 252">
  <defs>
    <style>
      .cls-1, .cls-2 {
        fill: none;
      }

      .cls-2, .cls-3, .cls-4, .cls-5, .cls-6, .cls-7, .cls-8 {
        stroke-miterlimit: 10;
      }

      .cls-2, .cls-4, .cls-7 {
        stroke: #010101;
      }

      .cls-9 {
        fill: #010101;
      }

      .cls-3 {
        fill: url(#New_Pattern_Swatch_1_copy);
        stroke-width: 11px;
      }

      .cls-3, .cls-5, .cls-6, .cls-8 {
        stroke: #ba2025;
      }

      .cls-4, .cls-5, .cls-6, .cls-10, .cls-7 {
        fill: #fff;
      }

      .cls-5 {
        stroke-width: .5px;
      }

      .cls-11 {
        clip-path: url(#clippath-1);
      }

      .cls-7 {
        stroke-linecap: round;
      }

      .cls-12, .cls-8 {
        fill: #ba2025;
      }

      .cls-13 {
        clip-path: url(#clippath);
      }
    </style>
    <clipPath id="clippath">
      <path class="cls-4" d="M139.47,199.45c0-26.13-21.19-47.32-47.31-47.32s-47.31,21.19-47.31,47.32c0,12.18,4.61,23.29,12.17,31.67h70.29c7.56-8.39,12.17-19.49,12.17-31.67Z"/>
    </clipPath>
    <pattern id="New_Pattern_Swatch_1_copy" data-name="New Pattern Swatch 1 copy" x="0" y="0" width="10.8" height="16.2" patternTransform="translate(-468 -612)" patternUnits="userSpaceOnUse" viewBox="0 0 10.8 16.2">
      <g>
        <rect class="cls-1" y="0" width="10.8" height="16.2"/>
        <circle class="cls-12" cx="10.8" cy="16.2" r="2.87"/>
        <circle class="cls-12" cx="0" cy="16.2" r="2.87"/>
        <circle class="cls-12" cx="5.4" cy="8.1" r="2.87"/>
        <circle class="cls-12" cx="10.8" cy="0" r="2.87"/>
        <circle class="cls-12" cx="0" cy="0" r="2.87"/>
      </g>
    </pattern>
    <clipPath id="clippath-1">
      <path class="cls-1" d="M131.87,145.91c-.08,5.52-4.62,9.94-10.14,9.85l-59.99-.87c-5.52-.08-9.93-4.62-9.85-10.15l.58-40c.08-5.52,4.62-9.93,10.14-9.85l60,.87c5.52.08,9.94,4.62,9.86,10.14l-.58,40Z"/>
    </clipPath>
  </defs>
  <g>
    <g>
      <g>
        <g>
          <path class="cls-10" d="M139.47,199.45c0-26.13-21.19-47.32-47.31-47.32s-47.31,21.19-47.31,47.32c0,12.18,4.61,23.29,12.17,31.67h70.29c7.56-8.39,12.17-19.49,12.17-31.67Z"/>
          <g class="cls-13">
            <g>
              <path class="cls-12" d="M14.9,200.18c.36-3.21.85-6.46,1.44-9.7,2.83,1.68,5.58,3.46,8.25,5.28-.6,3.19-1.13,6.35-1.52,9.52-2.65-1.78-5.36-3.48-8.17-5.1Z"/>
              <path class="cls-12" d="M28.55,194.2c.69-3.17,1.48-6.33,2.35-9.5,2.63,1.92,5.22,3.98,7.71,6.01-.88,3.14-1.7,6.21-2.4,9.35-2.49-2.01-5.04-3.97-7.66-5.87Z"/>
              <path class="cls-12" d="M42.7,189.49c.96-3.11,2.02-6.15,3.14-9.27,2.46,2.16,4.87,4.41,7.18,6.64-1.14,3.06-2.2,6.06-3.18,9.11-2.3-2.18-4.7-4.39-7.14-6.49Z"/>
              <path class="cls-12" d="M57.19,186c1.21-3.03,2.51-5.98,3.89-8.97,2.27,2.34,4.48,4.77,6.61,7.21-1.39,2.92-2.7,5.84-3.92,8.82-2.12-2.38-4.32-4.78-6.58-7.06Z"/>
              <path class="cls-12" d="M71.92,183.71c1.46-2.87,3-5.78,4.62-8.63,2.08,2.57,4.07,5.15,5.99,7.74-1.63,2.83-3.17,5.65-4.64,8.46-1.91-2.56-3.9-5.05-5.97-7.57Z"/>
              <path class="cls-12" d="M86.79,182.67c.85-1.38,1.72-2.76,2.6-4.15.89-1.36,1.8-2.7,2.73-4.05,1.85,2.74,3.63,5.4,5.31,8.2-1.86,2.62-3.64,5.37-5.34,8.06-.84-1.36-1.71-2.73-2.6-4.08-.89-1.33-1.79-2.65-2.72-3.98Z"/>
              <path class="cls-12" d="M101.69,182.86c1.93-2.66,3.93-5.16,6.01-7.71,1.62,2.87,3.16,5.68,4.6,8.63-2.07,2.43-4.08,5.02-6,7.57-1.45-2.84-2.98-5.73-4.61-8.49Z"/>
              <path class="cls-12" d="M116.52,184.33c2.15-2.49,4.35-4.79,6.64-7.16,1.37,3,2.66,5.92,3.85,8.98-2.27,2.24-4.49,4.67-6.62,7.04-1.21-2.93-2.49-5.98-3.87-8.86Z"/>
              <path class="cls-12" d="M131.18,187.05c2.35-2.3,4.74-4.43,7.22-6.58,1.11,3.11,2.15,6.14,3.09,9.25-2.46,2.09-4.87,4.3-7.19,6.48-.96-3.05-1.98-6.16-3.12-9.15Z"/>
              <path class="cls-12" d="M145.55,191c2.51-2.05,5.11-4.1,7.74-5.99.85,3.19,1.62,6.35,2.32,9.49-2.64,1.92-5.2,3.88-7.69,5.85-.69-3.17-1.49-6.24-2.37-9.35Z"/>
              <path class="cls-12" d="M159.56,196.08c2.66-1.83,5.39-3.62,8.19-5.39.6,3.23,1.1,6.49,1.55,9.69-2.77,1.7-5.46,3.39-8.11,5.19-.48-3.13-1.02-6.3-1.63-9.49Z"/>
            </g>
            <path class="cls-3" d="M38.15,208.31v38.34h108v-38.14c-50.92-23.29-94.3-6.75-108-.2Z"/>
          </g>
          <path class="cls-2" d="M139.47,199.45c0-26.13-21.19-47.32-47.31-47.32s-47.31,21.19-47.31,47.32c0,12.18,4.61,23.29,12.17,31.67h70.29c7.56-8.39,12.17-19.49,12.17-31.67Z"/>
        </g>
        <g>
          <path class="cls-12" d="M148.53,160.23s-5.95,4.65-8.59,10.29v-7.9c.66-.4,1.64-1.46,2.32-2.68.28.03.56.04.84.04,1.85,0,3.66-.55,3.95-1.05.33-.58-.29-2.93-1.52-4.65.99-1.57,1.47-3.5,1.18-4-.27-.47-1.97-.98-3.71-.98-.12,0-.24,0-.35,0-.87-1.95-2.62-3.7-3.29-3.7s-2.42,1.74-3.29,3.69h-.1c-1.74,0-3.44.51-3.71.98-.28.48.15,2.28,1.06,3.81-1.33,1.73-2.01,4.24-1.66,4.84.29.5,2.1,1.05,3.95,1.05.36,0,.72-.02,1.08-.07.58,1.06,1.39,2,2.03,2.5v7.05c-.94-2.31-2.59-4.85-5.52-6.66,0,0-.06,8.08,5.52,11.61v.66h1.23v-.8c2.17-1.59,6.63-5.75,8.59-14.02ZM137.02,171.15c-.76-1.02-1.37-2.26-1.82-3.68-.21-.68-.37-1.34-.48-1.93.49.49.94,1.02,1.34,1.58.77,1.08,1.39,2.31,1.84,3.66.23.67.39,1.29.5,1.85-.51-.43-.97-.93-1.39-1.49ZM145.9,158.26c-.46.2-1.51.48-2.8.48-.1,0-.2,0-.3,0,.27-.81.35-1.63.08-2.34.69-.11,1.32-.53,1.86-1.1.3.47.57,1,.79,1.57.24.63.34,1.11.38,1.39ZM143,150.51c1.15,0,2.1.25,2.55.43-.04.27-.14.71-.35,1.27-.32.84-.77,1.61-1.26,2.16-.34.38-.86.84-1.42.84-.41,0-.87-.24-1.35-.71,0-.06.01-.13.01-.2,0-.7-.39-1.3-.96-1.62-.09-.49-.07-.96.16-1.31.36-.54,1.34-.87,2.63-.87ZM139.33,154.92c-.34,0-.61-.28-.61-.61s.27-.61.61-.61.61.28.61.61-.28.61-.61.61ZM137.8,148.67c.32-.49.7-.96,1.07-1.33.2-.2.36-.34.48-.42.12.09.28.22.48.42.37.37.75.84,1.07,1.33.18.27.33.53.46.79-.77.18-1.44.51-1.89,1.06-.49-.6-1.26-.94-2.12-1.11.13-.24.27-.49.44-.74ZM135.6,158.75c-1.29,0-2.34-.29-2.8-.48.03-.28.14-.77.38-1.4.24-.63.55-1.23.89-1.73.57.66,1.25,1.15,2.01,1.27-.27.7-.19,1.52.08,2.32-.18.01-.37.02-.55.02ZM136.45,155.2c-.56,0-1.08-.46-1.42-.84-.49-.55-.94-1.31-1.26-2.16-.22-.56-.32-1-.35-1.27.45-.18,1.4-.43,2.55-.43,1.29,0,2.27.33,2.63.87.2.31.24.73.18,1.17-.75.24-1.29.93-1.29,1.76,0,.15.02.29.05.43-.34.28-.72.47-1.08.47ZM138.07,159.83c-.67-1.02-1.01-2.04-.91-2.72.05-.34.2-.58.47-.8.2-.16.47-.29.8-.4.27.15.57.23.89.23.37,0,.71-.11,1-.29.42.12.76.28,1,.46.28.22.42.46.47.8.1.68-.24,1.7-.91,2.72-.3.45-.65.89-.99,1.24-.17.17-.31.29-.42.38-.11-.08-.25-.21-.42-.38-.35-.35-.7-.78-1-1.24ZM140.59,172.12c.23-.63.53-1.27.88-1.93.78-1.45,1.85-2.97,3.19-4.51.43-.5.86-.97,1.28-1.4-.33.8-.69,1.56-1.09,2.3-.86,1.6-1.88,3.05-3.04,4.31-.42.47-.83.87-1.22,1.23Z"/>
          <path class="cls-7" d="M143.75,174.35c1.24,0,2.25,1,2.25,2.25s-1.01,2.25-2.25,2.25h-2.99,8.99c1.25,0,2.26,1.01,2.25,2.25,0,1.24-1.01,2.25-2.25,2.25h-9,9c1.24,0,2.25,1.01,2.25,2.25,0,1.24-1.01,2.25-2.25,2.25h-9,2.99c1.24,0,2.25,1,2.25,2.25s-1.01,2.25-2.25,2.25h-8.12c-1.24,0-2.25-1-2.25-2.25v-13.5c0-1.24,1.01-2.25,2.25-2.25h8.12Z"/>
        </g>
      </g>
      <polygon class="cls-8" points="57.16 77.32 27.99 231.13 57.01 231.13 64.04 91.6 57.16 77.32"/>
      <g>
        <g>
          <g>
            <path id="SVGID" class="cls-10" d="M131.87,145.91c-.08,5.52-4.62,9.94-10.14,9.85l-59.99-.87c-5.52-.08-9.93-4.62-9.85-10.15l.58-40c.08-5.52,4.62-9.93,10.14-9.85l60,.87c5.52.08,9.94,4.62,9.86,10.14l-.58,40Z"/>
            <g class="cls-11">
              <path class="cls-12" d="M62.59,94.9c-5.52-.08-10.06,4.33-10.14,9.85l-.58,40c0,.5.06.98.12,1.46,12.63-10.14,23.68-39.06,27.85-51.06l-17.26-.25Z"/>
            </g>
            <path id="SVGID-2" data-name="SVGID" class="cls-2" d="M131.87,145.91c-.08,5.52-4.62,9.94-10.14,9.85l-59.99-.87c-5.52-.08-9.93-4.62-9.85-10.15l.58-40c.08-5.52,4.62-9.93,10.14-9.85l60,.87c5.52.08,9.94,4.62,9.86,10.14l-.58,40Z"/>
          </g>
          <g>
            <g>
              <path class="cls-9" d="M86.8,126.83c-.05,3.65-1.58,6.59-3.4,6.57-1.83-.03-3.27-3.01-3.21-6.66.05-3.65,1.58-6.59,3.41-6.57,1.82.03,3.26,3.01,3.21,6.66Z"/>
              <path class="cls-9" d="M113.25,127.21c-.05,3.65-1.58,6.59-3.4,6.56-1.83-.02-3.27-3.01-3.21-6.66.05-3.65,1.57-6.59,3.4-6.56,1.82.03,3.26,3.01,3.21,6.66Z"/>
            </g>
            <g>
              <path class="cls-12" d="M75.82,142.51c-2.39-.03-4.32-1.03-4.3-2.23.02-1.2,1.97-2.14,4.36-2.1,2.39.03,4.32,1.03,4.3,2.23-.02,1.2-1.97,2.14-4.36,2.1Z"/>
              <path class="cls-12" d="M117.21,138.78c2.39.04,4.32,1.03,4.3,2.23-.02,1.2-1.97,2.14-4.37,2.1-2.39-.04-4.32-1.03-4.3-2.23.02-1.2,1.97-2.14,4.36-2.1Z"/>
            </g>
          </g>
        </g>
        <g>
          <g>
            <path class="cls-9" d="M83.51,120.29c1.83,0,3.31,2.96,3.31,6.61s-1.48,6.61-3.31,6.61-3.31-2.96-3.31-6.61,1.48-6.61,3.31-6.61Z"/>
            <path class="cls-9" d="M109.96,120.29c1.83,0,3.31,2.96,3.31,6.61s-1.48,6.61-3.31,6.61-3.31-2.96-3.31-6.61,1.48-6.61,3.31-6.61Z"/>
          </g>
          <g>
            <path class="cls-12" d="M76.07,138.41c2.39,0,4.33.97,4.33,2.17s-1.94,2.17-4.33,2.17-4.33-.97-4.33-2.17,1.94-2.17,4.33-2.17Z"/>
            <path class="cls-12" d="M117.4,138.41c2.39,0,4.34.97,4.34,2.17s-1.94,2.17-4.34,2.17-4.33-.97-4.33-2.17,1.94-2.17,4.33-2.17Z"/>
          </g>
        </g>
      </g>
    </g>
    <g>
      <g>
        <g>
          <path class="cls-6" d="M75.42,52.7c10.5,0,19.01,8.51,19.01,19.01s-8.51,19.01-19.01,19.01-19.01-8.51-19.01-19.01,8.51-19.01,19.01-19.01Z"/>
          <path class="cls-6" d="M107.73,52.7c10.5,0,19.01,8.51,19.01,19.01s-8.51,19.01-19.01,19.01-19.01-8.51-19.01-19.01,8.51-19.01,19.01-19.01Z"/>
        </g>
        <path class="cls-6" d="M100.14,95.04c-3.1,0-6.03-1.19-8.57-3.44-2.54,2.24-5.46,3.44-8.57,3.44-9.39,0-16.75-11.17-16.75-25.42s7.36-25.43,16.75-25.43c3.1,0,6.03,1.19,8.57,3.44,2.54-2.24,5.46-3.44,8.57-3.44,9.39,0,16.75,11.17,16.75,25.43s-7.36,25.42-16.75,25.42Z"/>
        <path class="cls-5" d="M100.14,48.51c-3.32,0-6.34,2.23-8.57,5.83-2.23-3.6-5.24-5.83-8.57-5.83-6.87,0-12.43,9.45-12.43,21.1s5.57,21.1,12.43,21.1c3.32,0,6.34-2.23,8.57-5.83,2.23,3.6,5.24,5.83,8.57,5.83,6.87,0,12.43-9.45,12.43-21.1s-5.57-21.1-12.43-21.1Z"/>
        <path class="cls-6" d="M88.72,90.63c0-25.65-5.72-46.44,3.23-46.44,8.19,0,3.23,20.8,3.23,46.44"/>
      </g>
      <path class="cls-6" d="M122.27,91.12c0,2.91-2.36,5.26-5.26,5.26h-50.87c-2.91,0-5.26-2.36-5.26-5.26v-3.5c0-2.91,2.35-5.26,5.26-5.26h50.87c2.91,0,5.26,2.36,5.26,5.26v3.5Z"/>
    </g>
    <polygon class="cls-12" points="83.47 32.79 91.42 20.87 99.37 32.79 91.42 44.72 83.47 32.79"/>
  </g>
  <g>
    <path class="cls-12" d="M28.58,39.38c-1.41,0-2.42-.06-3.04-.18-.71-.17-1.41-.5-2.07-1-1.5,1.22-3.14,1.82-4.93,1.82-1.93,0-3.66-.69-5.18-2.07-1.6-1.43-2.39-3.1-2.39-5v-2.64h-1.97v-3.43c.07-.02.73-.07,1.97-.14v-10.61c0-1.93.8-3.61,2.39-5.04,1.52-1.38,3.25-2.07,5.18-2.07s3.67.7,5.24,2.11c1.56,1.41,2.34,3.07,2.34,5v16.83c0,.81-.17,1.61-.5,2.39.33.21.64.36.93.43h2.04v3.61ZM14.61,26.73c1.45.17,2.91.83,4.36,2,.91.71,2.06,1.86,3.47,3.43v-16.05c0-.86-.41-1.63-1.23-2.32-.82-.69-1.71-1.04-2.66-1.04s-1.85.35-2.68,1.04c-.83.69-1.25,1.47-1.25,2.32v10.61ZM20.69,35.58l-4.61-4.56c-.38-.39-.87-.63-1.47-.72v2.6c0,.84.42,1.62,1.25,2.32.83.7,1.73,1.05,2.68,1.05.74,0,1.45-.23,2.14-.69Z"/>
    <path class="cls-12" d="M151.42,212.62c1.41,0,2.42.06,3.04.18.71.17,1.41.5,2.07,1,1.5-1.22,3.14-1.82,4.93-1.82,1.93,0,3.66.69,5.18,2.07,1.6,1.43,2.39,3.1,2.39,5v2.64h1.97v3.43c-.07.02-.73.07-1.97.14v10.61c0,1.93-.8,3.61-2.39,5.04-1.52,1.38-3.25,2.07-5.18,2.07s-3.67-.7-5.24-2.11c-1.56-1.41-2.34-3.07-2.34-5v-16.83c0-.81.17-1.61.5-2.39-.33-.21-.64-.36-.93-.43h-2.04v-3.61ZM165.39,225.27c-1.45-.17-2.91-.83-4.36-2-.91-.71-2.06-1.86-3.47-3.43v16.05c0,.86.41,1.63,1.23,2.32.82.69,1.71,1.04,2.66,1.04s1.85-.35,2.68-1.04c.83-.69,1.25-1.47,1.25-2.32v-10.61ZM159.31,216.42l4.61,4.56c.38.39.87.63,1.47.72v-2.6c0-.84-.42-1.62-1.25-2.32-.83-.7-1.73-1.05-2.68-1.05-.74,0-1.45.23-2.14.69Z"/>
  </g>
</svg>