<?xml version="1.0" encoding="UTF-8"?>
<svg id="a" data-name="Layer 1" xmlns="http://www.w3.org/2000/svg" width="2.5in" height="3.5in" xmlns:xlink="http://www.w3.org/1999/xlink" viewBox="0 0 180 252">
  <defs>
    <clipPath id="b">
      <rect width="180" height="252" rx="18" ry="18" style="fill: none;"/>
    </clipPath>
    <clipPath id="c">
      <path d="M139.47,199.45c0-26.13-21.19-47.32-47.31-47.32s-47.31,21.19-47.31,47.32c0,12.18,4.61,23.29,12.17,31.67h70.29c7.56-8.39,12.17-19.49,12.17-31.67Z" style="fill: #fff; stroke: #010101; stroke-miterlimit: 10;"/>
    </clipPath>
    <pattern id="d" data-name="New Pattern Swatch 1 copy" x="0" y="0" width="10.8" height="16.2" patternTransform="translate(-468 -612)" patternUnits="userSpaceOnUse" viewBox="0 0 10.8 16.2">
      <g>
        <rect y="0" width="10.8" height="16.2" style="fill: none;"/>
        <circle cx="10.8" cy="16.2" r="2.87" style="fill: #ba2025;"/>
        <circle cx="0" cy="16.2" r="2.87" style="fill: #ba2025;"/>
        <circle cx="5.4" cy="8.1" r="2.87" style="fill: #ba2025;"/>
        <circle cx="10.8" cy="0" r="2.87" style="fill: #ba2025;"/>
        <circle cx="0" cy="0" r="2.87" style="fill: #ba2025;"/>
      </g>
    </pattern>
    <clipPath id="f">
      <path d="M131.87,145.91c-.08,5.52-4.62,9.94-10.14,9.85l-59.99-.87c-5.52-.08-9.93-4.62-9.85-10.15l.58-40c.08-5.52,4.62-9.93,10.14-9.85l60,.87c5.52.08,9.94,4.62,9.86,10.14l-.58,40Z" style="fill: none;"/>
    </clipPath>
  </defs>
  <g style="clip-path: url(#b);">
    <rect x="-.51" width="180" height="252" style="fill: #fff;"/>
    <path d="M82.68,123.48c-5.51,0-9.47-.23-11.9-.7-2.8-.65-5.51-1.96-8.12-3.92-5.88,4.76-12.32,7.14-19.32,7.14-7.56,0-14.33-2.71-20.3-8.12-6.25-5.6-9.38-12.13-9.38-19.6v-10.36h-7.7v-13.44c.28-.09,2.85-.28,7.7-.56v-41.58c0-7.56,3.13-14.14,9.38-19.74,5.97-5.41,12.74-8.12,20.3-8.12s14.4,2.75,20.51,8.26c6.11,5.51,9.17,12.04,9.17,19.6v65.94c0,3.17-.65,6.3-1.96,9.38,1.31.84,2.52,1.4,3.64,1.68h7.98v14.14ZM27.94,73.92c5.69.65,11.39,3.27,17.08,7.84,3.55,2.8,8.07,7.28,13.58,13.44v-62.86c0-3.36-1.61-6.39-4.83-9.1-3.22-2.71-6.7-4.06-10.43-4.06s-7.23,1.35-10.5,4.06c-3.27,2.71-4.9,5.74-4.9,9.1v41.58ZM51.74,108.61l-18.06-17.85c-1.49-1.51-3.41-2.46-5.74-2.83v10.2c0,3.31,1.63,6.33,4.9,9.07,3.27,2.74,6.77,4.11,10.5,4.11,2.89,0,5.69-.9,8.4-2.69Z" style="fill: #ba2025;"/>
    <path d="M25.81,232.93l29.53-155.7c-.49-1.79-.74-3.64-.74-5.52,0-8.88,5.77-16.88,14.12-19.71,3.48-6.11,8.65-9.6,14.28-9.6,1.86,0,3.67.37,5.4,1.1,0,0,.02-.01.03-.02l-7.12-10.68,10.11-15.16,10.11,15.16-6.86,10.29c.14.08.28.17.42.27,1.62-.64,3.31-.96,5.04-.96,5.63,0,10.8,3.49,14.28,9.6,8.36,2.83,14.13,10.83,14.13,19.71,0,4.96-1.74,9.68-4.92,13.44.29.79.44,1.62.44,2.47v3.5c0,1.01-.22,1.99-.62,2.89,6.02.52,10.79,5.63,10.79,11.76l-.58,40.17c0,.62-.07,1.23-.17,1.83.52-.12,1.03-.18,1.45-.22,1.04-1.77,2.81-3.75,4.41-3.75s3.35,1.96,4.39,3.72c1.26.09,3.72.46,4.52,1.85.75,1.3.02,3.44-.66,4.84.58,1.04,1.09,2.31,1.26,3.47l2.59-2.03-1.18,4.99c-1.32,5.58-3.7,9.42-5.93,11.96,1.95.29,3.45,1.97,3.45,4,0,.15,0,.3-.02.45h1.98c1.09,0,2.1.42,2.87,1.19.76.77,1.18,1.78,1.18,2.86,0,.81-.24,1.59-.68,2.25.43.64.68,1.42.68,2.24,0,2.24-1.82,4.06-4.05,4.06h-1.98c.02.15.02.29.02.45,0,2.24-1.82,4.05-4.05,4.05h-2.77c.19,1.76.28,3.53.28,5.29,0,12.17-4.49,23.84-12.63,32.88l-.54.59H25.81ZM58.34,169c-7.48,8.32-11.7,19.19-11.7,30.46,0,9.73,3.1,19.13,8.8,26.9l2.89-57.36ZM135.18,190.11c0,.25.2.46.45.46h1.17c-.4-2.04-.94-4.04-1.62-6v5.54ZM117.7,157.5c6.39,3.91,11.86,9.25,15.91,15.6.26-.15.53-.27.82-.36-3.04-4.27-3.04-9.68-3.04-9.97v-1.83c-.54-.27-1.02-.64-1.3-1.12-.86-1.48.13-4.13,1.14-5.86-.1-.21-.2-.44-.3-.69-2.17,2.61-5.44,4.29-9.07,4.29,0,0-4.17-.06-4.17-.06ZM141.74,164.45c.84-1.03,1.69-1.95,2.47-2.74-.44.04-.8.06-.98.06-.46.66-.98,1.26-1.49,1.73v.95ZM134.88,161.74c.73.51,1.41,1.08,2.03,1.71v-.25c-.41-.42-.82-.91-1.18-1.43-.04,0-.08,0-.13,0s-.32,0-.72-.03ZM62.38,160.39c1.73-1.33,3.55-2.53,5.43-3.61l-5.25-.08-.19,3.68ZM139.09,157.93c.08.21.21.47.39.76.19-.3.32-.58.4-.79-.18.03-.37.04-.55.04-.08,0-.16,0-.23,0ZM142.39,152.35c.13.21.24.42.33.65.15-.2.3-.43.44-.69-.06,0-.11,0-.17,0-.23,0-.44.01-.6.04ZM135.79,152.31c.08.15.16.29.25.42.07-.14.14-.28.23-.41-.1,0-.2,0-.31,0-.06,0-.11,0-.17,0Z" style="fill: #fff;"/>
    <g>
      <g>
        <g>
          <g>
            <path d="M139.47,199.45c0-26.13-21.19-47.32-47.31-47.32s-47.31,21.19-47.31,47.32c0,12.18,4.61,23.29,12.17,31.67h70.29c7.56-8.39,12.17-19.49,12.17-31.67Z" style="fill: #fff;"/>
            <g style="clip-path: url(#c);">
              <g>
                <path d="M14.9,200.18c.36-3.21.85-6.46,1.44-9.7,2.83,1.68,5.58,3.46,8.25,5.28-.6,3.19-1.13,6.35-1.52,9.52-2.65-1.78-5.36-3.48-8.17-5.1Z" style="fill: #ba2025;"/>
                <path d="M28.55,194.2c.69-3.17,1.48-6.33,2.35-9.5,2.63,1.92,5.22,3.98,7.71,6.01-.88,3.14-1.7,6.21-2.4,9.35-2.49-2.01-5.04-3.97-7.66-5.87Z" style="fill: #ba2025;"/>
                <path d="M42.7,189.49c.96-3.11,2.02-6.15,3.14-9.27,2.46,2.16,4.87,4.41,7.18,6.64-1.14,3.06-2.2,6.06-3.18,9.11-2.3-2.18-4.7-4.39-7.14-6.49Z" style="fill: #ba2025;"/>
                <path d="M57.19,186c1.21-3.03,2.51-5.98,3.89-8.97,2.27,2.34,4.48,4.77,6.61,7.21-1.39,2.92-2.7,5.84-3.92,8.82-2.12-2.38-4.32-4.78-6.58-7.06Z" style="fill: #ba2025;"/>
                <path d="M71.92,183.71c1.46-2.87,3-5.78,4.62-8.63,2.08,2.57,4.07,5.15,5.99,7.74-1.63,2.83-3.17,5.65-4.64,8.46-1.91-2.56-3.9-5.05-5.97-7.57Z" style="fill: #ba2025;"/>
                <path d="M86.79,182.67c.85-1.38,1.72-2.76,2.6-4.15.89-1.36,1.8-2.7,2.73-4.05,1.85,2.74,3.63,5.4,5.31,8.2-1.86,2.62-3.64,5.37-5.34,8.06-.84-1.36-1.71-2.73-2.6-4.08-.89-1.33-1.79-2.65-2.72-3.98Z" style="fill: #ba2025;"/>
                <path d="M101.69,182.86c1.93-2.66,3.93-5.16,6.01-7.71,1.62,2.87,3.16,5.68,4.6,8.63-2.07,2.43-4.08,5.02-6,7.57-1.45-2.84-2.98-5.73-4.61-8.49Z" style="fill: #ba2025;"/>
                <path d="M116.52,184.33c2.15-2.49,4.35-4.79,6.64-7.16,1.37,3,2.66,5.92,3.85,8.98-2.27,2.24-4.49,4.67-6.62,7.04-1.21-2.93-2.49-5.98-3.87-8.86Z" style="fill: #ba2025;"/>
                <path d="M131.18,187.05c2.35-2.3,4.74-4.43,7.22-6.58,1.11,3.11,2.15,6.14,3.09,9.25-2.46,2.09-4.87,4.3-7.19,6.48-.96-3.05-1.98-6.16-3.12-9.15Z" style="fill: #ba2025;"/>
                <path d="M145.55,191c2.51-2.05,5.11-4.1,7.74-5.99.85,3.19,1.62,6.35,2.32,9.49-2.64,1.92-5.2,3.88-7.69,5.85-.69-3.17-1.49-6.24-2.37-9.35Z" style="fill: #ba2025;"/>
                <path d="M159.56,196.08c2.66-1.83,5.39-3.62,8.19-5.39.6,3.23,1.1,6.49,1.55,9.69-2.77,1.7-5.46,3.39-8.11,5.19-.48-3.13-1.02-6.3-1.63-9.49Z" style="fill: #ba2025;"/>
              </g>
              <path d="M38.15,208.31v38.34h108v-38.14c-50.92-23.29-94.3-6.75-108-.2Z" style="fill: url(#d); stroke: #ba2025; stroke-miterlimit: 10; stroke-width: 11px;"/>
            </g>
            <path d="M139.47,199.45c0-26.13-21.19-47.32-47.31-47.32s-47.31,21.19-47.31,47.32c0,12.18,4.61,23.29,12.17,31.67h70.29c7.56-8.39,12.17-19.49,12.17-31.67Z" style="fill: none; stroke: #010101; stroke-miterlimit: 10;"/>
          </g>
          <g>
            <path d="M148.53,160.23s-5.95,4.65-8.59,10.29v-7.9c.66-.4,1.64-1.46,2.32-2.68.28.03.56.04.84.04,1.85,0,3.66-.55,3.95-1.05.33-.58-.29-2.93-1.52-4.65.99-1.57,1.47-3.5,1.18-4-.27-.47-1.97-.98-3.71-.98-.12,0-.24,0-.35,0-.87-1.95-2.62-3.7-3.29-3.7s-2.42,1.74-3.29,3.69h-.1c-1.74,0-3.44.51-3.71.98-.28.48.15,2.28,1.06,3.81-1.33,1.73-2.01,4.24-1.66,4.84.29.5,2.1,1.05,3.95,1.05.36,0,.72-.02,1.08-.07.58,1.06,1.39,2,2.03,2.5v7.05c-.94-2.31-2.59-4.85-5.52-6.66,0,0-.06,8.08,5.52,11.61v.66h1.23v-.8c2.17-1.59,6.63-5.75,8.59-14.02ZM137.02,171.15c-.76-1.02-1.37-2.26-1.82-3.68-.21-.68-.37-1.34-.48-1.93.49.49.94,1.02,1.34,1.58.77,1.08,1.39,2.31,1.84,3.66.23.67.39,1.29.5,1.85-.51-.43-.97-.93-1.39-1.49ZM145.9,158.26c-.46.2-1.51.48-2.8.48-.1,0-.2,0-.3,0,.27-.81.35-1.63.08-2.34.69-.11,1.32-.53,1.86-1.1.3.47.57,1,.79,1.57.24.63.34,1.11.38,1.39ZM143,150.51c1.15,0,2.1.25,2.55.43-.04.27-.14.71-.35,1.27-.32.84-.77,1.61-1.26,2.16-.34.38-.86.84-1.42.84-.41,0-.87-.24-1.35-.71,0-.06.01-.13.01-.2,0-.7-.39-1.3-.96-1.62-.09-.49-.07-.96.16-1.31.36-.54,1.34-.87,2.63-.87ZM139.33,154.92c-.34,0-.61-.28-.61-.61s.27-.61.61-.61.61.28.61.61-.28.61-.61.61ZM137.8,148.67c.32-.49.7-.96,1.07-1.33.2-.2.36-.34.48-.42.12.09.28.22.48.42.37.37.75.84,1.07,1.33.18.27.33.53.46.79-.77.18-1.44.51-1.89,1.06-.49-.6-1.26-.94-2.12-1.11.13-.24.27-.49.44-.74ZM135.6,158.75c-1.29,0-2.34-.29-2.8-.48.03-.28.14-.77.38-1.4.24-.63.55-1.23.89-1.73.57.66,1.25,1.15,2.01,1.27-.27.7-.19,1.52.08,2.32-.18.01-.37.02-.55.02ZM136.45,155.2c-.56,0-1.08-.46-1.42-.84-.49-.55-.94-1.31-1.26-2.16-.22-.56-.32-1-.35-1.27.45-.18,1.4-.43,2.55-.43,1.29,0,2.27.33,2.63.87.2.31.24.73.18,1.17-.75.24-1.29.93-1.29,1.76,0,.15.02.29.05.43-.34.28-.72.47-1.08.47ZM138.07,159.83c-.67-1.02-1.01-2.04-.91-2.72.05-.34.2-.58.47-.8.2-.16.47-.29.8-.4.27.15.57.23.89.23.37,0,.71-.11,1-.29.42.12.76.28,1,.46.28.22.42.46.47.8.1.68-.24,1.7-.91,2.72-.3.45-.65.89-.99,1.24-.17.17-.31.29-.42.38-.11-.08-.25-.21-.42-.38-.35-.35-.7-.78-1-1.24ZM140.59,172.12c.23-.63.53-1.27.88-1.93.78-1.45,1.85-2.97,3.19-4.51.43-.5.86-.97,1.28-1.4-.33.8-.69,1.56-1.09,2.3-.86,1.6-1.88,3.05-3.04,4.31-.42.47-.83.87-1.22,1.23Z" style="fill: #ba2025;"/>
            <path d="M143.75,174.35c1.24,0,2.25,1,2.25,2.25s-1.01,2.25-2.25,2.25h-2.99,8.99c1.25,0,2.26,1.01,2.25,2.25,0,1.24-1.01,2.25-2.25,2.25h-9,9c1.24,0,2.25,1.01,2.25,2.25,0,1.24-1.01,2.25-2.25,2.25h-9,2.99c1.24,0,2.25,1,2.25,2.25s-1.01,2.25-2.25,2.25h-8.12c-1.24,0-2.25-1-2.25-2.25v-13.5c0-1.24,1.01-2.25,2.25-2.25h8.12Z" style="fill: #fff; stroke: #010101; stroke-linecap: round; stroke-miterlimit: 10;"/>
          </g>
        </g>
        <polygon points="57.16 77.32 27.99 231.13 57.01 231.13 64.04 91.6 57.16 77.32" style="fill: #ba2025; stroke: #ba2025; stroke-miterlimit: 10;"/>
        <g>
          <g>
            <g>
              <path id="e" data-name="SVGID" d="M131.87,145.91c-.08,5.52-4.62,9.94-10.14,9.85l-59.99-.87c-5.52-.08-9.93-4.62-9.85-10.15l.58-40c.08-5.52,4.62-9.93,10.14-9.85l60,.87c5.52.08,9.94,4.62,9.86,10.14l-.58,40Z" style="fill: #fff;"/>
              <g style="clip-path: url(#f);">
                <path d="M62.59,94.9c-5.52-.08-10.06,4.33-10.14,9.85l-.58,40c0,.5.06.98.12,1.46,12.63-10.14,23.68-39.06,27.85-51.06l-17.26-.25Z" style="fill: #ba2025;"/>
              </g>
              <path id="g" data-name="SVGID" d="M131.87,145.91c-.08,5.52-4.62,9.94-10.14,9.85l-59.99-.87c-5.52-.08-9.93-4.62-9.85-10.15l.58-40c.08-5.52,4.62-9.93,10.14-9.85l60,.87c5.52.08,9.94,4.62,9.86,10.14l-.58,40Z" style="fill: none; stroke: #010101; stroke-miterlimit: 10;"/>
            </g>
            <g>
              <g>
                <path d="M86.8,126.83c-.05,3.65-1.58,6.59-3.4,6.57-1.83-.03-3.27-3.01-3.21-6.66.05-3.65,1.58-6.59,3.41-6.57,1.82.03,3.26,3.01,3.21,6.66Z" style="fill: #010101;"/>
                <path d="M113.25,127.21c-.05,3.65-1.58,6.59-3.4,6.56-1.83-.02-3.27-3.01-3.21-6.66.05-3.65,1.57-6.59,3.4-6.56,1.82.03,3.26,3.01,3.21,6.66Z" style="fill: #010101;"/>
              </g>
              <g>
                <path d="M75.82,142.51c-2.39-.03-4.32-1.03-4.3-2.23.02-1.2,1.97-2.14,4.36-2.1,2.39.03,4.32,1.03,4.3,2.23-.02,1.2-1.97,2.14-4.36,2.1Z" style="fill: #ba2025;"/>
                <path d="M117.21,138.78c2.39.04,4.32,1.03,4.3,2.23-.02,1.2-1.97,2.14-4.37,2.1-2.39-.04-4.32-1.03-4.3-2.23.02-1.2,1.97-2.14,4.36-2.1Z" style="fill: #ba2025;"/>
              </g>
            </g>
          </g>
          <g>
            <g>
              <path d="M83.51,120.29c1.83,0,3.31,2.96,3.31,6.61s-1.48,6.61-3.31,6.61-3.31-2.96-3.31-6.61,1.48-6.61,3.31-6.61Z" style="fill: #010101;"/>
              <path d="M109.96,120.29c1.83,0,3.31,2.96,3.31,6.61s-1.48,6.61-3.31,6.61-3.31-2.96-3.31-6.61,1.48-6.61,3.31-6.61Z" style="fill: #010101;"/>
            </g>
            <g>
              <path d="M76.07,138.41c2.39,0,4.33.97,4.33,2.17s-1.94,2.17-4.33,2.17-4.33-.97-4.33-2.17,1.94-2.17,4.33-2.17Z" style="fill: #ba2025;"/>
              <path d="M117.4,138.41c2.39,0,4.34.97,4.34,2.17s-1.94,2.17-4.34,2.17-4.33-.97-4.33-2.17,1.94-2.17,4.33-2.17Z" style="fill: #ba2025;"/>
            </g>
          </g>
        </g>
      </g>
      <g>
        <g>
          <g>
            <path d="M75.42,52.7c10.5,0,19.01,8.51,19.01,19.01s-8.51,19.01-19.01,19.01-19.01-8.51-19.01-19.01,8.51-19.01,19.01-19.01Z" style="fill: #fff; stroke: #ba2025; stroke-miterlimit: 10;"/>
            <path d="M107.73,52.7c10.5,0,19.01,8.51,19.01,19.01s-8.51,19.01-19.01,19.01-19.01-8.51-19.01-19.01,8.51-19.01,19.01-19.01Z" style="fill: #fff; stroke: #ba2025; stroke-miterlimit: 10;"/>
          </g>
          <path d="M100.14,95.04c-3.1,0-6.03-1.19-8.57-3.44-2.54,2.24-5.46,3.44-8.57,3.44-9.39,0-16.75-11.17-16.75-25.42s7.36-25.43,16.75-25.43c3.1,0,6.03,1.19,8.57,3.44,2.54-2.24,5.46-3.44,8.57-3.44,9.39,0,16.75,11.17,16.75,25.43s-7.36,25.42-16.75,25.42Z" style="fill: #fff; stroke: #ba2025; stroke-miterlimit: 10;"/>
          <path d="M100.14,48.51c-3.32,0-6.34,2.23-8.57,5.83-2.23-3.6-5.24-5.83-8.57-5.83-6.87,0-12.43,9.45-12.43,21.1s5.57,21.1,12.43,21.1c3.32,0,6.34-2.23,8.57-5.83,2.23,3.6,5.24,5.83,8.57,5.83,6.87,0,12.43-9.45,12.43-21.1s-5.57-21.1-12.43-21.1Z" style="fill: #fff; stroke: #ba2025; stroke-miterlimit: 10; stroke-width: .5px;"/>
          <path d="M88.72,90.63c0-25.65-5.72-46.44,3.23-46.44,8.19,0,3.23,20.8,3.23,46.44" style="fill: #fff; stroke: #ba2025; stroke-miterlimit: 10;"/>
        </g>
        <path d="M122.27,91.12c0,2.91-2.36,5.26-5.26,5.26h-50.87c-2.91,0-5.26-2.36-5.26-5.26v-3.5c0-2.91,2.35-5.26,5.26-5.26h50.87c2.91,0,5.26,2.36,5.26,5.26v3.5Z" style="fill: #fff; stroke: #ba2025; stroke-miterlimit: 10;"/>
      </g>
      <polygon points="83.47 32.79 91.42 20.87 99.37 32.79 91.42 44.72 83.47 32.79" style="fill: #ba2025;"/>
    </g>
  </g>
</svg>