<?xml version="1.0" encoding="UTF-8"?>
<svg id="Layer_1" data-name="Layer 1" xmlns="http://www.w3.org/2000/svg" xmlns:xlink="http://www.w3.org/1999/xlink" viewBox="0 0 180 252">
  <defs>
    <style>
      .cls-1, .cls-2, .cls-3, .cls-4 {
        fill: none;
      }

      .cls-2, .cls-5, .cls-6, .cls-7, .cls-3, .cls-4, .cls-8, .cls-9 {
        stroke-miterlimit: 10;
      }

      .cls-2, .cls-6, .cls-8 {
        stroke: #010101;
      }

      .cls-10 {
        fill: #010101;
      }

      .cls-5 {
        fill: url(#New_Pattern_Swatch_1_copy);
      }

      .cls-5, .cls-7, .cls-3, .cls-4, .cls-9 {
        stroke: #ba2025;
      }

      .cls-5, .cls-3 {
        stroke-width: 11px;
      }

      .cls-6, .cls-7, .cls-11, .cls-8 {
        fill: #fff;
      }

      .cls-12 {
        clip-path: url(#clippath-1);
      }

      .cls-8 {
        stroke-linecap: round;
      }

      .cls-13, .cls-9 {
        fill: #ba2025;
      }

      .cls-14 {
        clip-path: url(#clippath);
      }
    </style>
    <clipPath id="clippath">
      <path class="cls-6" d="M139.54,195.1c0-26.13-21.19-47.32-47.31-47.32s-47.31,21.19-47.31,47.32c0,12.18,4.61,23.29,12.17,31.67h70.29c7.56-8.39,12.17-19.49,12.17-31.67Z"/>
    </clipPath>
    <pattern id="New_Pattern_Swatch_1_copy" data-name="New Pattern Swatch 1 copy" x="0" y="0" width="10.8" height="16.2" patternTransform="translate(-234 -612)" patternUnits="userSpaceOnUse" viewBox="0 0 10.8 16.2">
      <g>
        <rect class="cls-1" y="0" width="10.8" height="16.2"/>
        <circle class="cls-13" cx="10.8" cy="16.2" r="2.87"/>
        <circle class="cls-13" cx="0" cy="16.2" r="2.87"/>
        <circle class="cls-13" cx="5.4" cy="8.1" r="2.87"/>
        <circle class="cls-13" cx="10.8" cy="0" r="2.87"/>
        <circle class="cls-13" cx="0" cy="0" r="2.87"/>
      </g>
    </pattern>
    <clipPath id="clippath-1">
      <path class="cls-7" d="M83.4,169.9c8.56,0,15.49,6.94,15.49,15.49s-6.94,15.49-15.49,15.49-15.49-6.94-15.49-15.49,6.94-15.49,15.49-15.49Z"/>
    </clipPath>
  </defs>
  <g>
    <g>
      <path class="cls-7" d="M82.54,59.51c0-5.5,4.46-9.97,9.97-9.97s9.97,4.46,9.97,9.97"/>
      <path class="cls-7" d="M66.79,66.49c0-5.5,4.46-9.97,9.97-9.97s9.97,4.46,9.97,9.97v18.63"/>
      <path class="cls-7" d="M98.29,85.12v-17.74c0-5.5,4.46-9.97,9.97-9.97s9.97,4.46,9.97,9.97v17.74"/>
      <path class="cls-4" d="M118.23,67.39c0-14.2-11.51-25.72-25.72-25.72s-25.72,11.51-25.72,25.72v17.74"/>
    </g>
    <g>
      <path class="cls-11" d="M139.54,195.1c0-26.13-21.19-47.32-47.31-47.32s-47.31,21.19-47.31,47.32c0,12.18,4.61,23.29,12.17,31.67h70.29c7.56-8.39,12.17-19.49,12.17-31.67Z"/>
      <g class="cls-14">
        <g>
          <path class="cls-13" d="M14.98,195.83c.36-3.21.85-6.46,1.44-9.7,2.83,1.68,5.58,3.46,8.25,5.28-.6,3.19-1.13,6.35-1.52,9.52-2.65-1.78-5.36-3.48-8.17-5.1Z"/>
          <path class="cls-13" d="M28.63,189.85c.69-3.17,1.48-6.33,2.35-9.5,2.63,1.92,5.22,3.98,7.71,6.01-.88,3.14-1.7,6.21-2.4,9.35-2.49-2.01-5.04-3.97-7.66-5.87Z"/>
          <path class="cls-13" d="M42.77,185.14c.96-3.11,2.02-6.15,3.14-9.27,2.46,2.16,4.87,4.41,7.18,6.64-1.14,3.06-2.2,6.06-3.18,9.11-2.3-2.18-4.7-4.39-7.14-6.49Z"/>
          <path class="cls-13" d="M57.27,181.65c1.21-3.03,2.51-5.98,3.89-8.97,2.27,2.34,4.48,4.77,6.61,7.21-1.39,2.92-2.7,5.84-3.92,8.82-2.12-2.38-4.32-4.78-6.58-7.06Z"/>
          <path class="cls-13" d="M71.99,179.36c1.46-2.87,3-5.78,4.62-8.63,2.08,2.57,4.07,5.15,5.99,7.74-1.63,2.83-3.17,5.65-4.64,8.46-1.91-2.56-3.9-5.05-5.97-7.57Z"/>
          <path class="cls-13" d="M86.86,178.32c.85-1.38,1.72-2.76,2.6-4.15.89-1.36,1.8-2.7,2.73-4.05,1.85,2.74,3.63,5.4,5.31,8.2-1.86,2.62-3.64,5.37-5.34,8.06-.84-1.36-1.71-2.73-2.6-4.08-.89-1.33-1.79-2.65-2.72-3.98Z"/>
          <path class="cls-13" d="M101.77,178.51c1.93-2.66,3.93-5.16,6.01-7.71,1.62,2.87,3.16,5.68,4.6,8.63-2.07,2.43-4.08,5.02-6,7.57-1.45-2.84-2.98-5.73-4.61-8.49Z"/>
          <path class="cls-13" d="M116.6,179.97c2.15-2.49,4.35-4.79,6.64-7.16,1.37,3,2.66,5.92,3.85,8.98-2.27,2.24-4.49,4.67-6.62,7.04-1.21-2.93-2.49-5.98-3.87-8.86Z"/>
          <path class="cls-13" d="M131.25,182.7c2.35-2.3,4.74-4.43,7.22-6.58,1.11,3.11,2.15,6.14,3.09,9.25-2.46,2.09-4.87,4.3-7.19,6.48-.96-3.05-1.98-6.16-3.12-9.15Z"/>
          <path class="cls-13" d="M145.63,186.64c2.51-2.05,5.11-4.1,7.74-5.99.85,3.19,1.62,6.35,2.32,9.49-2.64,1.92-5.2,3.88-7.69,5.85-.69-3.17-1.49-6.24-2.37-9.35Z"/>
          <path class="cls-13" d="M159.64,191.73c2.66-1.82,5.39-3.62,8.19-5.39.6,3.23,1.1,6.49,1.55,9.69-2.77,1.7-5.46,3.39-8.11,5.19-.48-3.13-1.02-6.3-1.63-9.49Z"/>
        </g>
        <path class="cls-5" d="M38.23,203.96v38.34h108v-38.14c-50.92-23.29-94.3-6.75-108-.2Z"/>
      </g>
      <path class="cls-2" d="M139.54,195.1c0-26.13-21.19-47.32-47.31-47.32s-47.31,21.19-47.31,47.32c0,12.18,4.61,23.29,12.17,31.67h70.29c7.56-8.39,12.17-19.49,12.17-31.67Z"/>
    </g>
    <polygon class="cls-9" points="60.57 141.5 28.91 226.88 65.42 226.88 74.27 148.41 60.57 141.5"/>
    <path class="cls-7" d="M122.93,86.88c0,2.91-2.36,5.26-5.26,5.26h-50.87c-2.9,0-5.26-2.35-5.26-5.26v-3.5c0-2.91,2.36-5.26,5.26-5.26h50.87c2.91,0,5.26,2.36,5.26,5.26v3.5h0Z"/>
    <polygon class="cls-13" points="84.56 37.04 92.51 25.12 100.46 37.04 92.51 48.96 84.56 37.04"/>
    <path class="cls-13" d="M117.59,73.62c0-.56.46-1.02,1.02-1.02.05,0,.09.02.14.03v-.63h-52.47v.63s.09-.03.14-.03c.56,0,1.02.46,1.02,1.02s-.46,1.02-1.02,1.02c-.05,0-.09-.02-.14-.03v.62h52.47v-.62s-.09.03-.14.03c-.56,0-1.02-.46-1.02-1.02ZM70.15,74.64c-.56,0-1.02-.46-1.02-1.02s.46-1.02,1.02-1.02,1.02.46,1.02,1.02-.46,1.02-1.02,1.02ZM73.87,74.64c-.56,0-1.02-.46-1.02-1.02s.46-1.02,1.02-1.02,1.02.46,1.02,1.02c0,.56-.46,1.02-1.02,1.02ZM77.6,74.64c-.56,0-1.02-.46-1.02-1.02s.46-1.02,1.02-1.02,1.02.46,1.02,1.02c0,.56-.46,1.02-1.02,1.02ZM81.33,74.64c-.56,0-1.02-.46-1.02-1.02s.46-1.02,1.02-1.02,1.02.46,1.02,1.02-.46,1.02-1.02,1.02ZM85.06,74.64c-.56,0-1.02-.46-1.02-1.02s.46-1.02,1.02-1.02,1.02.46,1.02,1.02-.46,1.02-1.02,1.02ZM88.79,74.64c-.56,0-1.02-.46-1.02-1.02s.46-1.02,1.02-1.02,1.02.46,1.02,1.02c0,.56-.46,1.02-1.02,1.02ZM92.51,74.64c-.56,0-1.02-.46-1.02-1.02s.46-1.02,1.02-1.02,1.02.46,1.02,1.02-.46,1.02-1.02,1.02ZM96.24,74.64c-.56,0-1.02-.46-1.02-1.02s.46-1.02,1.02-1.02,1.02.46,1.02,1.02c0,.56-.46,1.02-1.02,1.02ZM99.97,74.64c-.56,0-1.02-.46-1.02-1.02s.46-1.02,1.02-1.02,1.02.46,1.02,1.02-.46,1.02-1.02,1.02ZM103.69,74.64c-.56,0-1.02-.46-1.02-1.02s.46-1.02,1.02-1.02,1.02.46,1.02,1.02-.46,1.02-1.02,1.02ZM107.42,74.64c-.56,0-1.02-.46-1.02-1.02s.46-1.02,1.02-1.02,1.02.46,1.02,1.02c0,.56-.46,1.02-1.02,1.02ZM111.15,74.64c-.56,0-1.02-.46-1.02-1.02s.45-1.02,1.02-1.02,1.02.46,1.02,1.02-.46,1.02-1.02,1.02ZM114.88,74.64c-.56,0-1.02-.46-1.02-1.02s.46-1.02,1.02-1.02,1.02.46,1.02,1.02-.46,1.02-1.02,1.02Z"/>
    <g>
      <circle class="cls-7" cx="83.4" cy="185.4" r="15.49"/>
      <polygon class="cls-13" points="79.06 164.08 83.4 157.58 87.74 164.08 83.4 170.58 79.06 164.08"/>
      <g>
        <path class="cls-11" d="M83.4,169.9c8.56,0,15.49,6.94,15.49,15.49s-6.94,15.49-15.49,15.49-15.49-6.94-15.49-15.49,6.94-15.49,15.49-15.49Z"/>
        <g class="cls-12">
          <path class="cls-3" d="M111.45,193.67c-26.45-12.1-48.99-3.51-56.1-.1"/>
        </g>
        <path class="cls-4" d="M83.4,169.9c8.56,0,15.49,6.94,15.49,15.49s-6.94,15.49-15.49,15.49-15.49-6.94-15.49-15.49,6.94-15.49,15.49-15.49Z"/>
      </g>
      <path class="cls-8" d="M74.4,201.79c0-1.24,1-2.25,2.25-2.25s2.25,1.01,2.25,2.25v2.99-9c0-1.25,1.01-2.25,2.25-2.25s2.25,1.01,2.25,2.25v9-9c0-1.25,1.01-2.25,2.25-2.25s2.25,1.01,2.25,2.25v9-2.99c0-1.24,1-2.25,2.25-2.25s2.25,1.01,2.25,2.25v4.12h0c0,1.24-1.01,2.25-2.25,2.25h-13.5c-1.24,0-2.25-1.01-2.25-2.25h0v-4.12Z"/>
    </g>
    <g>
      <path class="cls-13" d="M139.25,187.02c2,0,3.63,1.62,3.63,3.63s-1.62,3.63-3.63,3.63-3.63-1.62-3.63-3.63,1.62-3.63,3.63-3.63Z"/>
      <path class="cls-13" d="M141.66,190.86h-4.82v-64.3l2.41-6.95,2.41,6.95v64.3ZM139.25,123.35l-1.19,3.42v62.87h1.18v-66.29Z"/>
      <path class="cls-13" d="M128.81,167.92s.33-.29.9-.71c.29-.21.63-.47,1.02-.71.2-.13.41-.26.64-.41.22-.14.46.05.7,0h14.35c.25.06.48-.14.7.03.22.14.44.28.63.41.4.25.75.5,1.03.71.57.42.9.69.9.69,0,0-.32.28-.9.7-.29.2-.64.46-1.03.71-.2.13-.41.27-.63.41-.23.17-.46-.03-.7.03h-14.35c-.24-.05-.48.13-.7,0-.23-.15-.44-.28-.64-.41-.4-.24-.74-.5-1.02-.71-.57-.41-.9-.71-.9-.71Z"/>
      <path class="cls-8" d="M142.83,170c1.24,0,2.25,1,2.25,2.25s-1.01,2.25-2.25,2.25h-2.99,9c1.25,0,2.25,1.01,2.25,2.25s-1.01,2.25-2.25,2.25h-9,9c1.25,0,2.25,1.01,2.25,2.25s-1.01,2.25-2.25,2.25h-9,2.99c1.24,0,2.25,1,2.25,2.25s-1.01,2.25-2.25,2.25h-8.12c-1.24,0-2.25-1-2.25-2.25v-13.5c0-1.24,1.01-2.25,2.25-2.25h8.12Z"/>
    </g>
    <g>
      <path class="cls-6" d="M132.23,141.24c0,5.52-4.48,10-10,10h-60c-5.52,0-10-4.48-10-10v-40c0-5.52,4.48-10,10-10h60c5.52,0,10,4.48,10,10v40Z"/>
      <g>
        <g>
          <path class="cls-10" d="M83.58,116.2c1.83,0,3.31,2.96,3.31,6.61s-1.48,6.61-3.31,6.61-3.31-2.96-3.31-6.61,1.48-6.61,3.31-6.61Z"/>
          <path class="cls-10" d="M110.04,116.2c1.83,0,3.31,2.96,3.31,6.61s-1.48,6.61-3.31,6.61-3.31-2.96-3.31-6.61,1.48-6.61,3.31-6.61Z"/>
        </g>
        <g>
          <path class="cls-13" d="M76.14,134.32c2.39,0,4.33.97,4.33,2.17s-1.94,2.17-4.33,2.17-4.33-.97-4.33-2.17,1.94-2.17,4.33-2.17Z"/>
          <path class="cls-13" d="M117.48,134.32c2.39,0,4.34.97,4.34,2.17s-1.94,2.17-4.34,2.17-4.33-.97-4.33-2.17,1.94-2.17,4.33-2.17Z"/>
        </g>
      </g>
      <path class="cls-10" d="M101.82,141.24v4.73h-10.01v-4.73h-39.58c0,5.52,4.48,10,10,10h60c5.52,0,10-4.48,10-10h-30.41Z"/>
    </g>
  </g>
  <g>
    <path class="cls-13" d="M9,35.73h2.75V12.29h-2.75v-3.29h8.33v3.29h-2.32v11.4l7.33-11.4h-2.82v-3.29h9.15v3.29h-2.63l-5.95,9.26,6.08,14.19h2.5v3.29h-9.15v-3.29h2.95l-4.6-10.74-2.86,4.45v6.29h2.32v3.29h-8.33v-3.29Z"/>
    <path class="cls-13" d="M171,216.27h-2.75v23.44h2.75v3.29h-8.33v-3.29h2.32v-11.4l-7.33,11.4h2.82v3.29h-9.15v-3.29h2.63l5.95-9.26-6.08-14.19h-2.5v-3.29h9.15v3.29h-2.95l4.6,10.74,2.86-4.45v-6.29h-2.32v-3.29h8.33v3.29Z"/>
  </g>
</svg>