<?xml version="1.0" encoding="UTF-8"?>
<svg id="Layer_1" data-name="Layer 1" xmlns="http://www.w3.org/2000/svg" viewBox="0 0 180 252">
  <defs>
    <style>
      .cls-1 {
        fill: #fff;
      }

      .cls-2 {
        fill: #ba2025;
      }
    </style>
  </defs>
  <g>
    <polygon class="cls-2" points="32.05 126 90 39.08 147.95 126 90 212.92 32.05 126"/>
    <g>
      <g>
        <path class="cls-1" d="M75.28,113.5c2.03,0,3.68,3.3,3.68,7.36s-1.65,7.36-3.68,7.36-3.68-3.3-3.68-7.36,1.65-7.36,3.68-7.36Z"/>
        <path class="cls-1" d="M104.72,113.5c2.03,0,3.68,3.3,3.68,7.36s-1.65,7.36-3.68,7.36-3.68-3.3-3.68-7.36,1.65-7.36,3.68-7.36Z"/>
      </g>
      <g>
        <path class="cls-1" d="M67,133.68c2.66,0,4.82,1.08,4.82,2.41s-2.16,2.41-4.82,2.41-4.83-1.08-4.83-2.41,2.16-2.41,4.83-2.41Z"/>
        <path class="cls-1" d="M113,133.68c2.67,0,4.83,1.08,4.83,2.41s-2.16,2.41-4.83,2.41-4.82-1.08-4.82-2.41,2.16-2.41,4.82-2.41Z"/>
      </g>
    </g>
  </g>
  <g>
    <path class="cls-2" d="M16.97,35.34v3.61h-7.97v-3.61h2.61l4.93-26.34h4.47l4.97,26.34h2.61v3.61h-7.97v-3.61h1.72s-.57-3.14-.57-3.14h-5.93l-.59,3.14h1.72ZM16.47,28.58h4.63l-2.32-12.31-2.31,12.31Z"/>
    <path class="cls-2" d="M163.03,216.66v-3.61h7.97v3.61h-2.61l-4.93,26.34h-4.47l-4.97-26.34h-2.61v-3.61h7.97v3.61h-1.72s.57,3.14.57,3.14h5.93l.59-3.14h-1.72ZM163.53,223.42h-4.63l2.32,12.31,2.31-12.31Z"/>
  </g>
</svg>