<?xml version="1.0" encoding="UTF-8"?>
<svg id="a" data-name="Layer 1" xmlns="http://www.w3.org/2000/svg" width="2.5in" height="3.5in" xmlns:xlink="http://www.w3.org/1999/xlink" viewBox="0 0 180 252">
  <defs>
    <clipPath id="b">
      <rect width="180" height="252" rx="18" ry="18" style="fill: none;"/>
    </clipPath>
  </defs>
  <g style="clip-path: url(#b);">
    <rect x="-.51" width="180" height="252" style="fill: #fff;"/>
    <path d="M37.18,107.66v14.14H5.96v-14.14h10.22L35.5,4.48h17.5l19.46,103.18h10.22v14.14h-31.22v-14.14h6.76s-2.24-12.32-2.24-12.32h-23.25l-2.31,12.31h6.75ZM35.24,81.2h18.13l-9.1-48.24-9.03,48.24Z" style="fill: #ba2025;"/>
    <g>
      <polygon points="29.89 126 90 35.84 150.11 126 90 216.16 29.89 126" style="fill: #fff;"/>
      <polygon points="32.05 126 90 39.08 147.95 126 90 212.92 32.05 126" style="fill: #ba2025;"/>
      <path d="M75.28,113.5c2.03,0,3.68,3.3,3.68,7.36s-1.65,7.36-3.68,7.36-3.68-3.3-3.68-7.36,1.65-7.36,3.68-7.36Z" style="fill: #fff;"/>
      <path d="M104.72,113.5c2.03,0,3.68,3.3,3.68,7.36s-1.65,7.36-3.68,7.36-3.68-3.3-3.68-7.36,1.65-7.36,3.68-7.36Z" style="fill: #fff;"/>
      <path d="M67,133.68c2.66,0,4.82,1.08,4.82,2.41s-2.16,2.41-4.82,2.41-4.83-1.08-4.83-2.41,2.16-2.41,4.83-2.41Z" style="fill: #fff;"/>
      <path d="M113,133.68c2.67,0,4.83,1.08,4.83,2.41s-2.16,2.41-4.83,2.41-4.82-1.08-4.82-2.41,2.16-2.41,4.82-2.41Z" style="fill: #fff;"/>
    </g>
  </g>
</svg>