<?xml version="1.0" encoding="UTF-8"?>
<svg id="a" data-name="Layer 1" xmlns="http://www.w3.org/2000/svg" width="2.5in" height="3.5in" xmlns:xlink="http://www.w3.org/1999/xlink" viewBox="0 0 180 252">
  <defs>
    <clipPath id="b">
      <rect y="0" width="180" height="252" rx="18" ry="18" style="fill: none;"/>
    </clipPath>
  </defs>
  <g style="clip-path: url(#b);">
    <rect x="-.51" width="180" height="252" style="fill: #fff;"/>
    <path d="M66.02,92.96h14.98v30.24H5.96v-7.7c0-14.09,5.18-26.74,15.54-37.94,4.05-4.29,13.71-11.99,28.97-23.1,10.36-7.56,15.54-14.05,15.54-19.46,0-5.04-2.87-8.96-8.62-11.76-4.52-2.24-9.66-3.36-15.4-3.36-14.04,0-21.06,4.67-21.06,14,0,1.96.51,4.15,1.54,6.58l-14,5.88c-1.68-4.39-2.52-8.54-2.52-12.46,0-9.71,3.65-17.17,10.96-22.4,6.56-4.67,14.89-7,25.01-7s18.88,2.52,26.28,7.56c8.52,5.69,12.79,13.35,12.79,22.96,0,8.96-4.5,17.36-13.5,25.2-8.82,6.72-17.63,13.44-26.45,20.16-10.32,8.59-16.55,17.73-18.71,27.44h43.68v-14.84Z" style="fill: #ba2025;"/>
    <path d="M72.31,74.87c-3.49-5.13-2.15-12.14,2.98-15.63,1.88-1.27,4.06-1.95,6.32-1.95,3.23,0,6.27,1.38,8.39,3.74,2.12-2.36,5.16-3.74,8.39-3.74,2.26,0,4.44.67,6.32,1.95,2.48,1.69,4.16,4.25,4.73,7.2.56,2.95-.06,5.95-1.75,8.43l-17.69,26.03-17.69-26.03Z" style="fill: #fff;"/>
    <path d="M90,97.69l-16.2-23.84c-2.93-4.32-1.81-10.2,2.51-13.13,4.32-2.94,10.2-1.81,13.13,2.5l.56.83.56-.83c2.93-4.32,8.81-5.44,13.13-2.5,4.32,2.93,5.44,8.81,2.51,13.13l-16.2,23.84Z" style="fill: #ba141a;"/>
    <path d="M72.31,170.09c-1.69-2.49-2.31-5.48-1.75-8.43.56-2.95,2.24-5.51,4.73-7.2,1.87-1.27,4.06-1.95,6.32-1.95,3.23,0,6.27,1.38,8.39,3.74,2.12-2.36,5.16-3.74,8.39-3.74,2.26,0,4.44.67,6.31,1.95,2.49,1.69,4.17,4.25,4.73,7.2.56,2.95-.06,5.95-1.75,8.43l-17.69,26.03-17.69-26.03Z" style="fill: #fff;"/>
    <path d="M90,192.91l-16.2-23.84c-2.93-4.32-1.81-10.2,2.51-13.13,4.32-2.93,10.2-1.81,13.13,2.51l.56.82.56-.82c2.93-4.32,8.81-5.44,13.13-2.51s5.44,8.82,2.51,13.13l-16.2,23.84Z" style="fill: #ba141a;"/>
  </g>
</svg>