<?xml version="1.0" encoding="UTF-8"?>
<svg id="a" data-name="Layer 1" xmlns="http://www.w3.org/2000/svg" width="2.5in" height="3.5in" xmlns:xlink="http://www.w3.org/1999/xlink" viewBox="0 0 180 252">
  <defs>
    <clipPath id="b">
      <rect y="0" width="180" height="252" rx="18" ry="18" style="fill: none;"/>
    </clipPath>
  </defs>
  <g style="clip-path: url(#b);">
    <rect x="-.51" width="180" height="252" style="fill: #fff;"/>
    <path d="M44.32,123.48c-8.96,0-16.99-3.08-24.08-9.24-6.44-5.6-11.2-12.88-14.28-21.84l14.31-5.04c1.96,5.84,4.91,10.62,8.84,14.32,4.49,4.27,9.59,6.4,15.29,6.4,7.11,0,13.23-2.79,18.38-8.38,5.15-5.58,7.72-11.92,7.72-18.99s-2.2-12.66-6.6-17.03c-4.4-4.38-10.15-6.56-17.27-6.56-3.28,0-5.85.42-7.72,1.26s-4.12,2.47-6.74,4.9l-10.81-10.64L56.22,19.88H22.62v14.98H7.64V4.48h76.58v9.64l-29.86,28.25c9.44,1.78,16.98,6.19,22.64,13.24,5.65,7.05,8.48,15.43,8.48,25.14,0,11.3-4.06,21.25-12.18,29.84-8.12,8.59-17.78,12.89-28.98,12.89Z" style="fill: #ba2025;"/>
    <path d="M72.31,51.06c-1.69-2.49-2.31-5.48-1.75-8.43.56-2.95,2.24-5.51,4.73-7.2,1.88-1.27,4.06-1.94,6.32-1.94,3.23,0,6.27,1.38,8.39,3.74,2.12-2.36,5.16-3.74,8.39-3.74,2.26,0,4.44.67,6.32,1.94,2.49,1.69,4.17,4.25,4.73,7.2.56,2.95-.06,5.95-1.75,8.43l-17.69,26.03-17.69-26.03Z" style="fill: #fff;"/>
    <path d="M90,73.88l-16.2-23.84c-2.93-4.32-1.81-10.2,2.51-13.13,4.32-2.93,10.2-1.81,13.13,2.51l.56.82.56-.82c2.93-4.32,8.81-5.44,13.13-2.51,4.32,2.93,5.44,8.81,2.51,13.13l-16.2,23.84Z" style="fill: #ba141a;"/>
    <path d="M72.31,122.48c-3.49-5.13-2.15-12.14,2.98-15.63,1.88-1.27,4.06-1.94,6.32-1.94,3.23,0,6.27,1.38,8.39,3.74,2.12-2.37,5.16-3.74,8.39-3.74,2.26,0,4.44.67,6.31,1.94,2.49,1.69,4.17,4.25,4.73,7.2.56,2.95-.06,5.95-1.75,8.43l-17.69,26.03-17.69-26.03Z" style="fill: #fff;"/>
    <path d="M90,145.3l-16.2-23.84c-2.93-4.32-1.81-10.2,2.51-13.13,4.32-2.93,10.2-1.81,13.13,2.51l.56.82.56-.82c2.93-4.32,8.81-5.44,13.13-2.51,4.32,2.94,5.44,8.82,2.51,13.13l-16.2,23.84Z" style="fill: #ba141a;"/>
    <path d="M72.31,193.9c-3.49-5.13-2.15-12.14,2.98-15.63,1.88-1.27,4.06-1.94,6.31-1.94,3.23,0,6.27,1.38,8.39,3.74,2.12-2.36,5.16-3.74,8.39-3.74,2.26,0,4.44.67,6.31,1.94,2.49,1.69,4.17,4.25,4.73,7.2.56,2.95-.06,5.95-1.75,8.43l-17.69,26.03-17.69-26.03Z" style="fill: #fff;"/>
    <path d="M90,216.72l-16.2-23.84c-2.93-4.32-1.81-10.2,2.51-13.13,4.32-2.93,10.2-1.81,13.13,2.51l.56.82.56-.82c2.93-4.32,8.81-5.44,13.13-2.51,4.32,2.94,5.44,8.82,2.51,13.13l-16.2,23.84Z" style="fill: #ba141a;"/>
  </g>
</svg>