<?xml version="1.0" encoding="UTF-8"?>
<svg id="Layer_1" data-name="Layer 1" xmlns="http://www.w3.org/2000/svg" viewBox="0 0 180 252">
  <defs>
    <style>
      .cls-1 {
        fill: #ba141a;
      }

      .cls-2 {
        fill: #ba2025;
      }
    </style>
  </defs>
  <g>
    <g>
      <path class="cls-1" d="M43.03,73.88l-16.2-23.83c-2.93-4.32-1.81-10.2,2.5-13.13,4.32-2.93,10.2-1.81,13.13,2.51l.56.82.56-.82c2.93-4.32,8.81-5.44,13.13-2.51,4.32,2.94,5.44,8.82,2.51,13.13l-16.2,23.83Z"/>
      <path class="cls-1" d="M136.97,73.88l-16.19-23.83c-2.93-4.32-1.81-10.2,2.5-13.13,4.32-2.93,10.2-1.81,13.13,2.51l.56.82.56-.82c2.94-4.32,8.82-5.44,13.13-2.51,4.32,2.94,5.44,8.82,2.51,13.13l-16.2,23.83Z"/>
    </g>
    <g>
      <path class="cls-1" d="M43.03,216.72l-16.2-23.84c-2.93-4.32-1.81-10.2,2.5-13.13,4.32-2.93,10.2-1.81,13.13,2.51l.56.82.56-.82c2.93-4.32,8.81-5.44,13.13-2.51,4.32,2.93,5.44,8.82,2.51,13.13l-16.2,23.84Z"/>
      <path class="cls-1" d="M136.67,214.8l-16.47-21.46c-2.98-3.89-1.84-9.18,2.54-11.82,4.39-2.64,10.37-1.63,13.35,2.26l.57.74.57-.74c2.98-3.89,8.96-4.9,13.35-2.26,4.39,2.64,5.53,7.94,2.55,11.82l-16.47,21.46Z"/>
    </g>
  </g>
  <g>
    <path class="cls-2" d="M18.43,34.91h2.43v-3.14h-11.86v-3.11l12.4-19.66h3.29v18.83h3.68v3.93h-3.68v3.14h1.82v3.93h-8.08v-3.93ZM14.12,27.83h6.74v-10.68l-6.74,10.68Z"/>
    <path class="cls-2" d="M161.57,217.09h-2.43v3.14h11.86v3.11l-12.4,19.66h-3.29v-18.83h-3.68v-3.93h3.68v-3.14h-1.82v-3.93h8.08v3.93ZM165.88,224.17h-6.74v10.68l6.74-10.68Z"/>
  </g>
</svg>