<?xml version="1.0" encoding="UTF-8"?>
<svg id="a" data-name="Layer 1" xmlns="http://www.w3.org/2000/svg" width="2.5in" height="3.5in" xmlns:xlink="http://www.w3.org/1999/xlink" viewBox="0 0 180 252">
  <defs>
    <clipPath id="b">
      <rect y="0" width="180" height="252" rx="18" ry="18" style="fill: none;"/>
    </clipPath>
  </defs>
  <g style="clip-path: url(#b);">
    <rect x="-.51" width="180" height="252" style="fill: #fff;"/>
    <path d="M43.48,124.04c-8.4,0-16.1-2.89-23.1-8.68-6.16-5.32-10.97-12.18-14.42-20.58l14.03-5.88c2.24,5.47,5.24,9.96,8.98,13.48,4.4,4.17,9.26,6.26,14.59,6.26,7.48,0,13.7-3.48,18.66-10.45,4.49-6.23,6.74-13.15,6.74-20.77s-2.25-14.59-6.74-20.63c-4.87-6.6-11.09-9.89-18.67-9.89-6.46,0-12.87,3.45-19.23,10.36l-10.95-6.44V4.48h56.84v15.4H28.36v14.98c4.86-2.24,9.87-3.36,15.02-3.36,11.79,0,21.61,4.81,29.47,14.42,7.39,8.96,11.09,19.46,11.09,31.5s-3.64,22.63-10.92,31.78c-7.93,9.89-17.78,14.84-29.54,14.84Z" style="fill: #ba2025;"/>
    <path d="M25.35,51.06c-1.69-2.49-2.31-5.48-1.75-8.43.56-2.95,2.24-5.51,4.73-7.2,1.87-1.27,4.06-1.95,6.32-1.95,3.23,0,6.27,1.38,8.39,3.74,2.12-2.37,5.16-3.74,8.39-3.74,2.26,0,4.44.67,6.31,1.95,2.49,1.69,4.17,4.25,4.73,7.2.56,2.95-.06,5.95-1.75,8.43l-17.69,26.03-17.68-26.03Z" style="fill: #fff;"/>
    <path d="M43.03,73.88l-16.2-23.84c-2.93-4.32-1.81-10.2,2.5-13.13,4.32-2.93,10.2-1.81,13.13,2.51l.56.82.56-.82c2.93-4.32,8.81-5.44,13.13-2.51,4.32,2.93,5.44,8.82,2.51,13.13l-16.2,23.84Z" style="fill: #ba141a;"/>
    <path d="M119.28,51.06c-3.49-5.13-2.15-12.14,2.98-15.63,1.87-1.27,4.06-1.95,6.32-1.95,3.23,0,6.27,1.38,8.39,3.74,2.12-2.37,5.16-3.74,8.39-3.74,2.26,0,4.44.67,6.31,1.95,2.49,1.69,4.17,4.24,4.73,7.2.56,2.95-.06,5.95-1.75,8.43l-17.69,26.03-17.68-26.03Z" style="fill: #fff;"/>
    <path d="M136.97,73.88l-16.19-23.84c-2.93-4.32-1.81-10.2,2.5-13.13,4.32-2.93,10.2-1.81,13.13,2.51l.56.82.56-.82c2.94-4.32,8.82-5.44,13.13-2.51,4.32,2.93,5.44,8.82,2.51,13.13l-16.2,23.84Z" style="fill: #ba141a;"/>
    <path d="M72.31,122.48c-3.49-5.13-2.15-12.14,2.98-15.63,1.88-1.27,4.06-1.94,6.32-1.94,3.23,0,6.27,1.38,8.39,3.74,2.12-2.36,5.16-3.74,8.39-3.74,2.26,0,4.44.67,6.31,1.94,2.49,1.69,4.17,4.25,4.73,7.2.56,2.95-.06,5.95-1.75,8.43l-17.69,26.03-17.68-26.03Z" style="fill: #fff;"/>
    <path d="M90,145.3l-16.2-23.84c-2.93-4.32-1.81-10.2,2.5-13.13,4.32-2.93,10.2-1.81,13.13,2.51l.56.82.56-.82c2.93-4.32,8.81-5.44,13.13-2.51,4.32,2.94,5.44,8.82,2.51,13.13l-16.2,23.84Z" style="fill: #ba141a;"/>
    <path d="M25.35,193.9c-3.49-5.13-2.15-12.14,2.98-15.63,1.88-1.27,4.06-1.95,6.32-1.95,3.23,0,6.27,1.38,8.39,3.74,2.12-2.36,5.16-3.74,8.39-3.74,2.26,0,4.44.67,6.31,1.95,2.49,1.69,4.17,4.25,4.73,7.2.56,2.95-.06,5.95-1.75,8.43l-17.69,26.03-17.68-26.03Z" style="fill: #fff;"/>
    <path d="M43.03,216.72l-16.2-23.84c-2.93-4.32-1.81-10.2,2.5-13.13,4.32-2.93,10.2-1.81,13.13,2.51l.56.82.56-.82c2.93-4.32,8.81-5.44,13.13-2.51,4.32,2.94,5.44,8.81,2.51,13.13l-16.2,23.84Z" style="fill: #ba141a;"/>
    <path d="M118.77,194.43c-1.71-2.23-2.38-4.94-1.87-7.62.54-2.82,2.28-5.25,4.92-6.84,1.88-1.13,4.07-1.73,6.32-1.73,3.28,0,6.38,1.27,8.53,3.45,2.15-2.18,5.25-3.45,8.53-3.45,2.25,0,4.44.6,6.32,1.73,2.64,1.58,4.38,4.01,4.92,6.84.51,2.68-.16,5.39-1.87,7.62l-17.9,23.32-17.89-23.32Z" style="fill: #fff;"/>
    <path d="M136.67,214.79l-16.47-21.46c-2.98-3.89-1.84-9.18,2.54-11.82,4.39-2.64,10.37-1.63,13.35,2.26l.57.74.57-.74c2.98-3.89,8.96-4.9,13.35-2.26,4.39,2.64,5.53,7.94,2.55,11.82l-16.47,21.46Z" style="fill: #ba141a;"/>
  </g>
</svg>