<?xml version="1.0" encoding="UTF-8"?>
<svg id="Layer_1" data-name="Layer 1" xmlns="http://www.w3.org/2000/svg" viewBox="0 0 180 252">
  <defs>
    <style>
      .cls-1 {
        fill: #ba141a;
      }

      .cls-2 {
        fill: #ba2025;
      }
    </style>
  </defs>
  <g>
    <g>
      <path class="cls-1" d="M43.03,73.88l-16.2-23.84c-2.93-4.32-1.81-10.2,2.5-13.13,4.32-2.93,10.2-1.81,13.13,2.51l.56.82.56-.82c2.93-4.32,8.81-5.44,13.13-2.51,4.32,2.93,5.44,8.82,2.51,13.13l-16.2,23.84Z"/>
      <path class="cls-1" d="M136.97,73.88l-16.19-23.84c-2.93-4.32-1.81-10.2,2.5-13.13,4.32-2.93,10.2-1.81,13.13,2.51l.56.82.56-.82c2.94-4.32,8.82-5.44,13.13-2.51,4.32,2.93,5.44,8.82,2.51,13.13l-16.2,23.84Z"/>
    </g>
    <path class="cls-1" d="M90,145.3l-16.2-23.84c-2.93-4.32-1.81-10.2,2.5-13.13,4.32-2.93,10.2-1.81,13.13,2.51l.56.82.56-.82c2.93-4.32,8.81-5.44,13.13-2.51,4.32,2.94,5.44,8.82,2.51,13.13l-16.2,23.84Z"/>
    <g>
      <path class="cls-1" d="M43.03,216.72l-16.2-23.84c-2.93-4.32-1.81-10.2,2.5-13.13,4.32-2.93,10.2-1.81,13.13,2.51l.56.82.56-.82c2.93-4.32,8.81-5.44,13.13-2.51,4.32,2.94,5.44,8.81,2.51,13.13l-16.2,23.84Z"/>
      <path class="cls-1" d="M136.67,214.79l-16.47-21.46c-2.98-3.89-1.84-9.18,2.54-11.82,4.39-2.64,10.37-1.63,13.35,2.26l.57.74.57-.74c2.98-3.89,8.96-4.9,13.35-2.26,4.39,2.64,5.53,7.94,2.55,11.82l-16.47,21.46Z"/>
    </g>
  </g>
  <g>
    <path class="cls-2" d="M161.42,212.48c2.14,0,4.11.74,5.9,2.22,1.57,1.36,2.8,3.11,3.68,5.25l-3.58,1.5c-.57-1.4-1.34-2.54-2.29-3.44-1.12-1.07-2.36-1.6-3.72-1.6-1.91,0-3.5.89-4.76,2.67-1.15,1.59-1.72,3.36-1.72,5.3s.57,3.72,1.72,5.27c1.24,1.68,2.83,2.53,4.76,2.53,1.65,0,3.28-.88,4.91-2.64l2.79,1.64v11.83h-14.51v-3.93h10.69v-3.82c-1.24.57-2.52.86-3.83.86-3.01,0-5.52-1.23-7.52-3.68-1.89-2.29-2.83-4.97-2.83-8.04s.93-5.78,2.79-8.11c2.03-2.53,4.54-3.79,7.54-3.79Z"/>
    <path class="cls-2" d="M18.58,39.52c-2.14,0-4.11-.74-5.9-2.22-1.57-1.36-2.8-3.11-3.68-5.25l3.58-1.5c.57,1.4,1.34,2.54,2.29,3.44,1.12,1.07,2.36,1.6,3.72,1.6,1.91,0,3.5-.89,4.76-2.67,1.15-1.59,1.72-3.36,1.72-5.3,0-1.97-.57-3.72-1.72-5.27-1.24-1.68-2.83-2.53-4.76-2.53-1.65,0-3.28.88-4.91,2.64l-2.79-1.64v-11.83h14.51v3.93h-10.69s0,3.82,0,3.82c1.24-.57,2.52-.86,3.83-.86,3.01,0,5.52,1.23,7.52,3.68,1.89,2.29,2.83,4.97,2.83,8.04,0,3.07-.93,5.78-2.79,8.11-2.03,2.53-4.54,3.79-7.54,3.79Z"/>
  </g>
</svg>