<?xml version="1.0" encoding="UTF-8"?>
<svg id="a" data-name="Layer 1" xmlns="http://www.w3.org/2000/svg" width="2.5in" height="3.5in" xmlns:xlink="http://www.w3.org/1999/xlink" viewBox="0 0 180 252">
  <defs>
    <clipPath id="b">
      <rect y="0" width="180" height="252" rx="18" ry="18" style="fill: none;"/>
    </clipPath>
  </defs>
  <g style="clip-path: url(#b);">
    <rect x="-.51" width="180" height="252" style="fill: #fff;"/>
    <path d="M6.38,74.62h-.14c-.19.37-.28-2.94-.28-9.94,0-16.43,2.24-29.63,6.72-39.62C19.03,11.34,29.43,4.48,43.9,4.48c7.09,0,13.67,1.91,19.74,5.74,5.79,3.73,10.5,8.77,14.14,15.12l-13.02,7.84c-5.04-8.87-11.99-13.3-20.86-13.3-11.57,0-18.76,8.63-21.56,25.9,6.44-5.69,13.58-8.54,21.42-8.54,11.57,0,21,4.81,28.28,14.42,6.53,8.68,9.8,19.04,9.8,31.08,0,11.2-3.5,21.09-10.5,29.68-7.47,9.05-16.66,13.58-27.58,13.58-5.41,0-11.06-1.77-16.94-5.32-6.25-3.73-11.25-10.59-14.98-20.58-2.89-7.75-4.71-16.24-5.46-25.48ZM43.76,110.6c6.72,0,12.32-3.07,16.8-9.22,4.2-5.59,6.3-11.82,6.3-18.71,0-7.73-1.91-14.43-5.74-20.11-4.29-6.61-10.08-9.92-17.36-9.92-5.32,0-10.13,2.56-14.42,7.68-3.55,4.28-6.16,9.31-7.84,15.08.84,8.57,2.71,15.92,5.6,22.06,4.11,8.75,9.66,13.13,16.66,13.13Z" style="fill: #ba2025;"/>
    <path d="M25.35,51.06c-3.48-5.13-2.15-12.14,2.98-15.63,1.88-1.27,4.06-1.95,6.32-1.95,3.23,0,6.27,1.38,8.39,3.74,2.12-2.37,5.16-3.74,8.39-3.74,2.26,0,4.44.67,6.32,1.95,2.49,1.69,4.17,4.25,4.73,7.2.56,2.95-.06,5.95-1.75,8.43l-17.69,26.03-17.68-26.03Z" style="fill: #fff;"/>
    <path d="M43.03,73.88l-16.2-23.83c-2.93-4.32-1.81-10.2,2.5-13.13,4.32-2.93,10.2-1.81,13.13,2.51l.56.83.56-.83c2.93-4.32,8.81-5.44,13.13-2.51,4.32,2.94,5.44,8.82,2.51,13.13l-16.2,23.83Z" style="fill: #ba141a;"/>
    <path d="M119.28,51.06c-3.48-5.13-2.15-12.14,2.98-15.63,1.88-1.27,4.06-1.95,6.32-1.95,3.23,0,6.27,1.38,8.39,3.74,2.12-2.37,5.16-3.74,8.39-3.74,2.26,0,4.44.67,6.31,1.95,2.49,1.69,4.17,4.25,4.73,7.2.56,2.95-.06,5.95-1.75,8.43l-17.69,26.03-17.68-26.03Z" style="fill: #fff;"/>
    <path d="M136.97,73.88l-16.19-23.83c-2.93-4.32-1.81-10.2,2.5-13.13,4.32-2.93,10.2-1.81,13.13,2.51l.56.83.56-.83c2.94-4.32,8.82-5.44,13.13-2.51,4.32,2.94,5.44,8.82,2.51,13.13l-16.2,23.83Z" style="fill: #ba141a;"/>
    <path d="M25.35,122.48c-3.49-5.13-2.15-12.14,2.98-15.63,1.87-1.27,4.06-1.95,6.32-1.95,3.23,0,6.27,1.38,8.39,3.74,2.12-2.37,5.16-3.74,8.39-3.74,2.26,0,4.44.67,6.32,1.95,2.49,1.69,4.17,4.24,4.73,7.2.56,2.95-.06,5.95-1.75,8.43l-17.69,26.02-17.68-26.02Z" style="fill: #fff;"/>
    <path d="M43.03,145.3l-16.2-23.83c-2.93-4.32-1.81-10.2,2.5-13.13,4.32-2.94,10.2-1.81,13.13,2.51l.56.82.56-.82c2.93-4.32,8.81-5.44,13.13-2.51,4.32,2.93,5.44,8.81,2.51,13.13l-16.2,23.83Z" style="fill: #ba141a;"/>
    <path d="M119.28,122.48c-3.49-5.13-2.15-12.14,2.98-15.63,1.87-1.27,4.06-1.95,6.32-1.95,3.23,0,6.27,1.38,8.39,3.74,2.12-2.37,5.16-3.74,8.39-3.74,2.26,0,4.44.67,6.31,1.95,2.49,1.69,4.17,4.24,4.73,7.2s-.06,5.95-1.75,8.43l-17.69,26.02-17.68-26.02Z" style="fill: #fff;"/>
    <path d="M136.97,145.3l-16.19-23.83c-2.93-4.32-1.81-10.2,2.5-13.13,4.32-2.94,10.2-1.81,13.13,2.51l.56.82.56-.82c2.94-4.32,8.82-5.44,13.13-2.51,4.32,2.93,5.44,8.81,2.51,13.13l-16.2,23.83Z" style="fill: #ba141a;"/>
    <path d="M25.35,193.9c-3.49-5.13-2.15-12.14,2.98-15.63,1.88-1.27,4.06-1.94,6.32-1.94,3.23,0,6.27,1.38,8.39,3.74,2.12-2.37,5.16-3.74,8.39-3.74,2.26,0,4.44.67,6.32,1.94,2.49,1.69,4.17,4.25,4.73,7.2.56,2.95-.06,5.95-1.75,8.43l-17.69,26.02-17.68-26.03Z" style="fill: #fff;"/>
    <path d="M43.03,216.72l-16.2-23.83c-2.93-4.32-1.81-10.2,2.5-13.13,4.32-2.93,10.2-1.81,13.13,2.51l.56.83.56-.83c2.93-4.32,8.81-5.44,13.13-2.51,4.32,2.93,5.44,8.82,2.51,13.13l-16.2,23.83Z" style="fill: #ba141a;"/>
    <path d="M118.77,194.43c-1.71-2.23-2.38-4.94-1.87-7.62.53-2.78,2.32-5.28,4.92-6.84,1.88-1.13,4.07-1.73,6.32-1.73,3.28,0,6.38,1.27,8.53,3.45,2.15-2.18,5.25-3.45,8.53-3.45,2.25,0,4.44.6,6.32,1.73,2.64,1.59,4.39,4.02,4.92,6.85.51,2.68-.16,5.39-1.87,7.62l-17.9,23.32-17.89-23.32Z" style="fill: #fff;"/>
    <path d="M136.67,214.8l-16.47-21.46c-2.98-3.89-1.84-9.18,2.54-11.82,4.39-2.64,10.37-1.63,13.35,2.26l.57.74.57-.74c2.98-3.89,8.96-4.9,13.35-2.26,4.39,2.64,5.53,7.94,2.55,11.82l-16.47,21.46Z" style="fill: #ba141a;"/>
  </g>
</svg>