<?xml version="1.0" encoding="UTF-8"?>
<svg id="Layer_1" data-name="Layer 1" xmlns="http://www.w3.org/2000/svg" viewBox="0 0 180 252">
  <defs>
    <style>
      .cls-1 {
        fill: #ba141a;
      }

      .cls-2 {
        fill: #ba2025;
      }
    </style>
  </defs>
  <g>
    <path class="cls-1" d="M90,73.88l-16.2-23.84c-2.93-4.32-1.81-10.2,2.51-13.13,4.32-2.93,10.2-1.81,13.13,2.51l.56.83.56-.83c2.93-4.32,8.81-5.44,13.13-2.51,4.32,2.93,5.44,8.82,2.51,13.13l-16.2,23.84Z"/>
    <path class="cls-1" d="M90,145.3l-16.2-23.84c-2.93-4.32-1.81-10.2,2.51-13.13,4.32-2.93,10.2-1.81,13.13,2.51l.56.82.56-.82c2.93-4.32,8.81-5.44,13.13-2.51,4.32,2.93,5.44,8.82,2.51,13.13l-16.2,23.84Z"/>
    <path class="cls-1" d="M90,216.72l-16.2-23.84c-2.93-4.32-1.81-10.19,2.51-13.13,4.32-2.93,10.2-1.81,13.13,2.51l.56.82.56-.82c2.93-4.32,8.81-5.44,13.13-2.51,4.32,2.94,5.44,8.82,2.51,13.13l-16.2,23.84Z"/>
    <path class="cls-1" d="M136.97,97.69l-16.2-23.84c-2.93-4.32-1.81-10.2,2.51-13.13,4.32-2.93,10.2-1.81,13.13,2.51l.56.83.56-.83c2.93-4.32,8.81-5.44,13.13-2.51,4.32,2.94,5.44,8.82,2.51,13.13l-16.2,23.84Z"/>
    <path class="cls-1" d="M136.97,192.91l-16.2-23.84c-2.93-4.32-1.81-10.2,2.51-13.13,4.32-2.93,10.2-1.81,13.13,2.51l.56.82.56-.82c2.93-4.32,8.81-5.44,13.13-2.51,4.32,2.94,5.44,8.82,2.51,13.13l-16.2,23.84Z"/>
    <path class="cls-1" d="M43.03,97.69l-16.2-23.84c-2.93-4.32-1.81-10.2,2.5-13.13,4.32-2.93,10.2-1.81,13.13,2.51l.56.82.56-.82c2.93-4.32,8.81-5.44,13.13-2.51,4.32,2.93,5.44,8.82,2.51,13.13l-16.2,23.84Z"/>
    <path class="cls-1" d="M43.03,192.91l-16.2-23.84c-2.93-4.31-1.81-10.2,2.5-13.13,4.32-2.93,10.2-1.81,13.13,2.51l.56.83.56-.83c2.93-4.32,8.81-5.44,13.13-2.51,4.32,2.93,5.44,8.82,2.51,13.13l-16.2,23.84Z"/>
  </g>
  <g>
    <path class="cls-2" d="M9,16.97v-7.97h17.48l1.97,3.43c-4.88,7-8.28,15.77-10.19,26.3h-4.18c1.69-9.65,4.66-18.15,8.9-25.52h-9.86v3.75h-4.11Z"/>
    <path class="cls-2" d="M171,235.03v7.97h-17.48l-1.97-3.43c4.88-7,8.28-15.77,10.19-26.3h4.18c-1.69,9.65-4.66,18.15-8.9,25.52h9.86v-3.75h4.11Z"/>
  </g>
</svg>