<?xml version="1.0" encoding="UTF-8"?>
<svg id="a" data-name="Layer 1" xmlns="http://www.w3.org/2000/svg" width="2.5in" height="3.5in" xmlns:xlink="http://www.w3.org/1999/xlink" viewBox="0 0 180 252">
  <defs>
    <clipPath id="b">
      <rect y="0" width="180" height="252" rx="18" ry="18" style="fill: none;"/>
    </clipPath>
  </defs>
  <g style="clip-path: url(#b);">
    <rect x="-.51" width="180" height="252" style="fill: #fff;"/>
    <path d="M5.96,35.7V4.48h68.46l7.7,13.44c-19.13,27.44-32.43,61.79-39.9,103.04h-16.38c6.63-37.8,18.25-71.12,34.86-99.96H22.06v14.7H5.96Z" style="fill: #ba2025;"/>
    <path d="M72.31,51.06c-3.49-5.13-2.15-12.14,2.98-15.63,1.88-1.27,4.06-1.94,6.32-1.94,3.23,0,6.27,1.38,8.39,3.74,2.12-2.37,5.16-3.74,8.39-3.74,2.26,0,4.44.67,6.32,1.95,2.49,1.69,4.17,4.25,4.73,7.2.56,2.95-.06,5.95-1.75,8.43l-17.69,26.03-17.69-26.03Z" style="fill: #fff;"/>
    <path d="M90,73.88l-16.2-23.84c-2.93-4.32-1.81-10.2,2.51-13.13,4.32-2.93,10.2-1.81,13.13,2.51l.56.83.56-.83c2.93-4.32,8.81-5.44,13.13-2.51,4.32,2.93,5.44,8.82,2.51,13.13l-16.2,23.84Z" style="fill: #ba141a;"/>
    <path d="M72.31,122.48c-3.49-5.13-2.15-12.14,2.98-15.63,1.88-1.27,4.06-1.94,6.32-1.94,3.23,0,6.27,1.38,8.39,3.74,2.12-2.36,5.16-3.74,8.39-3.74,2.26,0,4.44.67,6.31,1.94,2.49,1.69,4.17,4.25,4.73,7.2.56,2.95-.06,5.95-1.75,8.43l-17.69,26.03-17.69-26.03Z" style="fill: #fff;"/>
    <path d="M90,145.3l-16.2-23.84c-2.93-4.32-1.81-10.2,2.51-13.13,4.32-2.93,10.2-1.81,13.13,2.51l.56.82.56-.82c2.93-4.32,8.81-5.44,13.13-2.51,4.32,2.93,5.44,8.82,2.51,13.13l-16.2,23.84Z" style="fill: #ba141a;"/>
    <path d="M72.31,193.89c-3.49-5.13-2.15-12.14,2.98-15.63,1.88-1.27,4.06-1.94,6.32-1.94,3.23,0,6.27,1.38,8.39,3.74,2.12-2.36,5.16-3.74,8.39-3.74,2.26,0,4.44.67,6.31,1.94,5.13,3.49,6.47,10.51,2.98,15.63l-17.69,26.03-17.69-26.03Z" style="fill: #fff;"/>
    <path d="M90,216.72l-16.2-23.84c-2.93-4.32-1.81-10.19,2.51-13.13,4.32-2.93,10.2-1.81,13.13,2.51l.56.82.56-.82c2.93-4.32,8.81-5.44,13.13-2.51,4.32,2.94,5.44,8.82,2.51,13.13l-16.2,23.84Z" style="fill: #ba141a;"/>
    <path d="M119.28,74.87c-3.49-5.13-2.15-12.14,2.98-15.63,1.88-1.27,4.06-1.95,6.32-1.95,3.23,0,6.27,1.38,8.39,3.74,2.12-2.37,5.16-3.74,8.39-3.74,2.26,0,4.44.67,6.32,1.95,5.13,3.49,6.47,10.5,2.98,15.63l-17.69,26.03-17.69-26.03Z" style="fill: #fff;"/>
    <path d="M136.97,97.69l-16.2-23.84c-2.93-4.32-1.81-10.2,2.51-13.13,4.32-2.93,10.2-1.81,13.13,2.51l.56.83.56-.83c2.93-4.32,8.81-5.44,13.13-2.51,4.32,2.94,5.44,8.82,2.51,13.13l-16.2,23.84Z" style="fill: #ba141a;"/>
    <path d="M119.28,170.09c-3.49-5.13-2.15-12.14,2.98-15.63,1.88-1.27,4.06-1.95,6.32-1.95,3.23,0,6.27,1.38,8.39,3.74,2.12-2.37,5.16-3.74,8.39-3.74,2.26,0,4.44.67,6.32,1.95,2.49,1.69,4.17,4.25,4.73,7.2.56,2.95-.06,5.95-1.75,8.43l-17.69,26.03-17.69-26.03Z" style="fill: #fff;"/>
    <path d="M136.97,192.91l-16.2-23.84c-2.93-4.32-1.81-10.2,2.51-13.13,4.32-2.93,10.2-1.81,13.13,2.51l.56.82.56-.82c2.93-4.32,8.81-5.44,13.13-2.51,4.32,2.94,5.44,8.82,2.51,13.13l-16.2,23.84Z" style="fill: #ba141a;"/>
    <path d="M25.35,74.86c-3.49-5.13-2.15-12.14,2.98-15.63,1.87-1.27,4.06-1.95,6.32-1.95,3.23,0,6.27,1.38,8.39,3.74,2.12-2.37,5.16-3.74,8.39-3.74,2.26,0,4.44.67,6.32,1.95,2.49,1.69,4.17,4.25,4.73,7.2.56,2.95-.06,5.95-1.75,8.43l-17.69,26.03-17.68-26.03Z" style="fill: #fff;"/>
    <path d="M43.03,97.69l-16.2-23.84c-2.93-4.32-1.81-10.2,2.5-13.13,4.32-2.93,10.2-1.81,13.13,2.51l.56.82.56-.82c2.93-4.32,8.81-5.44,13.13-2.51,4.32,2.93,5.44,8.82,2.51,13.13l-16.2,23.84Z" style="fill: #ba141a;"/>
    <path d="M25.35,170.09c-1.69-2.48-2.31-5.48-1.75-8.43.56-2.95,2.24-5.51,4.73-7.2,1.87-1.27,4.06-1.95,6.32-1.95,3.23,0,6.27,1.38,8.39,3.74,2.12-2.37,5.16-3.74,8.39-3.74,2.26,0,4.44.67,6.31,1.95,2.49,1.69,4.17,4.25,4.73,7.2.56,2.95-.06,5.95-1.75,8.43l-17.69,26.03-17.68-26.03Z" style="fill: #fff;"/>
    <path d="M43.03,192.91l-16.2-23.84c-2.93-4.31-1.81-10.2,2.5-13.13,4.32-2.93,10.2-1.81,13.13,2.51l.56.83.56-.83c2.93-4.32,8.81-5.44,13.13-2.51,4.32,2.93,5.44,8.82,2.51,13.13l-16.2,23.84Z" style="fill: #ba141a;"/>
  </g>
</svg>