<?xml version="1.0" encoding="UTF-8"?>
<svg id="a" data-name="Layer 1" xmlns="http://www.w3.org/2000/svg" width="2.5in" height="3.5in" xmlns:xlink="http://www.w3.org/1999/xlink" viewBox="0 0 180 252">
  <defs>
    <clipPath id="b">
      <rect y="0" width="180" height="252" rx="18" ry="18" style="fill: none;"/>
    </clipPath>
  </defs>
  <g style="clip-path: url(#b);">
    <rect x="-.51" width="180" height="252" style="fill: #fff;"/>
    <path d="M44.6,123.9c-10.36,0-19.32-3.36-26.88-10.08-7.84-6.91-11.76-15.45-11.76-25.62,0-11.95,5.18-21.51,15.54-28.7-7.47-6.16-11.2-13.95-11.2-23.38s3.5-16.66,10.5-22.82c6.72-5.88,14.65-8.82,23.8-8.82s17.08,2.94,23.8,8.82c7,6.16,10.5,13.77,10.5,22.82s-3.73,17.13-11.2,23.38c10.36,7.09,15.54,16.66,15.54,28.7,0,10.17-3.85,18.67-11.55,25.48-7.7,6.81-16.73,10.22-27.09,10.22ZM44.6,67.9c-6.07,0-11.43,1.86-16.1,5.58-5.04,3.91-7.56,8.84-7.56,14.79s2.52,10.79,7.56,14.79c4.67,3.63,10.03,5.44,16.1,5.44s11.43-1.81,16.1-5.44c5.04-4,7.56-8.93,7.56-14.79s-2.52-10.88-7.56-14.79c-4.67-3.72-10.03-5.58-16.1-5.58ZM44.6,19.88c-4.95,0-9.29,1.49-13.02,4.46-4.2,3.16-6.3,7.11-6.3,11.85s2.1,8.69,6.3,11.85c3.73,2.97,8.07,4.46,13.02,4.46s9.29-1.49,13.02-4.46c4.2-3.16,6.3-7.11,6.3-11.85s-2.1-8.69-6.3-11.85c-3.73-2.97-8.07-4.46-13.02-4.46Z" style="fill: #ba2025;"/>
    <path d="M25.35,51.06c-3.49-5.13-2.15-12.14,2.98-15.63,1.88-1.27,4.06-1.95,6.32-1.95,3.23,0,6.27,1.38,8.39,3.74,2.12-2.36,5.16-3.74,8.39-3.74,2.26,0,4.44.67,6.32,1.95,2.49,1.69,4.17,4.25,4.73,7.2.56,2.95-.06,5.95-1.75,8.43l-17.69,26.03-17.69-26.03Z" style="fill: #fff;"/>
    <path d="M43.03,73.88l-16.2-23.84c-2.93-4.32-1.81-10.2,2.5-13.13,4.32-2.93,10.2-1.81,13.13,2.51l.56.82.56-.82c2.93-4.32,8.81-5.44,13.13-2.51,4.32,2.93,5.44,8.81,2.51,13.13l-16.2,23.84Z" style="fill: #ba141a;"/>
    <path d="M119.28,51.06c-3.49-5.13-2.15-12.14,2.98-15.63,1.87-1.27,4.06-1.95,6.32-1.95,3.23,0,6.27,1.38,8.39,3.74,2.12-2.37,5.16-3.74,8.39-3.74,2.26,0,4.44.67,6.31,1.95,2.49,1.69,4.17,4.24,4.73,7.2.56,2.95-.06,5.95-1.75,8.43l-17.69,26.03-17.68-26.03Z" style="fill: #fff;"/>
    <path d="M136.97,73.88l-16.2-23.84c-2.93-4.32-1.81-10.2,2.5-13.13,4.32-2.93,10.2-1.81,13.13,2.51l.56.82.56-.82c2.94-4.32,8.82-5.44,13.13-2.51,4.32,2.93,5.44,8.81,2.51,13.13l-16.2,23.84Z" style="fill: #ba141a;"/>
    <path d="M72.31,74.86c-3.49-5.13-2.15-12.14,2.98-15.63,1.88-1.27,4.06-1.95,6.32-1.95,3.23,0,6.27,1.38,8.39,3.74,2.12-2.36,5.16-3.74,8.39-3.74,2.26,0,4.44.67,6.32,1.95,2.49,1.69,4.17,4.25,4.73,7.2.56,2.95-.06,5.95-1.75,8.43l-17.69,26.03-17.69-26.03Z" style="fill: #fff;"/>
    <path d="M90,97.69l-16.2-23.84c-2.93-4.32-1.81-10.2,2.5-13.13,4.32-2.93,10.2-1.81,13.13,2.51l.56.82.56-.82c2.93-4.32,8.81-5.44,13.13-2.51,4.32,2.94,5.44,8.82,2.51,13.13l-16.2,23.84Z" style="fill: #ba141a;"/>
    <path d="M25.35,122.48c-3.49-5.13-2.15-12.14,2.98-15.63,1.88-1.27,4.06-1.95,6.32-1.95,3.23,0,6.27,1.38,8.39,3.74,2.12-2.37,5.16-3.74,8.39-3.74,2.26,0,4.44.67,6.31,1.94,2.49,1.69,4.17,4.25,4.73,7.2.56,2.95-.06,5.95-1.75,8.43l-17.69,26.03-17.69-26.03Z" style="fill: #fff;"/>
    <path d="M43.03,145.3l-16.2-23.84c-2.93-4.32-1.81-10.2,2.5-13.13,4.32-2.93,10.2-1.81,13.13,2.51l.56.82.56-.82c2.93-4.32,8.81-5.44,13.13-2.51,4.32,2.94,5.44,8.82,2.51,13.13l-16.2,23.84Z" style="fill: #ba141a;"/>
    <path d="M119.28,122.48c-3.49-5.13-2.15-12.14,2.98-15.63,1.88-1.27,4.06-1.95,6.32-1.95,3.23,0,6.27,1.38,8.39,3.74,2.12-2.37,5.16-3.74,8.39-3.74,2.26,0,4.44.67,6.31,1.94,2.49,1.69,4.17,4.25,4.73,7.2.56,2.95-.06,5.95-1.75,8.43l-17.69,26.03-17.68-26.03Z" style="fill: #fff;"/>
    <path d="M136.97,145.3l-16.2-23.84c-2.93-4.32-1.81-10.2,2.5-13.13,4.32-2.93,10.2-1.81,13.13,2.51l.56.82.56-.82c2.94-4.32,8.82-5.44,13.13-2.51,4.32,2.94,5.44,8.82,2.51,13.13l-16.2,23.84Z" style="fill: #ba141a;"/>
    <path d="M25.35,193.9c-3.49-5.13-2.15-12.14,2.98-15.63,1.87-1.27,4.06-1.94,6.31-1.94,3.23,0,6.27,1.38,8.39,3.74,2.12-2.37,5.16-3.74,8.39-3.74,2.26,0,4.44.67,6.31,1.94,2.49,1.69,4.17,4.25,4.73,7.2.56,2.95-.06,5.95-1.75,8.43l-17.69,26.03-17.69-26.03Z" style="fill: #fff;"/>
    <path d="M43.03,216.72l-16.2-23.84c-2.93-4.32-1.81-10.2,2.5-13.13,4.32-2.93,10.2-1.81,13.13,2.51l.56.82.56-.82c2.93-4.32,8.81-5.44,13.13-2.51,4.32,2.94,5.44,8.82,2.51,13.13l-16.2,23.84Z" style="fill: #ba141a;"/>
    <path d="M118.77,194.43c-1.71-2.23-2.38-4.94-1.87-7.62.53-2.78,2.32-5.28,4.92-6.84,1.88-1.13,4.07-1.73,6.32-1.73,3.28,0,6.38,1.27,8.53,3.45,2.15-2.18,5.25-3.45,8.53-3.45,2.25,0,4.44.6,6.32,1.73,2.64,1.59,4.38,4.02,4.92,6.84.51,2.68-.16,5.39-1.87,7.62l-17.89,23.32-17.89-23.32Z" style="fill: #fff;"/>
    <path d="M136.67,214.8l-16.47-21.46c-2.98-3.89-1.84-9.18,2.54-11.82,4.39-2.64,10.37-1.63,13.35,2.26l.57.74.57-.74c2.98-3.89,8.96-4.9,13.35-2.26,4.39,2.64,5.53,7.94,2.55,11.82l-16.47,21.46Z" style="fill: #ba141a;"/>
    <path d="M72.31,170.09c-3.49-5.13-2.15-12.14,2.98-15.63,1.87-1.27,4.06-1.95,6.32-1.95,3.23,0,6.27,1.38,8.39,3.74,2.12-2.36,5.16-3.74,8.39-3.74,2.26,0,4.44.67,6.32,1.95,2.49,1.69,4.17,4.25,4.73,7.2.56,2.95-.06,5.95-1.75,8.43l-17.69,26.03-17.69-26.03Z" style="fill: #fff;"/>
    <path d="M90,192.92l-16.2-23.84c-2.93-4.32-1.81-10.2,2.5-13.13,4.32-2.93,10.2-1.81,13.13,2.51l.56.82.56-.82c2.93-4.32,8.81-5.44,13.13-2.51,4.32,2.94,5.44,8.82,2.51,13.13l-16.2,23.84Z" style="fill: #ba141a;"/>
  </g>
</svg>