<?xml version="1.0" encoding="UTF-8"?>
<svg id="a" data-name="Layer 1" xmlns="http://www.w3.org/2000/svg" width="2.5in" height="3.5in" xmlns:xlink="http://www.w3.org/1999/xlink" viewBox="0 0 180 252">
  <defs>
    <clipPath id="b">
      <rect y="0" width="180" height="252" rx="18" ry="18" style="fill: none;"/>
    </clipPath>
  </defs>
  <g style="clip-path: url(#b);">
    <rect x="-.51" width="180" height="252" style="fill: #fff;"/>
    <path d="M66.3,81.34c-6.53,5.23-13.91,7.84-22.12,7.84-11.01,0-20.21-4.34-27.58-13.02-7.09-8.4-10.64-18.15-10.64-29.26s3.55-20.95,10.64-29.26c7.37-8.77,16.57-13.16,27.58-13.16,13.63,0,23.85,7.05,30.66,21.14,5.23,10.92,7.84,24.03,7.84,39.34,0,16.05-2.57,29.35-7.7,39.9-6.72,13.91-17.27,20.86-31.64,20.86s-25.11-7.19-33.32-21.56l13.16-7.7c5.23,9.24,11.95,13.86,20.16,13.86,12.23,0,19.88-9.66,22.96-28.98ZM44.11,19.88c-6.74,0-12.36,2.89-16.85,8.66-4.21,5.31-6.32,11.4-6.32,18.29s2.11,12.99,6.32,18.29c4.49,5.77,10.11,8.66,16.85,8.66,5.71,0,10.67-2.19,14.89-6.56,3.75-3.91,6.32-8.8,7.72-14.66-2.72-21.78-10.25-32.67-22.61-32.67Z" style="fill: #ba2025;"/>
    <path d="M25.35,51.06c-3.49-5.13-2.15-12.15,2.98-15.63,1.88-1.27,4.06-1.94,6.32-1.94,3.23,0,6.27,1.38,8.39,3.74,2.12-2.37,5.16-3.74,8.39-3.74,2.26,0,4.44.67,6.31,1.94,2.49,1.69,4.17,4.25,4.73,7.2.56,2.95-.06,5.95-1.75,8.43l-17.69,26.03-17.69-26.03Z" style="fill: #fff;"/>
    <path d="M43.03,73.88l-16.2-23.84c-2.93-4.32-1.81-10.2,2.5-13.13,4.32-2.93,10.2-1.81,13.13,2.51l.56.82.56-.82c2.93-4.32,8.81-5.44,13.13-2.51,4.32,2.94,5.44,8.82,2.51,13.13l-16.2,23.84Z" style="fill: #ba141a;"/>
    <path d="M119.28,51.06c-3.49-5.13-2.15-12.14,2.98-15.63,1.88-1.27,4.06-1.94,6.32-1.94,3.23,0,6.27,1.38,8.39,3.74,2.12-2.37,5.16-3.74,8.39-3.74,2.26,0,4.44.67,6.31,1.95,2.49,1.69,4.17,4.25,4.73,7.2.56,2.95-.06,5.95-1.75,8.43l-17.68,26.03-17.68-26.03Z" style="fill: #fff;"/>
    <path d="M136.97,73.88l-16.19-23.84c-2.93-4.32-1.81-10.2,2.5-13.13,4.32-2.93,10.2-1.81,13.13,2.51l.56.82.56-.82c2.94-4.32,8.82-5.44,13.13-2.51,4.32,2.94,5.44,8.82,2.51,13.13l-16.2,23.84Z" style="fill: #ba141a;"/>
    <path d="M25.35,98.67c-3.49-5.13-2.15-12.14,2.98-15.63,1.88-1.27,4.06-1.94,6.32-1.94,3.23,0,6.27,1.38,8.39,3.74,2.12-2.37,5.16-3.74,8.39-3.74,2.26,0,4.44.67,6.31,1.94,2.49,1.69,4.17,4.25,4.73,7.2.56,2.95-.06,5.95-1.75,8.43l-17.69,26.03-17.69-26.03Z" style="fill: #fff;"/>
    <path d="M43.03,121.49l-16.2-23.84c-2.93-4.32-1.81-10.2,2.5-13.13,4.32-2.93,10.2-1.81,13.13,2.51l.56.82.56-.82c2.93-4.32,8.81-5.44,13.13-2.51,4.32,2.94,5.44,8.82,2.51,13.13l-16.2,23.84Z" style="fill: #ba141a;"/>
    <path d="M118.77,99.21c-1.71-2.23-2.38-4.94-1.87-7.62.53-2.82,2.28-5.26,4.92-6.84,1.88-1.13,4.07-1.73,6.32-1.73,3.28,0,6.38,1.27,8.53,3.45,2.15-2.18,5.25-3.45,8.53-3.45,2.25,0,4.44.6,6.32,1.73,2.6,1.57,4.39,4.06,4.92,6.85.51,2.68-.16,5.39-1.87,7.62l-17.9,23.32-17.9-23.32Z" style="fill: #fff;"/>
    <path d="M136.67,119.57l-16.47-21.46c-2.98-3.89-1.84-9.18,2.54-11.82,4.39-2.64,10.37-1.63,13.35,2.26l.57.74.57-.74c2.98-3.89,8.96-4.9,13.35-2.26,4.39,2.64,5.53,7.94,2.55,11.82l-16.47,21.46Z" style="fill: #ba141a;"/>
    <path d="M72.31,122.48c-3.49-5.13-2.15-12.14,2.98-15.63,1.88-1.27,4.06-1.95,6.32-1.95,3.23,0,6.27,1.38,8.39,3.74,2.12-2.37,5.16-3.74,8.39-3.74,2.26,0,4.44.67,6.31,1.95,2.49,1.69,4.17,4.25,4.73,7.2.56,2.95-.06,5.95-1.75,8.43l-17.69,26.03-17.69-26.03Z" style="fill: #fff;"/>
    <path d="M90,145.3l-16.2-23.84c-2.93-4.32-1.81-10.2,2.51-13.13,4.32-2.93,10.2-1.81,13.13,2.51l.56.82.56-.82c2.93-4.32,8.81-5.44,13.13-2.51,4.32,2.94,5.44,8.82,2.51,13.13l-16.2,23.84Z" style="fill: #ba141a;"/>
    <path d="M25.35,146.28c-3.49-5.13-2.15-12.14,2.98-15.63,1.88-1.27,4.06-1.95,6.32-1.95,3.23,0,6.27,1.38,8.39,3.74,2.12-2.37,5.16-3.74,8.39-3.74,2.26,0,4.44.67,6.32,1.95,2.49,1.69,4.17,4.25,4.73,7.2.56,2.95-.06,5.95-1.75,8.43l-17.69,26.03-17.69-26.03Z" style="fill: #fff;"/>
    <path d="M43.03,169.11l-16.2-23.84c-2.93-4.32-1.81-10.2,2.5-13.13,4.32-2.93,10.2-1.81,13.13,2.51l.56.82.56-.82c2.93-4.32,8.81-5.44,13.13-2.51,4.32,2.94,5.44,8.82,2.51,13.13l-16.2,23.84Z" style="fill: #ba141a;"/>
    <path d="M119.28,146.28c-3.49-5.13-2.15-12.14,2.98-15.63,1.87-1.27,4.06-1.95,6.32-1.95,3.23,0,6.27,1.38,8.39,3.74,2.12-2.37,5.16-3.74,8.39-3.74,2.26,0,4.44.67,6.31,1.95,2.49,1.69,4.17,4.25,4.73,7.2.56,2.95-.06,5.95-1.75,8.43l-17.68,26.03-17.68-26.03Z" style="fill: #fff;"/>
    <path d="M136.97,169.11l-16.19-23.84c-2.93-4.32-1.81-10.2,2.5-13.13,4.32-2.93,10.2-1.81,13.13,2.51l.56.82.56-.82c2.94-4.32,8.82-5.44,13.13-2.51,4.32,2.94,5.44,8.82,2.51,13.13l-16.2,23.84Z" style="fill: #ba141a;"/>
    <path d="M25.35,193.9c-3.49-5.13-2.15-12.15,2.98-15.63,1.88-1.27,4.06-1.95,6.32-1.95,3.23,0,6.27,1.38,8.39,3.74,2.12-2.36,5.16-3.74,8.39-3.74,2.26,0,4.44.67,6.32,1.95,2.49,1.69,4.17,4.25,4.73,7.2.56,2.95-.06,5.95-1.75,8.43l-17.69,26.03-17.69-26.03Z" style="fill: #fff;"/>
    <path d="M43.03,216.72l-16.2-23.84c-2.93-4.32-1.81-10.2,2.5-13.13,4.32-2.93,10.2-1.81,13.13,2.51l.56.82.56-.82c2.93-4.32,8.81-5.44,13.13-2.51,4.32,2.93,5.44,8.82,2.51,13.13l-16.2,23.84Z" style="fill: #ba141a;"/>
    <path d="M118.77,194.43c-1.71-2.23-2.38-4.94-1.87-7.62.53-2.82,2.28-5.25,4.92-6.84,1.88-1.13,4.07-1.73,6.32-1.73,3.28,0,6.38,1.27,8.53,3.45,2.15-2.18,5.25-3.45,8.53-3.45,2.25,0,4.44.6,6.32,1.73,2.64,1.59,4.38,4.02,4.92,6.84.51,2.68-.16,5.39-1.87,7.62l-17.9,23.32-17.9-23.32Z" style="fill: #fff;"/>
    <path d="M136.67,214.8l-16.47-21.46c-2.98-3.89-1.84-9.18,2.54-11.82,4.39-2.64,10.37-1.63,13.35,2.26l.57.74.57-.74c2.98-3.89,8.96-4.9,13.35-2.26,4.39,2.64,5.53,7.94,2.55,11.82l-16.47,21.46Z" style="fill: #ba141a;"/>
  </g>
</svg>