<?xml version="1.0" encoding="UTF-8"?>
<svg id="Layer_1" data-name="Layer 1" xmlns="http://www.w3.org/2000/svg" viewBox="0 0 180 252">
  <defs>
    <style>
      .cls-1 {
        fill: #ba141a;
      }

      .cls-2 {
        fill: #ba2025;
      }
    </style>
  </defs>
  <g>
    <g>
      <path class="cls-1" d="M43.03,73.88l-16.2-23.84c-2.93-4.32-1.81-10.2,2.5-13.13,4.32-2.93,10.2-1.81,13.13,2.51l.56.82.56-.82c2.93-4.32,8.81-5.44,13.13-2.51,4.32,2.94,5.44,8.82,2.51,13.13l-16.2,23.84Z"/>
      <path class="cls-1" d="M136.97,73.88l-16.19-23.84c-2.93-4.32-1.81-10.2,2.5-13.13,4.32-2.93,10.2-1.81,13.13,2.51l.56.82.56-.82c2.94-4.32,8.82-5.44,13.13-2.51,4.32,2.94,5.44,8.82,2.51,13.13l-16.2,23.84Z"/>
    </g>
    <g>
      <path class="cls-1" d="M43.03,121.49l-16.2-23.84c-2.93-4.32-1.81-10.2,2.5-13.13,4.32-2.93,10.2-1.81,13.13,2.51l.56.82.56-.82c2.93-4.32,8.81-5.44,13.13-2.51,4.32,2.94,5.44,8.82,2.51,13.13l-16.2,23.84Z"/>
      <path class="cls-1" d="M136.67,119.57l-16.47-21.46c-2.98-3.89-1.84-9.18,2.54-11.82,4.39-2.64,10.37-1.63,13.35,2.26l.57.74.57-.74c2.98-3.89,8.96-4.9,13.35-2.26,4.39,2.64,5.53,7.94,2.55,11.82l-16.47,21.46Z"/>
    </g>
    <path class="cls-1" d="M90,145.3l-16.2-23.84c-2.93-4.32-1.81-10.2,2.51-13.13,4.32-2.93,10.2-1.81,13.13,2.51l.56.82.56-.82c2.93-4.32,8.81-5.44,13.13-2.51,4.32,2.94,5.44,8.82,2.51,13.13l-16.2,23.84Z"/>
    <g>
      <path class="cls-1" d="M43.03,169.11l-16.2-23.84c-2.93-4.32-1.81-10.2,2.5-13.13,4.32-2.93,10.2-1.81,13.13,2.51l.56.82.56-.82c2.93-4.32,8.81-5.44,13.13-2.51,4.32,2.94,5.44,8.82,2.51,13.13l-16.2,23.84Z"/>
      <path class="cls-1" d="M136.97,169.11l-16.19-23.84c-2.93-4.32-1.81-10.2,2.5-13.13,4.32-2.93,10.2-1.81,13.13,2.51l.56.82.56-.82c2.94-4.32,8.82-5.44,13.13-2.51,4.32,2.94,5.44,8.82,2.51,13.13l-16.2,23.84Z"/>
    </g>
    <g>
      <path class="cls-1" d="M43.03,216.72l-16.2-23.84c-2.93-4.32-1.81-10.2,2.5-13.13,4.32-2.93,10.2-1.81,13.13,2.51l.56.82.56-.82c2.93-4.32,8.81-5.44,13.13-2.51,4.32,2.93,5.44,8.82,2.51,13.13l-16.2,23.84Z"/>
      <path class="cls-1" d="M136.67,214.8l-16.47-21.46c-2.98-3.89-1.84-9.18,2.54-11.82,4.39-2.64,10.37-1.63,13.35,2.26l.57.74.57-.74c2.98-3.89,8.96-4.9,13.35-2.26,4.39,2.64,5.53,7.94,2.55,11.82l-16.47,21.46Z"/>
    </g>
  </g>
  <g>
    <path class="cls-2" d="M24.4,28.62c-1.67,1.33-3.55,2-5.65,2-2.81,0-5.16-1.11-7.04-3.32-1.81-2.14-2.72-4.63-2.72-7.47s.91-5.35,2.72-7.47c1.88-2.24,4.23-3.36,7.04-3.36,3.48,0,6.09,1.8,7.83,5.4,1.33,2.79,2,6.14,2,10.04,0,4.1-.66,7.49-1.97,10.19-1.72,3.55-4.41,5.32-8.08,5.32s-6.41-1.83-8.51-5.5l3.36-1.97c1.33,2.36,3.05,3.54,5.15,3.54,3.12,0,5.07-2.47,5.86-7.4ZM18.74,12.93c-1.72,0-3.15.74-4.3,2.21-1.08,1.35-1.61,2.91-1.61,4.67s.54,3.32,1.61,4.67c1.15,1.47,2.58,2.21,4.3,2.21,1.46,0,2.72-.56,3.8-1.68.96-1,1.61-2.25,1.97-3.74-.69-5.56-2.62-8.34-5.77-8.34Z"/>
    <path class="cls-2" d="M155.6,223.38c1.67-1.33,3.55-2,5.65-2,2.81,0,5.16,1.11,7.04,3.32,1.81,2.14,2.72,4.63,2.72,7.47s-.91,5.35-2.72,7.47c-1.88,2.24-4.23,3.36-7.04,3.36-3.48,0-6.09-1.8-7.83-5.4-1.33-2.79-2-6.14-2-10.04,0-4.1.66-7.49,1.97-10.19,1.72-3.55,4.41-5.32,8.08-5.32s6.41,1.83,8.51,5.5l-3.36,1.97c-1.33-2.36-3.05-3.54-5.15-3.54-3.12,0-5.07,2.47-5.86,7.4ZM161.26,239.07c1.72,0,3.15-.74,4.3-2.21,1.08-1.35,1.61-2.91,1.61-4.67s-.54-3.32-1.61-4.67c-1.15-1.47-2.58-2.21-4.3-2.21-1.46,0-2.72.56-3.8,1.68-.96,1-1.61,2.25-1.97,3.74.69,5.56,2.62,8.34,5.77,8.34Z"/>
  </g>
</svg>