<?xml version="1.0" encoding="UTF-8"?>
<svg id="a" data-name="Layer 1" xmlns="http://www.w3.org/2000/svg" width="2.5in" height="3.5in" xmlns:xlink="http://www.w3.org/1999/xlink" viewBox="0 0 180 252">
  <defs>
    <clipPath id="b">
      <rect y="0" width="180" height="252" rx="18" ry="18" style="fill: none;"/>
    </clipPath>
  </defs>
  <g style="clip-path: url(#b);">
    <rect x="-.51" width="180" height="252" style="fill: #fff;"/>
    <path d="M5.96,6.58h14.98v116.9H5.96V6.58ZM54.26,126c-6.81,0-12.62-2.47-17.43-7.42-4.81-4.95-7.21-10.87-7.21-17.78V29.68c0-6.81,2.4-12.72,7.21-17.71,4.81-4.99,10.62-7.49,17.43-7.49s12.76,2.5,17.57,7.49c4.81,4.99,7.21,10.9,7.21,17.71v71.12c0,6.91-2.4,12.83-7.21,17.78-4.81,4.95-10.66,7.42-17.57,7.42ZM54.26,19.88c-2.65,0-4.93.98-6.82,2.94-1.89,1.96-2.84,4.24-2.84,6.85v71.01c0,2.7.94,5.03,2.84,6.99,1.89,1.96,4.17,2.94,6.82,2.94s5.06-.98,6.96-2.94c1.89-1.96,2.84-4.29,2.84-6.99V29.66c0-2.61-.95-4.89-2.84-6.85-1.89-1.96-4.21-2.94-6.96-2.94Z" style="fill: #ba2025;"/>
    <path d="M25.35,51.06c-3.49-5.13-2.15-12.14,2.98-15.63,1.88-1.27,4.06-1.95,6.32-1.95,3.23,0,6.27,1.38,8.39,3.74,2.12-2.37,5.16-3.74,8.39-3.74,2.26,0,4.44.67,6.31,1.95,2.49,1.69,4.17,4.25,4.73,7.2.56,2.95-.06,5.95-1.75,8.43l-17.69,26.03-17.68-26.03Z" style="fill: #fff;"/>
    <path d="M43.03,73.88l-16.2-23.84c-2.93-4.32-1.81-10.2,2.5-13.13,4.32-2.93,10.2-1.81,13.13,2.51l.56.82.56-.82c2.93-4.32,8.82-5.44,13.13-2.51,4.32,2.94,5.44,8.82,2.51,13.13l-16.2,23.84Z" style="fill: #ba141a;"/>
    <path d="M119.28,51.06c-3.49-5.13-2.15-12.14,2.98-15.63,1.88-1.27,4.06-1.95,6.32-1.95,3.23,0,6.27,1.38,8.39,3.74,2.12-2.37,5.16-3.74,8.39-3.74,2.26,0,4.44.67,6.31,1.95,2.49,1.69,4.17,4.25,4.73,7.2.56,2.95-.06,5.95-1.75,8.43l-17.69,26.03-17.69-26.03Z" style="fill: #fff;"/>
    <path d="M136.97,73.88l-16.2-23.84c-2.93-4.32-1.81-10.2,2.5-13.13,4.32-2.93,10.2-1.81,13.13,2.51l.56.82.56-.82c2.94-4.32,8.82-5.44,13.13-2.51,4.32,2.94,5.44,8.82,2.51,13.13l-16.2,23.84Z" style="fill: #ba141a;"/>
    <path d="M25.35,98.67c-3.49-5.13-2.15-12.14,2.98-15.63,1.88-1.27,4.06-1.95,6.32-1.95,3.23,0,6.27,1.38,8.39,3.74,2.12-2.37,5.16-3.74,8.39-3.74,2.26,0,4.44.67,6.31,1.95,2.49,1.69,4.17,4.25,4.73,7.2s-.06,5.95-1.75,8.43l-17.69,26.03-17.68-26.03Z" style="fill: #fff;"/>
    <path d="M43.03,121.49l-16.2-23.84c-2.93-4.32-1.81-10.2,2.5-13.13,4.32-2.93,10.2-1.81,13.13,2.51l.56.82.56-.82c2.93-4.32,8.82-5.44,13.13-2.51,4.32,2.94,5.44,8.82,2.51,13.13l-16.2,23.84Z" style="fill: #ba141a;"/>
    <path d="M118.77,99.21c-1.71-2.23-2.38-4.94-1.87-7.62.53-2.82,2.28-5.25,4.91-6.84,1.88-1.13,4.07-1.73,6.32-1.73,3.28,0,6.38,1.27,8.53,3.45,2.15-2.18,5.25-3.45,8.53-3.45,2.25,0,4.44.6,6.32,1.73,2.6,1.56,4.39,4.06,4.92,6.85.51,2.68-.16,5.39-1.87,7.62l-17.9,23.32-17.9-23.32Z" style="fill: #fff;"/>
    <path d="M136.67,119.57l-16.47-21.46c-2.98-3.89-1.84-9.18,2.55-11.82,4.39-2.64,10.37-1.63,13.35,2.26l.57.74.57-.74c2.98-3.89,8.96-4.9,13.35-2.26,4.39,2.64,5.53,7.94,2.55,11.82l-16.47,21.46Z" style="fill: #ba141a;"/>
    <path d="M72.31,74.86c-3.49-5.13-2.15-12.14,2.98-15.63,1.88-1.27,4.06-1.95,6.32-1.95,3.23,0,6.27,1.38,8.39,3.74,2.12-2.37,5.16-3.74,8.39-3.74,2.26,0,4.44.67,6.31,1.95,2.49,1.69,4.17,4.25,4.73,7.2.56,2.95-.06,5.95-1.75,8.43l-17.69,26.03-17.69-26.03Z" style="fill: #fff;"/>
    <path d="M90,97.69l-16.2-23.84c-2.93-4.32-1.81-10.2,2.51-13.13,4.32-2.93,10.2-1.81,13.13,2.51l.56.82.56-.82c2.93-4.32,8.81-5.44,13.13-2.51,4.32,2.94,5.44,8.82,2.51,13.13l-16.2,23.84Z" style="fill: #ba141a;"/>
    <path d="M25.35,146.28c-3.49-5.13-2.15-12.14,2.98-15.63,1.88-1.27,4.06-1.95,6.32-1.95,3.23,0,6.27,1.38,8.39,3.74,2.12-2.37,5.16-3.74,8.39-3.74,2.26,0,4.44.67,6.32,1.95,2.49,1.69,4.17,4.25,4.73,7.2.56,2.95-.06,5.95-1.75,8.43l-17.69,26.03-17.69-26.03Z" style="fill: #fff;"/>
    <path d="M43.03,169.11l-16.2-23.84c-2.93-4.32-1.81-10.2,2.5-13.13,4.32-2.93,10.2-1.81,13.13,2.51l.56.82.56-.82c2.93-4.32,8.81-5.44,13.13-2.51,4.32,2.93,5.44,8.82,2.51,13.13l-16.2,23.84Z" style="fill: #ba141a;"/>
    <path d="M119.28,146.28c-3.49-5.13-2.15-12.14,2.98-15.63,1.88-1.27,4.06-1.95,6.32-1.95,3.23,0,6.27,1.38,8.39,3.74,2.12-2.37,5.16-3.74,8.39-3.74,2.26,0,4.44.67,6.31,1.95,2.49,1.69,4.17,4.25,4.73,7.2.56,2.95-.06,5.95-1.75,8.43l-17.69,26.03-17.68-26.03Z" style="fill: #fff;"/>
    <path d="M136.97,169.11l-16.19-23.84c-2.93-4.32-1.81-10.2,2.5-13.13,4.32-2.93,10.2-1.81,13.13,2.51l.56.82.56-.82c2.94-4.32,8.82-5.44,13.13-2.51,4.32,2.93,5.44,8.82,2.51,13.13l-16.2,23.84Z" style="fill: #ba141a;"/>
    <path d="M25.35,193.9c-3.49-5.13-2.15-12.14,2.98-15.63,1.88-1.27,4.06-1.95,6.32-1.95,3.23,0,6.27,1.38,8.39,3.74,2.12-2.37,5.16-3.74,8.39-3.74,2.26,0,4.44.67,6.31,1.95,2.49,1.69,4.17,4.25,4.73,7.2.56,2.95-.06,5.95-1.75,8.43l-17.69,26.03-17.69-26.03Z" style="fill: #fff;"/>
    <path d="M43.03,216.72l-16.2-23.84c-2.93-4.32-1.81-10.2,2.5-13.13,4.32-2.93,10.2-1.81,13.13,2.51l.56.82.56-.82c2.93-4.32,8.81-5.44,13.13-2.51,4.32,2.94,5.44,8.82,2.51,13.13l-16.2,23.84Z" style="fill: #ba141a;"/>
    <path d="M118.77,194.43c-1.71-2.23-2.38-4.94-1.87-7.62.53-2.82,2.28-5.25,4.92-6.84,1.88-1.13,4.07-1.73,6.32-1.73,3.28,0,6.38,1.27,8.53,3.45,2.15-2.18,5.25-3.45,8.53-3.45,2.25,0,4.44.6,6.32,1.73,2.6,1.56,4.39,4.06,4.92,6.84.51,2.68-.16,5.39-1.87,7.62l-17.9,23.32-17.9-23.32Z" style="fill: #fff;"/>
    <path d="M136.67,214.8l-16.47-21.46c-2.98-3.89-1.84-9.18,2.54-11.82,4.39-2.64,10.37-1.63,13.35,2.26l.57.74.57-.74c2.98-3.89,8.96-4.9,13.35-2.26,4.39,2.64,5.53,7.94,2.55,11.82l-16.47,21.46Z" style="fill: #ba141a;"/>
    <path d="M72.31,170.09c-3.49-5.13-2.15-12.14,2.98-15.63,1.88-1.27,4.06-1.95,6.32-1.95,3.23,0,6.27,1.38,8.39,3.74,2.12-2.37,5.16-3.74,8.39-3.74,2.26,0,4.44.67,6.32,1.95,2.49,1.69,4.17,4.25,4.73,7.2.56,2.95-.06,5.95-1.75,8.43l-17.69,26.03-17.69-26.03Z" style="fill: #fff;"/>
    <path d="M90,192.91l-16.2-23.84c-2.93-4.32-1.81-10.2,2.5-13.13,4.32-2.93,10.2-1.81,13.13,2.51l.56.82.56-.82c2.93-4.32,8.81-5.44,13.13-2.51,4.32,2.94,5.44,8.82,2.51,13.13l-16.2,23.84Z" style="fill: #ba141a;"/>
  </g>
</svg>