<?xml version="1.0" encoding="UTF-8"?>
<svg id="Layer_1" data-name="Layer 1" xmlns="http://www.w3.org/2000/svg" viewBox="0 0 180 252">
  <defs>
    <style>
      .cls-1 {
        fill: #ba141a;
      }

      .cls-2 {
        fill: #ba2025;
      }
    </style>
  </defs>
  <g>
    <g>
      <path class="cls-1" d="M43.03,73.88l-16.2-23.84c-2.93-4.32-1.81-10.2,2.5-13.13,4.32-2.93,10.2-1.81,13.13,2.51l.56.82.56-.82c2.93-4.32,8.82-5.44,13.13-2.51,4.32,2.94,5.44,8.82,2.51,13.13l-16.2,23.84Z"/>
      <path class="cls-1" d="M136.97,73.88l-16.2-23.84c-2.93-4.32-1.81-10.2,2.5-13.13,4.32-2.93,10.2-1.81,13.13,2.51l.56.82.56-.82c2.94-4.32,8.82-5.44,13.13-2.51,4.32,2.94,5.44,8.82,2.51,13.13l-16.2,23.84Z"/>
    </g>
    <g>
      <path class="cls-1" d="M43.03,121.49l-16.2-23.84c-2.93-4.32-1.81-10.2,2.5-13.13,4.32-2.93,10.2-1.81,13.13,2.51l.56.82.56-.82c2.93-4.32,8.82-5.44,13.13-2.51,4.32,2.94,5.44,8.82,2.51,13.13l-16.2,23.84Z"/>
      <path class="cls-1" d="M136.67,119.57l-16.47-21.46c-2.98-3.89-1.84-9.18,2.55-11.82,4.39-2.64,10.37-1.63,13.35,2.26l.57.74.57-.74c2.98-3.89,8.96-4.9,13.35-2.26,4.39,2.64,5.53,7.94,2.55,11.82l-16.47,21.46Z"/>
    </g>
    <path class="cls-1" d="M90,97.69l-16.2-23.84c-2.93-4.32-1.81-10.2,2.51-13.13,4.32-2.93,10.2-1.81,13.13,2.51l.56.82.56-.82c2.93-4.32,8.81-5.44,13.13-2.51,4.32,2.94,5.44,8.82,2.51,13.13l-16.2,23.84Z"/>
    <g>
      <path class="cls-1" d="M43.03,169.11l-16.2-23.84c-2.93-4.32-1.81-10.2,2.5-13.13,4.32-2.93,10.2-1.81,13.13,2.51l.56.82.56-.82c2.93-4.32,8.81-5.44,13.13-2.51,4.32,2.93,5.44,8.82,2.51,13.13l-16.2,23.84Z"/>
      <path class="cls-1" d="M136.97,169.11l-16.19-23.84c-2.93-4.32-1.81-10.2,2.5-13.13,4.32-2.93,10.2-1.81,13.13,2.51l.56.82.56-.82c2.94-4.32,8.82-5.44,13.13-2.51,4.32,2.93,5.44,8.82,2.51,13.13l-16.2,23.84Z"/>
    </g>
    <g>
      <path class="cls-1" d="M43.03,216.72l-16.2-23.84c-2.93-4.32-1.81-10.2,2.5-13.13,4.32-2.93,10.2-1.81,13.13,2.51l.56.82.56-.82c2.93-4.32,8.81-5.44,13.13-2.51,4.32,2.94,5.44,8.82,2.51,13.13l-16.2,23.84Z"/>
      <path class="cls-1" d="M136.67,214.8l-16.47-21.46c-2.98-3.89-1.84-9.18,2.54-11.82,4.39-2.64,10.37-1.63,13.35,2.26l.57.74.57-.74c2.98-3.89,8.96-4.9,13.35-2.26,4.39,2.64,5.53,7.94,2.55,11.82l-16.47,21.46Z"/>
    </g>
    <path class="cls-1" d="M90,192.91l-16.2-23.84c-2.93-4.32-1.81-10.2,2.5-13.13,4.32-2.93,10.2-1.81,13.13,2.51l.56.82.56-.82c2.93-4.32,8.81-5.44,13.13-2.51,4.32,2.94,5.44,8.82,2.51,13.13l-16.2,23.84Z"/>
  </g>
  <g>
    <path class="cls-2" d="M9,9.54h3.82v29.84h-3.82V9.54ZM21.33,40.02c-1.74,0-3.22-.63-4.45-1.89-1.23-1.26-1.84-2.78-1.84-4.54V15.43c0-1.74.61-3.25,1.84-4.52,1.23-1.27,2.71-1.91,4.45-1.91s3.26.64,4.48,1.91c1.23,1.28,1.84,2.78,1.84,4.52v18.15c0,1.76-.61,3.28-1.84,4.54-1.23,1.26-2.72,1.89-4.48,1.89ZM21.33,12.93c-.68,0-1.26.25-1.74.75-.48.5-.72,1.08-.72,1.75v18.13c0,.69.24,1.28.72,1.78.48.5,1.06.75,1.74.75s1.29-.25,1.78-.75c.48-.5.73-1.09.73-1.78V15.43c0-.67-.24-1.25-.73-1.75-.48-.5-1.08-.75-1.78-.75Z"/>
    <path class="cls-2" d="M171,242.46h-3.82v-29.84h3.82v29.84ZM158.67,211.98c1.74,0,3.22.63,4.45,1.89,1.23,1.26,1.84,2.78,1.84,4.54v18.15c0,1.74-.61,3.25-1.84,4.52-1.23,1.27-2.71,1.91-4.45,1.91s-3.26-.64-4.48-1.91c-1.23-1.28-1.84-2.78-1.84-4.52v-18.15c0-1.76.61-3.28,1.84-4.54,1.23-1.26,2.72-1.89,4.48-1.89ZM158.67,239.07c.68,0,1.26-.25,1.74-.75.48-.5.72-1.08.72-1.75v-18.13c0-.69-.24-1.28-.72-1.78-.48-.5-1.06-.75-1.74-.75s-1.29.25-1.78.75c-.48.5-.73,1.09-.73,1.78v18.13c0,.67.24,1.25.73,1.75.48.5,1.08.75,1.78.75Z"/>
  </g>
</svg>