<?xml version="1.0" encoding="UTF-8"?>
<svg id="a" data-name="Layer 1" xmlns="http://www.w3.org/2000/svg" width="2.5in" height="3.5in" xmlns:xlink="http://www.w3.org/1999/xlink" viewBox="0 0 180 252">
  <defs>
    <clipPath id="b">
      <rect y="0" width="180" height="252" rx="18" ry="18" style="fill: none;"/>
    </clipPath>
    <clipPath id="c">
      <path d="M138.84,184.96c0-26.13-21.19-47.32-47.31-47.32s-47.31,21.19-47.31,47.32c0,12.18,4.61,23.29,12.17,31.67h70.29c7.56-8.39,12.17-19.49,12.17-31.67Z" style="fill: #fff; stroke: #010101; stroke-miterlimit: 10;"/>
    </clipPath>
    <pattern id="d" data-name="New Pattern Swatch 1 copy" x="0" y="0" width="10.8" height="16.2" patternTransform="translate(-702 -306)" patternUnits="userSpaceOnUse" viewBox="0 0 10.8 16.2">
      <g>
        <rect y="0" width="10.8" height="16.2" style="fill: none;"/>
        <circle cx="10.8" cy="16.2" r="2.87" style="fill: #ba2025;"/>
        <circle cx="0" cy="16.2" r="2.87" style="fill: #ba2025;"/>
        <circle cx="5.4" cy="8.1" r="2.87" style="fill: #ba2025;"/>
        <circle cx="10.8" cy="0" r="2.87" style="fill: #ba2025;"/>
        <circle cx="0" cy="0" r="2.87" style="fill: #ba2025;"/>
      </g>
    </pattern>
  </defs>
  <g style="clip-path: url(#b);">
    <rect x="-.51" width="180" height="252" style="fill: #fff;"/>
    <path d="M22.06,80.92c0,5.69,0,8.07,0,7.14,0,5.6,1.17,10.08,3.5,13.44,2.8,4.01,7,6.02,12.6,6.02,4.76,0,8.59-1.73,11.48-5.18,2.61-3.17,3.92-7.14,3.92-11.9V21.14h-12.74V4.48h41.02v16.66h-12.18v69.3c0,9.43-2.85,17.31-8.54,23.66-5.97,6.63-13.63,9.94-22.96,9.94s-17.17-3.27-23.24-9.8c-6.07-6.53-9.05-14.51-8.96-23.94v-9.38h16.1Z" style="fill: #ba2025;"/>
    <path d="M25.62,218.54l28.98-78.15c-3.04-2.2-4.87-5.74-4.87-9.56v-40c0-5.63,3.97-10.36,9.26-11.52-.35-.84-.54-1.76-.54-2.69v-3.5c0-3.9,3.17-7.06,7.06-7.06h1.41l-4.26-22.39.71-.68c2.06-1.96,4.23-2.96,6.45-2.96,1.29,0,2.57.34,3.83,1.02,1.45-1.46,3.4-2.28,5.49-2.28,1.18,0,2.33.26,3.37.77l.91-1.64c1.54-2.78,4.35-4.44,7.53-4.44s6,1.66,7.53,4.44l.95,1.72c1.09-.56,2.28-.85,3.53-.85,2,0,3.9.76,5.33,2.12,1.11-.42,2.25-.63,3.42-.63,2.51,0,4.92.96,6.8,2.71l.7.65-3.58,22.43h.75c3.9,0,7.06,3.17,7.06,7.06v3.5c0,.86-.16,1.71-.46,2.5,5.82.72,10.35,5.7,10.35,11.71v40c0,2.75-.95,5.28-2.53,7.29,1.02-.69,2.13-1.21,3.24-1.52v-2.4c0-.36.08-.68.22-.97l1.73-4.03.15-.19c.24-.31.78-1,1.84-1.02h0c.98,0,1.74.49,2.17,1.34l1.69,3.94c.1.2.16.46.19.72.35-.4.7-.83,1.05-1.26.65-.8,1.32-1.63,2.09-2.39l.23-.23.3-.14c.26-.13.64-.31,1.17-.31.39,0,.77.1,1.14.3l.07.04.07.04c4.01,2.67,5.44,7.31,5.44,10.75s-1.43,8.06-5.44,10.74c-.35.25-.81.39-1.3.39-.9,0-1.73-.51-2.12-1.29-.57-1.15-1.66-2.56-2.95-3.68l.18,11.1h1.17c2.24,0,4.05,1.81,4.05,4.04,0,.15,0,.31-.02.46h1.98c1.09,0,2.11.42,2.87,1.19.76.77,1.18,1.78,1.18,2.86,0,.81-.24,1.59-.68,2.25.43.64.68,1.42.68,2.24,0,2.24-1.82,4.06-4.05,4.06h-1.98c.02.15.02.3.02.45,0,2.24-1.82,4.05-4.05,4.05h-.83s.11,6.81.11,6.81l.24.53-.51.82c-.36.58-.87.82-1.64.94-.83,10.76-5.23,21.03-12.48,29.07l-.54.59h-61.13v.11H25.62ZM63.12,214.83l7.96-70.55c-15.33,7.7-25.07,23.34-25.07,40.68,0,11.01,3.96,21.59,11.18,29.87h5.93ZM116.46,142.63c6.66,3.93,12.34,9.41,16.52,15.98.29-.17.59-.3.91-.39l.2-12.49c-1.48.51-2.84,1.55-4.11,3.14-.43.54-1.08.84-1.78.84-.65,0-1.28-.26-1.74-.72-.43-.43-.67-1-.67-1.6,0-2.49.82-4.85,2.34-6.79-1.89,1.28-4.16,2.03-6.61,2.03h-5.07ZM111.3,63.61l2.75-18.04c-.73-.37-1.52-.57-2.33-.57-1.7,0-3.28.87-4.33,2.38-1.03,1.48-2.72,2.37-4.53,2.37-.89,0-1.75-.22-2.52-.61.23,1.47-.1,2.95-.94,4.18l-6.99,10.28h18.9ZM89.5,63.61l-6.99-10.28c-.78-1.14-1.12-2.49-.99-3.85-.82.47-1.75.72-2.73.72-1.74,0-3.34-.8-4.39-2.18-.92-1.21-2.74-3.25-4.58-3.25-.6,0-1.24.22-1.93.65l3.3,18.19h18.3ZM87.35,44.17c1.32,0,2.59.44,3.6,1.23,1.02-.79,2.28-1.23,3.6-1.23.77,0,1.52.15,2.22.44l-2.44-4.42c-.7-1.27-1.93-1.99-3.38-1.99s-2.68.73-3.38,1.99l-2.44,4.42c.7-.29,1.45-.44,2.22-.44Z" style="fill: #fff;"/>
    <g>
      <g>
        <g>
          <path d="M138.84,184.96c0-26.13-21.19-47.32-47.31-47.32s-47.31,21.19-47.31,47.32c0,12.18,4.61,23.29,12.17,31.67h70.29c7.56-8.39,12.17-19.49,12.17-31.67Z" style="fill: #fff;"/>
          <g style="clip-path: url(#c);">
            <g>
              <path d="M14.28,185.68c.36-3.21.85-6.46,1.44-9.7,2.83,1.68,5.58,3.46,8.25,5.28-.6,3.19-1.13,6.35-1.52,9.52-2.65-1.78-5.36-3.48-8.17-5.1Z" style="fill: #ba2025;"/>
              <path d="M27.93,179.7c.69-3.17,1.48-6.33,2.35-9.5,2.63,1.92,5.22,3.98,7.71,6.01-.88,3.14-1.7,6.21-2.4,9.35-2.49-2.01-5.04-3.97-7.66-5.87Z" style="fill: #ba2025;"/>
              <path d="M42.07,175c.96-3.11,2.02-6.15,3.14-9.27,2.46,2.16,4.87,4.41,7.18,6.64-1.14,3.06-2.2,6.06-3.18,9.11-2.3-2.18-4.7-4.39-7.14-6.49Z" style="fill: #ba2025;"/>
              <path d="M56.57,171.5c1.21-3.03,2.51-5.98,3.89-8.97,2.27,2.34,4.48,4.77,6.61,7.21-1.39,2.92-2.7,5.84-3.92,8.82-2.12-2.38-4.32-4.78-6.58-7.06Z" style="fill: #ba2025;"/>
              <path d="M71.29,169.21c1.46-2.87,3-5.78,4.62-8.63,2.08,2.57,4.07,5.15,5.99,7.74-1.63,2.83-3.17,5.65-4.64,8.46-1.91-2.56-3.9-5.05-5.97-7.57Z" style="fill: #ba2025;"/>
              <path d="M86.16,168.17c.85-1.38,1.72-2.76,2.6-4.15.89-1.36,1.8-2.7,2.73-4.05,1.85,2.74,3.63,5.4,5.31,8.2-1.86,2.62-3.64,5.37-5.34,8.06-.84-1.36-1.71-2.73-2.6-4.08-.89-1.33-1.79-2.65-2.72-3.98Z" style="fill: #ba2025;"/>
              <path d="M101.07,168.36c1.93-2.66,3.93-5.16,6.01-7.71,1.62,2.87,3.16,5.68,4.6,8.63-2.07,2.43-4.08,5.02-6,7.57-1.45-2.84-2.98-5.73-4.61-8.49Z" style="fill: #ba2025;"/>
              <path d="M115.9,169.83c2.15-2.49,4.35-4.79,6.64-7.16,1.37,3,2.66,5.92,3.85,8.98-2.27,2.24-4.49,4.67-6.62,7.04-1.21-2.93-2.49-5.98-3.87-8.86Z" style="fill: #ba2025;"/>
              <path d="M130.55,172.55c2.35-2.3,4.74-4.43,7.22-6.58,1.11,3.11,2.15,6.14,3.09,9.25-2.46,2.09-4.87,4.3-7.19,6.48-.96-3.05-1.98-6.16-3.12-9.15Z" style="fill: #ba2025;"/>
              <path d="M144.93,176.5c2.51-2.05,5.11-4.1,7.74-5.99.85,3.19,1.62,6.35,2.32,9.49-2.64,1.92-5.2,3.88-7.69,5.85-.69-3.17-1.49-6.24-2.37-9.35Z" style="fill: #ba2025;"/>
              <path d="M158.94,181.58c2.66-1.82,5.39-3.62,8.19-5.39.6,3.23,1.1,6.49,1.55,9.69-2.77,1.7-5.46,3.39-8.11,5.19-.48-3.13-1.02-6.3-1.63-9.49Z" style="fill: #ba2025;"/>
            </g>
            <path d="M37.53,193.81v38.34h108v-38.14c-50.92-23.29-94.3-6.75-108-.2Z" style="fill: url(#d); stroke: #ba2025; stroke-miterlimit: 10; stroke-width: 11px;"/>
          </g>
          <path d="M138.84,184.96c0-26.13-21.19-47.32-47.31-47.32s-47.31,21.19-47.31,47.32c0,12.18,4.61,23.29,12.17,31.67h70.29c7.56-8.39,12.17-19.49,12.17-31.67Z" style="fill: none; stroke: #010101; stroke-miterlimit: 10;"/>
        </g>
        <g>
          <path d="M147.15,131.55c-.31-.17-.45-.05-.7.07-2.11,2.11-3.62,4.93-6.2,6.17v-3.57c0-.07-.02-.15-.05-.22l-1.65-3.85c-.12-.25-.27-.35-.52-.34-.24,0-.31.13-.48.34l-1.65,3.85c-.03.07-.05.15-.05.22v3.88c-1.7.15-3.61,1-5.19,2.44-1.74,1.6-3.06,3.96-3.06,6.87,0,.45.7.7.98.34,2-2.5,4.39-4.01,7.27-4.17h.08s-.69,43.3-.69,43.3c0,0,.69.28,2.87.23,2.57-.05,2.49-.23,2.49-.23l-.68-43.08.31.02c2.77,1.25,5.15,4.12,6.1,6.03.14.28.55.39.81.21,3.5-2.33,4.64-6.35,4.64-9.24s-1.14-6.92-4.64-9.26ZM136.26,186.39l.18-42.69h.95l.18,42.69h-1.31ZM136.95,134.29l1.1-2.56,1.1,2.56v4.86h-2.2v-4.86h0Z" style="fill: #ba2025;"/>
          <path d="M143.13,159.86c1.24,0,2.25,1,2.25,2.25s-1.01,2.25-2.25,2.25h-2.99,8.99c1.25,0,2.26,1.01,2.25,2.25,0,1.24-1.01,2.25-2.25,2.25h-9,9c1.24,0,2.25,1.01,2.25,2.25,0,1.24-1.01,2.25-2.25,2.25h-9,2.99c1.24,0,2.25,1,2.25,2.25s-1.01,2.25-2.25,2.25h-8.12c-1.24,0-2.25-1-2.25-2.25v-13.5c0-1.24,1.01-2.25,2.25-2.25h8.12Z" style="fill: #fff; stroke: #010101; stroke-linecap: round; stroke-miterlimit: 10;"/>
        </g>
      </g>
      <path d="M68.93,70.84v-3.87l-4.32-22.68c1.71-1.63,3.46-2.46,5.2-2.46,1.23,0,2.48.42,3.71,1.25l.49.33.36-.48c1.14-1.5,2.88-2.37,4.75-2.37,1.24,0,2.43.38,3.45,1.1l.58.41,1.83-3.31c1.21-2.2,3.44-3.51,5.95-3.51s4.74,1.31,5.95,3.51l1.9,3.43.58-.44c1.04-.78,2.28-1.19,3.58-1.19,1.76,0,3.42.77,4.56,2.12l.32.37.44-.21c1.1-.53,2.26-.8,3.44-.8,2.06,0,4.03.79,5.57,2.22l-3.58,22.43v4.12h-44.78ZM69.82,42.97c-1.17,0-2.38.48-3.6,1.43l-.3.23,3.77,20.77h43.16l3.16-20.73-.32-.22c-1.18-.82-2.55-1.25-3.96-1.25-2.3,0-4.42,1.15-5.81,3.15-.69,1-1.83,1.6-3.05,1.6-1.35,0-2.59-.73-3.24-1.91l-3.71-6.71c-1.01-1.83-2.86-2.92-4.96-2.92s-3.94,1.09-4.96,2.92l-3.96,7.17c-.65,1.18-1.89,1.91-3.24,1.91-1.17,0-2.25-.54-2.96-1.47-1.37-1.81-3.53-3.96-6.01-3.96Z" style="fill: #ba2025;"/>
      <polygon points="59.88 131.35 28.21 216.74 64.72 216.74 73.58 138.26 59.88 131.35" style="fill: #ba2025; stroke: #ba2025; stroke-miterlimit: 10;"/>
      <g>
        <path d="M131.53,130.83c0,5.52-4.48,10-10,10h-60c-5.52,0-10-4.48-10-10v-40c0-5.52,4.48-10,10-10h60c5.52,0,10,4.48,10,10v40Z" style="fill: #fff; stroke: #010101; stroke-miterlimit: 10;"/>
        <g>
          <g>
            <path d="M82.89,105.79c1.83,0,3.31,2.96,3.31,6.61s-1.48,6.61-3.31,6.61-3.31-2.96-3.31-6.61,1.48-6.61,3.31-6.61Z" style="fill: #010101;"/>
            <path d="M109.34,105.79c1.83,0,3.31,2.96,3.31,6.61s-1.48,6.61-3.31,6.61-3.31-2.96-3.31-6.61,1.48-6.61,3.31-6.61Z" style="fill: #010101;"/>
          </g>
          <g>
            <ellipse cx="75.45" cy="126.08" rx="4.33" ry="2.17" style="fill: #ba2025;"/>
            <path d="M116.78,123.91c2.39,0,4.34.97,4.34,2.17s-1.94,2.17-4.34,2.17-4.33-.97-4.33-2.17,1.94-2.17,4.33-2.17Z" style="fill: #ba2025;"/>
          </g>
        </g>
      </g>
      <path d="M121.65,76.62c0,2.91-2.36,5.26-5.26,5.26h-50.87c-2.9,0-5.26-2.35-5.26-5.26v-3.5c0-2.91,2.36-5.26,5.26-5.26h50.87c2.91,0,5.26,2.36,5.26,5.26v3.5h0Z" style="fill: #fff; stroke: #ba2025; stroke-miterlimit: 10;"/>
      <path d="M110.73,135.24c-1.63-.92-3.8-1.83-5.88-2.68-.52-.21-1.03-.42-1.53-.63-.48-.23-1.01-.39-1.44-.62-.46-.2-.92-.39-1.3-.6-.43-.19-.79-.39-1.12-.61-.37-.2-.64-.42-.89-.65-.27-.21-.52-.43-.66-.64-.36-.45-.58-.71-.58-.71,0,0-.22.26-.58.71-.13.22-.39.43-.66.64-.26.23-.52.45-.89.65-.33.22-.69.42-1.12.61-.38.22-.84.4-1.3.6-.43.23-.96.38-1.44.62-.51.21-1.02.42-1.53.63-2.08.85-4.25,1.76-5.88,2.68-1.64.86-2.74,1.71-2.74,1.71,0,0,1.31.53,3.24.61.98.08,2.1.03,3.29-.15,1.19-.18,2.44-.52,3.66-.99.6-.29,1.21-.52,1.77-.88.57-.35,1.12-.67,1.62-1.12.51-.41.97-.84,1.35-1.34.19-.25.39-.47.54-.71.14-.27.27-.53.4-.78.12-.2.2-.41.27-.62.06.21.14.43.26.62.13.25.26.51.4.78.16.24.35.46.54.71.39.5.85.93,1.35,1.34.5.45,1.05.77,1.62,1.12.57.35,1.18.59,1.77.87,1.22.47,2.47.81,3.66.99,1.19.18,2.31.23,3.28.15,1.93-.09,3.24-.61,3.24-.61,0,0-1.1-.85-2.74-1.71Z" style="fill: #010101;"/>
      <path d="M90.95,62.55l-6.95-10.23c-1.26-1.86-.78-4.38,1.07-5.64,1.86-1.26,4.38-.78,5.64,1.08l.24.35.24-.35c1.26-1.86,3.78-2.33,5.64-1.08,1.85,1.26,2.33,3.79,1.08,5.64l-6.96,10.23Z" style="fill: #ba2025;"/>
    </g>
  </g>
</svg>