<?xml version="1.0" encoding="UTF-8"?>
<svg id="Layer_1" data-name="Layer 1" xmlns="http://www.w3.org/2000/svg" xmlns:xlink="http://www.w3.org/1999/xlink" viewBox="0 0 180 252">
  <defs>
    <style>
      .cls-1, .cls-2 {
        fill: none;
      }

      .cls-2, .cls-3, .cls-4, .cls-5, .cls-6, .cls-7 {
        stroke-miterlimit: 10;
      }

      .cls-2, .cls-4, .cls-6 {
        stroke: #010101;
      }

      .cls-8 {
        fill: #010101;
      }

      .cls-3 {
        fill: url(#New_Pattern_Swatch_1_copy);
        stroke-width: 11px;
      }

      .cls-3, .cls-5, .cls-7 {
        stroke: #ba2025;
      }

      .cls-4, .cls-5, .cls-9, .cls-6 {
        fill: #fff;
      }

      .cls-6 {
        stroke-linecap: round;
      }

      .cls-10, .cls-7 {
        fill: #ba2025;
      }

      .cls-11 {
        clip-path: url(#clippath);
      }
    </style>
    <clipPath id="clippath">
      <path class="cls-4" d="M138.84,184.96c0-26.13-21.19-47.32-47.31-47.32s-47.31,21.19-47.31,47.32c0,12.18,4.61,23.29,12.17,31.67h70.29c7.56-8.39,12.17-19.49,12.17-31.67Z"/>
    </clipPath>
    <pattern id="New_Pattern_Swatch_1_copy" data-name="New Pattern Swatch 1 copy" x="0" y="0" width="10.8" height="16.2" patternTransform="translate(-702 -306)" patternUnits="userSpaceOnUse" viewBox="0 0 10.8 16.2">
      <g>
        <rect class="cls-1" y="0" width="10.8" height="16.2"/>
        <circle class="cls-10" cx="10.8" cy="16.2" r="2.87"/>
        <circle class="cls-10" cx="0" cy="16.2" r="2.87"/>
        <circle class="cls-10" cx="5.4" cy="8.1" r="2.87"/>
        <circle class="cls-10" cx="10.8" cy="0" r="2.87"/>
        <circle class="cls-10" cx="0" cy="0" r="2.87"/>
      </g>
    </pattern>
  </defs>
  <g>
    <g>
      <g>
        <path class="cls-9" d="M138.84,184.96c0-26.13-21.19-47.32-47.31-47.32s-47.31,21.19-47.31,47.32c0,12.18,4.61,23.29,12.17,31.67h70.29c7.56-8.39,12.17-19.49,12.17-31.67Z"/>
        <g class="cls-11">
          <g>
            <path class="cls-10" d="M14.28,185.68c.36-3.21.85-6.46,1.44-9.7,2.83,1.68,5.58,3.46,8.25,5.28-.6,3.19-1.13,6.35-1.52,9.52-2.65-1.78-5.36-3.48-8.17-5.1Z"/>
            <path class="cls-10" d="M27.93,179.7c.69-3.17,1.48-6.33,2.35-9.5,2.63,1.92,5.22,3.98,7.71,6.01-.88,3.14-1.7,6.21-2.4,9.35-2.49-2.01-5.04-3.97-7.66-5.87Z"/>
            <path class="cls-10" d="M42.07,175c.96-3.11,2.02-6.15,3.14-9.27,2.46,2.16,4.87,4.41,7.18,6.64-1.14,3.06-2.2,6.06-3.18,9.11-2.3-2.18-4.7-4.39-7.14-6.49Z"/>
            <path class="cls-10" d="M56.57,171.5c1.21-3.03,2.51-5.98,3.89-8.97,2.27,2.34,4.48,4.77,6.61,7.21-1.39,2.92-2.7,5.84-3.92,8.82-2.12-2.38-4.32-4.78-6.58-7.06Z"/>
            <path class="cls-10" d="M71.29,169.21c1.46-2.87,3-5.78,4.62-8.63,2.08,2.57,4.07,5.15,5.99,7.74-1.63,2.83-3.17,5.65-4.64,8.46-1.91-2.56-3.9-5.05-5.97-7.57Z"/>
            <path class="cls-10" d="M86.16,168.17c.85-1.38,1.72-2.76,2.6-4.15.89-1.36,1.8-2.7,2.73-4.05,1.85,2.74,3.63,5.4,5.31,8.2-1.86,2.62-3.64,5.37-5.34,8.06-.84-1.36-1.71-2.73-2.6-4.08-.89-1.33-1.79-2.65-2.72-3.98Z"/>
            <path class="cls-10" d="M101.07,168.36c1.93-2.66,3.93-5.16,6.01-7.71,1.62,2.87,3.16,5.68,4.6,8.63-2.07,2.43-4.08,5.02-6,7.57-1.45-2.84-2.98-5.73-4.61-8.49Z"/>
            <path class="cls-10" d="M115.9,169.83c2.15-2.49,4.35-4.79,6.64-7.16,1.37,3,2.66,5.92,3.85,8.98-2.27,2.24-4.49,4.67-6.62,7.04-1.21-2.93-2.49-5.98-3.87-8.86Z"/>
            <path class="cls-10" d="M130.55,172.55c2.35-2.3,4.74-4.43,7.22-6.58,1.11,3.11,2.15,6.14,3.09,9.25-2.46,2.09-4.87,4.3-7.19,6.48-.96-3.05-1.98-6.16-3.12-9.15Z"/>
            <path class="cls-10" d="M144.93,176.5c2.51-2.05,5.11-4.1,7.74-5.99.85,3.19,1.62,6.35,2.32,9.49-2.64,1.92-5.2,3.88-7.69,5.85-.69-3.17-1.49-6.24-2.37-9.35Z"/>
            <path class="cls-10" d="M158.94,181.58c2.66-1.82,5.39-3.62,8.19-5.39.6,3.23,1.1,6.49,1.55,9.69-2.77,1.7-5.46,3.39-8.11,5.19-.48-3.13-1.02-6.3-1.63-9.49Z"/>
          </g>
          <path class="cls-3" d="M37.53,193.81v38.34h108v-38.14c-50.92-23.29-94.3-6.75-108-.2Z"/>
        </g>
        <path class="cls-2" d="M138.84,184.96c0-26.13-21.19-47.32-47.31-47.32s-47.31,21.19-47.31,47.32c0,12.18,4.61,23.29,12.17,31.67h70.29c7.56-8.39,12.17-19.49,12.17-31.67Z"/>
      </g>
      <g>
        <path class="cls-10" d="M147.15,131.55c-.31-.17-.45-.05-.7.07-2.11,2.11-3.62,4.93-6.2,6.17v-3.57c0-.07-.02-.15-.05-.22l-1.65-3.85c-.12-.25-.27-.35-.52-.34-.24,0-.31.13-.48.34l-1.65,3.85c-.03.07-.05.15-.05.22v3.88c-1.7.15-3.61,1-5.19,2.44-1.74,1.6-3.06,3.96-3.06,6.87,0,.45.7.7.98.34,2-2.5,4.39-4.01,7.27-4.17h.08s-.69,43.3-.69,43.3c0,0,.69.28,2.87.23,2.57-.05,2.49-.23,2.49-.23l-.68-43.08.31.02c2.77,1.25,5.15,4.12,6.1,6.03.14.28.55.39.81.21,3.5-2.33,4.64-6.35,4.64-9.24s-1.14-6.92-4.64-9.26ZM136.26,186.39l.18-42.69h.95l.18,42.69h-1.31ZM136.95,134.29l1.1-2.56,1.1,2.56v4.86h-2.2v-4.86h0Z"/>
        <path class="cls-6" d="M143.13,159.86c1.24,0,2.25,1,2.25,2.25s-1.01,2.25-2.25,2.25h-2.99,8.99c1.25,0,2.26,1.01,2.25,2.25,0,1.24-1.01,2.25-2.25,2.25h-9,9c1.24,0,2.25,1.01,2.25,2.25,0,1.24-1.01,2.25-2.25,2.25h-9,2.99c1.24,0,2.25,1,2.25,2.25s-1.01,2.25-2.25,2.25h-8.12c-1.24,0-2.25-1-2.25-2.25v-13.5c0-1.24,1.01-2.25,2.25-2.25h8.12Z"/>
      </g>
    </g>
    <path class="cls-10" d="M68.93,70.84v-3.87l-4.32-22.68c1.71-1.63,3.46-2.46,5.2-2.46,1.23,0,2.48.42,3.71,1.25l.49.33.36-.48c1.14-1.5,2.88-2.37,4.75-2.37,1.24,0,2.43.38,3.45,1.1l.58.41,1.83-3.31c1.21-2.2,3.44-3.51,5.95-3.51s4.74,1.31,5.95,3.51l1.9,3.43.58-.44c1.04-.78,2.28-1.19,3.58-1.19,1.76,0,3.42.77,4.56,2.12l.32.37.44-.21c1.1-.53,2.26-.8,3.44-.8,2.06,0,4.03.79,5.57,2.22l-3.58,22.43v4.12h-44.78ZM69.82,42.97c-1.17,0-2.38.48-3.6,1.43l-.3.23,3.77,20.77h43.16l3.16-20.73-.32-.22c-1.18-.82-2.55-1.25-3.96-1.25-2.3,0-4.42,1.15-5.81,3.15-.69,1-1.83,1.6-3.05,1.6-1.35,0-2.59-.73-3.24-1.91l-3.71-6.71c-1.01-1.83-2.86-2.92-4.96-2.92s-3.94,1.09-4.96,2.92l-3.96,7.17c-.65,1.18-1.89,1.91-3.24,1.91-1.17,0-2.25-.54-2.96-1.47-1.37-1.81-3.53-3.96-6.01-3.96Z"/>
    <polygon class="cls-7" points="59.88 131.35 28.21 216.74 64.72 216.74 73.58 138.26 59.88 131.35"/>
    <g>
      <path class="cls-4" d="M131.53,130.83c0,5.52-4.48,10-10,10h-60c-5.52,0-10-4.48-10-10v-40c0-5.52,4.48-10,10-10h60c5.52,0,10,4.48,10,10v40Z"/>
      <g>
        <g>
          <path class="cls-8" d="M82.89,105.79c1.83,0,3.31,2.96,3.31,6.61s-1.48,6.61-3.31,6.61-3.31-2.96-3.31-6.61,1.48-6.61,3.31-6.61Z"/>
          <path class="cls-8" d="M109.34,105.79c1.83,0,3.31,2.96,3.31,6.61s-1.48,6.61-3.31,6.61-3.31-2.96-3.31-6.61,1.48-6.61,3.31-6.61Z"/>
        </g>
        <g>
          <ellipse class="cls-10" cx="75.45" cy="126.08" rx="4.33" ry="2.17"/>
          <path class="cls-10" d="M116.78,123.91c2.39,0,4.34.97,4.34,2.17s-1.94,2.17-4.34,2.17-4.33-.97-4.33-2.17,1.94-2.17,4.33-2.17Z"/>
        </g>
      </g>
    </g>
    <path class="cls-5" d="M121.65,76.62c0,2.91-2.36,5.26-5.26,5.26h-50.87c-2.9,0-5.26-2.35-5.26-5.26v-3.5c0-2.91,2.36-5.26,5.26-5.26h50.87c2.91,0,5.26,2.36,5.26,5.26v3.5h0Z"/>
    <path class="cls-8" d="M110.73,135.24c-1.63-.92-3.8-1.83-5.88-2.68-.52-.21-1.03-.42-1.53-.63-.48-.23-1.01-.39-1.44-.62-.46-.2-.92-.39-1.3-.6-.43-.19-.79-.39-1.12-.61-.37-.2-.64-.42-.89-.65-.27-.21-.52-.43-.66-.64-.36-.45-.58-.71-.58-.71,0,0-.22.26-.58.71-.13.22-.39.43-.66.64-.26.23-.52.45-.89.65-.33.22-.69.42-1.12.61-.38.22-.84.4-1.3.6-.43.23-.96.38-1.44.62-.51.21-1.02.42-1.53.63-2.08.85-4.25,1.76-5.88,2.68-1.64.86-2.74,1.71-2.74,1.71,0,0,1.31.53,3.24.61.98.08,2.1.03,3.29-.15,1.19-.18,2.44-.52,3.66-.99.6-.29,1.21-.52,1.77-.88.57-.35,1.12-.67,1.62-1.12.51-.41.97-.84,1.35-1.34.19-.25.39-.47.54-.71.14-.27.27-.53.4-.78.12-.2.2-.41.27-.62.06.21.14.43.26.62.13.25.26.51.4.78.16.24.35.46.54.71.39.5.85.93,1.35,1.34.5.45,1.05.77,1.62,1.12.57.35,1.18.59,1.77.87,1.22.47,2.47.81,3.66.99,1.19.18,2.31.23,3.28.15,1.93-.09,3.24-.61,3.24-.61,0,0-1.1-.85-2.74-1.71Z"/>
    <path class="cls-10" d="M90.95,62.55l-6.95-10.23c-1.26-1.86-.78-4.38,1.07-5.64,1.86-1.26,4.38-.78,5.64,1.08l.24.35.24-.35c1.26-1.86,3.78-2.33,5.64-1.08,1.85,1.26,2.33,3.79,1.08,5.64l-6.96,10.23Z"/>
  </g>
  <g>
    <path class="cls-10" d="M13.11,28.51c0,1.45,0,2.06,0,1.82,0,1.43.3,2.57.89,3.43.71,1.02,1.79,1.54,3.22,1.54,1.22,0,2.19-.44,2.93-1.32.67-.81,1-1.82,1-3.04V13.25h-3.25v-4.25h10.47v4.25h-3.11v17.69c0,2.41-.73,4.42-2.18,6.04-1.52,1.69-3.48,2.54-5.86,2.54s-4.38-.83-5.93-2.5c-1.55-1.67-2.31-3.7-2.29-6.11v-2.39h4.11Z"/>
    <path class="cls-10" d="M166.89,223.49c0-1.45,0-2.06,0-1.82,0-1.43-.3-2.57-.89-3.43-.71-1.02-1.79-1.54-3.22-1.54-1.22,0-2.19.44-2.93,1.32-.67.81-1,1.82-1,3.04v17.69h3.25v4.25h-10.47v-4.25h3.11v-17.69c0-2.41.73-4.42,2.18-6.04,1.52-1.69,3.48-2.54,5.86-2.54s4.38.83,5.93,2.5c1.55,1.67,2.31,3.7,2.29,6.11v2.39h-4.11Z"/>
  </g>
</svg>