<?xml version="1.0" encoding="UTF-8"?>
<svg id="Layer_1" data-name="Layer 1" xmlns="http://www.w3.org/2000/svg" xmlns:xlink="http://www.w3.org/1999/xlink" viewBox="0 0 180 252">
  <defs>
    <style>
      .cls-1, .cls-2 {
        fill: none;
      }

      .cls-2, .cls-3, .cls-4, .cls-5, .cls-6, .cls-7 {
        stroke-miterlimit: 10;
      }

      .cls-2, .cls-4, .cls-6 {
        stroke: #010101;
      }

      .cls-8 {
        fill: #010101;
      }

      .cls-3 {
        fill: url(#New_Pattern_Swatch_1_copy);
        stroke-width: 11px;
      }

      .cls-3, .cls-5, .cls-7 {
        stroke: #ba2025;
      }

      .cls-4, .cls-5, .cls-9, .cls-6 {
        fill: #fff;
      }

      .cls-10 {
        clip-path: url(#clippath-1);
      }

      .cls-6 {
        stroke-linecap: round;
      }

      .cls-11, .cls-7 {
        fill: #ba2025;
      }

      .cls-12 {
        clip-path: url(#clippath);
      }
    </style>
    <clipPath id="clippath">
      <path class="cls-4" d="M139.04,187.08c0-26.13-21.19-47.32-47.31-47.32s-47.31,21.19-47.31,47.32c0,12.18,4.61,23.29,12.17,31.67h70.29c7.56-8.39,12.17-19.49,12.17-31.67Z"/>
    </clipPath>
    <pattern id="New_Pattern_Swatch_1_copy" data-name="New Pattern Swatch 1 copy" x="0" y="0" width="10.8" height="16.2" patternTransform="translate(-468 -306)" patternUnits="userSpaceOnUse" viewBox="0 0 10.8 16.2">
      <g>
        <rect class="cls-1" y="0" width="10.8" height="16.2"/>
        <circle class="cls-11" cx="10.8" cy="16.2" r="2.87"/>
        <circle class="cls-11" cx="0" cy="16.2" r="2.87"/>
        <circle class="cls-11" cx="5.4" cy="8.1" r="2.87"/>
        <circle class="cls-11" cx="10.8" cy="0" r="2.87"/>
        <circle class="cls-11" cx="0" cy="0" r="2.87"/>
      </g>
    </pattern>
    <clipPath id="clippath-1">
      <rect class="cls-1" x="51.73" y="82.96" width="80" height="60" rx="10" ry="10"/>
    </clipPath>
  </defs>
  <g>
    <g>
      <path class="cls-9" d="M139.04,187.08c0-26.13-21.19-47.32-47.31-47.32s-47.31,21.19-47.31,47.32c0,12.18,4.61,23.29,12.17,31.67h70.29c7.56-8.39,12.17-19.49,12.17-31.67Z"/>
      <g class="cls-12">
        <g>
          <path class="cls-11" d="M21.56,191.38c-2.59-1.67-5.25-3.26-8-4.77-1.5-.81-2.08-2.68-1.18-4.19.89-1.52,2.87-2.05,4.35-1.17l.28.17.06-.32c.3-1.7,2-2.83,3.7-2.51,1.71.31,2.77,1.98,2.41,3.63-.63,3.08-1.18,6.13-1.62,9.18Z"/>
          <path class="cls-11" d="M34.92,186.05c-2.44-1.91-4.94-3.75-7.51-5.54-1.4-.98-1.76-2.89-.75-4.29,1.01-1.42,3.01-1.74,4.4-.72l.26.19.09-.32c.45-1.67,2.23-2.63,3.89-2.15,1.66.47,2.57,2.19,2.08,3.83-.9,3.02-1.73,5.98-2.46,9Z"/>
          <path class="cls-11" d="M48.75,181.89c-2.26-2.07-4.61-4.17-7.01-6.15-1.31-1.08-1.5-3.02-.38-4.35,1.13-1.31,3.15-1.45,4.44-.34l.25.22.11-.31c.59-1.63,2.45-2.41,4.06-1.81,1.62.61,2.37,2.4,1.75,3.99-1.14,2.94-2.23,5.81-3.22,8.76Z"/>
          <path class="cls-11" d="M62.9,178.91c-2.09-2.27-4.25-4.55-6.47-6.72-1.21-1.19-1.25-3.14-.01-4.37,1.23-1.25,3.26-1.18,4.45.03l.23.24.14-.3c.72-1.56,2.63-2.25,4.19-1.48,1.56.75,2.17,2.6,1.41,4.13-.69,1.4-1.37,2.8-2.03,4.2-.65,1.41-1.29,2.84-1.9,4.26Z"/>
          <path class="cls-11" d="M77.24,177.09c-1.89-2.44-3.85-4.82-5.89-7.22-1.11-1.3-.98-3.24.35-4.34,1.33-1.09,3.34-.95,4.43.38l.21.26.16-.28c.85-1.47,2.81-1.97,4.3-1.11,1.49.86,1.94,2.75,1.06,4.22-1.62,2.7-3.16,5.4-4.63,8.1Z"/>
          <path class="cls-11" d="M91.67,176.52c-.84-1.3-1.7-2.61-2.57-3.9-.88-1.27-1.77-2.54-2.69-3.8-1-1.38-.71-3.3.72-4.31,1.42-1.02,3.41-.65,4.38.77l.18.27.19-.27c.98-1.4,2.97-1.76,4.38-.78,1.42,1.02,1.7,2.96.7,4.32-1.84,2.5-3.61,5.13-5.29,7.7Z"/>
          <path class="cls-11" d="M106.1,177.16c-1.45-2.71-2.97-5.5-4.58-8.14-.88-1.45-.42-3.35,1.08-4.24,1.5-.89,3.45-.31,4.3,1.16l.16.29.21-.25c1.09-1.3,3.11-1.55,4.43-.39,1.32,1.14,1.44,3.08.33,4.36-2.05,2.31-4.03,4.78-5.93,7.21Z"/>
          <path class="cls-11" d="M120.41,179.02c-1.22-2.82-2.49-5.74-3.87-8.5-.75-1.52-.14-3.37,1.44-4.13,1.57-.73,3.46-.01,4.18,1.54l.14.3.23-.23c1.2-1.21,3.24-1.28,4.45-.02,1.22,1.25,1.17,3.2-.04,4.37-2.23,2.13-4.42,4.43-6.52,6.68Z"/>
          <path class="cls-11" d="M134.53,182.1c-.97-2.92-2-5.93-3.14-8.8-.62-1.58.15-3.37,1.78-3.99,1.63-.63,3.45.28,4.04,1.88l.11.31.25-.21c1.3-1.11,3.32-.96,4.44.33,1.11,1.35.9,3.29-.41,4.36-2.41,1.96-4.79,4.07-7.07,6.13Z"/>
          <path class="cls-11" d="M148.36,186.33c-.36-1.5-.73-3.04-1.14-4.53-.41-1.48-.83-2.98-1.28-4.47-.48-1.63.43-3.35,2.11-3.83.83-.24,1.7-.13,2.41.26.7.41,1.24,1.08,1.47,1.91l.08.32.26-.19c1.38-1,3.37-.66,4.38.73,1.01,1.39.65,3.3-.75,4.28-2.58,1.81-5.1,3.66-7.54,5.52Z"/>
          <path class="cls-11" d="M161.83,191.65c-.51-3.02-1.08-6.06-1.71-9.13-.35-1.67.7-3.31,2.4-3.64,1.7-.33,3.38.77,3.7,2.43l.06.32.28-.17c1.45-.87,3.39-.36,4.28,1.12.89,1.48.38,3.36-1.09,4.22-2.7,1.59-5.34,3.2-7.92,4.85Z"/>
        </g>
        <path class="cls-3" d="M37.73,195.94v38.34h108v-38.14c-50.92-23.29-94.3-6.75-108-.2Z"/>
      </g>
      <path class="cls-2" d="M139.04,187.08c0-26.13-21.19-47.32-47.31-47.32s-47.31,21.19-47.31,47.32c0,12.18,4.61,23.29,12.17,31.67h70.29c7.56-8.39,12.17-19.49,12.17-31.67Z"/>
    </g>
    <g>
      <path class="cls-11" d="M149.19,150.17c-.13-.12-.31-.19-.44-.19-.11,0-1.86.23-3.66.76.22-.27.45-.62.69-1.08,1.85-3.41-.5-2.52-2.71-3.54,2.31-.25,5.33,1.22,4.08-2.93-1.03-3.62-2.19-1.35-4.41-.51,1.42-1.83,4.62-2.92.83-4.93-3.32-1.81-2.42.54-3.54,2.71-.26-2.3,1.22-5.33-2.84-4.04-3.65,1.13-1.35,2.19-.6,4.37-1.74-1.38-2.83-4.58-4.84-.79-1.81,3.32.54,2.42,2.62,3.5-2.21.29-5.23-1.18-4.03,2.84,1.12,3.65,2.15,1.44,4.46.64-1.38,1.73-4.58,2.83-.93,4.89,3.45,1.76,2.55-.59,3.54-2.71.19,1.41-.34,3.14.31,3.91v.37c-.06-.04-.13-.06-.18-.12-.45-.48-.48-1.22-.45-2.03-.2.8-.47,1.47-1.35,1.48-.93.66-2.44.71-3.77-.02-1.28-.76-2.76-3.37-3.37-5.04.52-.06,1.19-.12,1.89-.15-.14-.29-.28-.63-.41-1.04-1.37.07-2.47.23-2.55.26-.12.03-.28.15-.37.31-.08.15-.09.35-.16.57.13.23,2.17,4.98,4.29,6.16,1.32.68,2.75.86,3.91.53.73-.21,1.33-.65,1.77-1.18l.75.41v8.5h2.04v-1.65l1.67-1.68c.57.38,1.27.64,2.03.64,1.21,0,2.53-.57,3.61-1.59,1.71-1.71,2.35-6.85,2.41-7.1-.12-.19-.19-.38-.31-.5ZM143.46,151.29c-.41.17-.79.37-1.13.57.1-.78-.95-1.73-1.44-3.14.98.83,1.75,2.15,2.58,2.57ZM136.6,147.93c-1.74-.83-.32-1.34.35-2.17-1.02.35-1.45,1.38-1.98-.27-.54-1.87.83-1.2,1.86-1.32-1.03-.43-2.05-.08-1.21-1.6.83-1.74,1.31-.23,2.12.44-.35-1.02-1.34-1.55.31-2.07,1.87-.54,1.2.82,1.32,1.86.39-.94.08-2.06,1.6-1.21,1.7.93.19,1.4-.48,2.22,1.02-.35,1.58-1.43,2.07.31.58,1.78-.79,1.1-1.83,1.23.9.48,2.06.08,1.21,1.6-.93,1.71-1.44.28-2.26-.39.44,1.06,1.47,1.49-.18,2.02-1.87.54-1.2-.83-1.32-1.86-.52.99-.08,2.05-1.6,1.2ZM139.77,158.89v-5.53c.18-.04.36-.08.57-.14.35-.1.62-.21.87-.32-1.27,1.65-1.49,3.69-.52,5.07l-.92.92ZM146.14,156.96c-1.21,1.21-2.92,1.59-4,.95l.83-.82.69-.7h2.29c.25,0,.51-.19.51-.51s-.19-.51-.51-.51h-1.34l1.78-1.78c.19-.18.19-.51,0-.69-.19-.19-.51-.19-.7,0l-2.6,2.6v-1.33c0-.25-.19-.51-.51-.51-.26,0-.51.19-.51.51v2.29l-.7.7c-.64-1.08-.25-2.73.95-4,1.02-1.01,4-1.71,5.65-1.97-.12,1.78-.82,4.7-1.84,5.78Z"/>
      <path class="cls-11" d="M140.38,145.43c.39-.94-.09-1.91-.93-2.26-.94-.39-1.87,0-2.26.93-.35.85,0,1.87.94,2.26.85.35,1.91-.09,2.25-.93ZM137.38,144.19c.31-.75,1.24-1.14,1.99-.82.75.31,1.04,1.2.73,1.95-.31.75-1.1,1.08-1.86.77-.75-.31-1.18-1.15-.87-1.9Z"/>
    </g>
    <polygon class="cls-7" points="60.08 81.44 28.41 218.86 64.92 218.86 73.77 88.34 60.08 81.44"/>
    <g>
      <g>
        <path id="SVGID" class="cls-9" d="M131.73,132.96c0,5.52-4.48,10-10,10h-60c-5.52,0-10-4.48-10-10v-40c0-5.52,4.48-10,10-10h60c5.52,0,10,4.48,10,10v40Z"/>
        <g class="cls-10">
          <path class="cls-11" d="M61.73,82.96c-5.52,0-10,4.48-10,10v40c0,.5.08.98.15,1.46,12.48-10.32,23.11-39.4,27.11-51.46h-17.26Z"/>
        </g>
        <path id="SVGID-2" data-name="SVGID" class="cls-2" d="M131.73,132.96c0,5.52-4.48,10-10,10h-60c-5.52,0-10-4.48-10-10v-40c0-5.52,4.48-10,10-10h60c5.52,0,10,4.48,10,10v40Z"/>
      </g>
      <g>
        <g>
          <path class="cls-8" d="M83.09,107.92c1.83,0,3.31,2.96,3.31,6.61s-1.48,6.61-3.31,6.61-3.31-2.96-3.31-6.61,1.48-6.61,3.31-6.61Z"/>
          <path class="cls-8" d="M109.54,107.92c1.83,0,3.31,2.96,3.31,6.61s-1.48,6.61-3.31,6.61-3.31-2.96-3.31-6.61,1.48-6.61,3.31-6.61Z"/>
        </g>
        <g>
          <ellipse class="cls-11" cx="75.65" cy="128.2" rx="4.33" ry="2.17"/>
          <path class="cls-11" d="M116.98,126.04c2.39,0,4.34.97,4.34,2.17s-1.94,2.17-4.34,2.17-4.33-.97-4.33-2.17,1.94-2.17,4.33-2.17Z"/>
        </g>
      </g>
    </g>
    <g>
      <path class="cls-11" d="M70.27,74.77c.18.14.41.21.62.21.29,0,.57-.12.76-.35.35-.41.29-1-.14-1.33-.12-.09-11.73-12.26-11.73-18.7s10.02-7.19,10.15-7.2c4.29-.51,8.08-1.55,11.28-2.75-3.65,2.21-3.89,4.19-3.89,5.62,0,1.71.57,12.54,11.51,21.72,0,0,1.59-1.11,3.19-1.11s3.08,1.16,3.08,1.16c10.41-9.85,11.08-20.06,11.08-21.77,0-1.41-.24-3.37-3.8-5.56,3.17,1.17,6.92,2.19,11.16,2.69.1,0,10.12.98,10.12,7.2s-11.6,18.6-11.73,18.7c-.42.33-.48.93-.13,1.33.19.23.48.34.76.34.22,0,.44-.07.63-.21.51-.4,12.45-12.83,12.45-20.16,0-7.93-11.42-9.04-11.88-9.08-12.87-1.52-21.31-8.26-21.39-8.32-.08-.07-.19-.05-.29-.09-.12-.05-.22-.11-.35-.11-.13,0-.23.06-.35.11-.1.04-.21.02-.29.09-.08.06-8.52,6.8-21.36,8.32-.49.05-11.91,1.16-11.91,9.09,0,7.33,11.95,19.77,12.46,20.16Z"/>
      <path class="cls-5" d="M122.18,78.8c-3.93-1.29-6.22-3.58-9.55-5.36-5.54-3.53-8.91,4.28-14.66,1.75-1.75-.77-2.76-2.15-4.95-2.51-2.92-.49-4.72.94-6.55,2.1-5.45,3.48-8.5-3.56-14.06-1.95-3.71,1.08-5.52,4.15-9.08,5.36-2.75.93-3.73,2.07-4.3,4.04-.48,1.68.73,3.75,3.25,4.39,5.98,1.51,13.47.89,19.74.89h28.41c3.17,0,6.31.05,9.44-.4,3.16-.46,4.17-1.96,4.77-3.9.37-1.18-.68-3.82-2.47-4.41-1.41-.46,1.41.46,0,0Z"/>
    </g>
    <circle class="cls-9" cx="91.73" cy="55.64" r="7.5"/>
    <path class="cls-11" d="M91.73,61.06l-4.06-5.98c-.73-1.08-.45-2.56.63-3.29,1.09-.74,2.56-.46,3.29.63l.14.21.14-.21c.74-1.08,2.21-1.36,3.29-.63,1.08.74,1.36,2.21.63,3.29l-4.07,5.98Z"/>
    <path class="cls-11" d="M91.73,33.14c1.29,0,2.33,1.04,2.33,2.33s-1.04,2.33-2.33,2.33-2.33-1.04-2.33-2.33,1.04-2.33,2.33-2.33Z"/>
    <path class="cls-6" d="M143.33,161.98c1.24,0,2.25,1,2.25,2.25s-1.01,2.25-2.25,2.25h-2.99,8.99c1.25,0,2.26,1.01,2.25,2.25,0,1.24-1.01,2.25-2.25,2.25h-9,9c1.24,0,2.25,1.01,2.25,2.25,0,1.24-1.01,2.25-2.25,2.25h-9,2.99c1.24,0,2.25,1,2.25,2.25s-1.01,2.25-2.25,2.25h-8.12c-1.24,0-2.25-1-2.25-2.25v-13.5c0-1.24,1.01-2.25,2.25-2.25h8.12Z"/>
  </g>
  <g>
    <path class="cls-11" d="M28.58,39.38c-1.41,0-2.42-.06-3.04-.18-.71-.17-1.41-.5-2.07-1-1.5,1.22-3.14,1.82-4.93,1.82-1.93,0-3.66-.69-5.18-2.07-1.6-1.43-2.39-3.1-2.39-5v-2.64h-1.97v-3.43c.07-.02.73-.07,1.97-.14v-10.61c0-1.93.8-3.61,2.39-5.04,1.52-1.38,3.25-2.07,5.18-2.07s3.67.7,5.24,2.11c1.56,1.41,2.34,3.07,2.34,5v16.83c0,.81-.17,1.61-.5,2.39.33.21.64.36.93.43h2.04v3.61ZM14.61,26.73c1.45.17,2.91.83,4.36,2,.91.71,2.06,1.86,3.47,3.43v-16.05c0-.86-.41-1.63-1.23-2.32-.82-.69-1.71-1.04-2.66-1.04s-1.85.35-2.68,1.04c-.83.69-1.25,1.47-1.25,2.32v10.61ZM20.69,35.58l-4.61-4.56c-.38-.39-.87-.63-1.47-.72v2.6c0,.84.42,1.62,1.25,2.32.83.7,1.73,1.05,2.68,1.05.74,0,1.45-.23,2.14-.69Z"/>
    <path class="cls-11" d="M151.42,212.62c1.41,0,2.42.06,3.04.18.71.17,1.41.5,2.07,1,1.5-1.22,3.14-1.82,4.93-1.82,1.93,0,3.66.69,5.18,2.07,1.6,1.43,2.39,3.1,2.39,5v2.64h1.97v3.43c-.07.02-.73.07-1.97.14v10.61c0,1.93-.8,3.61-2.39,5.04-1.52,1.38-3.25,2.07-5.18,2.07s-3.67-.7-5.24-2.11c-1.56-1.41-2.34-3.07-2.34-5v-16.83c0-.81.17-1.61.5-2.39-.33-.21-.64-.36-.93-.43h-2.04v-3.61ZM165.39,225.27c-1.45-.17-2.91-.83-4.36-2-.91-.71-2.06-1.86-3.47-3.43v16.05c0,.86.41,1.63,1.23,2.32.82.69,1.71,1.04,2.66,1.04s1.85-.35,2.68-1.04c.83-.69,1.25-1.47,1.25-2.32v-10.61ZM159.31,216.42l4.61,4.56c.38.39.87.63,1.47.72v-2.6c0-.84-.42-1.62-1.25-2.32-.83-.7-1.73-1.05-2.68-1.05-.74,0-1.45.23-2.14.69Z"/>
  </g>
</svg>