<?xml version="1.0" encoding="UTF-8"?>
<svg id="Layer_1" data-name="Layer 1" xmlns="http://www.w3.org/2000/svg" xmlns:xlink="http://www.w3.org/1999/xlink" viewBox="0 0 180 252">
  <defs>
    <style>
      .cls-1, .cls-2, .cls-3, .cls-4, .cls-5 {
        fill: none;
      }

      .cls-6 {
        fill: #010101;
      }

      .cls-7 {
        fill: url(#New_Pattern_Swatch_1_copy);
      }

      .cls-7, .cls-8, .cls-9, .cls-2, .cls-3, .cls-5, .cls-10 {
        stroke-miterlimit: 10;
      }

      .cls-7, .cls-9, .cls-2, .cls-3, .cls-11 {
        stroke: #ba2025;
      }

      .cls-7, .cls-2 {
        stroke-width: 11px;
      }

      .cls-8, .cls-9, .cls-12, .cls-10 {
        fill: #fff;
      }

      .cls-8, .cls-4, .cls-5, .cls-10 {
        stroke: #010101;
      }

      .cls-13 {
        clip-path: url(#clippath-1);
      }

      .cls-4 {
        stroke-linejoin: round;
      }

      .cls-4, .cls-5, .cls-10 {
        stroke-linecap: round;
      }

      .cls-14, .cls-11 {
        fill: #ba2025;
      }

      .cls-15 {
        clip-path: url(#clippath);
      }
    </style>
    <clipPath id="clippath">
      <path class="cls-10" d="M139.77,135.21l-7.5,23.87-14.09,6.52c-8.67-9.78-21.32-15.96-35.42-15.96-26.13,0-47.31,21.18-47.31,47.32,0,12.18,4.61,23.29,12.17,31.67h70.29c7.56-8.39,12.17-19.49,12.17-31.67,0-10.37-3.34-19.95-9-27.74l14.88-6.88,8.52-27.12h5.39c1.25,0,2.25-1.01,2.25-2.25v-8.12c0-1.24-1.02-2.25-2.26-2.25s-2.25,1.01-2.25,2.25v2.99-9c0-1.25-1.01-2.25-2.25-2.25s-2.25,1.01-2.25,2.25v9-9c0-1.25-1.01-2.25-2.25-2.25s-2.25,1.01-2.25,2.25v9-2.99c0-1.24-1.01-2.25-2.25-2.25s-2.25,1.01-2.25,2.25v8.12c0,1.24,1.01,2.25,2.25,2.25h3.4Z"/>
    </clipPath>
    <pattern id="New_Pattern_Swatch_1_copy" data-name="New Pattern Swatch 1 copy" x="0" y="0" width="10.8" height="16.2" patternTransform="translate(-234 -306)" patternUnits="userSpaceOnUse" viewBox="0 0 10.8 16.2">
      <g>
        <rect class="cls-1" y="0" width="10.8" height="16.2"/>
        <circle class="cls-14" cx="10.8" cy="16.2" r="2.87"/>
        <circle class="cls-14" cx="0" cy="16.2" r="2.87"/>
        <circle class="cls-14" cx="5.4" cy="8.1" r="2.87"/>
        <circle class="cls-14" cx="10.8" cy="0" r="2.87"/>
        <circle class="cls-14" cx="0" cy="0" r="2.87"/>
      </g>
    </pattern>
    <clipPath id="clippath-1">
      <path class="cls-9" d="M73.94,171.13c8.56,0,15.49,6.94,15.49,15.49s-6.94,15.49-15.49,15.49-15.49-6.94-15.49-15.49,6.94-15.49,15.49-15.49Z"/>
    </clipPath>
  </defs>
  <g>
    <g>
      <path class="cls-14" d="M154.77,124.79c2,0,3.63,1.62,3.63,3.63s-1.62,3.63-3.63,3.63-3.63-1.62-3.63-3.63,1.62-3.63,3.63-3.63Z"/>
      <path class="cls-14" d="M154.99,126v4.82h-64.3l-6.95-2.41,6.95-2.41h64.3ZM87.48,128.41l3.42,1.19h62.87v-1.18h-66.28Z"/>
      <path class="cls-14" d="M132.04,138.85s-.29-.33-.71-.9c-.21-.29-.47-.63-.71-1.03-.13-.2-.26-.41-.41-.64-.14-.22.05-.46,0-.7v-14.35c.06-.25-.14-.48.03-.7.14-.23.28-.44.41-.63.25-.4.5-.75.71-1.03.42-.57.69-.9.69-.9,0,0,.28.32.7.9.21.29.46.63.71,1.03.13.2.27.41.41.63.17.22-.03.46.03.7v14.35c-.05.24.13.48,0,.7-.15.22-.28.44-.41.64-.24.4-.5.74-.71,1.03-.41.57-.71.9-.71.9Z"/>
    </g>
    <g>
      <path class="cls-12" d="M139.77,135.21l-7.5,23.87-14.09,6.52c-8.67-9.78-21.32-15.96-35.42-15.96-26.13,0-47.31,21.18-47.31,47.32,0,12.18,4.61,23.29,12.17,31.67h70.29c7.56-8.39,12.17-19.49,12.17-31.67,0-10.37-3.34-19.95-9-27.74l14.88-6.88,8.52-27.12h5.39c1.25,0,2.25-1.01,2.25-2.25v-8.12c0-1.24-1.02-2.25-2.26-2.25s-2.25,1.01-2.25,2.25v2.99-9c0-1.25-1.01-2.25-2.25-2.25s-2.25,1.01-2.25,2.25v9-9c0-1.25-1.01-2.25-2.25-2.25s-2.25,1.01-2.25,2.25v9-2.99c0-1.24-1.01-2.25-2.25-2.25s-2.25,1.01-2.25,2.25v8.12c0,1.24,1.01,2.25,2.25,2.25h3.4Z"/>
      <g class="cls-15">
        <g>
          <path class="cls-14" d="M12.61,201.26c-2.59-1.67-5.25-3.26-8-4.77-1.5-.81-2.08-2.68-1.18-4.2.89-1.52,2.87-2.05,4.35-1.17l.28.17.06-.32c.3-1.7,2-2.83,3.7-2.51,1.71.31,2.77,1.98,2.41,3.63-.63,3.08-1.18,6.13-1.62,9.18Z"/>
          <path class="cls-14" d="M25.96,195.93c-2.44-1.91-4.94-3.75-7.51-5.54-1.4-.98-1.76-2.89-.75-4.29,1.01-1.42,3.01-1.74,4.4-.72l.26.19.09-.32c.45-1.67,2.23-2.63,3.89-2.15,1.66.47,2.57,2.19,2.08,3.83-.9,3.02-1.73,5.98-2.46,9Z"/>
          <path class="cls-14" d="M39.79,191.77c-2.26-2.07-4.61-4.17-7.01-6.15-1.31-1.08-1.5-3.02-.38-4.35,1.13-1.31,3.15-1.45,4.44-.34l.25.22.11-.31c.59-1.63,2.44-2.41,4.06-1.81,1.62.61,2.37,2.4,1.75,3.99-1.14,2.94-2.23,5.81-3.22,8.76Z"/>
          <path class="cls-14" d="M53.94,188.78c-2.09-2.27-4.25-4.55-6.47-6.72-1.21-1.19-1.25-3.14-.01-4.37,1.23-1.25,3.26-1.18,4.45.03l.23.24.14-.3c.72-1.56,2.63-2.25,4.19-1.48,1.56.75,2.17,2.6,1.41,4.13-.69,1.4-1.37,2.8-2.03,4.2-.65,1.41-1.29,2.84-1.9,4.26Z"/>
          <path class="cls-14" d="M68.28,186.96c-1.89-2.44-3.85-4.82-5.89-7.22-1.11-1.3-.98-3.24.35-4.34,1.33-1.09,3.34-.95,4.43.38l.21.26.16-.28c.85-1.47,2.81-1.97,4.3-1.11,1.49.86,1.94,2.75,1.06,4.22-1.62,2.7-3.16,5.4-4.63,8.1Z"/>
          <path class="cls-14" d="M82.71,186.39c-.84-1.3-1.7-2.61-2.57-3.9-.88-1.27-1.77-2.54-2.69-3.8-1-1.38-.71-3.3.72-4.31,1.42-1.02,3.41-.65,4.38.77l.18.27.19-.27c.98-1.4,2.97-1.76,4.38-.78,1.42,1.02,1.7,2.96.7,4.32-1.84,2.5-3.61,5.13-5.29,7.7Z"/>
          <path class="cls-14" d="M97.14,187.03c-1.45-2.71-2.97-5.5-4.58-8.14-.88-1.45-.42-3.35,1.08-4.24,1.5-.89,3.45-.31,4.3,1.16l.16.29.21-.25c1.09-1.3,3.11-1.55,4.43-.39,1.32,1.14,1.44,3.08.33,4.36-2.05,2.31-4.03,4.78-5.93,7.21Z"/>
          <path class="cls-14" d="M111.46,188.9c-1.22-2.82-2.49-5.74-3.87-8.51-.75-1.52-.14-3.37,1.44-4.13,1.57-.73,3.46-.01,4.18,1.54l.14.3.23-.23c1.2-1.21,3.24-1.28,4.45-.02,1.22,1.25,1.17,3.2-.04,4.37-2.23,2.13-4.42,4.43-6.52,6.68Z"/>
          <path class="cls-14" d="M125.57,191.98c-.97-2.92-2-5.93-3.14-8.8-.62-1.58.15-3.37,1.78-3.99,1.63-.63,3.45.28,4.04,1.88l.11.31.25-.21c1.3-1.11,3.32-.96,4.44.33,1.11,1.35.9,3.29-.41,4.36-2.41,1.96-4.79,4.07-7.07,6.13Z"/>
          <path class="cls-14" d="M139.4,196.21c-.36-1.5-.73-3.04-1.14-4.53-.41-1.48-.83-2.98-1.27-4.47-.48-1.63.43-3.35,2.11-3.83.83-.24,1.7-.13,2.41.26.7.41,1.24,1.08,1.47,1.91l.08.32.26-.19c1.38-1,3.37-.66,4.38.73,1.01,1.39.65,3.3-.75,4.28-2.58,1.81-5.1,3.66-7.54,5.52Z"/>
          <path class="cls-14" d="M152.87,201.52c-.51-3.02-1.08-6.06-1.71-9.13-.35-1.67.7-3.31,2.4-3.64,1.7-.33,3.38.77,3.7,2.43l.06.32.28-.17c1.45-.87,3.39-.36,4.28,1.12.89,1.48.38,3.36-1.09,4.22-2.7,1.59-5.34,3.2-7.92,4.85Z"/>
        </g>
        <path class="cls-7" d="M28.77,205.82v38.34h108v-38.14c-50.92-23.29-94.3-6.75-108-.2Z"/>
      </g>
      <path class="cls-5" d="M139.77,135.21l-7.5,23.87-14.09,6.52c-8.67-9.78-21.32-15.96-35.42-15.96-26.13,0-47.31,21.18-47.31,47.32,0,12.18,4.61,23.29,12.17,31.67h70.29c7.56-8.39,12.17-19.49,12.17-31.67,0-10.37-3.34-19.95-9-27.74l14.88-6.88,8.52-27.12h5.39c1.25,0,2.25-1.01,2.25-2.25v-8.12c0-1.24-1.02-2.25-2.26-2.25s-2.25,1.01-2.25,2.25v2.99-9c0-1.25-1.01-2.25-2.25-2.25s-2.25,1.01-2.25,2.25v9-9c0-1.25-1.01-2.25-2.25-2.25s-2.25,1.01-2.25,2.25v9-2.99c0-1.24-1.01-2.25-2.25-2.25s-2.25,1.01-2.25,2.25v8.12c0,1.24,1.01,2.25,2.25,2.25h3.4Z"/>
    </g>
    <polygon class="cls-11" points="58.78 76.82 21.6 228.63 50.62 228.63 71.17 76.85 58.78 76.82"/>
    <g>
      <path class="cls-14" d="M109.27,37.45c0-1.44-1.17-2.61-2.61-2.61-1.44,0-2.61,1.17-2.61,2.61,0,1.11.69,2.05,1.67,2.43l-15.55,41.7-7.96-43.55-8.04,43.54-15.57-41.95c.97-.38,1.65-1.32,1.65-2.42,0-1.44-1.17-2.61-2.61-2.61-1.44,0-2.61,1.17-2.61,2.61,0,1.44,1.17,2.61,2.61,2.61.02,0,.03,0,.05,0l-.37,46.69,49.7.04-.29-46.48c1.41-.03,2.55-1.18,2.55-2.6Z"/>
      <path class="cls-9" d="M110.44,89.06c0,2.68-2.17,4.85-4.85,4.84l-46.87-.04c-2.68,0-4.85-2.17-4.84-4.85v-3.23c0-2.68,2.18-4.85,4.86-4.85l46.87.04c2.68,0,4.85,2.18,4.84,4.86v3.23Z"/>
      <g>
        <path class="cls-14" d="M72.48,37.42c0-1.44-1.17-2.61-2.61-2.61-1.44,0-2.61,1.17-2.61,2.61,0,1.36,1.04,2.46,2.36,2.59l-1.82,19.1,5.77,15.55,2.62-14.21-5.63-20.51c1.11-.3,1.92-1.3,1.92-2.5Z"/>
        <path class="cls-14" d="M97.15,37.44c0-1.44-1.17-2.61-2.61-2.61-1.44,0-2.61,1.17-2.61,2.61,0,1.2.81,2.2,1.92,2.51l-5.67,20.5,2.6,14.22,5.79-15.54-1.79-19.1c1.32-.12,2.36-1.23,2.36-2.58Z"/>
      </g>
    </g>
    <path class="cls-14" d="M82.15,41.77l-7.71-11.37c-1.4-2.06-.86-4.86,1.2-6.26,2.06-1.4,4.86-.86,6.26,1.2l.27.39.27-.39c1.4-2.06,4.21-2.59,6.26-1.19,2.06,1.4,2.59,4.2,1.19,6.26l-7.73,11.35Z"/>
    <g>
      <path class="cls-10" d="M64.94,203.03c0-1.24,1-2.25,2.25-2.25s2.25,1.01,2.25,2.25v2.99-9c0-1.25,1.01-2.25,2.25-2.25s2.25,1.01,2.25,2.25v9-9c0-1.25,1.01-2.25,2.25-2.25s2.25,1.01,2.25,2.25v9-2.99c0-1.24,1-2.25,2.25-2.25s2.25,1.01,2.25,2.25v4.12h0c0,1.24-1.01,2.25-2.25,2.25h-13.5c-1.24,0-2.25-1.01-2.25-2.25h0v-4.12Z"/>
      <path class="cls-14" d="M73.93,170.77l-4.22-6.22c-.76-1.13-.47-2.66.66-3.42,1.13-.76,2.66-.47,3.43.66l.15.22.15-.21c.77-1.13,2.3-1.42,3.42-.65,1.12.77,1.42,2.3.65,3.42l-4.23,6.21Z"/>
      <g>
        <path class="cls-12" d="M73.94,171.13c8.56,0,15.49,6.94,15.49,15.49s-6.94,15.49-15.49,15.49-15.49-6.94-15.49-15.49,6.94-15.49,15.49-15.49Z"/>
        <g class="cls-13">
          <path class="cls-2" d="M101.99,194.9c-26.45-12.1-48.99-3.51-56.1-.1"/>
        </g>
        <path class="cls-3" d="M73.94,171.13c8.56,0,15.49,6.94,15.49,15.49s-6.94,15.49-15.49,15.49-15.49-6.94-15.49-15.49,6.94-15.49,15.49-15.49Z"/>
      </g>
    </g>
    <g>
      <path class="cls-8" d="M122.77,142.83c0,5.52-4.48,10-10,10h-60c-5.52,0-10-4.48-10-10v-40c0-5.52,4.48-10,10-10h60c5.52,0,10,4.48,10,10v40Z"/>
      <g>
        <g>
          <path class="cls-4" d="M80.74,124.41c0,1.83-2.96,3.31-6.61,3.31s-6.61-1.48-6.61-3.31"/>
          <path class="cls-4" d="M107.2,124.41c0,1.82-2.96,3.3-6.61,3.3s-6.61-1.48-6.61-3.3"/>
        </g>
        <g>
          <path class="cls-14" d="M66.69,135.92c2.39,0,4.33.97,4.33,2.17s-1.94,2.17-4.33,2.17-4.33-.97-4.33-2.17,1.94-2.17,4.33-2.17Z"/>
          <path class="cls-14" d="M108.02,135.92c2.4,0,4.34.97,4.34,2.17s-1.94,2.17-4.34,2.17-4.33-.97-4.33-2.17,1.94-2.17,4.33-2.17Z"/>
        </g>
      </g>
      <path class="cls-6" d="M92.36,143.36v4.73h-10.01v-4.73h-39.58c0,5.52,4.48,10,10,10h60c5.52,0,10-4.48,10-10h-30.41Z"/>
    </g>
  </g>
  <g>
    <path class="cls-14" d="M9,35.73h2.75V12.29h-2.75v-3.29h8.33v3.29h-2.32v11.4l7.33-11.4h-2.82v-3.29h9.15v3.29h-2.63l-5.95,9.26,6.08,14.19h2.5v3.29h-9.15v-3.29h2.95l-4.6-10.74-2.86,4.45v6.29h2.32v3.29h-8.33v-3.29Z"/>
    <path class="cls-14" d="M171,216.27h-2.75v23.44h2.75v3.29h-8.33v-3.29h2.32v-11.4l-7.33,11.4h2.82v3.29h-9.15v-3.29h2.63l5.95-9.26-6.08-14.19h-2.5v-3.29h9.15v3.29h-2.95l4.6,10.74,2.86-4.45v-6.29h-2.32v-3.29h8.33v3.29Z"/>
  </g>
</svg>