<?xml version="1.0" encoding="UTF-8"?>
<svg id="Layer_1" data-name="Layer 1" xmlns="http://www.w3.org/2000/svg" viewBox="0 0 180 252">
  <defs>
    <style>
      .cls-1 {
        fill: #fff;
      }

      .cls-2 {
        fill: #ba2025;
      }
    </style>
  </defs>
  <g>
    <path class="cls-2" d="M90,197.65L29.87,109.17c-10.89-16.03-6.72-37.86,9.3-48.75,16.04-10.89,37.86-6.72,48.75,9.31l2.08,3.06,2.08-3.06c10.9-16.03,32.73-20.2,48.75-9.31,16.03,10.9,20.2,32.73,9.3,48.75l-60.13,88.49Z"/>
    <g>
      <g>
        <path class="cls-1" d="M78.96,103.04c0,4.07-1.65,7.36-3.68,7.36s-3.68-3.29-3.68-7.36,1.65-7.36,3.68-7.36,3.68,3.3,3.68,7.36Z"/>
        <path class="cls-1" d="M108.4,103.04c0,4.07-1.65,7.36-3.68,7.36s-3.68-3.29-3.68-7.36,1.65-7.36,3.68-7.36,3.68,3.3,3.68,7.36Z"/>
      </g>
      <g>
        <path class="cls-1" d="M67,115.85c2.66,0,4.82,1.08,4.82,2.41s-2.16,2.41-4.82,2.41-4.82-1.08-4.82-2.41,2.16-2.41,4.82-2.41Z"/>
        <path class="cls-1" d="M113,115.85c2.67,0,4.83,1.08,4.83,2.41s-2.16,2.41-4.83,2.41-4.82-1.08-4.82-2.41,2.16-2.41,4.82-2.41Z"/>
      </g>
    </g>
  </g>
  <g>
    <path class="cls-2" d="M16.97,35.34v3.61h-7.97v-3.61h2.61l4.93-26.34h4.47l4.97,26.34h2.61v3.61h-7.97v-3.61h1.72s-.57-3.14-.57-3.14h-5.93l-.59,3.14h1.72ZM16.47,28.58h4.63l-2.32-12.31-2.31,12.31Z"/>
    <path class="cls-2" d="M163.03,216.66v-3.61h7.97v3.61h-2.61l-4.93,26.34h-4.47l-4.97-26.34h-2.61v-3.61h7.97v3.61h-1.72s.57,3.14.57,3.14h5.93l.59-3.14h-1.72ZM163.53,223.42h-4.63l2.32,12.31,2.31-12.31Z"/>
  </g>
</svg>