<?xml version="1.0" encoding="UTF-8"?>
<svg id="a" data-name="Layer 1" xmlns="http://www.w3.org/2000/svg" width="2.5in" height="3.5in" xmlns:xlink="http://www.w3.org/1999/xlink" viewBox="0 0 180 252">
  <defs>
    <clipPath id="b">
      <rect width="180" height="252" rx="18" ry="18" style="fill: none;"/>
    </clipPath>
  </defs>
  <g style="clip-path: url(#b);">
    <rect width="180" height="252" style="fill: #fff;"/>
    <path d="M66.02,92.96h14.98v30.24H5.96v-7.7c0-14.09,5.18-26.74,15.54-37.94,4.05-4.29,13.71-11.99,28.97-23.1,10.36-7.56,15.54-14.05,15.54-19.46,0-5.04-2.87-8.96-8.62-11.76-4.52-2.24-9.66-3.36-15.4-3.36-14.04,0-21.06,4.67-21.06,14,0,1.96.51,4.15,1.54,6.58l-14,5.88c-1.68-4.39-2.52-8.54-2.52-12.46,0-9.71,3.65-17.17,10.96-22.4,6.56-4.67,14.89-7,25.01-7s18.88,2.52,26.28,7.56c8.52,5.69,12.79,13.35,12.79,22.96,0,8.96-4.5,17.36-13.5,25.2-8.82,6.72-17.63,13.44-26.45,20.16-10.32,8.59-16.55,17.73-18.71,27.44h43.68v-14.84Z" style="fill: #231f20;"/>
    <path d="M85.93,98.54l.73-5.49c-1.12.45-2.32.68-3.55.68-1.92,0-3.78-.57-5.37-1.66-2.11-1.43-3.54-3.6-4.02-6.11-.48-2.51.05-5.06,1.48-7.17l14.79-21.77,14.79,21.77c1.44,2.11,1.96,4.66,1.48,7.17-.48,2.51-1.91,4.68-4.02,6.12-1.59,1.08-3.45,1.66-5.37,1.66h0c-1.23,0-2.44-.24-3.55-.68l.73,5.49h-8.13Z" style="fill: #fff;"/>
    <path d="M103.31,79.8l-13.31-19.58-13.3,19.58c-2.41,3.54-1.49,8.38,2.06,10.78,3.29,2.24,7.69,1.61,10.23-1.33l-.99,7.49h4.02l-.99-7.49c2.54,2.94,6.94,3.57,10.23,1.33,3.55-2.41,4.47-7.23,2.06-10.78Z" style="fill: #231f20;"/>
    <path d="M85.93,193.58l.73-5.49c-1.12.45-2.32.68-3.56.68-1.92,0-3.77-.57-5.37-1.66-2.11-1.44-3.54-3.61-4.02-6.12-.48-2.51.05-5.06,1.48-7.17l14.79-21.77,14.8,21.77c1.44,2.11,1.96,4.66,1.48,7.17-.48,2.51-1.91,4.68-4.02,6.12-1.59,1.08-3.45,1.65-5.37,1.65h0c-1.23,0-2.44-.24-3.55-.68l.73,5.49h-8.13Z" style="fill: #fff;"/>
    <path d="M103.31,174.84l-13.31-19.58-13.3,19.58c-2.41,3.55-1.49,8.38,2.06,10.79,3.29,2.24,7.69,1.6,10.23-1.34l-.99,7.49h4.02l-.99-7.49c2.54,2.94,6.94,3.57,10.23,1.34,3.55-2.41,4.47-7.24,2.06-10.79Z" style="fill: #231f20;"/>
  </g>
</svg>