<?xml version="1.0" encoding="UTF-8"?>
<svg id="a" data-name="Layer 1" xmlns="http://www.w3.org/2000/svg" width="2.5in" height="3.5in" xmlns:xlink="http://www.w3.org/1999/xlink" viewBox="0 0 180 252">
  <defs>
    <clipPath id="b">
      <rect width="180" height="252" rx="18" ry="18" style="fill: none;"/>
    </clipPath>
  </defs>
  <g style="clip-path: url(#b);">
    <rect width="180" height="252" style="fill: #fff;"/>
    <path d="M44.32,123.48c-8.96,0-16.99-3.08-24.08-9.24-6.44-5.6-11.2-12.88-14.28-21.84l14.31-5.04c1.96,5.84,4.91,10.62,8.84,14.32,4.49,4.27,9.59,6.4,15.29,6.4,7.11,0,13.23-2.79,18.38-8.38,5.15-5.58,7.72-11.92,7.72-18.99s-2.2-12.66-6.6-17.03c-4.4-4.38-10.15-6.56-17.27-6.56-3.28,0-5.85.42-7.72,1.26s-4.12,2.47-6.74,4.9l-10.81-10.64L56.22,19.88H22.62v14.98H7.64V4.48h76.58v9.64l-29.86,28.25c9.44,1.78,16.98,6.19,22.64,13.24,5.65,7.05,8.48,15.43,8.48,25.14,0,11.3-4.06,21.25-12.18,29.84-8.12,8.59-17.78,12.89-28.98,12.89Z" style="fill: #231f20;"/>
    <g>
      <path d="M85.94,74.21l.73-5.49c-1.12.45-2.32.68-3.56.68-1.92,0-3.78-.57-5.37-1.66-2.11-1.43-3.54-3.6-4.02-6.12-.48-2.51.05-5.06,1.48-7.17l14.79-21.77,14.79,21.77c1.44,2.12,1.96,4.66,1.48,7.17-.48,2.51-1.91,4.68-4.02,6.12-1.59,1.08-3.45,1.65-5.37,1.65h0c-1.23,0-2.44-.24-3.55-.68l.73,5.49h-8.13Z" style="fill: #fff;"/>
      <path d="M103.31,55.47l-13.31-19.58-13.3,19.58c-2.41,3.55-1.49,8.38,2.06,10.79,3.29,2.24,7.69,1.6,10.23-1.34l-.99,7.49h4.02l-.99-7.49c2.54,2.94,6.94,3.57,10.23,1.34,3.55-2.41,4.47-7.23,2.06-10.79Z" style="fill: #231f20;"/>
      <path d="M85.94,146.67l.73-5.49c-1.12.45-2.32.68-3.56.68-1.92,0-3.78-.57-5.37-1.66-2.11-1.43-3.54-3.61-4.02-6.12-.48-2.51.05-5.06,1.49-7.17l14.79-21.77,14.79,21.77c2.96,4.37,1.83,10.33-2.54,13.29-1.59,1.08-3.45,1.65-5.37,1.65h0c-1.23,0-2.44-.24-3.55-.68l.73,5.49h-8.13Z" style="fill: #fff;"/>
      <path d="M103.31,127.93l-13.31-19.58-13.3,19.58c-2.41,3.55-1.49,8.38,2.06,10.79,3.29,2.24,7.69,1.6,10.23-1.34l-.99,7.49h4.02l-.99-7.49c2.54,2.94,6.94,3.57,10.23,1.34,3.55-2.41,4.47-7.24,2.06-10.79Z" style="fill: #231f20;"/>
      <path d="M85.94,217.91l.73-5.49c-1.12.45-2.32.68-3.56.68-1.92,0-3.78-.57-5.37-1.66-2.11-1.43-3.54-3.61-4.02-6.12-.48-2.51.05-5.06,1.49-7.17l14.79-21.77,14.79,21.77c1.44,2.12,1.96,4.66,1.48,7.17-.48,2.51-1.91,4.68-4.02,6.12-1.59,1.08-3.45,1.65-5.37,1.65h0c-1.23,0-2.44-.24-3.55-.68l.73,5.49h-8.13Z" style="fill: #fff;"/>
      <path d="M103.31,199.17l-13.31-19.58-13.3,19.58c-2.41,3.54-1.49,8.38,2.06,10.79,3.29,2.24,7.69,1.61,10.23-1.34l-.99,7.49h4.02l-.99-7.49c2.54,2.94,6.94,3.57,10.23,1.34,3.55-2.41,4.47-7.24,2.06-10.79Z" style="fill: #231f20;"/>
    </g>
  </g>
</svg>