<?xml version="1.0" encoding="UTF-8"?>
<svg id="Layer_1" data-name="Layer 1" xmlns="http://www.w3.org/2000/svg" viewBox="0 0 180 252">
  <defs>
    <style>
      .cls-1 {
        fill: #231f20;
      }
    </style>
  </defs>
  <g>
    <path class="cls-1" d="M53.25,55.47l-13.31-19.58-13.3,19.58c-2.41,3.55-1.49,8.38,2.06,10.79,3.29,2.24,7.69,1.6,10.23-1.34l-.99,7.49h4.02l-.99-7.49c2.54,2.94,6.94,3.57,10.23,1.34,3.55-2.41,4.47-7.24,2.06-10.79Z"/>
    <path class="cls-1" d="M153.46,55.47l-13.31-19.58-13.3,19.58c-2.41,3.55-1.49,8.38,2.06,10.79,3.29,2.24,7.69,1.6,10.23-1.34l-.99,7.49h4.02l-.99-7.49c2.54,2.94,6.94,3.57,10.23,1.34,3.55-2.41,4.47-7.24,2.06-10.79Z"/>
    <g>
      <path class="cls-1" d="M53.16,199.17l-13.31-19.58-13.3,19.58c-2.41,3.55-1.49,8.38,2.06,10.79,3.29,2.24,7.69,1.6,10.23-1.34l-.99,7.49h4.02l-.99-7.49c2.54,2.94,6.94,3.57,10.23,1.34,3.55-2.41,4.47-7.24,2.06-10.79Z"/>
      <path class="cls-1" d="M153.46,199.17l-13.31-19.58-13.3,19.58c-2.41,3.55-1.49,8.38,2.06,10.79,3.29,2.24,7.69,1.6,10.23-1.34l-.99,7.49h4.02l-.99-7.49c2.54,2.94,6.94,3.57,10.23,1.34,3.55-2.41,4.47-7.24,2.06-10.79Z"/>
    </g>
  </g>
  <g>
    <path class="cls-1" d="M18.43,34.91h2.43v-3.14h-11.86v-3.11l12.4-19.66h3.29v18.83h3.68v3.93h-3.68v3.14h1.82v3.93h-8.08v-3.93ZM14.12,27.83h6.74v-10.68l-6.74,10.68Z"/>
    <path class="cls-1" d="M161.57,217.09h-2.43v3.14h11.86v3.11l-12.4,19.66h-3.29v-18.83h-3.68v-3.93h3.68v-3.14h-1.82v-3.93h8.08v3.93ZM165.88,224.17h-6.74v10.68l6.74-10.68Z"/>
  </g>
</svg>