<?xml version="1.0" encoding="UTF-8"?>
<svg id="a" data-name="Layer 1" xmlns="http://www.w3.org/2000/svg" width="2.5in" height="3.5in" xmlns:xlink="http://www.w3.org/1999/xlink" viewBox="0 0 180 252">
  <defs>
    <clipPath id="b">
      <rect width="180" height="252" rx="18" ry="18" style="fill: none;"/>
    </clipPath>
  </defs>
  <g style="clip-path: url(#b);">
    <rect width="180" height="252" style="fill: #fff;"/>
    <path d="M43.48,124.04c-8.4,0-16.1-2.89-23.1-8.68-6.16-5.32-10.97-12.18-14.42-20.58l14.03-5.88c2.24,5.47,5.24,9.96,8.98,13.48,4.4,4.17,9.26,6.26,14.59,6.26,7.48,0,13.7-3.48,18.66-10.45,4.49-6.23,6.74-13.15,6.74-20.77s-2.25-14.59-6.74-20.63c-4.87-6.6-11.09-9.89-18.67-9.89-6.46,0-12.87,3.45-19.23,10.36l-10.95-6.44V4.48h56.84v15.4H28.36v14.98c4.86-2.24,9.87-3.36,15.02-3.36,11.79,0,21.61,4.81,29.47,14.42,7.39,8.96,11.09,19.46,11.09,31.5s-3.64,22.63-10.92,31.78c-7.93,9.89-17.78,14.84-29.54,14.84Z" style="fill: #231f20;"/>
    <g>
      <path d="M35.88,74.21l.73-5.49c-1.12.45-2.32.68-3.56.68-1.92,0-3.78-.57-5.37-1.66-2.11-1.43-3.54-3.61-4.02-6.12s.05-5.06,1.48-7.17l14.79-21.77,14.79,21.77c1.44,2.12,1.96,4.66,1.48,7.17-.48,2.51-1.91,4.68-4.02,6.12-1.59,1.08-3.45,1.65-5.37,1.65h0c-1.23,0-2.44-.24-3.55-.68l.73,5.49h-8.13Z" style="fill: #fff;"/>
      <path d="M53.25,55.48l-13.31-19.58-13.3,19.58c-2.41,3.55-1.49,8.38,2.06,10.79,3.29,2.24,7.69,1.6,10.23-1.34l-.99,7.49h4.02l-.99-7.49c2.54,2.94,6.94,3.57,10.23,1.34,3.55-2.41,4.47-7.23,2.06-10.79Z" style="fill: #231f20;"/>
      <path d="M136.09,74.21l.73-5.49c-1.12.45-2.32.68-3.56.68-1.92,0-3.78-.57-5.37-1.66-2.11-1.43-3.54-3.61-4.02-6.12s.05-5.06,1.49-7.17l14.79-21.77,14.8,21.77c2.96,4.37,1.82,10.33-2.54,13.29-1.59,1.08-3.45,1.65-5.37,1.65h0c-1.23,0-2.44-.24-3.55-.68l.73,5.49h-8.13Z" style="fill: #fff;"/>
      <path d="M153.46,55.48l-13.31-19.58-13.3,19.58c-2.41,3.55-1.49,8.38,2.06,10.79,3.29,2.24,7.69,1.6,10.23-1.34l-.99,7.49h4.02l-.99-7.49c2.54,2.94,6.94,3.57,10.23,1.34,3.55-2.41,4.47-7.23,2.06-10.79Z" style="fill: #231f20;"/>
      <path d="M85.93,146.67l.73-5.49c-1.12.45-2.32.68-3.56.68-1.92,0-3.78-.57-5.37-1.66-2.11-1.43-3.54-3.61-4.02-6.12-.48-2.51.05-5.06,1.49-7.17l14.79-21.77,14.79,21.77c1.44,2.12,1.96,4.66,1.48,7.17-.48,2.51-1.91,4.68-4.02,6.12-1.59,1.08-3.45,1.65-5.37,1.65h0c-1.23,0-2.44-.24-3.55-.68l.73,5.49h-8.13Z" style="fill: #fff;"/>
      <path d="M103.31,127.93l-13.31-19.58-13.3,19.58c-2.41,3.55-1.49,8.38,2.06,10.79,3.29,2.24,7.69,1.6,10.23-1.34l-.99,7.49h4.02l-.99-7.49c2.54,2.94,6.94,3.57,10.23,1.34,3.55-2.41,4.47-7.24,2.06-10.79Z" style="fill: #231f20;"/>
      <path d="M35.78,217.91l.73-5.49c-1.12.45-2.32.68-3.56.68-1.92,0-3.78-.57-5.37-1.66-2.11-1.43-3.54-3.6-4.02-6.11-.48-2.51.05-5.06,1.48-7.18l14.79-21.77,14.79,21.77c1.44,2.12,1.96,4.66,1.48,7.17-.48,2.51-1.91,4.68-4.02,6.12-1.59,1.08-3.45,1.65-5.37,1.65h0c-1.23,0-2.44-.24-3.55-.68l.73,5.49h-8.13Z" style="fill: #fff;"/>
      <path d="M53.16,199.17l-13.31-19.58-13.3,19.58c-2.41,3.55-1.49,8.38,2.06,10.79,3.29,2.24,7.69,1.61,10.23-1.33l-.99,7.49h4.02l-.99-7.49c2.54,2.94,6.94,3.57,10.23,1.33,3.55-2.41,4.47-7.24,2.06-10.79Z" style="fill: #231f20;"/>
      <path d="M136.08,217.91l.73-5.49c-1.12.45-2.32.68-3.56.68-1.92,0-3.78-.57-5.37-1.66-2.11-1.43-3.54-3.6-4.02-6.11-.48-2.51.05-5.06,1.48-7.18l14.79-21.77,14.8,21.77c1.44,2.12,1.96,4.66,1.48,7.17-.48,2.51-1.91,4.68-4.02,6.12-1.59,1.08-3.45,1.65-5.37,1.65h0c-1.23,0-2.44-.24-3.55-.68l.73,5.49h-8.13Z" style="fill: #fff;"/>
      <path d="M153.46,199.17l-13.31-19.58-13.3,19.58c-2.41,3.55-1.49,8.38,2.06,10.79,3.29,2.24,7.69,1.61,10.23-1.33l-.99,7.49h4.02l-.99-7.49c2.54,2.94,6.94,3.57,10.23,1.33,3.55-2.41,4.47-7.24,2.06-10.79Z" style="fill: #231f20;"/>
    </g>
  </g>
</svg>