<?xml version="1.0" encoding="UTF-8"?>
<svg id="Layer_1" data-name="Layer 1" xmlns="http://www.w3.org/2000/svg" viewBox="0 0 180 252">
  <defs>
    <style>
      .cls-1 {
        fill: #231f20;
      }
    </style>
  </defs>
  <g>
    <path class="cls-1" d="M53.25,55.48l-13.31-19.58-13.3,19.58c-2.41,3.55-1.49,8.38,2.06,10.79,3.29,2.24,7.69,1.6,10.23-1.34l-.99,7.49h4.02l-.99-7.49c2.54,2.94,6.94,3.57,10.23,1.34,3.55-2.41,4.47-7.23,2.06-10.79Z"/>
    <path class="cls-1" d="M153.46,55.48l-13.31-19.58-13.3,19.58c-2.41,3.55-1.49,8.38,2.06,10.79,3.29,2.24,7.69,1.6,10.23-1.34l-.99,7.49h4.02l-.99-7.49c2.54,2.94,6.94,3.57,10.23,1.34,3.55-2.41,4.47-7.23,2.06-10.79Z"/>
    <path class="cls-1" d="M103.31,127.93l-13.31-19.58-13.3,19.58c-2.41,3.55-1.49,8.38,2.06,10.79,3.29,2.24,7.69,1.6,10.23-1.34l-.99,7.49h4.02l-.99-7.49c2.54,2.94,6.94,3.57,10.23,1.34,3.55-2.41,4.47-7.24,2.06-10.79Z"/>
    <g>
      <path class="cls-1" d="M53.16,199.17l-13.31-19.58-13.3,19.58c-2.41,3.55-1.49,8.38,2.06,10.79,3.29,2.24,7.69,1.61,10.23-1.33l-.99,7.49h4.02l-.99-7.49c2.54,2.94,6.94,3.57,10.23,1.33,3.55-2.41,4.47-7.24,2.06-10.79Z"/>
      <path class="cls-1" d="M153.46,199.17l-13.31-19.58-13.3,19.58c-2.41,3.55-1.49,8.38,2.06,10.79,3.29,2.24,7.69,1.61,10.23-1.33l-.99,7.49h4.02l-.99-7.49c2.54,2.94,6.94,3.57,10.23,1.33,3.55-2.41,4.47-7.24,2.06-10.79Z"/>
    </g>
  </g>
  <g>
    <path class="cls-1" d="M161.42,212.48c2.14,0,4.11.74,5.9,2.22,1.57,1.36,2.8,3.11,3.68,5.25l-3.58,1.5c-.57-1.4-1.34-2.54-2.29-3.44-1.12-1.07-2.36-1.6-3.72-1.6-1.91,0-3.5.89-4.76,2.67-1.15,1.59-1.72,3.36-1.72,5.3s.57,3.72,1.72,5.27c1.24,1.68,2.83,2.53,4.76,2.53,1.65,0,3.28-.88,4.91-2.64l2.79,1.64v11.83h-14.51v-3.93h10.69v-3.82c-1.24.57-2.52.86-3.83.86-3.01,0-5.52-1.23-7.52-3.68-1.89-2.29-2.83-4.97-2.83-8.04s.93-5.78,2.79-8.11c2.03-2.53,4.54-3.79,7.54-3.79Z"/>
    <path class="cls-1" d="M18.58,39.52c-2.14,0-4.11-.74-5.9-2.22-1.57-1.36-2.8-3.11-3.68-5.25l3.58-1.5c.57,1.4,1.34,2.54,2.29,3.44,1.12,1.07,2.36,1.6,3.72,1.6,1.91,0,3.5-.89,4.76-2.67,1.15-1.59,1.72-3.36,1.72-5.3,0-1.97-.57-3.72-1.72-5.27-1.24-1.68-2.83-2.53-4.76-2.53-1.65,0-3.28.88-4.91,2.64l-2.79-1.64v-11.83h14.51v3.93h-10.69s0,3.82,0,3.82c1.24-.57,2.52-.86,3.83-.86,3.01,0,5.52,1.23,7.52,3.68,1.89,2.29,2.83,4.97,2.83,8.04,0,3.07-.93,5.78-2.79,8.11-2.03,2.53-4.54,3.79-7.54,3.79Z"/>
  </g>
</svg>