<?xml version="1.0" encoding="UTF-8"?>
<svg id="a" data-name="Layer 1" xmlns="http://www.w3.org/2000/svg" width="2.5in" height="3.5in" xmlns:xlink="http://www.w3.org/1999/xlink" viewBox="0 0 180 252">
  <defs>
    <clipPath id="b">
      <rect width="180" height="252" rx="18" ry="18" style="fill: none;"/>
    </clipPath>
  </defs>
  <g style="clip-path: url(#b);">
    <rect width="180" height="252" style="fill: #fff;"/>
    <path d="M6.38,74.62h-.14c-.19.37-.28-2.94-.28-9.94,0-16.43,2.24-29.63,6.72-39.62C19.03,11.34,29.43,4.48,43.9,4.48c7.09,0,13.67,1.91,19.74,5.74,5.79,3.73,10.5,8.77,14.14,15.12l-13.02,7.84c-5.04-8.87-11.99-13.3-20.86-13.3-11.57,0-18.76,8.63-21.56,25.9,6.44-5.69,13.58-8.54,21.42-8.54,11.57,0,21,4.81,28.28,14.42,6.53,8.68,9.8,19.04,9.8,31.08,0,11.2-3.5,21.09-10.5,29.68-7.47,9.05-16.66,13.58-27.58,13.58-5.41,0-11.06-1.77-16.94-5.32-6.25-3.73-11.25-10.59-14.98-20.58-2.89-7.75-4.71-16.24-5.46-25.48ZM43.76,110.6c6.72,0,12.32-3.07,16.8-9.22,4.2-5.59,6.3-11.82,6.3-18.71,0-7.73-1.91-14.43-5.74-20.11-4.29-6.61-10.08-9.92-17.36-9.92-5.32,0-10.13,2.56-14.42,7.68-3.55,4.28-6.16,9.31-7.84,15.08.84,8.57,2.71,15.92,5.6,22.06,4.11,8.75,9.66,13.13,16.66,13.13Z" style="fill: #231f20;"/>
    <g>
      <path d="M35.88,74.21l.73-5.49c-1.12.45-2.32.68-3.56.68-1.92,0-3.78-.57-5.37-1.66-2.11-1.43-3.54-3.6-4.02-6.11-.48-2.51.05-5.06,1.48-7.17l14.79-21.77,14.79,21.77c1.44,2.12,1.96,4.66,1.48,7.17-.48,2.51-1.91,4.68-4.02,6.12-1.59,1.08-3.45,1.65-5.37,1.65h0c-1.23,0-2.44-.24-3.55-.68l.73,5.49h-8.13Z" style="fill: #fff;"/>
      <path d="M53.25,55.47l-13.31-19.58-13.3,19.58c-2.41,3.54-1.49,8.38,2.06,10.79,3.29,2.24,7.69,1.61,10.23-1.33l-.99,7.49h4.02l-.99-7.49c2.54,2.94,6.94,3.57,10.23,1.33,3.55-2.41,4.47-7.23,2.06-10.79Z" style="fill: #231f20;"/>
      <path d="M136.09,74.21l.73-5.49c-1.12.45-2.32.68-3.56.68-1.92,0-3.78-.57-5.37-1.66-2.11-1.43-3.54-3.6-4.02-6.11-.48-2.51.05-5.06,1.49-7.17l14.79-21.77,14.8,21.77c1.44,2.12,1.96,4.66,1.48,7.17-.48,2.51-1.91,4.68-4.02,6.12-1.59,1.08-3.45,1.65-5.37,1.65h0c-1.23,0-2.44-.24-3.55-.68l.73,5.49h-8.13Z" style="fill: #fff;"/>
      <path d="M153.46,55.47l-13.31-19.58-13.3,19.58c-2.41,3.54-1.49,8.38,2.06,10.79,3.29,2.24,7.69,1.61,10.23-1.33l-.99,7.49h4.02l-.99-7.49c2.54,2.94,6.94,3.57,10.23,1.33,3.55-2.41,4.47-7.23,2.06-10.79Z" style="fill: #231f20;"/>
      <path d="M35.78,146.67l.73-5.49c-1.12.45-2.32.68-3.55.68-1.92,0-3.78-.57-5.37-1.66-2.11-1.43-3.54-3.61-4.02-6.12-.48-2.51.05-5.06,1.48-7.17l14.79-21.77,14.8,21.77c1.43,2.11,1.96,4.66,1.48,7.17-.48,2.51-1.91,4.68-4.02,6.12-1.59,1.08-3.45,1.65-5.37,1.65h0c-1.23,0-2.44-.24-3.55-.68l.73,5.49h-8.13Z" style="fill: #fff;"/>
      <path d="M53.16,127.93l-13.31-19.58-13.3,19.58c-2.41,3.55-1.49,8.38,2.06,10.79,3.29,2.24,7.69,1.61,10.23-1.34l-.99,7.49h4.02l-.99-7.49c2.54,2.94,6.94,3.57,10.23,1.34,3.55-2.41,4.47-7.24,2.06-10.78Z" style="fill: #231f20;"/>
      <path d="M136.09,146.67l.73-5.49c-1.12.45-2.32.68-3.55.68-1.92,0-3.78-.57-5.37-1.66-2.11-1.43-3.54-3.6-4.02-6.11-.48-2.51.05-5.06,1.49-7.17l14.79-21.77,14.8,21.77c1.44,2.11,1.96,4.66,1.48,7.17-.48,2.51-1.91,4.68-4.02,6.12-1.59,1.08-3.45,1.65-5.37,1.65h0c-1.23,0-2.44-.24-3.55-.68l.73,5.49h-8.13Z" style="fill: #fff;"/>
      <path d="M153.46,127.93l-13.31-19.58-13.3,19.58c-2.41,3.55-1.49,8.38,2.06,10.79,3.29,2.24,7.69,1.61,10.23-1.34l-.99,7.49h4.02l-.99-7.49c2.54,2.94,6.94,3.57,10.23,1.34,3.55-2.41,4.47-7.24,2.06-10.78Z" style="fill: #231f20;"/>
      <path d="M35.79,217.91l.73-5.49c-1.12.45-2.32.68-3.56.68-1.92,0-3.78-.57-5.37-1.66-2.11-1.43-3.54-3.61-4.02-6.12-.48-2.51.05-5.06,1.49-7.17l14.79-21.77,14.79,21.77c2.96,4.37,1.82,10.33-2.54,13.29-1.59,1.08-3.45,1.65-5.37,1.65h0c-1.23,0-2.44-.24-3.55-.68l.73,5.49h-8.12Z" style="fill: #fff;"/>
      <path d="M53.16,199.16l-13.31-19.58-13.3,19.58c-2.41,3.55-1.49,8.38,2.06,10.79,3.29,2.24,7.69,1.61,10.23-1.34l-.99,7.49h4.02l-.99-7.49c2.54,2.94,6.94,3.57,10.23,1.34,3.55-2.41,4.47-7.24,2.06-10.79Z" style="fill: #231f20;"/>
      <path d="M136.08,217.91l.73-5.49c-1.12.45-2.32.68-3.56.68-1.92,0-3.78-.57-5.37-1.66-2.11-1.43-3.54-3.61-4.02-6.12-.48-2.51.05-5.06,1.49-7.17l14.79-21.77,14.8,21.77c2.96,4.37,1.82,10.33-2.54,13.29-1.59,1.08-3.45,1.65-5.37,1.65h0c-1.23,0-2.44-.24-3.55-.68l.73,5.49h-8.13Z" style="fill: #fff;"/>
      <path d="M153.46,199.16l-13.31-19.58-13.3,19.58c-2.41,3.55-1.49,8.38,2.06,10.79,3.29,2.24,7.69,1.61,10.23-1.34l-.99,7.49h4.02l-.99-7.49c2.54,2.94,6.94,3.57,10.23,1.34,3.55-2.41,4.47-7.24,2.06-10.79Z" style="fill: #231f20;"/>
    </g>
  </g>
</svg>