<?xml version="1.0" encoding="UTF-8"?>
<svg id="Layer_1" data-name="Layer 1" xmlns="http://www.w3.org/2000/svg" viewBox="0 0 180 252">
  <defs>
    <style>
      .cls-1 {
        fill: #231f20;
      }
    </style>
  </defs>
  <g>
    <g>
      <path class="cls-1" d="M153.46,79.8l-13.31-19.58-13.3,19.58c-2.41,3.55-1.49,8.38,2.06,10.78,3.29,2.25,7.69,1.61,10.23-1.33l-.99,7.49h4.02l-.99-7.49c2.54,2.94,6.94,3.58,10.23,1.33,3.55-2.41,4.47-7.23,2.06-10.78Z"/>
      <path class="cls-1" d="M153.46,174.84l-13.31-19.58-13.3,19.58c-2.41,3.55-1.49,8.38,2.06,10.79,3.29,2.24,7.69,1.6,10.23-1.33l-.99,7.48h4.02l-.99-7.48c2.54,2.94,6.94,3.57,10.23,1.33,3.55-2.41,4.47-7.24,2.06-10.79Z"/>
    </g>
    <g>
      <path class="cls-1" d="M103.31,55.47l-13.31-19.58-13.3,19.58c-2.41,3.55-1.49,8.38,2.06,10.79,3.29,2.24,7.69,1.6,10.23-1.34l-.99,7.49h4.02l-.99-7.49c2.54,2.94,6.94,3.58,10.23,1.34,3.55-2.41,4.47-7.24,2.06-10.79Z"/>
      <path class="cls-1" d="M103.31,127.93l-13.31-19.58-13.3,19.58c-2.41,3.54-1.49,8.38,2.06,10.79,3.29,2.24,7.69,1.61,10.23-1.33l-.99,7.49h4.02l-.99-7.49c2.54,2.94,6.94,3.57,10.23,1.33,3.55-2.41,4.47-7.23,2.06-10.78Z"/>
      <path class="cls-1" d="M103.31,199.17l-13.31-19.58-13.3,19.58c-2.41,3.54-1.49,8.38,2.06,10.79,3.29,2.24,7.69,1.61,10.23-1.34l-.99,7.49h4.02l-.99-7.49c2.54,2.94,6.94,3.57,10.23,1.34,3.55-2.41,4.47-7.24,2.06-10.79Z"/>
    </g>
    <g>
      <path class="cls-1" d="M53.16,79.8l-13.31-19.58-13.3,19.58c-2.41,3.55-1.49,8.38,2.06,10.78,3.29,2.25,7.69,1.61,10.23-1.33l-.99,7.49h4.02l-.99-7.49c2.54,2.94,6.94,3.58,10.23,1.33,3.55-2.41,4.47-7.23,2.06-10.78Z"/>
      <path class="cls-1" d="M53.16,174.84l-13.31-19.58-13.3,19.58c-2.41,3.55-1.49,8.38,2.05,10.79,3.29,2.24,7.69,1.6,10.23-1.33l-.99,7.48h4.02l-.99-7.48c2.54,2.94,6.94,3.57,10.23,1.33,3.55-2.41,4.47-7.24,2.06-10.79Z"/>
    </g>
  </g>
  <g>
    <path class="cls-1" d="M9,16.97v-7.97h17.48l1.97,3.43c-4.88,7-8.28,15.77-10.19,26.3h-4.18c1.69-9.65,4.66-18.15,8.9-25.52h-9.86v3.75h-4.11Z"/>
    <path class="cls-1" d="M171,235.03v7.97h-17.48l-1.97-3.43c4.88-7,8.28-15.77,10.19-26.3h4.18c-1.69,9.65-4.66,18.15-8.9,25.52h9.86v-3.75h4.11Z"/>
  </g>
</svg>