<?xml version="1.0" encoding="UTF-8"?>
<svg id="a" data-name="Layer 1" xmlns="http://www.w3.org/2000/svg" width="2.5in" height="3.5in" xmlns:xlink="http://www.w3.org/1999/xlink" viewBox="0 0 180 252">
  <defs>
    <clipPath id="b">
      <rect width="180" height="252" rx="18" ry="18" style="fill: none;"/>
    </clipPath>
  </defs>
  <g style="clip-path: url(#b);">
    <rect width="180" height="252" style="fill: #fff;"/>
    <path d="M5.96,35.7V4.48h68.46l7.7,13.44c-19.13,27.44-32.43,61.79-39.9,103.04h-16.38c6.63-37.8,18.25-71.12,34.86-99.96H22.06v14.7H5.96Z" style="fill: #231f20;"/>
    <g>
      <path d="M136.09,98.54l.73-5.49c-1.12.45-2.32.68-3.56.68-1.92,0-3.78-.57-5.37-1.66-2.11-1.43-3.54-3.6-4.01-6.11-.48-2.51.05-5.05,1.48-7.17l14.79-21.77,14.79,21.77c1.44,2.12,1.96,4.66,1.48,7.17-.48,2.51-1.91,4.68-4.02,6.11-1.59,1.08-3.45,1.66-5.37,1.66h0c-1.23,0-2.43-.24-3.55-.68l.73,5.49h-8.13Z" style="fill: #fff;"/>
      <path d="M153.46,79.8l-13.31-19.58-13.3,19.58c-2.41,3.55-1.49,8.38,2.06,10.78,3.29,2.25,7.69,1.61,10.23-1.33l-.99,7.49h4.02l-.99-7.49c2.54,2.94,6.94,3.58,10.23,1.33,3.55-2.41,4.47-7.23,2.06-10.78Z" style="fill: #231f20;"/>
      <path d="M136.08,193.58l.73-5.49c-1.12.45-2.32.68-3.56.68-1.92,0-3.77-.57-5.37-1.66-2.11-1.43-3.54-3.6-4.02-6.11-.48-2.51.05-5.06,1.48-7.18l14.79-21.77,14.8,21.77c1.44,2.11,1.96,4.66,1.48,7.17-.48,2.51-1.91,4.68-4.02,6.12-1.59,1.08-3.45,1.65-5.37,1.65h0c-1.23,0-2.44-.24-3.55-.68l.73,5.49h-8.13Z" style="fill: #fff;"/>
      <path d="M153.46,174.84l-13.31-19.58-13.3,19.58c-2.41,3.55-1.49,8.38,2.06,10.79,3.29,2.24,7.69,1.6,10.23-1.33l-.99,7.48h4.02l-.99-7.48c2.54,2.94,6.94,3.57,10.23,1.33,3.55-2.41,4.47-7.24,2.06-10.79Z" style="fill: #231f20;"/>
      <path d="M85.94,74.21l.73-5.49c-1.12.45-2.32.68-3.56.68-1.92,0-3.78-.57-5.37-1.66-2.11-1.44-3.54-3.61-4.02-6.12-.48-2.51.05-5.06,1.48-7.17l14.79-21.77,14.79,21.77c1.44,2.11,1.96,4.66,1.48,7.17-.48,2.51-1.91,4.68-4.02,6.12-1.59,1.08-3.45,1.65-5.37,1.65h0c-1.23,0-2.44-.24-3.55-.68l.73,5.49h-8.13Z" style="fill: #fff;"/>
      <path d="M103.31,55.47l-13.31-19.58-13.3,19.58c-2.41,3.55-1.49,8.38,2.06,10.79,3.29,2.24,7.69,1.6,10.23-1.34l-.99,7.49h4.02l-.99-7.49c2.54,2.94,6.94,3.58,10.23,1.34,3.55-2.41,4.47-7.24,2.06-10.79Z" style="fill: #231f20;"/>
      <path d="M85.93,146.67l.73-5.49c-1.12.45-2.32.68-3.55.68-1.92,0-3.78-.57-5.37-1.66-2.11-1.43-3.54-3.6-4.02-6.11-.48-2.51.05-5.06,1.48-7.17l14.79-21.77,14.79,21.77c1.44,2.12,1.96,4.66,1.48,7.17-.48,2.51-1.91,4.68-4.02,6.12-1.59,1.08-3.45,1.65-5.37,1.65h0c-1.23,0-2.44-.24-3.55-.68l.73,5.49h-8.13Z" style="fill: #fff;"/>
      <path d="M103.31,127.93l-13.31-19.58-13.3,19.58c-2.41,3.54-1.49,8.38,2.06,10.79,3.29,2.24,7.69,1.61,10.23-1.33l-.99,7.49h4.02l-.99-7.49c2.54,2.94,6.94,3.57,10.23,1.33,3.55-2.41,4.47-7.23,2.06-10.78Z" style="fill: #231f20;"/>
      <path d="M85.94,217.91l.73-5.49c-1.12.45-2.32.68-3.55.68-1.92,0-3.78-.57-5.37-1.66-2.11-1.43-3.54-3.6-4.02-6.11-.48-2.51.05-5.06,1.48-7.17l14.79-21.77,14.79,21.77c1.44,2.11,1.96,4.66,1.48,7.17-.48,2.51-1.91,4.68-4.02,6.12-1.59,1.08-3.45,1.65-5.37,1.65h0c-1.23,0-2.44-.24-3.55-.68l.73,5.49h-8.13Z" style="fill: #fff;"/>
      <path d="M103.31,199.17l-13.31-19.58-13.3,19.58c-2.41,3.54-1.49,8.38,2.06,10.79,3.29,2.24,7.69,1.61,10.23-1.34l-.99,7.49h4.02l-.99-7.49c2.54,2.94,6.94,3.57,10.23,1.34,3.55-2.41,4.47-7.24,2.06-10.79Z" style="fill: #231f20;"/>
      <path d="M35.79,98.54l.73-5.49c-1.12.45-2.32.68-3.56.68-1.92,0-3.78-.57-5.37-1.66-2.11-1.43-3.53-3.6-4.01-6.11-.48-2.51.05-5.06,1.48-7.18l14.79-21.77,14.79,21.77c1.44,2.12,1.96,4.66,1.48,7.17-.48,2.51-1.91,4.68-4.02,6.11-1.59,1.08-3.45,1.66-5.37,1.66h0c-1.23,0-2.44-.24-3.55-.68l.73,5.49h-8.12Z" style="fill: #fff;"/>
      <path d="M53.16,79.8l-13.31-19.58-13.3,19.58c-2.41,3.55-1.49,8.38,2.06,10.78,3.29,2.25,7.69,1.61,10.23-1.33l-.99,7.49h4.02l-.99-7.49c2.54,2.94,6.94,3.58,10.23,1.33,3.55-2.41,4.47-7.23,2.06-10.78Z" style="fill: #231f20;"/>
      <path d="M35.78,193.58l.73-5.49c-1.12.45-2.32.68-3.56.68-1.92,0-3.78-.57-5.37-1.66-2.11-1.43-3.54-3.61-4.02-6.12-.48-2.51.05-5.06,1.48-7.17l14.79-21.77,14.8,21.77c1.44,2.11,1.96,4.66,1.48,7.17-.48,2.51-1.91,4.68-4.02,6.12-1.59,1.08-3.45,1.65-5.37,1.65h0c-1.23,0-2.44-.24-3.55-.68l.73,5.49h-8.13Z" style="fill: #fff;"/>
      <path d="M53.16,174.84l-13.31-19.58-13.3,19.58c-2.41,3.55-1.49,8.38,2.05,10.79,3.29,2.24,7.69,1.6,10.23-1.33l-.99,7.48h4.02l-.99-7.48c2.54,2.94,6.94,3.57,10.23,1.33,3.55-2.41,4.47-7.24,2.06-10.79Z" style="fill: #231f20;"/>
    </g>
  </g>
</svg>