<?xml version="1.0" encoding="UTF-8"?>
<svg id="Layer_1" data-name="Layer 1" xmlns="http://www.w3.org/2000/svg" viewBox="0 0 180 252">
  <defs>
    <style>
      .cls-1 {
        fill: #231f20;
      }
    </style>
  </defs>
  <g>
    <path class="cls-1" d="M53.25,55.47l-13.31-19.58-13.3,19.58c-2.41,3.55-1.49,8.38,2.06,10.79,3.29,2.24,7.69,1.6,10.23-1.34l-.99,7.49h4.02l-.99-7.49c2.54,2.94,6.94,3.57,10.23,1.34,3.55-2.41,4.47-7.23,2.06-10.79Z"/>
    <path class="cls-1" d="M153.46,55.47l-13.31-19.58-13.3,19.58c-2.41,3.55-1.49,8.38,2.06,10.79,3.29,2.24,7.69,1.6,10.23-1.34l-.99,7.49h4.02l-.99-7.49c2.54,2.94,6.94,3.57,10.23,1.34,3.55-2.41,4.47-7.23,2.06-10.79Z"/>
    <path class="cls-1" d="M101.29,80.32l-13.31-19.58-13.3,19.58c-2.41,3.54-1.49,8.38,2.06,10.79,3.29,2.24,7.69,1.6,10.23-1.34l-.99,7.49h4.02l-.99-7.49c2.54,2.94,6.94,3.57,10.23,1.34,3.55-2.41,4.47-7.24,2.06-10.79Z"/>
    <g>
      <path class="cls-1" d="M53.16,127.93l-13.31-19.58-13.3,19.58c-2.41,3.55-1.49,8.38,2.06,10.79,3.29,2.24,7.69,1.6,10.23-1.34l-.99,7.49h4.02l-.99-7.49c2.54,2.94,6.94,3.57,10.23,1.34,3.55-2.41,4.47-7.24,2.06-10.79Z"/>
      <path class="cls-1" d="M153.46,127.93l-13.31-19.58-13.3,19.58c-2.41,3.55-1.49,8.38,2.06,10.79,3.29,2.24,7.69,1.6,10.23-1.34l-.99,7.49h4.02l-.99-7.49c2.54,2.94,6.94,3.57,10.23,1.34,3.55-2.41,4.47-7.24,2.06-10.79Z"/>
    </g>
    <path class="cls-1" d="M101.29,175.36l-13.31-19.58-13.3,19.58c-2.41,3.55-1.49,8.38,2.06,10.79,3.29,2.24,7.69,1.6,10.23-1.34l-.99,7.49h4.02l-.99-7.49c2.54,2.94,6.94,3.57,10.23,1.34,3.55-2.41,4.47-7.24,2.06-10.79Z"/>
    <g>
      <path class="cls-1" d="M53.15,199.17l-13.31-19.58-13.3,19.58c-2.41,3.54-1.49,8.38,2.06,10.79,3.29,2.24,7.69,1.61,10.23-1.34l-.99,7.49h4.02l-.99-7.49c2.54,2.94,6.94,3.57,10.23,1.34,3.55-2.41,4.47-7.24,2.06-10.79Z"/>
      <path class="cls-1" d="M153.46,199.17l-13.31-19.58-13.3,19.58c-2.41,3.54-1.49,8.38,2.06,10.79,3.29,2.24,7.69,1.61,10.23-1.34l-.99,7.49h4.02l-.99-7.49c2.54,2.94,6.94,3.57,10.23,1.34,3.55-2.41,4.47-7.24,2.06-10.79Z"/>
    </g>
  </g>
  <g>
    <path class="cls-1" d="M18.86,39.48c-2.64,0-4.93-.86-6.86-2.57-2-1.76-3-3.94-3-6.54,0-3.05,1.32-5.49,3.97-7.33-1.91-1.57-2.86-3.56-2.86-5.97s.89-4.25,2.68-5.83c1.72-1.5,3.74-2.25,6.08-2.25s4.36.75,6.08,2.25c1.79,1.57,2.68,3.51,2.68,5.83s-.95,4.37-2.86,5.97c2.64,1.81,3.97,4.25,3.97,7.33,0,2.6-.98,4.77-2.95,6.5-1.97,1.74-4.27,2.61-6.92,2.61ZM18.86,25.19c-1.55,0-2.92.48-4.11,1.42-1.29,1-1.93,2.26-1.93,3.78s.64,2.75,1.93,3.78c1.19.93,2.56,1.39,4.11,1.39s2.92-.46,4.11-1.39c1.29-1.02,1.93-2.28,1.93-3.78s-.64-2.78-1.93-3.78c-1.19-.95-2.56-1.42-4.11-1.42ZM18.86,12.93c-1.26,0-2.37.38-3.32,1.14-1.07.81-1.61,1.82-1.61,3.02s.54,2.22,1.61,3.02c.95.76,2.06,1.14,3.32,1.14s2.37-.38,3.32-1.14c1.07-.81,1.61-1.81,1.61-3.02s-.54-2.22-1.61-3.02c-.95-.76-2.06-1.14-3.32-1.14Z"/>
    <path class="cls-1" d="M161.14,212.52c2.64,0,4.93.86,6.86,2.57,2,1.76,3,3.94,3,6.54,0,3.05-1.32,5.49-3.97,7.33,1.91,1.57,2.86,3.56,2.86,5.97s-.89,4.25-2.68,5.83c-1.72,1.5-3.74,2.25-6.08,2.25s-4.36-.75-6.08-2.25c-1.79-1.57-2.68-3.51-2.68-5.83s.95-4.37,2.86-5.97c-2.64-1.81-3.97-4.25-3.97-7.33,0-2.6.98-4.77,2.95-6.5,1.97-1.74,4.27-2.61,6.92-2.61ZM161.14,226.81c1.55,0,2.92-.48,4.11-1.42,1.29-1,1.93-2.26,1.93-3.78s-.64-2.75-1.93-3.78c-1.19-.93-2.56-1.39-4.11-1.39s-2.92.46-4.11,1.39c-1.29,1.02-1.93,2.28-1.93,3.78s.64,2.78,1.93,3.78c1.19.95,2.56,1.42,4.11,1.42ZM161.14,239.07c1.26,0,2.37-.38,3.32-1.14,1.07-.81,1.61-1.82,1.61-3.02s-.54-2.22-1.61-3.02c-.95-.76-2.06-1.14-3.32-1.14s-2.37.38-3.32,1.14c-1.07.81-1.61,1.81-1.61,3.02s.54,2.22,1.61,3.02c.95.76,2.06,1.14,3.32,1.14Z"/>
  </g>
</svg>