<?xml version="1.0" encoding="UTF-8"?>
<svg id="a" data-name="Layer 1" xmlns="http://www.w3.org/2000/svg" width="2.5in" height="3.5in" xmlns:xlink="http://www.w3.org/1999/xlink" viewBox="0 0 180 252">
  <defs>
    <clipPath id="b">
      <rect width="180" height="252" rx="18" ry="18" style="fill: none;"/>
    </clipPath>
  </defs>
  <g style="clip-path: url(#b);">
    <rect width="180" height="252" style="fill: #fff;"/>
    <path d="M44.6,123.9c-10.36,0-19.32-3.36-26.88-10.08-7.84-6.91-11.76-15.45-11.76-25.62,0-11.95,5.18-21.51,15.54-28.7-7.47-6.16-11.2-13.95-11.2-23.38s3.5-16.66,10.5-22.82c6.72-5.88,14.65-8.82,23.8-8.82s17.08,2.94,23.8,8.82c7,6.16,10.5,13.77,10.5,22.82s-3.73,17.13-11.2,23.38c10.36,7.09,15.54,16.66,15.54,28.7,0,10.17-3.85,18.67-11.55,25.48-7.7,6.81-16.73,10.22-27.09,10.22ZM44.6,67.9c-6.07,0-11.43,1.86-16.1,5.58-5.04,3.91-7.56,8.84-7.56,14.79s2.52,10.79,7.56,14.79c4.67,3.63,10.03,5.44,16.1,5.44s11.43-1.81,16.1-5.44c5.04-4,7.56-8.93,7.56-14.79s-2.52-10.88-7.56-14.79c-4.67-3.72-10.03-5.58-16.1-5.58ZM44.6,19.88c-4.95,0-9.29,1.49-13.02,4.46-4.2,3.16-6.3,7.11-6.3,11.85s2.1,8.69,6.3,11.85c3.73,2.97,8.07,4.46,13.02,4.46s9.29-1.49,13.02-4.46c4.2-3.16,6.3-7.11,6.3-11.85s-2.1-8.69-6.3-11.85c-3.73-2.97-8.07-4.46-13.02-4.46Z" style="fill: #231f20;"/>
    <g>
      <path d="M35.88,74.21l.73-5.49c-1.12.45-2.32.68-3.56.68-1.92,0-3.78-.57-5.37-1.66-2.11-1.43-3.54-3.61-4.02-6.12-.48-2.51.05-5.06,1.48-7.17l14.79-21.77,14.8,21.77c1.44,2.12,1.96,4.66,1.48,7.17-.48,2.51-1.91,4.68-4.02,6.12-1.59,1.08-3.45,1.65-5.37,1.65h0c-1.23,0-2.44-.24-3.55-.68l.73,5.49h-8.13Z" style="fill: #fff;"/>
      <path d="M53.25,55.47l-13.31-19.58-13.3,19.58c-2.41,3.55-1.49,8.38,2.06,10.79,3.29,2.24,7.69,1.6,10.23-1.34l-.99,7.49h4.02l-.99-7.49c2.54,2.94,6.94,3.57,10.23,1.34,3.55-2.41,4.47-7.23,2.06-10.79Z" style="fill: #231f20;"/>
      <path d="M136.09,74.21l.73-5.49c-1.12.45-2.32.68-3.56.68-1.92,0-3.78-.57-5.37-1.66-2.11-1.43-3.54-3.61-4.02-6.12-.48-2.51.05-5.06,1.48-7.17l14.79-21.77,14.8,21.77c2.96,4.37,1.82,10.33-2.54,13.29-1.59,1.08-3.45,1.65-5.37,1.65h0c-1.23,0-2.44-.24-3.55-.68l.73,5.49h-8.13Z" style="fill: #fff;"/>
      <path d="M153.46,55.47l-13.31-19.58-13.3,19.58c-2.41,3.55-1.49,8.38,2.06,10.79,3.29,2.24,7.69,1.6,10.23-1.34l-.99,7.49h4.02l-.99-7.49c2.54,2.94,6.94,3.57,10.23,1.34,3.55-2.41,4.47-7.23,2.06-10.79Z" style="fill: #231f20;"/>
      <path d="M83.92,99.06l.73-5.49c-1.12.45-2.32.68-3.56.68-1.92,0-3.77-.57-5.37-1.66-2.11-1.43-3.54-3.61-4.02-6.12-.48-2.51.05-5.06,1.48-7.17l14.79-21.77,14.8,21.77c2.96,4.37,1.82,10.33-2.54,13.29-1.59,1.08-3.45,1.65-5.37,1.65h0c-1.23,0-2.44-.24-3.55-.68l.73,5.49h-8.13Z" style="fill: #fff;"/>
      <path d="M101.29,80.32l-13.31-19.58-13.3,19.58c-2.41,3.54-1.49,8.38,2.06,10.79,3.29,2.24,7.69,1.6,10.23-1.34l-.99,7.49h4.02l-.99-7.49c2.54,2.94,6.94,3.57,10.23,1.34,3.55-2.41,4.47-7.24,2.06-10.79Z" style="fill: #231f20;"/>
      <path d="M35.78,146.67l.73-5.49c-1.12.45-2.32.68-3.56.68-1.92,0-3.77-.57-5.37-1.66-2.11-1.43-3.54-3.61-4.02-6.12-.48-2.51.05-5.06,1.49-7.17l14.79-21.77,14.8,21.77c2.96,4.37,1.82,10.33-2.54,13.29-1.59,1.08-3.45,1.65-5.37,1.65h0c-1.23,0-2.44-.24-3.55-.68l.73,5.49h-8.13Z" style="fill: #fff;"/>
      <path d="M53.16,127.93l-13.31-19.58-13.3,19.58c-2.41,3.55-1.49,8.38,2.06,10.79,3.29,2.24,7.69,1.6,10.23-1.34l-.99,7.49h4.02l-.99-7.49c2.54,2.94,6.94,3.57,10.23,1.34,3.55-2.41,4.47-7.24,2.06-10.79Z" style="fill: #231f20;"/>
      <path d="M136.09,146.67l.73-5.49c-1.12.45-2.32.68-3.56.68-1.92,0-3.77-.57-5.37-1.66-2.11-1.43-3.54-3.61-4.02-6.12-.48-2.51.05-5.06,1.49-7.17l14.79-21.77,14.8,21.77c2.96,4.37,1.82,10.33-2.54,13.29-1.59,1.08-3.45,1.65-5.37,1.65h0c-1.23,0-2.44-.24-3.55-.68l.73,5.49h-8.13Z" style="fill: #fff;"/>
      <path d="M153.46,127.93l-13.31-19.58-13.3,19.58c-2.41,3.55-1.49,8.38,2.06,10.79,3.29,2.24,7.69,1.6,10.23-1.34l-.99,7.49h4.02l-.99-7.49c2.54,2.94,6.94,3.57,10.23,1.34,3.55-2.41,4.47-7.24,2.06-10.79Z" style="fill: #231f20;"/>
      <path d="M83.92,194.1l.73-5.49c-1.12.45-2.32.68-3.56.68-1.92,0-3.77-.57-5.37-1.66-2.11-1.43-3.54-3.61-4.02-6.12-.48-2.51.05-5.06,1.49-7.17l14.79-21.77,14.8,21.77c1.44,2.12,1.96,4.66,1.48,7.17-.48,2.51-1.91,4.68-4.02,6.12-1.59,1.08-3.45,1.65-5.37,1.65h0c-1.23,0-2.44-.24-3.55-.68l.73,5.49h-8.13Z" style="fill: #fff;"/>
      <path d="M101.29,175.36l-13.31-19.58-13.3,19.58c-2.41,3.55-1.49,8.38,2.06,10.79,3.29,2.24,7.69,1.6,10.23-1.34l-.99,7.49h4.02l-.99-7.49c2.54,2.94,6.94,3.57,10.23,1.34,3.55-2.41,4.47-7.24,2.06-10.79Z" style="fill: #231f20;"/>
      <path d="M35.78,217.91l.73-5.49c-1.12.45-2.32.68-3.56.68-1.92,0-3.78-.57-5.37-1.66-2.11-1.43-3.54-3.61-4.02-6.12-.48-2.51.05-5.06,1.49-7.17l14.79-21.77,14.8,21.77c1.44,2.12,1.96,4.66,1.48,7.17-.48,2.51-1.91,4.68-4.02,6.12-1.59,1.08-3.45,1.65-5.37,1.65h0c-1.23,0-2.44-.24-3.55-.68l.73,5.49h-8.13Z" style="fill: #fff;"/>
      <path d="M53.15,199.17l-13.31-19.58-13.3,19.58c-2.41,3.54-1.49,8.38,2.06,10.79,3.29,2.24,7.69,1.61,10.23-1.34l-.99,7.49h4.02l-.99-7.49c2.54,2.94,6.94,3.57,10.23,1.34,3.55-2.41,4.47-7.24,2.06-10.79Z" style="fill: #231f20;"/>
      <path d="M136.09,217.91l.73-5.49c-1.12.45-2.32.68-3.56.68-1.92,0-3.78-.57-5.37-1.66-2.11-1.43-3.54-3.61-4.02-6.12-.48-2.51.05-5.06,1.49-7.17l14.79-21.77,14.79,21.77c2.96,4.37,1.82,10.33-2.54,13.29-1.59,1.08-3.45,1.65-5.37,1.65h0c-1.23,0-2.44-.24-3.55-.68l.73,5.49h-8.13Z" style="fill: #fff;"/>
      <path d="M153.46,199.17l-13.31-19.58-13.3,19.58c-2.41,3.54-1.49,8.38,2.06,10.79,3.29,2.24,7.69,1.61,10.23-1.34l-.99,7.49h4.02l-.99-7.49c2.54,2.94,6.94,3.57,10.23,1.34,3.55-2.41,4.47-7.24,2.06-10.79Z" style="fill: #231f20;"/>
    </g>
  </g>
</svg>