<?xml version="1.0" encoding="UTF-8"?>
<svg id="Layer_1" data-name="Layer 1" xmlns="http://www.w3.org/2000/svg" viewBox="0 0 180 252">
  <defs>
    <style>
      .cls-1 {
        fill: #231f20;
      }
    </style>
  </defs>
  <g>
    <path class="cls-1" d="M53.25,55.47l-13.31-19.58-13.3,19.58c-2.41,3.55-1.49,8.38,2.06,10.79,3.29,2.24,7.69,1.6,10.23-1.34l-.99,7.49h4.02l-.99-7.49c2.54,2.94,6.94,3.57,10.23,1.34,3.55-2.41,4.47-7.24,2.06-10.79Z"/>
    <path class="cls-1" d="M153.46,55.47l-13.31-19.58-13.3,19.58c-2.41,3.55-1.49,8.38,2.06,10.79,3.29,2.24,7.69,1.6,10.23-1.34l-.99,7.49h4.02l-.99-7.49c2.54,2.94,6.94,3.57,10.23,1.34,3.55-2.41,4.47-7.24,2.06-10.79Z"/>
    <g>
      <path class="cls-1" d="M53.16,104.13l-13.31-19.58-13.3,19.58c-2.41,3.54-1.49,8.38,2.06,10.79,3.29,2.24,7.69,1.6,10.23-1.34l-.99,7.49h4.02l-.99-7.49c2.54,2.94,6.94,3.57,10.23,1.34,3.55-2.41,4.47-7.24,2.06-10.79Z"/>
      <path class="cls-1" d="M153.46,104.13l-13.31-19.58-13.3,19.58c-2.41,3.54-1.49,8.38,2.06,10.79,3.29,2.24,7.69,1.6,10.23-1.34l-.99,7.49h4.02l-.99-7.49c2.54,2.94,6.94,3.57,10.23,1.34,3.55-2.41,4.47-7.24,2.06-10.79Z"/>
    </g>
    <path class="cls-1" d="M53.25,150.51l-13.31-19.58-13.3,19.58c-2.41,3.55-1.49,8.38,2.06,10.79,3.29,2.24,7.69,1.61,10.23-1.34l-.99,7.49h4.02l-.99-7.49c2.54,2.94,6.94,3.57,10.23,1.34,3.55-2.41,4.47-7.23,2.06-10.79Z"/>
    <path class="cls-1" d="M153.46,150.51l-13.31-19.58-13.3,19.58c-2.41,3.55-1.49,8.38,2.06,10.79,3.29,2.24,7.69,1.61,10.23-1.34l-.99,7.49h4.02l-.99-7.49c2.54,2.94,6.94,3.57,10.23,1.34,3.55-2.41,4.47-7.23,2.06-10.79Z"/>
    <path class="cls-1" d="M103.31,127.93l-13.31-19.58-13.3,19.58c-2.41,3.54-1.49,8.38,2.06,10.79,3.29,2.24,7.69,1.6,10.23-1.34l-.99,7.49h4.02l-.99-7.49c2.54,2.94,6.94,3.57,10.23,1.34,3.55-2.41,4.47-7.24,2.06-10.79Z"/>
    <g>
      <path class="cls-1" d="M53.15,199.17l-13.31-19.58-13.3,19.58c-2.41,3.55-1.49,8.38,2.06,10.79,3.29,2.24,7.69,1.6,10.23-1.34l-.99,7.49h4.02l-.99-7.49c2.54,2.94,6.94,3.57,10.23,1.34,3.55-2.41,4.47-7.24,2.06-10.79Z"/>
      <path class="cls-1" d="M153.46,199.17l-13.31-19.58-13.3,19.58c-2.41,3.55-1.49,8.38,2.06,10.79,3.29,2.24,7.69,1.6,10.23-1.34l-.99,7.49h4.02l-.99-7.49c2.54,2.94,6.94,3.57,10.23,1.34,3.55-2.41,4.47-7.24,2.06-10.79Z"/>
    </g>
  </g>
  <g>
    <path class="cls-1" d="M24.4,28.62c-1.67,1.33-3.55,2-5.65,2-2.81,0-5.16-1.11-7.04-3.32-1.81-2.14-2.72-4.63-2.72-7.47s.91-5.35,2.72-7.47c1.88-2.24,4.23-3.36,7.04-3.36,3.48,0,6.09,1.8,7.83,5.4,1.33,2.79,2,6.14,2,10.04,0,4.1-.66,7.49-1.97,10.19-1.72,3.55-4.41,5.32-8.08,5.32s-6.41-1.83-8.51-5.5l3.36-1.97c1.33,2.36,3.05,3.54,5.15,3.54,3.12,0,5.07-2.47,5.86-7.4ZM18.74,12.93c-1.72,0-3.15.74-4.3,2.21-1.08,1.35-1.61,2.91-1.61,4.67s.54,3.32,1.61,4.67c1.15,1.47,2.58,2.21,4.3,2.21,1.46,0,2.72-.56,3.8-1.68.96-1,1.61-2.25,1.97-3.74-.69-5.56-2.62-8.34-5.77-8.34Z"/>
    <path class="cls-1" d="M155.6,223.38c1.67-1.33,3.55-2,5.65-2,2.81,0,5.16,1.11,7.04,3.32,1.81,2.14,2.72,4.63,2.72,7.47s-.91,5.35-2.72,7.47c-1.88,2.24-4.23,3.36-7.04,3.36-3.48,0-6.09-1.8-7.83-5.4-1.33-2.79-2-6.14-2-10.04,0-4.1.66-7.49,1.97-10.19,1.72-3.55,4.41-5.32,8.08-5.32s6.41,1.83,8.51,5.5l-3.36,1.97c-1.33-2.36-3.05-3.54-5.15-3.54-3.12,0-5.07,2.47-5.86,7.4ZM161.26,239.07c1.72,0,3.15-.74,4.3-2.21,1.08-1.35,1.61-2.91,1.61-4.67s-.54-3.32-1.61-4.67c-1.15-1.47-2.58-2.21-4.3-2.21-1.46,0-2.72.56-3.8,1.68-.96,1-1.61,2.25-1.97,3.74.69,5.56,2.62,8.34,5.77,8.34Z"/>
  </g>
</svg>