<?xml version="1.0" encoding="UTF-8"?>
<svg id="a" data-name="Layer 1" xmlns="http://www.w3.org/2000/svg" width="2.5in" height="3.5in" xmlns:xlink="http://www.w3.org/1999/xlink" viewBox="0 0 180 252">
  <defs>
    <clipPath id="b">
      <rect width="180" height="252" rx="18" ry="18" style="fill: none;"/>
    </clipPath>
  </defs>
  <g style="clip-path: url(#b);">
    <rect width="180" height="252" style="fill: #fff;"/>
    <path d="M5.96,6.58h14.98v116.9H5.96V6.58ZM54.26,126c-6.81,0-12.62-2.47-17.43-7.42-4.81-4.95-7.21-10.87-7.21-17.78V29.68c0-6.81,2.4-12.72,7.21-17.71,4.81-4.99,10.62-7.49,17.43-7.49s12.76,2.5,17.57,7.49c4.81,4.99,7.21,10.9,7.21,17.71v71.12c0,6.91-2.4,12.83-7.21,17.78-4.81,4.95-10.66,7.42-17.57,7.42ZM54.26,19.88c-2.65,0-4.93.98-6.82,2.94-1.89,1.96-2.84,4.24-2.84,6.85v71.01c0,2.7.94,5.03,2.84,6.99,1.89,1.96,4.17,2.94,6.82,2.94s5.06-.98,6.96-2.94c1.89-1.96,2.84-4.29,2.84-6.99V29.66c0-2.61-.95-4.89-2.84-6.85-1.89-1.96-4.21-2.94-6.96-2.94Z" style="fill: #231f20;"/>
    <g>
      <path d="M35.88,74.21l.73-5.49c-1.12.45-2.32.68-3.56.68-1.92,0-3.78-.57-5.37-1.66-2.11-1.43-3.54-3.61-4.02-6.12-.48-2.51.05-5.06,1.48-7.17l14.79-21.77,14.8,21.77c1.44,2.11,1.96,4.66,1.48,7.17-.48,2.51-1.91,4.68-4.02,6.12-1.59,1.08-3.45,1.65-5.37,1.65h0c-1.23,0-2.44-.24-3.55-.68l.73,5.49h-8.13Z" style="fill: #fff;"/>
      <path d="M53.25,55.47l-13.31-19.58-13.3,19.58c-2.41,3.55-1.49,8.38,2.06,10.79,3.29,2.24,7.69,1.6,10.23-1.34l-.99,7.49h4.02l-.99-7.49c2.54,2.94,6.94,3.57,10.23,1.34,3.55-2.41,4.47-7.24,2.06-10.79Z" style="fill: #231f20;"/>
      <path d="M136.09,74.21l.73-5.49c-1.12.45-2.32.68-3.56.68-1.92,0-3.78-.57-5.37-1.66-2.11-1.43-3.54-3.61-4.02-6.12-.48-2.51.05-5.06,1.49-7.17l14.79-21.77,14.8,21.77c1.44,2.12,1.96,4.66,1.48,7.17-.48,2.51-1.91,4.68-4.02,6.12-1.59,1.08-3.45,1.65-5.37,1.65h0c-1.23,0-2.44-.24-3.55-.68l.73,5.49h-8.13Z" style="fill: #fff;"/>
      <path d="M153.46,55.47l-13.31-19.58-13.3,19.58c-2.41,3.55-1.49,8.38,2.06,10.79,3.29,2.24,7.69,1.6,10.23-1.34l-.99,7.49h4.02l-.99-7.49c2.54,2.94,6.94,3.57,10.23,1.34,3.55-2.41,4.47-7.24,2.06-10.79Z" style="fill: #231f20;"/>
      <path d="M83.92,99.06l.73-5.49c-1.12.45-2.32.68-3.56.68-1.92,0-3.78-.57-5.37-1.66-2.11-1.43-3.54-3.6-4.02-6.12-.48-2.51.05-5.06,1.48-7.17l14.79-21.77,14.8,21.77c1.44,2.12,1.96,4.66,1.48,7.17-.48,2.51-1.91,4.68-4.02,6.12-1.59,1.08-3.45,1.65-5.37,1.65h0c-1.23,0-2.44-.24-3.55-.68l.73,5.49h-8.13Z" style="fill: #fff;"/>
      <path d="M101.29,80.32l-13.31-19.58-13.3,19.58c-2.41,3.55-1.49,8.38,2.06,10.79,3.29,2.24,7.69,1.61,10.23-1.34l-.99,7.49h4.02l-.99-7.49c2.54,2.94,6.94,3.57,10.23,1.34,3.55-2.41,4.47-7.24,2.06-10.79Z" style="fill: #231f20;"/>
      <path d="M35.78,122.87l.73-5.49c-1.12.45-2.32.68-3.56.68-1.92,0-3.78-.57-5.37-1.66-2.11-1.43-3.54-3.61-4.02-6.12-.48-2.51.05-5.06,1.48-7.17l14.79-21.77,14.8,21.77c2.96,4.37,1.82,10.33-2.54,13.29-1.59,1.08-3.45,1.65-5.37,1.65h0c-1.23,0-2.44-.24-3.55-.68l.73,5.49h-8.13Z" style="fill: #fff;"/>
      <path d="M53.16,104.13l-13.31-19.58-13.3,19.58c-2.41,3.54-1.49,8.38,2.06,10.79,3.29,2.24,7.69,1.6,10.23-1.34l-.99,7.49h4.02l-.99-7.49c2.54,2.94,6.94,3.57,10.23,1.34,3.55-2.41,4.47-7.24,2.06-10.79Z" style="fill: #231f20;"/>
      <path d="M136.09,122.87l.73-5.49c-1.12.45-2.32.68-3.56.68-1.92,0-3.78-.57-5.37-1.66-2.11-1.43-3.54-3.61-4.02-6.12-.48-2.51.05-5.06,1.49-7.17l14.79-21.77,14.8,21.77c1.44,2.12,1.96,4.66,1.48,7.17-.48,2.51-1.91,4.68-4.02,6.12-1.59,1.08-3.45,1.65-5.37,1.65h0c-1.23,0-2.44-.24-3.55-.68l.73,5.49h-8.13Z" style="fill: #fff;"/>
      <path d="M153.46,104.13l-13.31-19.58-13.3,19.58c-2.41,3.54-1.49,8.38,2.06,10.79,3.29,2.24,7.69,1.6,10.23-1.34l-.99,7.49h4.02l-.99-7.49c2.54,2.94,6.94,3.57,10.23,1.34,3.55-2.41,4.47-7.24,2.06-10.79Z" style="fill: #231f20;"/>
      <path d="M35.88,169.25l.73-5.49c-1.12.45-2.32.68-3.56.68-1.92,0-3.78-.57-5.37-1.66-2.11-1.43-3.54-3.6-4.02-6.12-.48-2.51.05-5.06,1.48-7.17l14.79-21.77,14.8,21.77c1.44,2.12,1.96,4.66,1.48,7.17-.48,2.51-1.91,4.68-4.02,6.12-1.59,1.08-3.45,1.65-5.37,1.65h0c-1.23,0-2.44-.24-3.55-.68l.73,5.49h-8.13Z" style="fill: #fff;"/>
      <path d="M53.25,150.51l-13.31-19.58-13.3,19.58c-2.41,3.55-1.49,8.38,2.06,10.79,3.29,2.24,7.69,1.61,10.23-1.34l-.99,7.49h4.02l-.99-7.49c2.54,2.94,6.94,3.57,10.23,1.34,3.55-2.41,4.47-7.24,2.06-10.79Z" style="fill: #231f20;"/>
      <path d="M136.09,169.25l.73-5.49c-1.12.45-2.32.68-3.56.68-1.92,0-3.78-.57-5.37-1.66-2.11-1.43-3.54-3.61-4.02-6.12-.48-2.51.05-5.06,1.48-7.17l14.79-21.77,14.8,21.77c1.44,2.12,1.96,4.66,1.48,7.17-.48,2.51-1.91,4.68-4.02,6.12-1.59,1.08-3.45,1.65-5.37,1.65h0c-1.23,0-2.44-.24-3.55-.68l.73,5.49h-8.13Z" style="fill: #fff;"/>
      <path d="M153.46,150.51l-13.31-19.58-13.3,19.58c-2.41,3.55-1.49,8.38,2.06,10.79,3.29,2.24,7.69,1.61,10.23-1.34l-.99,7.49h4.02l-.99-7.49c2.54,2.94,6.94,3.57,10.23,1.34,3.55-2.41,4.47-7.24,2.06-10.79Z" style="fill: #231f20;"/>
      <path d="M83.92,194.1l.73-5.49c-1.12.45-2.32.68-3.56.68-1.92,0-3.78-.57-5.37-1.66-2.11-1.43-3.54-3.6-4.02-6.12-.48-2.51.05-5.06,1.49-7.17l14.79-21.77,14.8,21.77c1.44,2.12,1.96,4.66,1.48,7.17-.48,2.51-1.91,4.68-4.02,6.12-1.59,1.08-3.45,1.65-5.37,1.65h0c-1.23,0-2.44-.24-3.55-.68l.73,5.49h-8.13Z" style="fill: #fff;"/>
      <path d="M101.29,175.36l-13.31-19.58-13.3,19.58c-2.41,3.55-1.49,8.38,2.06,10.79,3.29,2.24,7.69,1.6,10.23-1.34l-.99,7.49h4.02l-.99-7.49c2.54,2.94,6.94,3.57,10.23,1.34,3.55-2.41,4.47-7.24,2.06-10.79Z" style="fill: #231f20;"/>
      <path d="M35.78,217.91l.73-5.49c-1.12.45-2.32.68-3.56.68-1.92,0-3.78-.57-5.37-1.66-2.11-1.43-3.54-3.61-4.02-6.12-.48-2.51.05-5.06,1.49-7.17l14.79-21.77,14.8,21.77c1.44,2.12,1.96,4.66,1.48,7.17-.48,2.51-1.91,4.68-4.02,6.12-1.59,1.08-3.45,1.65-5.37,1.65h0c-1.23,0-2.44-.24-3.55-.68l.73,5.49h-8.13Z" style="fill: #fff;"/>
      <path d="M53.15,199.17l-13.31-19.58-13.3,19.58c-2.41,3.55-1.49,8.38,2.06,10.79,3.29,2.24,7.69,1.6,10.23-1.34l-.99,7.49h4.02l-.99-7.49c2.54,2.94,6.94,3.57,10.23,1.34,3.55-2.41,4.47-7.24,2.06-10.79Z" style="fill: #231f20;"/>
      <path d="M136.09,217.91l.73-5.49c-1.12.45-2.32.68-3.56.68-1.92,0-3.78-.57-5.37-1.66-2.11-1.43-3.54-3.61-4.02-6.12-.48-2.51.05-5.06,1.48-7.17l14.79-21.77,14.8,21.77c1.44,2.12,1.96,4.66,1.48,7.17-.48,2.51-1.91,4.68-4.02,6.12-1.59,1.08-3.45,1.65-5.37,1.65h0c-1.23,0-2.44-.24-3.55-.68l.73,5.49h-8.13Z" style="fill: #fff;"/>
      <path d="M153.46,199.17l-13.31-19.58-13.3,19.58c-2.41,3.55-1.49,8.38,2.06,10.79,3.29,2.24,7.69,1.6,10.23-1.34l-.99,7.49h4.02l-.99-7.49c2.54,2.94,6.94,3.57,10.23,1.34,3.55-2.41,4.47-7.24,2.06-10.79Z" style="fill: #231f20;"/>
    </g>
  </g>
</svg>