<?xml version="1.0" encoding="UTF-8"?>
<svg id="Layer_1" data-name="Layer 1" xmlns="http://www.w3.org/2000/svg" viewBox="0 0 180 252">
  <defs>
    <style>
      .cls-1 {
        fill: #231f20;
      }
    </style>
  </defs>
  <g>
    <path class="cls-1" d="M53.25,55.47l-13.31-19.58-13.3,19.58c-2.41,3.55-1.49,8.38,2.06,10.79,3.29,2.24,7.69,1.6,10.23-1.34l-.99,7.49h4.02l-.99-7.49c2.54,2.94,6.94,3.57,10.23,1.34,3.55-2.41,4.47-7.24,2.06-10.79Z"/>
    <path class="cls-1" d="M153.46,55.47l-13.31-19.58-13.3,19.58c-2.41,3.55-1.49,8.38,2.06,10.79,3.29,2.24,7.69,1.6,10.23-1.34l-.99,7.49h4.02l-.99-7.49c2.54,2.94,6.94,3.57,10.23,1.34,3.55-2.41,4.47-7.24,2.06-10.79Z"/>
    <path class="cls-1" d="M101.29,80.32l-13.31-19.58-13.3,19.58c-2.41,3.55-1.49,8.38,2.06,10.79,3.29,2.24,7.69,1.61,10.23-1.34l-.99,7.49h4.02l-.99-7.49c2.54,2.94,6.94,3.57,10.23,1.34,3.55-2.41,4.47-7.24,2.06-10.79Z"/>
    <g>
      <path class="cls-1" d="M53.16,104.13l-13.31-19.58-13.3,19.58c-2.41,3.54-1.49,8.38,2.06,10.79,3.29,2.24,7.69,1.6,10.23-1.34l-.99,7.49h4.02l-.99-7.49c2.54,2.94,6.94,3.57,10.23,1.34,3.55-2.41,4.47-7.24,2.06-10.79Z"/>
      <path class="cls-1" d="M153.46,104.13l-13.31-19.58-13.3,19.58c-2.41,3.54-1.49,8.38,2.06,10.79,3.29,2.24,7.69,1.6,10.23-1.34l-.99,7.49h4.02l-.99-7.49c2.54,2.94,6.94,3.57,10.23,1.34,3.55-2.41,4.47-7.24,2.06-10.79Z"/>
    </g>
    <path class="cls-1" d="M53.25,150.51l-13.31-19.58-13.3,19.58c-2.41,3.55-1.49,8.38,2.06,10.79,3.29,2.24,7.69,1.61,10.23-1.34l-.99,7.49h4.02l-.99-7.49c2.54,2.94,6.94,3.57,10.23,1.34,3.55-2.41,4.47-7.24,2.06-10.79Z"/>
    <path class="cls-1" d="M153.46,150.51l-13.31-19.58-13.3,19.58c-2.41,3.55-1.49,8.38,2.06,10.79,3.29,2.24,7.69,1.61,10.23-1.34l-.99,7.49h4.02l-.99-7.49c2.54,2.94,6.94,3.57,10.23,1.34,3.55-2.41,4.47-7.24,2.06-10.79Z"/>
    <path class="cls-1" d="M101.29,175.36l-13.31-19.58-13.3,19.58c-2.41,3.55-1.49,8.38,2.06,10.79,3.29,2.24,7.69,1.6,10.23-1.34l-.99,7.49h4.02l-.99-7.49c2.54,2.94,6.94,3.57,10.23,1.34,3.55-2.41,4.47-7.24,2.06-10.79Z"/>
    <g>
      <path class="cls-1" d="M53.15,199.17l-13.31-19.58-13.3,19.58c-2.41,3.55-1.49,8.38,2.06,10.79,3.29,2.24,7.69,1.6,10.23-1.34l-.99,7.49h4.02l-.99-7.49c2.54,2.94,6.94,3.57,10.23,1.34,3.55-2.41,4.47-7.24,2.06-10.79Z"/>
      <path class="cls-1" d="M153.46,199.17l-13.31-19.58-13.3,19.58c-2.41,3.55-1.49,8.38,2.06,10.79,3.29,2.24,7.69,1.6,10.23-1.34l-.99,7.49h4.02l-.99-7.49c2.54,2.94,6.94,3.57,10.23,1.34,3.55-2.41,4.47-7.24,2.06-10.79Z"/>
    </g>
  </g>
  <g>
    <path class="cls-1" d="M9,9.54h3.82v29.84h-3.82V9.54ZM21.33,40.02c-1.74,0-3.22-.63-4.45-1.89-1.23-1.26-1.84-2.78-1.84-4.54V15.43c0-1.74.61-3.25,1.84-4.52,1.23-1.27,2.71-1.91,4.45-1.91s3.26.64,4.48,1.91c1.23,1.28,1.84,2.78,1.84,4.52v18.15c0,1.76-.61,3.28-1.84,4.54-1.23,1.26-2.72,1.89-4.48,1.89ZM21.33,12.93c-.68,0-1.26.25-1.74.75-.48.5-.72,1.08-.72,1.75v18.13c0,.69.24,1.28.72,1.78.48.5,1.06.75,1.74.75s1.29-.25,1.78-.75c.48-.5.73-1.09.73-1.78V15.43c0-.67-.24-1.25-.73-1.75-.48-.5-1.08-.75-1.78-.75Z"/>
    <path class="cls-1" d="M171,242.46h-3.82v-29.84h3.82v29.84ZM158.67,211.98c1.74,0,3.22.63,4.45,1.89,1.23,1.26,1.84,2.78,1.84,4.54v18.15c0,1.74-.61,3.25-1.84,4.52-1.23,1.27-2.71,1.91-4.45,1.91s-3.26-.64-4.48-1.91c-1.23-1.28-1.84-2.78-1.84-4.52v-18.15c0-1.76.61-3.28,1.84-4.54,1.23-1.26,2.72-1.89,4.48-1.89ZM158.67,239.07c.68,0,1.26-.25,1.74-.75.48-.5.72-1.08.72-1.75v-18.13c0-.69-.24-1.28-.72-1.78-.48-.5-1.06-.75-1.74-.75s-1.29.25-1.78.75c-.48.5-.73,1.09-.73,1.78v18.13c0,.67.24,1.25.73,1.75.48.5,1.08.75,1.78.75Z"/>
  </g>
</svg>