<?xml version="1.0" encoding="UTF-8"?>
<svg id="a" data-name="Layer 1" xmlns="http://www.w3.org/2000/svg" width="2.5in" height="3.5in" xmlns:xlink="http://www.w3.org/1999/xlink" viewBox="0 0 180 252">
  <defs>
    <clipPath id="b">
      <rect width="180" height="252" rx="18" ry="18" style="fill: none;"/>
    </clipPath>
    <clipPath id="c">
      <path d="M139.01,192.88c0-26.13-21.19-47.32-47.31-47.32s-47.31,21.19-47.31,47.32c0,12.18,4.61,23.29,12.17,31.67h70.29c7.56-8.39,12.17-19.49,12.17-31.67Z" style="fill: #fff; stroke: #010101; stroke-miterlimit: 10;"/>
    </clipPath>
    <pattern id="d" data-name="New Pattern Swatch 1" x="0" y="0" width="10.8" height="16.2" patternTransform="translate(-702)" patternUnits="userSpaceOnUse" viewBox="0 0 10.8 16.2">
      <g>
        <rect y="0" width="10.8" height="16.2" style="fill: none;"/>
        <circle cx="10.8" cy="16.2" r="2.87" style="fill: #231f20;"/>
        <circle cx="0" cy="16.2" r="2.87" style="fill: #231f20;"/>
        <circle cx="5.4" cy="8.1" r="2.87" style="fill: #231f20;"/>
        <circle cx="10.8" cy="0" r="2.87" style="fill: #231f20;"/>
        <circle cx="0" cy="0" r="2.87" style="fill: #231f20;"/>
      </g>
    </pattern>
  </defs>
  <g style="clip-path: url(#b);">
    <rect width="180" height="252" style="fill: #fff;"/>
    <path d="M22.06,80.92c0,5.69,0,8.07,0,7.14,0,5.6,1.17,10.08,3.5,13.44,2.8,4.01,7,6.02,12.6,6.02,4.76,0,8.59-1.73,11.48-5.18,2.61-3.17,3.92-7.14,3.92-11.9V21.14h-12.74V4.48h41.02v16.66h-12.18v69.3c0,9.43-2.85,17.31-8.54,23.66-5.97,6.63-13.63,9.94-22.96,9.94s-17.17-3.27-23.24-9.8c-6.07-6.53-9.05-14.51-8.96-23.94v-9.38h16.1Z" style="fill: #231f20;"/>
    <path d="M25.8,226.46l28.98-78.15c-3.04-2.2-4.87-5.74-4.87-9.56v-40c0-5.63,3.96-10.35,9.25-11.52-.34-.84-.52-1.75-.52-2.69v-3.5c0-3.89,3.17-7.06,7.06-7.06h.55l-5.21-22.88h2.26c2.07.01,4.13.14,6.17.39.03-1.07.11-3.39,15.01-3.92-.35-.15-.68-.34-1-.56-1.42-.97-2.39-2.43-2.71-4.13-.32-1.69.03-3.41,1-4.83l9.45-13.91,9.45,13.91c.97,1.43,1.32,3.14,1,4.83-.32,1.69-1.29,3.16-2.71,4.13-.32.21-.65.4-.99.55,14.97.52,14.97,2.81,14.97,3.98v.08c2.36-.33,4.76-.51,7.18-.52h2.26s-5.21,22.9-5.21,22.9c3.61.31,6.45,3.35,6.45,7.04v3.51c0,.87-.16,1.71-.45,2.5,5.82.72,10.34,5.7,10.34,11.71v40c0,1.14-.16,2.25-.47,3.3.13-.01.26-.02.39-.02h.82v-1.61c.05-2.14,1.73-3.83,3.83-3.88,1.08,0,2.06.41,2.78,1.14.62.62,1.01,1.42,1.11,2.28.42-.46.79-.97,1.11-1.52.64-1.08,1.73-1.77,2.93-1.89.12-.01.26-.02.41-.02,1.07,0,2.1.45,2.83,1.23,2.53,2.67,4.17,7.11,4.17,11.3.06,3.9-1.36,7.67-3.99,10.6-.76.8-1.78,1.25-2.85,1.25-.15,0-.3,0-.45-.03-1.19-.14-2.27-.84-2.87-1.88-.35-.58-.79-1.09-1.31-1.53l.1,6.5h1.25c2.24,0,4.05,1.81,4.05,4.05,0,.15,0,.3-.02.45h1.98c1.09,0,2.11.42,2.87,1.19.76.77,1.18,1.78,1.18,2.86,0,.81-.24,1.59-.68,2.25.43.64.68,1.41.68,2.24,0,2.24-1.82,4.06-4.05,4.06h-1.98c.02.15.02.29.02.45,0,2.24-1.82,4.05-4.05,4.05h-.91s.18,11.56.18,11.56l.24.54-.51.83c-.4.64-.98.87-1.94.97-1.31,9.81-5.51,18.87-12.19,26.28l-.54.59h-61.13v.11H25.8ZM63.3,222.75l7.96-70.55c-15.33,7.7-25.07,23.34-25.07,40.68,0,11.01,3.96,21.59,11.18,29.87h5.93ZM116.63,150.55c6.2,3.66,11.56,8.67,15.65,14.65.5-.52,1.15-.9,1.87-1.09l.13-8.16c-1.12-.16-1.97-1.18-2.14-2.64-.02-.15-.04-.29-.07-.42-.02.09-.04.19-.06.29-.12.8-.58,1.47-1.24,1.79l-.37.18-.49.02c-1.11,0-1.98-.88-2.12-2.13-.07-.58-.11-1.2-.1-1.82.01-.85.08-1.66.21-2.43-1.8,1.11-3.92,1.75-6.18,1.75h-5.08ZM138.38,151.05v-4.01h-.54v4.01s.54,0,.54,0ZM69.53,51.49c.45.06.9.12,1.35.18v-.15s-1.35-.03-1.35-.03Z" style="fill: #fff;"/>
    <g>
      <g>
        <g>
          <path d="M139.01,192.88c0-26.13-21.19-47.32-47.31-47.32s-47.31,21.19-47.31,47.32c0,12.18,4.61,23.29,12.17,31.67h70.29c7.56-8.39,12.17-19.49,12.17-31.67Z" style="fill: #fff;"/>
          <g style="clip-path: url(#c);">
            <g>
              <path d="M23.92,189.85c-2.6-1.73-5.28-3.42-8.04-5.02-.59,3.13-1.07,6.27-1.44,9.37-.19,1.69,1.03,3.22,2.65,3.49,1.5.24,2.87-.69,3.26-2.16l.92,2.87,1.36-.62-1.57-2.57c1.36.66,2.98.24,3.78-1.08.87-1.42.49-3.33-.93-4.29Z" style="fill: #010101;"/>
              <path d="M37.96,184.76c-2.44-1.95-4.95-3.9-7.52-5.75-.86,3.05-1.64,6.12-2.33,9.18-.38,1.66.67,3.32,2.28,3.75,1.48.38,2.96-.42,3.5-1.84l.64,2.95,1.43-.5-1.33-2.7c1.3.77,2.96.51,3.89-.73,1-1.33.78-3.29-.54-4.35Z" style="fill: #010101;"/>
              <path d="M52.38,180.88c-2.26-2.14-4.61-4.3-7.01-6.36-1.11,3-2.16,5.93-3.1,8.94-.51,1.63.38,3.38,1.94,3.92,1.45.52,3-.14,3.65-1.53l.39,2.99,1.46-.39-1.09-2.8c1.23.89,2.91.78,3.94-.39,1.1-1.25,1.05-3.22-.18-4.38Z" style="fill: #010101;"/>
              <path d="M67.08,178.23c-1.04-1.17-2.1-2.34-3.18-3.51-1.08-1.15-2.17-2.28-3.28-3.41-1.36,2.88-2.64,5.73-3.83,8.65-.65,1.58.1,3.39,1.61,4.07,1.4.6,3,.11,3.76-1.22l.14,3.01,1.49-.26-.86-2.89c.58.5,1.29.74,1.99.72.71,0,1.41-.26,1.97-.79,1.21-1.14,1.32-3.1.19-4.38Z" style="fill: #010101;"/>
              <path d="M81.94,176.78c-1.88-2.49-3.83-4.97-5.86-7.44-1.59,2.75-3.1,5.55-4.54,8.32-.78,1.5-.19,3.38,1.27,4.2,1.35.76,2.98.33,3.85-.93l-.12,3.02c.5-.06,1.01-.07,1.51-.11l-.61-2.96c1.07,1.11,2.74,1.24,3.95.27,1.3-1.05,1.57-3.01.55-4.36Z" style="fill: #010101;"/>
              <path d="M96.87,176.62c-1.66-2.69-3.39-5.26-5.21-7.89-.91,1.3-1.8,2.59-2.67,3.9-.87,1.33-1.72,2.66-2.56,3.99-.9,1.44-.47,3.36.91,4.28.64.43,1.37.56,2.07.45.7-.09,1.36-.45,1.84-1.03l-.37,2.99h1.51s-.36-2.98-.36-2.98c.97,1.18,2.63,1.44,3.91.56,1.38-.9,1.82-2.81.92-4.27Z" style="fill: #010101;"/>
              <path d="M111.76,177.73c-1.42-2.84-2.93-5.55-4.51-8.31-2.04,2.46-3.99,4.85-5.88,7.41-1.02,1.37-.75,3.31.54,4.34,1.2.94,2.87.88,3.94-.22l-.62,2.95,1.51.13-.11-3.01c.87,1.27,2.5,1.61,3.85.91,1.45-.78,2.06-2.65,1.28-4.18Z" style="fill: #010101;"/>
              <path d="M126.51,180.1c-1.17-2.96-2.45-5.78-3.79-8.67-2.24,2.28-4.39,4.49-6.49,6.87-1.14,1.28-1.03,3.24.17,4.37,1.11,1.07,2.79,1.12,3.95.12l-.87,2.88,1.49.26.15-3.01c.76,1.34,2.36,1.81,3.76,1.23,1.51-.66,2.27-2.47,1.63-4.05Z" style="fill: #010101;"/>
              <path d="M141,183.69c-.93-3.02-1.96-5.93-3.05-8.94-2.42,2.07-4.75,4.1-7.05,6.3-1.24,1.18-1.3,3.14-.2,4.37,1.03,1.12,2.68,1.35,3.93.45l-1.11,2.8,1.46.39.4-2.99c.64,1.39,2.18,2.05,3.65,1.52,1.56-.52,2.47-2.26,1.97-3.9Z" style="fill: #010101;"/>
              <path d="M155.15,188.48c-.7-3.03-1.47-6.08-2.31-9.16-1.29.93-2.55,1.83-3.81,2.79-1.26.97-2.51,1.95-3.74,2.93-1.33,1.07-1.56,3.02-.56,4.34.46.61,1.11.98,1.81,1.1.69.14,1.43.03,2.08-.35l-1.34,2.7,1.43.52.65-2.95c.53,1.44,2,2.25,3.51,1.84,1.62-.44,2.67-2.11,2.28-3.75Z" style="fill: #010101;"/>
              <path d="M168.87,194.4c-.46-3.1-.97-6.23-1.55-9.37-2.73,1.69-5.39,3.4-7.99,5.14-1.41.95-1.79,2.88-.91,4.29.82,1.31,2.46,1.72,3.84,1.02l-1.55,2.59c.47.19.94.39,1.39.61l.88-2.89c.41,1.49,1.81,2.43,3.33,2.16,1.64-.29,2.81-1.87,2.56-3.56Z" style="fill: #010101;"/>
            </g>
            <path d="M37.7,201.74v38.34h108v-38.14c-50.92-23.29-94.3-6.75-108-.2Z" style="fill: url(#d); stroke: #010101; stroke-miterlimit: 10; stroke-width: 11px;"/>
          </g>
          <path d="M139.01,192.88c0-26.13-21.19-47.32-47.31-47.32s-47.31,21.19-47.31,47.32c0,12.18,4.61,23.29,12.17,31.67h70.29c7.56-8.39,12.17-19.49,12.17-31.67Z" style="fill: none; stroke: #010101; stroke-miterlimit: 10;"/>
        </g>
        <g>
          <path d="M147.93,138.99c-.45-.48-1.1-.72-1.75-.65-.64.06-1.21.43-1.54.98-1.01,1.8-2.57,3.24-4.45,4.11v-3.02c0-.55-.22-1.07-.61-1.46-.39-.39-.91-.61-1.46-.61-1.13.03-2.05.94-2.08,2.08v3.41h-2.59c-.19,0-.38.03-.56.07-1.9.38-3.36,3.52-3.42,7.34,0,.54.03,1.08.09,1.6.04.37.23.6.42.52.12-.06.22-.24.25-.47.27-1.56,1.01-2.6,1.83-2.56.25,0,.5.09.74.27.56.41.98,1.35,1.12,2.51.07.63.35,1.07.67,1.07h1.43s.07.01.07.01l-.69,43.35s.69.28,2.87.23c2.57-.05,2.49-.23,2.49-.23l-.68-43.02h.1c1.93.58,3.57,1.85,4.61,3.57.32.56.89.92,1.53,1,.65.08,1.3-.16,1.75-.63,2.31-2.58,3.58-5.93,3.53-9.4,0-3.69-1.48-7.74-3.68-10.07ZM136.43,197.07l.18-42.69h.95l.18,42.69h-1.31ZM139.5,152.85h-.67s-2.08,0-2.08,0c-.12,0-.23-.02-.34-.08-.23-.12-.37-.35-.37-.61v-6.22c0-.08,0-.16.04-.23l.03-.03c.03-.08.08-.15.14-.2.04-.05.09-.1.14-.14.1-.06.21-.09.33-.08h2.76c.11,0,.22.03.32.08.23.12.37.35.37.6v6.24c0,.37-.3.68-.68.68ZM147.13,155.09l-.11.11c-.24.3-.68.35-.98.11-.3-.24-.35-.68-.11-.98.95-1.61,1.44-3.46,1.42-5.33-.02-2.08-.57-4.12-1.6-5.93-.19-.33-.08-.75.24-.95.33-.2.75-.09.95.24l.07.02c1.15,2.03,1.76,4.32,1.76,6.65.01,2.13-.56,4.22-1.66,6.04Z" style="fill: #010101;"/>
          <path d="M143.3,165.78c1.24,0,2.25,1,2.25,2.25s-1.01,2.25-2.25,2.25h-2.99,8.99c1.25,0,2.26,1.01,2.25,2.25,0,1.24-1.01,2.25-2.25,2.25h-9,9c1.24,0,2.25,1.01,2.25,2.25,0,1.24-1.01,2.25-2.25,2.25h-9,2.99c1.24,0,2.25,1,2.25,2.25s-1.01,2.25-2.25,2.25h-8.12c-1.24,0-2.25-1-2.25-2.25v-13.5c0-1.24,1.01-2.25,2.25-2.25h8.12Z" style="fill: #fff; stroke: #010101; stroke-linecap: round; stroke-miterlimit: 10;"/>
        </g>
      </g>
      <polygon points="60.05 139.28 28.38 224.66 64.89 224.66 73.75 146.18 60.05 139.28" style="fill: #010101; stroke: #010101; stroke-miterlimit: 10;"/>
      <g>
        <path d="M131.7,138.75c0,5.52-4.48,10-10,10h-60c-5.52,0-10-4.48-10-10v-40c0-5.52,4.48-10,10-10h60c5.52,0,10,4.48,10,10v40Z" style="fill: #fff; stroke: #010101; stroke-miterlimit: 10;"/>
        <g>
          <g>
            <path d="M86.37,120.33c0,3.65-1.48,6.61-3.31,6.61s-3.31-2.96-3.31-6.61,1.48-6.61,3.31-6.61,3.31,2.96,3.31,6.61Z" style="fill: #010101;"/>
            <path d="M109.51,113.71c1.83,0,3.31,2.96,3.31,6.61s-1.48,6.61-3.31,6.61-3.31-2.96-3.31-6.61,1.48-6.61,3.31-6.61Z" style="fill: #010101;"/>
          </g>
          <g>
            <path d="M75.62,131.84c2.39,0,4.33.97,4.33,2.17s-1.94,2.17-4.33,2.17-4.33-.97-4.33-2.17,1.94-2.17,4.33-2.17Z" style="fill: #ba2025;"/>
            <path d="M116.95,131.84c2.39,0,4.34.97,4.34,2.17s-1.94,2.17-4.34,2.17-4.33-.97-4.33-2.17,1.94-2.17,4.33-2.17Z" style="fill: #ba2025;"/>
          </g>
        </g>
      </g>
      <g>
        <g>
          <path d="M89.78,60.51c-7.88-4.92-16.98-7.57-26.49-7.6l5.77,25.36h4.91l.64-1.11c3.85-6.68,9.07-12.31,15.17-16.65Z" style="fill: #010101;"/>
          <path d="M76.53,78.26h37.82l5.77-25.36c-18.62.06-34.89,10.26-43.59,25.36Z" style="fill: #010101;"/>
          <path d="M111.14,51.54c0-1.26-8.93-2.28-19.94-2.28s-19.91,1.02-19.94,2.28h-.23c7.54,1.12,14.69,3.59,21.11,7.22,5.67-3.35,11.99-5.79,18.66-7.21h.34Z" style="fill: #010101;"/>
        </g>
        <path d="M121.82,84.54c0,2.91-2.36,5.26-5.26,5.26h-50.87c-2.9,0-5.26-2.36-5.26-5.26v-3.5c0-2.91,2.36-5.26,5.26-5.26h50.87c2.91,0,5.26,2.36,5.26,5.26v3.5h0Z" style="fill: #fff; stroke: #010101; stroke-miterlimit: 10;"/>
        <path d="M99.18,39.06l-7.96-11.72-7.96,11.72c-1.44,2.12-.89,5.01,1.23,6.46,1.97,1.34,4.6.96,6.12-.8l-.59,4.48h2.4l-.59-4.48c1.52,1.76,4.15,2.14,6.12.8,2.13-1.44,2.68-4.33,1.23-6.46Z" style="fill: #010101;"/>
      </g>
      <path d="M110.9,143.16c-1.63-.92-3.8-1.83-5.88-2.68-.52-.21-1.03-.42-1.53-.63-.48-.23-1.01-.39-1.44-.62-.46-.2-.92-.39-1.3-.61-.43-.19-.79-.39-1.12-.6-.37-.2-.64-.43-.89-.65-.27-.22-.52-.43-.66-.65-.36-.45-.57-.71-.57-.71,0,0-.22.26-.58.71-.13.22-.39.43-.66.65-.26.22-.52.44-.89.65-.33.22-.69.41-1.12.6-.38.22-.84.4-1.3.61-.43.23-.96.38-1.44.62-.51.21-1.02.42-1.53.63-2.08.85-4.25,1.76-5.88,2.68-1.64.86-2.74,1.71-2.74,1.71,0,0,1.31.53,3.24.61.98.08,2.1.03,3.29-.15,1.19-.18,2.44-.52,3.66-.99.6-.29,1.21-.52,1.77-.88.57-.35,1.12-.67,1.62-1.12.51-.41.97-.84,1.35-1.34.19-.25.39-.46.54-.71.14-.27.27-.52.4-.77.12-.2.2-.41.27-.62.06.21.14.42.26.62.13.25.26.51.4.77.16.25.35.46.54.71.39.5.85.94,1.35,1.34.5.45,1.05.77,1.62,1.12.57.35,1.18.59,1.77.87,1.22.47,2.47.82,3.66.99,1.19.18,2.31.23,3.29.15,1.93-.09,3.24-.62,3.24-.62,0,0-1.1-.85-2.74-1.71Z" style="fill: #010101;"/>
    </g>
  </g>
</svg>