<?xml version="1.0" encoding="UTF-8"?>
<svg id="Layer_1" data-name="Layer 1" xmlns="http://www.w3.org/2000/svg" xmlns:xlink="http://www.w3.org/1999/xlink" viewBox="0 0 180 252">
  <defs>
    <style>
      .cls-1, .cls-2, .cls-3, .cls-4, .cls-5 {
        fill: none;
      }

      .cls-2, .cls-6, .cls-3, .cls-7, .cls-4, .cls-8, .cls-9, .cls-5 {
        stroke: #010101;
        stroke-miterlimit: 10;
      }

      .cls-10, .cls-9 {
        fill: #010101;
      }

      .cls-11 {
        fill: #231f20;
      }

      .cls-6, .cls-12, .cls-8 {
        fill: #fff;
      }

      .cls-3, .cls-4, .cls-8, .cls-5 {
        stroke-linecap: round;
      }

      .cls-3, .cls-4, .cls-5 {
        stroke-width: 2px;
      }

      .cls-7 {
        fill: url(#New_Pattern_Swatch_1);
        stroke-width: 11px;
      }

      .cls-13 {
        clip-path: url(#clippath-1);
      }

      .cls-4 {
        stroke-dasharray: .01 3.04;
      }

      .cls-14 {
        fill: #ba2025;
      }

      .cls-5 {
        stroke-dasharray: .01 3.04;
      }

      .cls-15 {
        clip-path: url(#clippath);
      }
    </style>
    <clipPath id="clippath">
      <path class="cls-6" d="M134.6,195.85c0-26.13-21.19-47.32-47.31-47.32s-47.31,21.19-47.31,47.32c0,12.18,4.61,23.29,12.17,31.67h70.29c7.56-8.39,12.17-19.49,12.17-31.67Z"/>
    </clipPath>
    <pattern id="New_Pattern_Swatch_1" data-name="New Pattern Swatch 1" x="0" y="0" width="10.8" height="16.2" patternTransform="translate(-468)" patternUnits="userSpaceOnUse" viewBox="0 0 10.8 16.2">
      <g>
        <rect class="cls-1" y="0" width="10.8" height="16.2"/>
        <circle class="cls-11" cx="10.8" cy="16.2" r="2.87"/>
        <circle class="cls-11" cx="0" cy="16.2" r="2.87"/>
        <circle class="cls-11" cx="5.4" cy="8.1" r="2.87"/>
        <circle class="cls-11" cx="10.8" cy="0" r="2.87"/>
        <circle class="cls-11" cx="0" cy="0" r="2.87"/>
      </g>
    </pattern>
    <clipPath id="clippath-1">
      <rect class="cls-1" x="47.29" y="91.73" width="80" height="60" rx="10" ry="10"/>
    </clipPath>
  </defs>
  <g>
    <path class="cls-10" d="M133.9,149.2c-.42,0-.77.33-.78.75,0,.42.33.77.75.78l.37,1.15c-.53-.08-1.06-.12-1.59-.11l-.43-1.36c.19-.14.31-.37.31-.61,0-.42-.33-.77-.75-.78-.42,0-.77.33-.78.75,0,.42.33.77.75.78l.39,1.24c-.62.05-1.22.16-1.82.33l-.43-1.35c.19-.14.31-.37.31-.61,0-.42-.33-.77-.75-.78-.42,0-.77.33-.78.75,0,.42.33.77.75.78l.43,1.35c-.58.2-1.15.46-1.68.78l-.39-1.24c.19-.14.31-.37.31-.6,0-.42-.33-.77-.75-.78-.42,0-.77.33-.78.75,0,.42.33.77.75.78l.43,1.36c-.44.3-.86.63-1.23,1.01l-.37-1.15c.19-.14.31-.37.31-.61,0-.42-.33-.77-.75-.78-.42,0-.77.33-.78.75,0,.42.33.77.75.78l.45,1.41c-.27.3-.52.62-.74.95-.04.06-.05.12-.03.19.02.13.06.25.1.37.91,2.87,3.93,4.52,6.84,3.73l.08-.03c.26.96.96,4.85.58,18.68h.5c.37-13.66-.31-17.73-.62-18.83,2.77-1.07,4.25-4.12,3.34-6.96-.04-.12-.09-.24-.13-.36-.03-.06-.08-.1-.14-.13-.37-.15-.76-.26-1.16-.35l-.45-1.41c.19-.14.31-.36.31-.6,0-.43-.33-.77-.75-.78ZM131.51,149.87c-.05-.15.03-.3.18-.35.15-.05.3.04.35.18.04.15-.04.3-.18.35-.15.05-.3-.03-.35-.18ZM129.18,150.24c-.05-.15.03-.3.18-.35.15-.05.3.04.35.18.05.15-.03.3-.18.35-.15.05-.3-.04-.35-.18ZM127.08,151.27c-.05-.15.03-.3.18-.35.15-.04.3.04.35.18h0c.04.15-.04.3-.18.35-.15.04-.3-.04-.35-.18ZM125.45,152.64c-.05-.15.03-.3.18-.35.15-.05.3.03.35.18.05.15-.03.3-.18.35-.15.05-.3-.04-.35-.18ZM130.48,152.59c.58-.17,1.17-.27,1.78-.32.68,2.26.71,4.46.08,6.17l-1.86-5.85ZM128.38,153.5c.52-.31,1.06-.57,1.63-.77l1.86,5.86c-1.5-1.04-2.75-2.85-3.49-5.09ZM125.87,155.86c.15-.23.32-.45.5-.66,1.2,2.32,3.13,3.96,5.18,4.43-2.57.36-5.01-1.26-5.68-3.78ZM126.72,154.82c.38-.39.79-.74,1.24-1.05h0c.84,2.46,2.27,4.42,3.99,5.45-2.07-.35-4.04-2.01-5.23-4.4ZM132.76,152.25c.54,0,1.08.04,1.62.14h0c.41,2.63-.25,5.13-1.73,6.61.81-1.84.85-4.26.12-6.75ZM135.67,152.76h0c.9,2.44-.15,5.16-2.46,6.36,1.4-1.57,2.03-4.02,1.68-6.6.26.07.53.15.78.25ZM134.16,149.88h0c.05.14-.03.3-.18.35-.15.05-.3-.04-.35-.18-.04-.15.04-.3.18-.35.15-.04.3.04.35.18Z"/>
    <path class="cls-10" d="M133.07,176.64l.7.06c1.81-21.74,6.06-27.4,7.06-28.44h0c3.9,3.07,9.53,2.52,12.77-1.24.14-.16.26-.33.4-.49.06-.09.08-.2.06-.3-.12-.65-.29-1.3-.51-1.92l1.59-1.85c.37.15.78.12,1.12-.09.6-.35.8-1.13.44-1.73-.35-.6-1.13-.8-1.73-.44-.6.36-.8,1.13-.44,1.73l-1.3,1.5c-.34-.81-.74-1.59-1.22-2.33l1.54-1.78c.37.15.78.12,1.12-.08.6-.36.79-1.13.44-1.73-.35-.6-1.13-.8-1.73-.44-.6.36-.8,1.13-.44,1.73l-1.4,1.62c-.6-.82-1.28-1.58-2.03-2.26l1.52-1.77c.37.15.78.12,1.12-.08.6-.35.8-1.13.44-1.73-.35-.6-1.13-.79-1.73-.44-.6.36-.79,1.13-.44,1.73l-1.52,1.77c-.79-.64-1.63-1.2-2.53-1.68l1.4-1.62c.37.15.78.12,1.12-.08.6-.35.8-1.13.44-1.73-.36-.6-1.13-.8-1.73-.44-.6.35-.8,1.13-.44,1.73l-1.54,1.78c-.8-.36-1.63-.65-2.48-.86l1.29-1.5c.37.15.78.12,1.12-.08.6-.35.8-1.13.44-1.73-.35-.6-1.13-.8-1.73-.44-.6.36-.79,1.13-.44,1.73l-1.59,1.85c-.65-.12-1.31-.19-1.98-.22-.11,0-.22.04-.3.12-.15.15-.29.31-.43.47-3.23,3.77-2.93,9.41.68,12.81l.07.06c-1.22,1.3-5.42,7.23-7.22,28.84ZM140.05,146.37c-2.72-3.3-2.56-8.11.38-11.22.45.02.9.06,1.35.13-2.21,3.68-2.84,7.81-1.73,11.09ZM144.57,131.77c.17-.19.46-.21.65-.05.19.17.21.45.05.65-.17.19-.45.21-.64.05-.19-.17-.21-.45-.05-.65ZM140.98,146.55c-1.3-3.2-.68-7.4,1.65-11.13.87.19,1.72.47,2.54.83h0c-2.71,3.31-4.22,7.01-4.18,10.3ZM147.9,132.87c.16-.19.45-.21.65-.05.19.16.21.45.05.64h0c-.16.19-.45.21-.64.05-.19-.16-.21-.45-.05-.65ZM148.4,138.24l-6.6,7.66c.16-3,1.62-6.31,4.12-9.29.88.46,1.71,1,2.48,1.63ZM151.17,134.93c.17-.19.45-.21.65-.05.19.17.21.45.05.65-.17.19-.46.21-.65.05-.19-.17-.21-.45-.05-.65ZM153.69,137.86c.16-.19.46-.21.64-.05.19.16.21.45.05.65-.16.19-.45.21-.64.05-.19-.17-.21-.45-.05-.65ZM155.28,140.99c.16-.19.45-.21.65-.05.19.17.21.46.05.65h0c-.16.18-.45.21-.64.05-.19-.17-.21-.45-.05-.64ZM142.21,148.24c3.41.61,7.39-.63,10.7-3.35.13.43.24.87.33,1.31h0c-2.63,3.36-7.36,4.24-11.03,2.05ZM141.89,147.34c3.27-.46,6.7-2.5,9.56-5.66.48.76.88,1.56,1.2,2.39h0c-3.34,2.84-7.4,4.07-10.75,3.27ZM142.4,146.43l6.6-7.66c.73.66,1.4,1.41,1.98,2.21-2.57,2.91-5.63,4.84-8.58,5.45Z"/>
    <path class="cls-10" d="M133.31,175.96l.49.08c2.6-15.92,5.44-19.23,6.91-19.78.1-.04.2-.06.29-.08-.78,2.64.49,5.5,3.05,6.66.12.05.24.09.35.15.06.02.13.02.18-.01.36-.18.7-.39,1.03-.62l1.34.61c-.03.24.06.47.24.63.31.29.79.27,1.07-.04.29-.31.27-.79-.04-1.07-.31-.28-.79-.27-1.07.04l-1.09-.49c.41-.33.79-.7,1.14-1.1l1.29.59c-.02.24.06.47.24.63.31.29.79.27,1.07-.04.29-.31.27-.79-.04-1.07-.31-.29-.79-.27-1.07.04l-1.17-.53c.37-.49.69-1.01.96-1.56l1.28.58c-.02.24.06.47.24.63.31.29.79.27,1.07-.04.29-.31.27-.79-.04-1.07-.31-.29-.79-.27-1.07.04l-1.28-.58c.24-.56.42-1.15.54-1.75l1.17.53c-.02.24.06.47.24.63.31.29.79.27,1.07-.04.29-.3.27-.79-.04-1.07-.31-.29-.79-.27-1.07.04l-1.29-.59c.07-.52.1-1.05.08-1.58l1.09.5c-.02.23.06.47.24.63.31.29.79.27,1.07-.04.29-.31.27-.79-.04-1.07-.31-.29-.79-.27-1.07.04l-1.34-.61c-.04-.4-.11-.79-.21-1.18-.02-.06-.06-.12-.12-.15-.11-.07-.23-.12-.34-.17-2.72-1.23-5.93-.11-7.29,2.56l-.2.44c-.19,0-.4.03-.64.12-1.91.72-4.72,4.8-7.22,20.16ZM151.33,155.04c.14.06.2.23.14.37-.06.14-.23.2-.37.13-.14-.06-.2-.23-.14-.36.06-.14.23-.2.36-.14ZM151.25,157.16c.14.06.2.23.14.36-.06.14-.23.2-.36.14h0c-.14-.06-.2-.23-.14-.37.06-.14.23-.2.36-.14ZM150.62,159.39c.14.06.2.23.14.36-.06.14-.23.2-.36.14-.14-.06-.2-.23-.14-.37.06-.14.23-.2.36-.14ZM149.35,161.34c.14.06.2.23.14.36-.06.14-.23.2-.36.14-.14-.06-.2-.23-.14-.36.06-.14.22-.2.36-.14ZM147.81,162.79c.14.06.2.23.14.36-.06.14-.23.2-.36.14h0c-.14-.07-.2-.23-.14-.37.06-.14.23-.2.37-.14ZM148.83,154.02c-2.5-.65-4.99-.32-6.7.87,1.45-2.13,4.25-2.85,6.55-1.67.06.26.12.53.15.8ZM148.84,156.14h0c-2.37-1.01-4.76-1.26-6.65-.68,1.63-1.29,4.16-1.64,6.71-.93.04.54.02,1.07-.05,1.61ZM148.24,158.35l-5.54-2.52c1.76-.41,3.92-.13,6.06.81-.11.59-.29,1.16-.52,1.71ZM147.09,160.3c-2.11-1-3.75-2.44-4.59-4.03l5.54,2.52c-.26.54-.58,1.05-.95,1.52ZM145.59,161.78c-2.21-1.45-3.61-3.59-3.71-5.66.82,1.81,2.57,3.45,4.89,4.57-.36.4-.75.77-1.18,1.1h0ZM141.42,156.46c.22,2.07,1.61,4.16,3.74,5.62-.23.15-.46.29-.7.41h0c-2.39-.95-3.69-3.54-3.05-6.03Z"/>
    <g>
      <g>
        <path class="cls-12" d="M134.6,195.85c0-26.13-21.19-47.32-47.31-47.32s-47.31,21.19-47.31,47.32c0,12.18,4.61,23.29,12.17,31.67h70.29c7.56-8.39,12.17-19.49,12.17-31.67Z"/>
        <g class="cls-15">
          <g>
            <path class="cls-10" d="M19.5,192.82c-2.6-1.73-5.28-3.42-8.04-5.02-.59,3.13-1.07,6.27-1.44,9.37-.19,1.69,1.03,3.22,2.65,3.49,1.5.24,2.87-.69,3.26-2.16l.92,2.87,1.36-.62-1.57-2.57c1.36.66,2.98.24,3.78-1.08.87-1.42.49-3.33-.93-4.29Z"/>
            <path class="cls-10" d="M33.54,187.73c-2.44-1.95-4.95-3.9-7.52-5.75-.86,3.05-1.64,6.12-2.33,9.18-.38,1.66.67,3.32,2.28,3.75,1.48.38,2.96-.42,3.5-1.84l.64,2.95,1.43-.5-1.33-2.7c1.3.77,2.96.51,3.89-.73,1-1.33.78-3.29-.54-4.35Z"/>
            <path class="cls-10" d="M47.96,183.85c-2.26-2.14-4.61-4.3-7.01-6.36-1.11,3-2.16,5.93-3.1,8.94-.51,1.63.38,3.38,1.94,3.92,1.45.52,3-.14,3.65-1.53l.39,2.99,1.46-.39-1.09-2.8c1.23.89,2.91.78,3.94-.39,1.1-1.25,1.05-3.22-.18-4.38Z"/>
            <path class="cls-10" d="M62.66,181.2c-1.04-1.17-2.1-2.34-3.18-3.51-1.08-1.15-2.17-2.28-3.28-3.41-1.36,2.88-2.64,5.73-3.83,8.65-.65,1.58.1,3.39,1.61,4.07,1.4.6,3,.11,3.76-1.22l.14,3.01,1.49-.26-.86-2.89c.58.5,1.29.74,1.99.72.71,0,1.41-.26,1.97-.79,1.21-1.14,1.32-3.1.19-4.38Z"/>
            <path class="cls-10" d="M77.52,179.76c-1.88-2.49-3.83-4.97-5.86-7.44-1.59,2.75-3.1,5.55-4.54,8.32-.78,1.5-.19,3.38,1.27,4.2,1.35.76,2.98.33,3.85-.93l-.12,3.02c.5-.06,1.01-.07,1.51-.11l-.61-2.96c1.07,1.11,2.74,1.24,3.95.27,1.3-1.05,1.57-3.01.55-4.36Z"/>
            <path class="cls-10" d="M92.46,179.59c-1.66-2.69-3.39-5.26-5.21-7.89-.91,1.3-1.8,2.59-2.67,3.9-.87,1.33-1.72,2.66-2.56,3.99-.9,1.44-.47,3.36.91,4.28.64.43,1.37.56,2.07.45.7-.09,1.36-.45,1.84-1.03l-.37,2.99h1.51s-.36-2.98-.36-2.98c.97,1.18,2.63,1.44,3.91.56,1.38-.9,1.82-2.81.92-4.27Z"/>
            <path class="cls-10" d="M107.35,180.7c-1.42-2.84-2.93-5.55-4.51-8.31-2.04,2.46-3.99,4.85-5.88,7.41-1.02,1.37-.75,3.31.54,4.34,1.2.94,2.87.88,3.94-.22l-.62,2.95,1.51.13-.11-3.01c.87,1.27,2.5,1.61,3.85.91,1.45-.78,2.06-2.65,1.28-4.18Z"/>
            <path class="cls-10" d="M122.09,183.07c-1.17-2.96-2.45-5.78-3.79-8.67-2.24,2.28-4.39,4.49-6.49,6.87-1.14,1.28-1.03,3.24.17,4.37,1.11,1.07,2.79,1.12,3.95.12l-.87,2.88,1.49.26.15-3.01c.76,1.34,2.36,1.81,3.76,1.23,1.51-.66,2.27-2.47,1.63-4.05Z"/>
            <path class="cls-10" d="M136.59,186.66c-.93-3.02-1.96-5.93-3.05-8.94-2.42,2.07-4.75,4.1-7.05,6.3-1.24,1.18-1.3,3.14-.2,4.37,1.03,1.12,2.68,1.35,3.93.45l-1.11,2.8,1.46.39.4-2.99c.64,1.39,2.18,2.05,3.65,1.52,1.56-.52,2.47-2.26,1.97-3.9Z"/>
            <path class="cls-10" d="M150.74,191.45c-.7-3.03-1.47-6.08-2.31-9.16-1.29.93-2.55,1.83-3.81,2.79-1.26.97-2.51,1.95-3.74,2.93-1.33,1.07-1.56,3.02-.56,4.34.46.61,1.11.98,1.81,1.1.69.14,1.43.03,2.08-.35l-1.34,2.7,1.43.52.65-2.95c.53,1.44,2,2.25,3.51,1.84,1.62-.44,2.67-2.11,2.28-3.75Z"/>
            <path class="cls-10" d="M164.45,197.37c-.46-3.1-.97-6.23-1.55-9.37-2.73,1.69-5.39,3.4-7.99,5.14-1.41.95-1.79,2.88-.91,4.29.82,1.31,2.46,1.72,3.84,1.02l-1.55,2.59c.47.19.94.39,1.39.61l.88-2.89c.41,1.49,1.81,2.43,3.33,2.16,1.64-.29,2.81-1.87,2.56-3.56Z"/>
          </g>
          <path class="cls-7" d="M33.28,204.71v38.34h108v-38.14c-50.92-23.29-94.3-6.75-108-.2Z"/>
        </g>
        <path class="cls-2" d="M134.6,195.85c0-26.13-21.19-47.32-47.31-47.32s-47.31,21.19-47.31,47.32c0,12.18,4.61,23.29,12.17,31.67h70.29c7.56-8.39,12.17-19.49,12.17-31.67Z"/>
      </g>
      <path class="cls-8" d="M138.88,170.75c1.24,0,2.25,1.01,2.25,2.25s-1.01,2.25-2.25,2.25h-2.99,8.99c1.25,0,2.26,1.01,2.25,2.25,0,1.24-1.01,2.25-2.25,2.25h-9,9c1.24,0,2.25,1.01,2.25,2.25,0,1.24-1.01,2.26-2.25,2.26h-9,2.99c1.24,0,2.25,1,2.25,2.24s-1.01,2.26-2.25,2.26h-8.12c-1.24,0-2.25-1.01-2.25-2.25v-13.51c0-1.24,1.01-2.24,2.25-2.24h8.12Z"/>
    </g>
    <polygon class="cls-9" points="52.29 74.71 23.11 227.52 52.13 227.52 59.17 88 52.29 74.71"/>
    <g>
      <path class="cls-10" d="M95.27,37.11l-8.61-12.63-8.57,12.66c-1.55,2.29-.96,5.41,1.34,6.96,2.13,1.44,4.96,1.03,6.6-.88l-.63,4.84h2.59s-.65-4.84-.65-4.84c1.64,1.9,4.48,2.3,6.6.85,2.29-1.56,2.88-4.68,1.32-6.97Z"/>
      <path class="cls-6" d="M100.74,48.04c-5.43,0-10.35,2.12-14.04,5.53-3.7-3.4-8.63-5.5-14.06-5.49-11.46.02-20.74,9.32-20.72,20.79.02,11.46,9.32,20.74,20.79,20.72,5.43,0,10.35-2.11,14.04-5.53,3.7,3.4,8.63,5.5,14.05,5.49,11.46-.02,20.74-9.32,20.72-20.78-.02-11.47-9.33-20.74-20.79-20.73Z"/>
      <g>
        <path class="cls-12" d="M100.79,85.51c-4.19,0-8.21-1.56-11.32-4.42l-2.74-2.52-2.73,2.52c-3.1,2.87-7.12,4.45-11.31,4.46-9.22.01-16.73-7.47-16.74-16.69-.01-9.22,7.48-16.73,16.69-16.75,4.19,0,8.21,1.56,11.32,4.42l2.74,2.52,2.73-2.53c3.1-2.87,7.12-4.45,11.31-4.46,9.22-.01,16.73,7.48,16.74,16.7.02,9.22-7.47,16.73-16.69,16.74Z"/>
        <g>
          <line class="cls-3" x1="86.74" y1="78.57" x2="86.74" y2="78.57"/>
          <path class="cls-4" d="M84.73,80.42l-.73.67c-3.1,2.87-7.12,4.45-11.31,4.46-9.22.01-16.73-7.48-16.74-16.69-.01-9.22,7.48-16.73,16.69-16.75,4.19,0,8.21,1.57,11.32,4.42l1.73,1.59"/>
          <line class="cls-3" x1="86.71" y1="59.05" x2="86.71" y2="59.05"/>
          <path class="cls-5" d="M88.71,57.2l.73-.67c3.1-2.87,7.11-4.45,11.31-4.46,9.22-.01,16.73,7.48,16.74,16.7.01,9.22-7.48,16.73-16.69,16.74-4.19,0-8.21-1.56-11.32-4.42l-1.73-1.59"/>
        </g>
      </g>
      <path class="cls-6" d="M85.96,87.94c-1.74,0-3.15-1.4-3.15-3.14l-.05-34.59c0-1.74,1.4-3.15,3.14-3.15h1.57c1.74,0,3.15,1.4,3.15,3.14l.05,34.59c0,1.74-1.4,3.15-3.14,3.15h-1.57Z"/>
      <path class="cls-6" d="M117.4,87.52c0,2.91-2.35,5.26-5.26,5.26h-50.87c-2.91,0-5.26-2.35-5.26-5.26v-3.5c0-2.91,2.35-5.26,5.26-5.26h50.87c2.91,0,5.26,2.36,5.26,5.26v3.5h0Z"/>
    </g>
    <g>
      <g>
        <path id="SVGID" class="cls-12" d="M127.29,141.73c0,5.52-4.48,10-10,10h-60c-5.52,0-10-4.48-10-10v-40c0-5.52,4.48-10,10-10h60c5.52,0,10,4.48,10,10v40Z"/>
        <g class="cls-13">
          <path class="cls-10" d="M57.29,91.73c-5.52,0-10,4.48-10,10v40c0,.5.08.98.15,1.46,12.48-10.32,23.11-39.4,27.11-51.46h-17.26Z"/>
        </g>
        <path id="SVGID-2" data-name="SVGID" class="cls-2" d="M127.29,141.73c0,5.52-4.48,10-10,10h-60c-5.52,0-10-4.48-10-10v-40c0-5.52,4.48-10,10-10h60c5.52,0,10,4.48,10,10v40Z"/>
      </g>
      <g>
        <g>
          <path class="cls-10" d="M78.64,116.69c1.83,0,3.31,2.96,3.31,6.61s-1.48,6.61-3.31,6.61-3.31-2.96-3.31-6.61,1.48-6.61,3.31-6.61Z"/>
          <path class="cls-10" d="M105.09,116.69c1.83,0,3.31,2.96,3.31,6.61s-1.48,6.61-3.31,6.61-3.31-2.96-3.31-6.61,1.48-6.61,3.31-6.61Z"/>
        </g>
        <g>
          <ellipse class="cls-14" cx="71.2" cy="136.97" rx="4.33" ry="2.17"/>
          <path class="cls-14" d="M112.53,134.81c2.4,0,4.34.97,4.34,2.17s-1.94,2.17-4.34,2.17-4.33-.97-4.33-2.17,1.94-2.17,4.33-2.17Z"/>
        </g>
      </g>
    </g>
  </g>
  <g>
    <path class="cls-11" d="M28.58,39.38c-1.41,0-2.42-.06-3.04-.18-.71-.17-1.41-.5-2.07-1-1.5,1.22-3.14,1.82-4.93,1.82-1.93,0-3.66-.69-5.18-2.07-1.6-1.43-2.39-3.1-2.39-5v-2.64h-1.97v-3.43c.07-.02.73-.07,1.97-.14v-10.61c0-1.93.8-3.61,2.39-5.04,1.52-1.38,3.25-2.07,5.18-2.07s3.67.7,5.24,2.11c1.56,1.41,2.34,3.07,2.34,5v16.83c0,.81-.17,1.61-.5,2.39.33.21.64.36.93.43h2.04v3.61ZM14.61,26.73c1.45.17,2.91.83,4.36,2,.91.71,2.06,1.86,3.47,3.43v-16.05c0-.86-.41-1.63-1.23-2.32-.82-.69-1.71-1.04-2.66-1.04s-1.85.35-2.68,1.04c-.83.69-1.25,1.47-1.25,2.32v10.61ZM20.69,35.58l-4.61-4.56c-.38-.39-.87-.63-1.47-.72v2.6c0,.84.42,1.62,1.25,2.32.83.7,1.73,1.05,2.68,1.05.74,0,1.45-.23,2.14-.69Z"/>
    <path class="cls-11" d="M151.42,212.62c1.41,0,2.42.06,3.04.18.71.17,1.41.5,2.07,1,1.5-1.22,3.14-1.82,4.93-1.82,1.93,0,3.66.69,5.18,2.07,1.6,1.43,2.39,3.1,2.39,5v2.64h1.97v3.43c-.07.02-.73.07-1.97.14v10.61c0,1.93-.8,3.61-2.39,5.04-1.52,1.38-3.25,2.07-5.18,2.07s-3.67-.7-5.24-2.11c-1.56-1.41-2.34-3.07-2.34-5v-16.83c0-.81.17-1.61.5-2.39-.33-.21-.64-.36-.93-.43h-2.04v-3.61ZM165.39,225.27c-1.45-.17-2.91-.83-4.36-2-.91-.71-2.06-1.86-3.47-3.43v16.05c0,.86.41,1.63,1.23,2.32.82.69,1.71,1.04,2.66,1.04s1.85-.35,2.68-1.04c.83-.69,1.25-1.47,1.25-2.32v-10.61ZM159.31,216.42l4.61,4.56c.38.39.87.63,1.47.72v-2.6c0-.84-.42-1.62-1.25-2.32-.83-.7-1.73-1.05-2.68-1.05-.74,0-1.45.23-2.14.69Z"/>
  </g>
</svg>