<?xml version="1.0" encoding="UTF-8"?>
<svg id="a" data-name="Layer 1" xmlns="http://www.w3.org/2000/svg" width="2.5in" height="3.5in" xmlns:xlink="http://www.w3.org/1999/xlink" viewBox="0 0 180 252">
  <defs>
    <clipPath id="b">
      <rect width="180" height="252" rx="18" ry="18" style="fill: none;"/>
    </clipPath>
    <clipPath id="c">
      <path d="M139.58,195.8c0-26.13-21.19-47.32-47.31-47.32s-47.31,21.19-47.31,47.32c0,12.18,4.61,23.29,12.17,31.67h70.29c7.56-8.39,12.17-19.49,12.17-31.67Z" style="fill: #fff; stroke: #010101; stroke-miterlimit: 10;"/>
    </clipPath>
    <pattern id="d" data-name="New Pattern Swatch 1" x="0" y="0" width="10.8" height="16.2" patternTransform="translate(-234)" patternUnits="userSpaceOnUse" viewBox="0 0 10.8 16.2">
      <g>
        <rect y="0" width="10.8" height="16.2" style="fill: none;"/>
        <circle cx="10.8" cy="16.2" r="2.87" style="fill: #231f20;"/>
        <circle cx="0" cy="16.2" r="2.87" style="fill: #231f20;"/>
        <circle cx="5.4" cy="8.1" r="2.87" style="fill: #231f20;"/>
        <circle cx="10.8" cy="0" r="2.87" style="fill: #231f20;"/>
        <circle cx="0" cy="0" r="2.87" style="fill: #231f20;"/>
      </g>
    </pattern>
    <clipPath id="e">
      <path d="M82.62,170.08c8.56,0,15.49,6.94,15.49,15.49s-6.94,15.49-15.49,15.49-15.49-6.94-15.49-15.49,6.94-15.49,15.49-15.49Z" style="fill: #fff; stroke: #010101; stroke-miterlimit: 10;"/>
    </clipPath>
  </defs>
  <g style="clip-path: url(#b);">
    <rect width="180" height="252" style="fill: #fff;"/>
    <path d="M5.96,109.2h10.78V17.36H5.96V4.48h32.62v12.88h-9.1v44.66l28.7-44.66h-11.06V4.48h35.84v12.88h-10.3l-23.3,36.26,23.8,55.58h9.8v12.88h-35.84v-12.88h11.57l-18.02-42.07-11.2,17.42v24.65h9.1v12.88H5.96v-12.88Z" style="fill: #231f20;"/>
    <path d="M26.36,229.38l28.83-77.74c-2.95-2.21-4.72-5.71-4.72-9.44v-40.52c0-5.63,3.96-10.35,9.25-11.52-.34-.84-.52-1.75-.52-2.69v-3.5c0-3.9,3.17-7.06,7.06-7.06h.52l-6.42-25.05c-2.93-.21-5.25-2.67-5.25-5.65s2.54-5.67,5.67-5.67,5.67,2.54,5.67,5.67c0,1.29-.44,2.52-1.22,3.51l5.35,8.08,2.24-16.26c-1.86-.95-3.11-2.88-3.11-5.04,0-3.12,2.54-5.67,5.67-5.67s5.67,2.54,5.67,5.67c0,1.73-.81,3.35-2.12,4.41l4.14,11.35,5.91-19.33c-1.47-1.04-2.38-2.73-2.38-4.6,0-3.13,2.54-5.67,5.67-5.67s5.67,2.54,5.67,5.67c0,1.87-.91,3.56-2.38,4.6l5.91,19.33,4.15-11.36c-1.31-1.05-2.1-2.64-2.1-4.4,0-3.12,2.54-5.67,5.67-5.67s5.67,2.54,5.67,5.67c0,2.18-1.27,4.12-3.14,5.06l2.24,16.25,5.31-8.02c-.76-.98-1.18-2.19-1.18-3.46,0-3.13,2.54-5.67,5.67-5.67s5.67,2.54,5.67,5.67-2.33,5.45-5.28,5.66l-6.4,24.97c3.6.32,6.43,3.35,6.43,7.04v3.51c0,.87-.16,1.71-.45,2.5,5.82.72,10.34,5.7,10.34,11.71v40.52c0,6.51-5.29,11.8-11.8,11.8h-4.21c4.77,2.95,9.03,6.72,12.56,11.13.28-.13.58-.19.9-.19.19,0,.35.02.47.05h3.01v-38.02l4.21-12.14,4.21,12.14v38.02h3.02c.15-.03.29-.04.43-.04.44,0,.86.13,1.22.38l.6.38c.39.24.75.5,1.06.72.69.51,1.06.82,1.06.82l1.62,1.37-1.61,1.38-1.17-1.36,1.16,1.37s-.39.33-1,.77l-.1.07c-.3.21-.65.46-1.04.71,0,0-.41.27-.59.38-.36.24-.77.37-1.21.37-.03,0-.05,0-.08,0,.03.21.05.43.05.65,0,.15,0,.3-.02.45h1.98c2.24,0,4.05,1.82,4.05,4.05,0,.83-.25,1.61-.68,2.25.43.64.68,1.42.68,2.25,0,2.24-1.82,4.05-4.05,4.05h-1.98c.02.15.02.3.02.45,0,1.63-.96,3.03-2.34,3.68.09.4.14.81.14,1.22,0,2.22-1.32,4.14-3.26,4.98-.13,11.98-4.6,23.45-12.63,32.35l-.54.59h-61.14v.11H26.36ZM63.86,225.67l7.96-70.55c-15.32,7.7-25.07,23.35-25.07,40.68,0,11.01,3.96,21.59,11.18,29.87h5.93ZM134.21,186.45c0,.25.2.46.45.46h.34v-6.8c-.25-.67-.51-1.34-.79-2v8.35Z" style="fill: #fff;"/>
    <g>
      <g>
        <g>
          <path d="M139.58,195.8c0-26.13-21.19-47.32-47.31-47.32s-47.31,21.19-47.31,47.32c0,12.18,4.61,23.29,12.17,31.67h70.29c7.56-8.39,12.17-19.49,12.17-31.67Z" style="fill: #fff;"/>
          <g style="clip-path: url(#c);">
            <g>
              <path d="M24.49,192.77c-2.6-1.73-5.28-3.42-8.04-5.02-.59,3.13-1.07,6.27-1.44,9.37-.19,1.69,1.03,3.22,2.65,3.49,1.5.24,2.87-.69,3.26-2.16l.92,2.87,1.36-.62-1.57-2.57c1.36.66,2.98.24,3.78-1.08.87-1.42.49-3.33-.93-4.29Z" style="fill: #010101;"/>
              <path d="M38.52,187.68c-2.44-1.95-4.95-3.9-7.52-5.75-.86,3.05-1.64,6.12-2.33,9.18-.38,1.66.67,3.32,2.28,3.75,1.48.38,2.96-.42,3.5-1.84l.64,2.95,1.43-.5-1.33-2.7c1.3.77,2.96.51,3.89-.73,1-1.33.78-3.29-.54-4.35Z" style="fill: #010101;"/>
              <path d="M52.95,183.8c-2.26-2.14-4.61-4.3-7.01-6.36-1.11,3-2.16,5.93-3.1,8.94-.51,1.63.38,3.38,1.94,3.92,1.45.52,3-.14,3.65-1.53l.39,2.99,1.46-.39-1.09-2.8c1.23.89,2.91.78,3.94-.39,1.1-1.25,1.05-3.22-.18-4.38Z" style="fill: #010101;"/>
              <path d="M67.64,181.15c-1.04-1.17-2.1-2.34-3.18-3.51-1.08-1.15-2.17-2.28-3.28-3.41-1.36,2.88-2.64,5.73-3.83,8.65-.65,1.58.1,3.39,1.61,4.07,1.4.6,3,.11,3.76-1.22l.14,3.01,1.49-.26-.86-2.89c.58.5,1.29.74,1.99.72.71,0,1.41-.26,1.97-.79,1.21-1.14,1.32-3.1.19-4.38Z" style="fill: #010101;"/>
              <path d="M82.51,179.7c-1.88-2.49-3.83-4.97-5.86-7.44-1.59,2.75-3.1,5.55-4.54,8.32-.78,1.5-.19,3.38,1.27,4.2,1.35.76,2.98.33,3.85-.93l-.12,3.02c.5-.06,1.01-.07,1.51-.11l-.62-2.96c1.07,1.11,2.74,1.24,3.95.27,1.3-1.05,1.57-3.01.55-4.36Z" style="fill: #010101;"/>
              <path d="M97.44,179.54c-1.66-2.69-3.39-5.26-5.21-7.89-.91,1.3-1.8,2.59-2.67,3.9-.87,1.33-1.72,2.66-2.56,3.99-.9,1.44-.47,3.36.91,4.28.64.43,1.37.56,2.07.45.7-.09,1.36-.45,1.84-1.03l-.37,2.99h1.51s-.36-2.98-.36-2.98c.97,1.18,2.63,1.44,3.91.56,1.38-.9,1.82-2.81.92-4.27Z" style="fill: #010101;"/>
              <path d="M112.33,180.65c-1.42-2.84-2.93-5.55-4.51-8.31-2.04,2.46-3.99,4.85-5.88,7.41-1.02,1.37-.75,3.31.54,4.34,1.2.94,2.87.88,3.94-.22l-.62,2.95,1.51.13-.11-3.01c.87,1.27,2.5,1.61,3.85.91,1.45-.78,2.06-2.65,1.28-4.18Z" style="fill: #010101;"/>
              <path d="M127.08,183.02c-1.17-2.96-2.45-5.78-3.79-8.67-2.24,2.28-4.39,4.49-6.49,6.87-1.14,1.28-1.03,3.24.17,4.37,1.11,1.07,2.79,1.12,3.95.12l-.87,2.88,1.49.26.15-3.01c.76,1.34,2.36,1.81,3.76,1.23,1.51-.66,2.27-2.47,1.63-4.05Z" style="fill: #010101;"/>
              <path d="M141.57,186.61c-.93-3.02-1.96-5.93-3.05-8.94-2.42,2.07-4.75,4.1-7.05,6.3-1.24,1.18-1.3,3.14-.2,4.37,1.03,1.12,2.68,1.35,3.93.45l-1.11,2.8,1.46.39.4-2.99c.64,1.39,2.18,2.05,3.65,1.52,1.56-.52,2.47-2.26,1.97-3.9Z" style="fill: #010101;"/>
              <path d="M155.72,191.4c-.7-3.03-1.47-6.08-2.31-9.16-1.29.93-2.55,1.83-3.81,2.79-1.26.97-2.51,1.95-3.74,2.93-1.33,1.07-1.56,3.02-.56,4.34.46.61,1.11.98,1.81,1.1.69.14,1.43.03,2.08-.35l-1.34,2.7,1.43.52.65-2.95c.53,1.44,2,2.25,3.51,1.84,1.62-.44,2.67-2.11,2.28-3.75Z" style="fill: #010101;"/>
              <path d="M169.44,197.32c-.46-3.1-.97-6.23-1.55-9.37-2.73,1.69-5.39,3.4-7.99,5.14-1.41.95-1.79,2.88-.91,4.29.82,1.31,2.46,1.72,3.84,1.02l-1.55,2.59c.47.19.94.39,1.39.61l.88-2.89c.41,1.49,1.81,2.43,3.33,2.16,1.64-.29,2.81-1.87,2.56-3.56Z" style="fill: #010101;"/>
            </g>
            <path d="M38.27,204.66v38.34h108v-38.14c-50.92-23.29-94.3-6.75-108-.2Z" style="fill: url(#d); stroke: #010101; stroke-miterlimit: 10; stroke-width: 11px;"/>
          </g>
          <path d="M139.58,195.8c0-26.13-21.19-47.32-47.31-47.32s-47.31,21.19-47.31,47.32c0,12.18,4.61,23.29,12.17,31.67h70.29c7.56-8.39,12.17-19.49,12.17-31.67Z" style="fill: none; stroke: #010101; stroke-miterlimit: 10;"/>
        </g>
        <polygon points="60.61 142.2 28.95 227.58 65.46 227.58 74.31 149.11 60.61 142.2" style="fill: #010101; stroke: #010101; stroke-miterlimit: 10;"/>
        <g>
          <path d="M132.27,141.67c0,5.52-4.48,10-10,10h-60c-5.52,0-10-4.48-10-10v-40c0-5.52,4.48-10,10-10h60c5.52,0,10,4.48,10,10v40Z" style="fill: #fff; stroke: #010101; stroke-miterlimit: 10;"/>
          <g>
            <g>
              <path d="M90.24,123.25c0,1.83-2.96,3.31-6.61,3.31s-6.61-1.48-6.61-3.31" style="fill: none; stroke: #010101; stroke-linecap: round; stroke-linejoin: round;"/>
              <path d="M116.69,123.25c0,1.82-2.96,3.3-6.61,3.3s-6.61-1.48-6.61-3.3" style="fill: none; stroke: #010101; stroke-linecap: round; stroke-linejoin: round;"/>
            </g>
            <g>
              <ellipse cx="76.18" cy="136.92" rx="4.33" ry="2.17" style="fill: #ba2025;"/>
              <path d="M117.52,134.76c2.39,0,4.34.97,4.34,2.17s-1.94,2.17-4.34,2.17-4.33-.97-4.33-2.17,1.94-2.17,4.33-2.17Z" style="fill: #ba2025;"/>
            </g>
          </g>
          <path d="M101.85,142.2v4.73h-10.01v-4.73h-39.58c0,5.52,4.48,10,10,10h60c5.52,0,10-4.48,10-10h-30.41Z" style="fill: #010101;"/>
        </g>
        <g>
          <g>
            <path d="M123.76,42.43c-2.14,0-3.87,1.73-3.87,3.87,0,1.34.68,2.51,1.71,3.21l-8.77,13.24-3.1-22.46c1.88-.26,3.33-1.86,3.33-3.82,0-2.14-1.73-3.87-3.87-3.87s-3.87,1.73-3.87,3.87c0,1.66,1.04,3.05,2.5,3.61l-6.5,17.81-7.93-25.91c1.58-.49,2.74-1.94,2.74-3.68,0-2.14-1.73-3.87-3.87-3.87s-3.87,1.73-3.87,3.87c0,1.74,1.16,3.2,2.74,3.68l-7.92,25.91-6.5-17.8c1.47-.55,2.53-1.95,2.53-3.62,0-2.14-1.73-3.87-3.87-3.87s-3.87,1.73-3.87,3.87c0,1.95,1.44,3.54,3.3,3.81l-3.1,22.46-8.82-13.31c1.05-.69,1.76-1.88,1.76-3.24,0-2.14-1.73-3.87-3.87-3.87s-3.87,1.73-3.87,3.87,1.73,3.87,3.87,3.87c.33,0,.64-.05.95-.13l7.84,30.62h45.41l7.82-30.52c.31.08.63.14.97.14,2.13,0,3.87-1.73,3.87-3.87s-1.73-3.87-3.87-3.87Z" style="fill: #010101;"/>
            <circle cx="77.74" cy="71.45" r="2.87" style="fill: #fff;"/>
            <path d="M96.64,70.42c-1.28.87-2.99.62-3.98-.52l.38,2.91h-1.56l.38-2.91c-.99,1.15-2.7,1.39-3.98.52-1.38-.94-1.73-2.82-.8-4.19l5.17-7.61,5.17,7.61c.94,1.38.58,3.26-.8,4.19Z" style="fill: #fff;"/>
            <circle cx="106.8" cy="71.45" r="2.87" style="fill: #fff;"/>
          </g>
          <path d="M122.38,87.46c0,2.91-2.36,5.26-5.26,5.26h-50.87c-2.9,0-5.26-2.36-5.26-5.26v-3.5c0-2.91,2.36-5.26,5.26-5.26h50.87c2.91,0,5.27,2.36,5.27,5.26v3.5h0Z" style="fill: #fff; stroke: #010101; stroke-miterlimit: 10;"/>
        </g>
      </g>
      <g>
        <g>
          <path d="M82.62,170.08c8.56,0,15.49,6.94,15.49,15.49s-6.94,15.49-15.49,15.49-15.49-6.94-15.49-15.49,6.94-15.49,15.49-15.49Z" style="fill: #fff;"/>
          <g style="clip-path: url(#e);">
            <path d="M110.67,193.84c-26.45-12.1-48.99-3.51-56.1-.1" style="fill: none; stroke: #010101; stroke-miterlimit: 10; stroke-width: 11px;"/>
          </g>
          <path d="M82.62,170.08c8.56,0,15.49,6.94,15.49,15.49s-6.94,15.49-15.49,15.49-15.49-6.94-15.49-15.49,6.94-15.49,15.49-15.49Z" style="fill: none; stroke: #010101; stroke-miterlimit: 10;"/>
        </g>
        <path d="M73.62,201.97c0-1.24,1-2.25,2.25-2.25s2.25,1.01,2.25,2.25v2.99-9c0-1.25,1.01-2.25,2.25-2.25s2.25,1.01,2.25,2.25v9-9c0-1.25,1.01-2.25,2.25-2.25s2.25,1.01,2.25,2.25v9-2.99c0-1.24,1-2.25,2.25-2.25s2.25,1.01,2.25,2.25v4.12h0c0,1.24-1.01,2.25-2.25,2.25h-13.5c-1.24,0-2.25-1.01-2.25-2.25h0v-4.12Z" style="fill: #fff; stroke: #010101; stroke-linecap: round; stroke-miterlimit: 10;"/>
        <path d="M87.94,163.49l-5.31-7.82-5.32,7.82c-.96,1.42-.6,3.35.82,4.31,1.31.89,3.07.64,4.08-.53l-.4,2.99h1.6l-.4-2.99c1.02,1.18,2.77,1.43,4.09.53,1.42-.96,1.79-2.89.82-4.31Z" style="fill: #010101;"/>
      </g>
      <g>
        <path d="M139.21,187.72c2,0,3.63,1.62,3.63,3.63s-1.62,3.63-3.63,3.63-3.63-1.62-3.63-3.63,1.62-3.63,3.63-3.63Z" style="fill: #010101;"/>
        <path d="M141.62,191.56h-4.82v-64.3l2.41-6.95,2.41,6.95v64.3ZM139.21,124.05l-1.19,3.42v62.87h1.18v-66.28Z" style="fill: #010101;"/>
        <path d="M128.77,168.62s.33-.29.9-.71c.29-.21.63-.47,1.03-.71.2-.13.41-.26.64-.41.22-.14.46.05.7,0h14.35c.25.06.48-.14.7.03.22.14.44.28.63.41.4.25.75.5,1.03.71.57.42.9.69.9.69,0,0-.32.28-.9.7-.29.2-.63.46-1.03.71-.2.13-.41.27-.63.41-.22.17-.46-.03-.7.03h-14.35c-.24-.05-.48.14-.7,0-.22-.15-.44-.28-.64-.41-.4-.24-.74-.5-1.03-.71-.57-.41-.9-.71-.9-.71Z" style="fill: #010101;"/>
        <path d="M142.79,170.7c1.24,0,2.25,1,2.25,2.25s-1.01,2.25-2.25,2.25h-2.99,9c1.25,0,2.25,1.01,2.25,2.25s-1.01,2.25-2.25,2.25h-9,9c1.25,0,2.25,1.01,2.25,2.25s-1.01,2.25-2.25,2.25h-9,2.99c1.24,0,2.25,1,2.25,2.25s-1.01,2.25-2.25,2.25h-8.12c-1.24,0-2.25-1-2.25-2.25v-13.5c0-1.24,1.01-2.25,2.25-2.25h8.12Z" style="fill: #fff; stroke: #010101; stroke-linecap: round; stroke-miterlimit: 10;"/>
      </g>
    </g>
  </g>
</svg>