<?xml version="1.0" encoding="UTF-8"?>
<svg id="a" data-name="Layer 1" xmlns="http://www.w3.org/2000/svg" width="2.5in" height="3.5in" xmlns:xlink="http://www.w3.org/1999/xlink" viewBox="0 0 180 252">
  <defs>
    <clipPath id="b">
      <rect width="180" height="252" rx="18" ry="18" style="fill: none;"/>
    </clipPath>
  </defs>
  <g style="clip-path: url(#b);">
    <rect width="180" height="252" style="fill: #fff;"/>
    <path d="M37.18,107.66v14.14H5.96v-14.14h10.22L35.5,4.48h17.5l19.46,103.18h10.22v14.14h-31.22v-14.14h6.76s-2.24-12.32-2.24-12.32h-23.25l-2.31,12.31h6.75ZM35.24,81.2h18.13l-9.1-48.24-9.03,48.24Z" style="fill: #231f20;"/>
    <g>
      <path d="M80.48,195.59l3.28-24.71c-5.42,4.41-12.24,6.86-19.35,6.86-6.14,0-12.08-1.83-17.18-5.31-6.76-4.59-11.33-11.55-12.87-19.59-1.53-8.04.16-16.19,4.75-22.96l50.88-74.87,50.89,74.88c4.6,6.77,6.28,14.92,4.75,22.96-1.54,8.04-6.11,14.99-12.88,19.58-5.1,3.46-11.04,5.3-17.18,5.3h0c-7.11,0-13.93-2.45-19.34-6.85l3.28,24.71h-19.03Z" style="fill: #fff;"/>
      <path d="M139.4,130.9l-49.4-72.69-49.39,72.68c-8.95,13.16-5.53,31.11,7.64,40.05,12.22,8.32,28.54,5.95,37.98-4.96l-3.69,27.8h14.92l-3.69-27.8c9.44,10.91,25.75,13.26,37.98,4.96,13.18-8.94,16.6-26.86,7.65-40.04Z" style="fill: #010101;"/>
      <path d="M75.28,124.19c2.03,0,3.68,3.3,3.68,7.36s-1.65,7.36-3.68,7.36-3.68-3.3-3.68-7.36,1.65-7.36,3.68-7.36Z" style="fill: #fff;"/>
      <ellipse cx="104.72" cy="131.56" rx="3.68" ry="7.36" style="fill: #fff;"/>
      <path d="M67,144.37c2.66,0,4.82,1.08,4.82,2.41s-2.16,2.41-4.82,2.41-4.83-1.08-4.83-2.41,2.16-2.41,4.83-2.41Z" style="fill: #fff;"/>
      <path d="M113,144.37c2.66,0,4.82,1.08,4.82,2.41s-2.16,2.41-4.82,2.41-4.82-1.08-4.82-2.41,2.16-2.41,4.82-2.41Z" style="fill: #fff;"/>
    </g>
  </g>
</svg>