<?xml version="1.0" encoding="UTF-8"?>
<svg id="Layer_1" data-name="Layer 1" xmlns="http://www.w3.org/2000/svg" viewBox="0 0 180 252">
  <defs>
    <style>
      .cls-1 {
        fill: #010101;
      }

      .cls-2 {
        fill: #231f20;
      }

      .cls-3 {
        fill: #fff;
      }
    </style>
  </defs>
  <g>
    <path class="cls-1" d="M139.4,130.9l-49.4-72.69-49.39,72.68c-8.95,13.16-5.53,31.11,7.64,40.05,12.22,8.32,28.54,5.95,37.98-4.96l-3.69,27.8h14.92l-3.69-27.8c9.44,10.91,25.75,13.26,37.98,4.96,13.18-8.94,16.6-26.86,7.65-40.04Z"/>
    <g>
      <g>
        <path class="cls-3" d="M75.28,124.19c2.03,0,3.68,3.3,3.68,7.36s-1.65,7.36-3.68,7.36-3.68-3.3-3.68-7.36,1.65-7.36,3.68-7.36Z"/>
        <ellipse class="cls-3" cx="104.72" cy="131.56" rx="3.68" ry="7.36"/>
      </g>
      <g>
        <path class="cls-3" d="M67,144.37c2.66,0,4.82,1.08,4.82,2.41s-2.16,2.41-4.82,2.41-4.83-1.08-4.83-2.41,2.16-2.41,4.83-2.41Z"/>
        <path class="cls-3" d="M113,144.37c2.66,0,4.82,1.08,4.82,2.41s-2.16,2.41-4.82,2.41-4.82-1.08-4.82-2.41,2.16-2.41,4.82-2.41Z"/>
      </g>
    </g>
  </g>
  <g>
    <path class="cls-2" d="M16.97,35.34v3.61h-7.97v-3.61h2.61l4.93-26.34h4.47l4.97,26.34h2.61v3.61h-7.97v-3.61h1.72s-.57-3.14-.57-3.14h-5.93l-.59,3.14h1.72ZM16.47,28.58h4.63l-2.32-12.31-2.31,12.31Z"/>
    <path class="cls-2" d="M163.03,216.66v-3.61h7.97v3.61h-2.61l-4.93,26.34h-4.47l-4.97-26.34h-2.61v-3.61h7.97v3.61h-1.72s.57,3.14.57,3.14h5.93l.59-3.14h-1.72ZM163.53,223.42h-4.63l2.32,12.31,2.31-12.31Z"/>
  </g>
</svg>