<?xml version="1.0" encoding="UTF-8"?>
<svg id="a" data-name="Layer 1" xmlns="http://www.w3.org/2000/svg" width="767.25" height="412.23" xmlns:xlink="http://www.w3.org/1999/xlink" viewBox="0 0 767.25 412.23">
  <defs>
    <clipPath id="b">
      <rect x="20.51" y="29.45" width="180" height="252" rx="18" ry="18" transform="translate(-25.32 21.55) rotate(-10)" style="fill: none;"/>
    </clipPath>
    <clipPath id="c">
      <rect x="159.47" y="3.8" width="180" height="252" rx="18" ry="18" style="fill: none;"/>
    </clipPath>
    <clipPath id="d">
      <path d="M299.05,199.6c0-26.13-21.19-47.32-47.31-47.32s-47.31,21.19-47.31,47.32c0,12.18,4.61,23.29,12.17,31.67h70.29c7.56-8.39,12.17-19.49,12.17-31.67Z" style="fill: #fff; stroke: #000; stroke-miterlimit: 10;"/>
    </clipPath>
    <pattern id="e" data-name="New Pattern Swatch 1" x="0" y="0" width="10.8" height="16.2" patternTransform="translate(19.55 -16.25)" patternUnits="userSpaceOnUse" viewBox="0 0 10.8 16.2">
      <g>
        <rect y="0" width="10.8" height="16.2" style="fill: none;"/>
        <circle cx="10.8" cy="16.2" r="2.87" style="fill: #231f20;"/>
        <circle cx="0" cy="16.2" r="2.87" style="fill: #231f20;"/>
        <circle cx="5.4" cy="8.1" r="2.87" style="fill: #231f20;"/>
        <circle cx="10.8" cy="0" r="2.87" style="fill: #231f20;"/>
        <circle cx="0" cy="0" r="2.87" style="fill: #231f20;"/>
      </g>
    </pattern>
    <clipPath id="f">
      <path d="M242.09,173.88c8.56,0,15.49,6.94,15.49,15.49,0,8.56-6.94,15.49-15.49,15.49s-15.49-6.94-15.49-15.49c0-8.56,6.94-15.49,15.49-15.49Z" style="fill: #fff; stroke: #000; stroke-miterlimit: 10;"/>
    </clipPath>
    <clipPath id="g">
      <rect x="261" y="49.71" width="252" height="180" rx="18" ry="18" transform="translate(182.21 496.57) rotate(-80)" style="fill: none;"/>
    </clipPath>
    <clipPath id="h">
      <path d="M418.79,216.25c4.54-25.74-12.65-50.28-38.38-54.81-25.74-4.54-50.27,12.65-54.81,38.38-2.12,12,.49,23.73,6.48,33.3l69.22,12.21c8.9-6.95,15.37-17.08,17.48-29.08Z" style="fill: #fff; stroke: #000; stroke-miterlimit: 10;"/>
    </clipPath>
    <clipPath id="j">
      <rect x="355.07" y="95.03" width="60" height="80" rx="10" ry="10" transform="translate(185.22 490.8) rotate(-80)" style="fill: none;"/>
    </clipPath>
    <clipPath id="l">
      <rect x="389.09" y="93.58" width="252" height="180" rx="18" ry="18" transform="translate(166.41 604.82) rotate(-70)" style="fill: none;"/>
    </clipPath>
    <clipPath id="m">
      <path d="M538.28,263.19c8.94-24.56-3.73-51.71-28.28-60.64-24.56-8.94-51.71,3.73-60.64,28.28-4.17,11.45-3.64,23.46.6,33.92l66.05,24.04c9.97-5.29,18.1-14.15,22.27-25.6Z" style="fill: #fff; stroke: #000; stroke-miterlimit: 10;"/>
    </clipPath>
    <clipPath id="n">
      <rect x="500.31" y="168.11" width="252" height="180" rx="18" ry="18" transform="translate(89.62 671.46) rotate(-60)" style="fill: none;"/>
    </clipPath>
  </defs>
  <g style="clip-path: url(#b);">
    <rect x="20.51" y="29.45" width="180" height="252" transform="translate(-25.32 21.55) rotate(-10)" style="fill: #fff;"/>
    <path d="M55.31,146.56l2.46,13.92-30.75,5.42-2.46-13.92,10.06-1.77,1.11-104.97,17.24-3.04,37.08,98.23,10.06-1.77,2.46,13.92-30.75,5.42-2.46-13.92,6.65-1.18-4.34-11.74-22.89,4.04-.13,12.53,6.65-1.17ZM48.8,120.84l17.86-3.15-17.34-45.93-.52,49.08Z" style="fill: #231f20;"/>
    <g>
      <path d="M113.22,225.64l-1.06-24.91c-4.57,5.28-10.86,8.89-17.87,10.12-6.05,1.07-12.22.29-17.84-2.24-7.46-3.35-13.17-9.4-16.07-17.06-2.9-7.65-2.66-15.97.7-23.43l37.11-82.57,63.12,64.91c5.7,5.87,8.78,13.61,8.66,21.79-.12,8.18-3.41,15.82-9.28,21.52-4.42,4.3-9.96,7.13-16,8.2h0c-7,1.23-14.14,0-20.24-3.39l7.52,23.77-18.74,3.3Z" style="fill: #fff;"/>
      <path d="M160.01,151.7l-61.28-63.01-36.02,80.16c-6.52,14.52-.05,31.6,14.47,38.11,13.48,6.07,29.14.91,36.55-11.48l1.2,28.02,14.7-2.59-8.46-26.74c11.19,9.11,27.67,8.59,38.26-1.71,11.42-11.09,11.68-29.34.58-40.76Z"/>
      <path d="M95.7,156.23c2-.35,4.2,2.61,4.9,6.61s-.34,7.54-2.35,7.89-4.2-2.61-4.9-6.61.34-7.54,2.35-7.89Z" style="fill: #fff;"/>
      <ellipse cx="125.97" cy="158.37" rx="3.68" ry="7.36" transform="translate(-25.59 24.28) rotate(-10)" style="fill: #fff;"/>
      <path d="M91.05,177.54c2.62-.46,4.93.22,5.17,1.54s-1.71,2.75-4.33,3.21-4.94-.22-5.17-1.54,1.71-2.75,4.34-3.21Z" style="fill: #fff;"/>
      <path d="M136.36,169.55c2.62-.46,4.94.22,5.17,1.54s-1.71,2.75-4.33,3.21-4.93-.22-5.17-1.54,1.71-2.75,4.33-3.21Z" style="fill: #fff;"/>
    </g>
  </g>
  <g style="clip-path: url(#c);">
    <rect x="159.47" y="3.8" width="180" height="252" style="fill: #fff;"/>
    <path d="M165.43,113h10.78V21.16h-10.78s0-12.88,0-12.88h32.62v12.88h-9.1v44.66l28.7-44.66h-11.06v-12.88h35.84v12.88h-10.3l-23.3,36.26,23.8,55.58h9.8v12.88h-35.84v-12.88h11.57l-18.02-42.07-11.2,17.42v24.65h9.1v12.88h-32.62v-12.88Z" style="fill: #231f20;"/>
    <path d="M185.83,233.18l28.83-77.74c-2.95-2.21-4.72-5.71-4.72-9.44v-40.52c0-5.63,3.96-10.35,9.25-11.52-.34-.84-.52-1.75-.52-2.69v-3.5c0-3.9,3.17-7.06,7.06-7.06h.52s-6.42-25.05-6.42-25.05c-2.93-.21-5.25-2.67-5.25-5.65s2.54-5.67,5.67-5.67,5.67,2.54,5.67,5.67c0,1.29-.44,2.52-1.22,3.51l5.35,8.08,2.24-16.26c-1.86-.95-3.11-2.88-3.11-5.04,0-3.12,2.54-5.67,5.67-5.67s5.67,2.54,5.67,5.67c0,1.73-.81,3.35-2.12,4.41l4.14,11.35,5.91-19.33c-1.47-1.04-2.38-2.73-2.38-4.6,0-3.13,2.54-5.67,5.67-5.67s5.67,2.54,5.67,5.67-.91,3.56-2.38,4.6l5.91,19.33,4.15-11.36c-1.31-1.05-2.1-2.64-2.1-4.4s2.54-5.67,5.67-5.67,5.67,2.54,5.67,5.67-1.27,4.12-3.14,5.06l2.24,16.25,5.31-8.02c-.76-.98-1.18-2.19-1.18-3.46s2.54-5.67,5.67-5.67,5.67,2.54,5.67,5.67-2.33,5.45-5.28,5.66l-6.4,24.97c3.6.32,6.43,3.35,6.43,7.04v3.51c0,.87-.16,1.71-.45,2.5,5.82.72,10.34,5.7,10.34,11.71v40.52c0,6.51-5.29,11.8-11.8,11.8h-4.21c4.77,2.95,9.03,6.72,12.56,11.13.28-.13.58-.19.9-.19.19,0,.35.02.47.05h3.01v-38.02s4.21-12.14,4.21-12.14l4.21,12.14v38.02h3.02c.15-.03.29-.04.43-.04.44,0,.86.13,1.22.38l.6.38c.39.24.75.5,1.06.72.69.51,1.06.82,1.06.82l1.62,1.37-1.61,1.38-1.17-1.36,1.16,1.37s-.39.33-1,.77l-.1.07c-.3.21-.65.46-1.04.71,0,0-.41.27-.59.38-.36.24-.77.37-1.21.37-.03,0-.05,0-.08,0,.03.21.05.43.05.65s0,.3-.02.45h1.98c2.24,0,4.05,1.82,4.05,4.05,0,.83-.25,1.61-.68,2.25.43.64.68,1.42.68,2.25,0,2.24-1.82,4.05-4.05,4.05h-1.98c.02.15.02.3.02.45,0,1.63-.96,3.03-2.34,3.68.09.4.14.81.14,1.22,0,2.22-1.32,4.14-3.26,4.98-.13,11.98-4.6,23.45-12.63,32.35l-.54.59h-61.14v.11h-40.72ZM223.33,229.47l7.96-70.55c-15.32,7.7-25.07,23.35-25.07,40.68,0,11.01,3.96,21.59,11.18,29.87h5.93ZM293.68,190.25c0,.25.2.46.45.46h.34v-6.8c-.25-.67-.51-1.34-.79-2v8.35Z" style="fill: #fff;"/>
    <g>
      <g>
        <g>
          <path d="M299.05,199.6c0-26.13-21.19-47.32-47.31-47.32s-47.31,21.19-47.31,47.32c0,12.18,4.61,23.29,12.17,31.67h70.29c7.56-8.39,12.17-19.49,12.17-31.67Z" style="fill: #fff;"/>
          <g style="clip-path: url(#d);">
            <g>
              <path d="M183.95,196.57c-2.6-1.73-5.28-3.42-8.04-5.02-.59,3.13-1.07,6.27-1.44,9.37-.19,1.69,1.03,3.22,2.65,3.49,1.5.24,2.87-.69,3.26-2.16l.92,2.87,1.36-.62-1.57-2.57c1.36.66,2.98.24,3.78-1.08.87-1.42.49-3.33-.93-4.29Z"/>
              <path d="M197.99,191.48c-2.44-1.95-4.95-3.9-7.52-5.75-.86,3.05-1.64,6.12-2.33,9.18-.38,1.66.67,3.32,2.28,3.75,1.48.38,2.96-.42,3.5-1.84l.64,2.95,1.43-.5-1.33-2.7c1.3.77,2.96.51,3.89-.73,1-1.33.78-3.29-.54-4.35Z"/>
              <path d="M212.41,187.6c-2.26-2.14-4.61-4.3-7.01-6.36-1.11,3-2.16,5.93-3.1,8.94-.51,1.63.38,3.38,1.94,3.92,1.45.52,3-.14,3.65-1.53l.39,2.99,1.46-.39-1.09-2.8c1.23.89,2.91.78,3.94-.39,1.1-1.25,1.05-3.22-.18-4.38Z"/>
              <path d="M227.11,184.95c-1.04-1.17-2.1-2.34-3.18-3.51-1.08-1.15-2.17-2.28-3.28-3.41-1.36,2.88-2.64,5.73-3.83,8.65-.65,1.58.1,3.39,1.61,4.07,1.4.6,3,.11,3.76-1.22l.14,3.01,1.49-.26-.86-2.89c.58.5,1.29.74,1.99.72.71,0,1.41-.26,1.97-.79,1.21-1.14,1.32-3.1.19-4.38Z"/>
              <path d="M241.97,183.51c-1.88-2.49-3.83-4.97-5.86-7.44-1.59,2.75-3.1,5.55-4.54,8.32-.78,1.5-.19,3.38,1.27,4.2,1.35.76,2.98.33,3.85-.93l-.12,3.02c.5-.06,1.01-.07,1.51-.11l-.62-2.96c1.07,1.11,2.74,1.24,3.95.27,1.3-1.05,1.57-3.01.55-4.36Z"/>
              <path d="M256.91,183.34c-1.66-2.69-3.39-5.26-5.21-7.89-.91,1.3-1.8,2.59-2.67,3.9-.87,1.33-1.72,2.66-2.56,3.99-.9,1.44-.47,3.36.91,4.28.64.43,1.37.56,2.07.45.7-.09,1.36-.45,1.84-1.03l-.37,2.99h1.51s-.36-2.98-.36-2.98c.97,1.18,2.63,1.44,3.91.56,1.38-.9,1.82-2.81.92-4.27Z"/>
              <path d="M271.8,184.45c-1.42-2.84-2.93-5.55-4.51-8.31-2.04,2.46-3.99,4.85-5.88,7.41-1.02,1.37-.75,3.31.54,4.34,1.2.94,2.87.88,3.94-.22l-.62,2.95,1.51.13-.11-3.01c.87,1.27,2.5,1.61,3.85.91,1.45-.78,2.06-2.65,1.28-4.18Z"/>
              <path d="M286.54,186.82c-1.17-2.96-2.45-5.78-3.79-8.67-2.24,2.28-4.39,4.49-6.49,6.87-1.14,1.28-1.03,3.24.17,4.37,1.11,1.07,2.79,1.12,3.95.12l-.87,2.88,1.49.26.15-3.01c.76,1.34,2.36,1.81,3.76,1.23,1.51-.66,2.27-2.47,1.63-4.05Z"/>
              <path d="M301.04,190.41c-.93-3.02-1.96-5.93-3.05-8.94-2.42,2.07-4.75,4.1-7.05,6.3-1.24,1.18-1.3,3.14-.2,4.37,1.03,1.12,2.68,1.35,3.93.45l-1.11,2.8,1.46.39.4-2.99c.64,1.39,2.18,2.05,3.65,1.52,1.56-.52,2.47-2.26,1.97-3.9Z"/>
              <path d="M315.19,195.2c-.7-3.03-1.47-6.08-2.31-9.16-1.29.93-2.55,1.83-3.81,2.79-1.26.97-2.51,1.95-3.74,2.93-1.33,1.07-1.56,3.02-.56,4.34.46.61,1.11.98,1.81,1.1.69.14,1.43.03,2.08-.35l-1.34,2.7,1.43.52.65-2.95c.53,1.44,2,2.25,3.51,1.84,1.62-.44,2.67-2.11,2.28-3.75Z"/>
              <path d="M328.9,201.12c-.46-3.1-.97-6.23-1.55-9.37-2.73,1.69-5.39,3.4-7.99,5.14-1.41.95-1.79,2.88-.91,4.29.82,1.31,2.46,1.72,3.84,1.02l-1.55,2.59c.47.19.94.39,1.39.61l.88-2.89c.41,1.49,1.81,2.43,3.33,2.16,1.64-.29,2.81-1.87,2.56-3.56Z"/>
            </g>
            <path d="M197.73,208.46v38.34h108v-38.14c-50.92-23.29-94.3-6.75-108-.2Z" style="fill: url(#e); stroke: #000; stroke-miterlimit: 10; stroke-width: 11px;"/>
          </g>
          <path d="M299.05,199.6c0-26.13-21.19-47.32-47.31-47.32s-47.31,21.19-47.31,47.32c0,12.18,4.61,23.29,12.17,31.67h70.29c7.56-8.39,12.17-19.49,12.17-31.67Z" style="fill: none; stroke: #000; stroke-miterlimit: 10;"/>
        </g>
        <polygon points="220.08 146 188.42 231.38 224.92 231.38 233.78 152.91 220.08 146" style="stroke: #000; stroke-miterlimit: 10;"/>
        <g>
          <path d="M291.74,145.48c0,5.52-4.48,10-10,10h-60c-5.52,0-10-4.48-10-10v-40c0-5.52,4.48-10,10-10h60c5.52,0,10,4.48,10,10v40Z" style="fill: #fff; stroke: #000; stroke-miterlimit: 10;"/>
          <g>
            <g>
              <path d="M249.7,127.05c0,1.83-2.96,3.31-6.61,3.31s-6.61-1.48-6.61-3.31" style="fill: none; stroke: #000; stroke-linecap: round; stroke-linejoin: round;"/>
              <path d="M276.16,127.05c0,1.82-2.96,3.3-6.61,3.3s-6.61-1.48-6.61-3.3" style="fill: none; stroke: #000; stroke-linecap: round; stroke-linejoin: round;"/>
            </g>
            <g>
              <ellipse cx="235.65" cy="140.73" rx="4.33" ry="2.17" style="fill: #b92026;"/>
              <path d="M276.98,138.56c2.39,0,4.34.97,4.34,2.17s-1.94,2.17-4.34,2.17-4.33-.97-4.33-2.17,1.94-2.17,4.33-2.17Z" style="fill: #b92026;"/>
            </g>
          </g>
          <path d="M261.32,146v4.73h-10.01v-4.73h-39.58c0,5.52,4.48,10,10,10h60c5.52,0,10-4.48,10-10h-30.41Z"/>
        </g>
        <g>
          <g>
            <path d="M283.23,46.23c-2.14,0-3.87,1.73-3.87,3.87s.68,2.51,1.71,3.21l-8.77,13.24-3.1-22.46c1.88-.26,3.33-1.86,3.33-3.82,0-2.14-1.73-3.87-3.87-3.87s-3.87,1.73-3.87,3.87c0,1.66,1.04,3.05,2.5,3.61l-6.5,17.81-7.93-25.91c1.58-.49,2.74-1.94,2.74-3.68,0-2.14-1.73-3.87-3.87-3.87s-3.87,1.73-3.87,3.87c0,1.74,1.16,3.2,2.74,3.68l-7.92,25.91-6.5-17.8c1.47-.55,2.53-1.95,2.53-3.62,0-2.14-1.73-3.87-3.87-3.87s-3.87,1.73-3.87,3.87c0,1.95,1.44,3.54,3.3,3.81l-3.1,22.46-8.82-13.31c1.05-.69,1.76-1.88,1.76-3.24,0-2.14-1.73-3.87-3.87-3.87s-3.87,1.73-3.87,3.87c0,2.14,1.73,3.87,3.87,3.87.33,0,.64-.05.95-.13l7.84,30.62h45.41l7.82-30.52c.31.08.63.14.97.14,2.13,0,3.87-1.73,3.87-3.87s-1.73-3.87-3.87-3.87Z"/>
            <circle cx="237.2" cy="75.25" r="2.87" style="fill: #fff;"/>
            <path d="M256.11,74.22c-1.28.87-2.99.62-3.98-.52l.38,2.91h-1.56l.38-2.91c-.99,1.15-2.7,1.39-3.98.52-1.38-.94-1.73-2.82-.8-4.19l5.17-7.61,5.17,7.61c.94,1.38.58,3.26-.8,4.19Z" style="fill: #fff;"/>
            <circle cx="266.27" cy="75.25" r="2.87" style="fill: #fff;"/>
          </g>
          <path d="M281.85,91.27c0,2.91-2.36,5.26-5.26,5.26h-50.87c-2.9,0-5.26-2.36-5.26-5.26v-3.5c0-2.91,2.36-5.26,5.26-5.26h50.87c2.91,0,5.27,2.36,5.27,5.26v3.5h0Z" style="fill: #fff; stroke: #000; stroke-miterlimit: 10;"/>
        </g>
      </g>
      <g>
        <g>
          <path d="M242.09,173.88c8.56,0,15.49,6.94,15.49,15.49,0,8.56-6.94,15.49-15.49,15.49s-15.49-6.94-15.49-15.49c0-8.56,6.94-15.49,15.49-15.49Z" style="fill: #fff;"/>
          <g style="clip-path: url(#f);">
            <path d="M270.14,197.64c-26.45-12.1-48.99-3.51-56.1-.1" style="fill: none; stroke: #000; stroke-miterlimit: 10; stroke-width: 11px;"/>
          </g>
          <path d="M242.09,173.88c8.56,0,15.49,6.94,15.49,15.49,0,8.56-6.94,15.49-15.49,15.49s-15.49-6.94-15.49-15.49c0-8.56,6.94-15.49,15.49-15.49Z" style="fill: none; stroke: #000; stroke-miterlimit: 10;"/>
        </g>
        <path d="M233.08,205.77c0-1.24,1-2.25,2.25-2.25s2.25,1.01,2.25,2.25v2.99s0-9,0-9c0-1.25,1.01-2.25,2.25-2.25s2.25,1.01,2.25,2.25v9s0-9,0-9c0-1.25,1.01-2.25,2.25-2.25s2.25,1.01,2.25,2.25v9s0-2.99,0-2.99c0-1.24,1-2.25,2.25-2.25s2.25,1.01,2.25,2.25v4.12h0c0,1.24-1.01,2.25-2.25,2.25h-13.5c-1.24,0-2.25-1.01-2.25-2.25h0v-4.12Z" style="fill: #fff; stroke: #000; stroke-linecap: round; stroke-miterlimit: 10;"/>
        <path d="M247.4,167.3l-5.31-7.82-5.32,7.82c-.96,1.42-.6,3.35.82,4.31,1.31.89,3.07.64,4.08-.53l-.4,2.99h1.6l-.4-2.99c1.02,1.18,2.77,1.43,4.09.53,1.42-.96,1.79-2.89.82-4.31Z"/>
      </g>
      <g>
        <path d="M298.68,191.52c2,0,3.63,1.62,3.63,3.63s-1.62,3.63-3.63,3.63-3.63-1.62-3.63-3.63,1.62-3.63,3.63-3.63Z"/>
        <path d="M301.09,195.36h-4.82v-64.3s2.41-6.95,2.41-6.95l2.41,6.95v64.3ZM298.68,127.85l-1.19,3.42v62.87s1.18,0,1.18,0v-66.28Z"/>
        <path d="M288.24,172.42s.33-.29.9-.71c.29-.21.63-.47,1.03-.71.2-.13.41-.26.64-.41.22-.14.46.05.7,0h14.35c.25.06.48-.14.7.03.22.14.44.28.63.41.4.25.75.5,1.03.71.57.42.9.69.9.69,0,0-.32.28-.9.7-.29.2-.63.46-1.03.71-.2.13-.41.27-.63.41-.22.17-.46-.03-.7.03h-14.35c-.24-.05-.48.14-.7,0-.22-.15-.44-.28-.64-.41-.4-.24-.74-.5-1.03-.71-.57-.41-.9-.71-.9-.71Z"/>
        <path d="M302.26,174.5c1.24,0,2.25,1,2.25,2.25s-1.01,2.25-2.25,2.25h-2.99,9c1.25,0,2.25,1.01,2.25,2.25s-1.01,2.25-2.25,2.25h-9,9c1.25,0,2.25,1.01,2.25,2.25s-1.01,2.25-2.25,2.25h-9,2.99c1.24,0,2.25,1,2.25,2.25s-1.01,2.25-2.25,2.25h-8.12c-1.24,0-2.25-1-2.25-2.25v-13.5c0-1.24,1.01-2.25,2.25-2.25h8.12Z" style="fill: #fff; stroke: #000; stroke-linecap: round; stroke-miterlimit: 10;"/>
      </g>
    </g>
  </g>
  <g style="clip-path: url(#g);">
    <rect x="297" y="13.71" width="180" height="252" transform="translate(30.14 -65.08) rotate(10)" style="fill: #fff;"/>
    <path d="M380.23,135.96c-5.42-.96-9.29-1.88-11.6-2.76-2.64-1.13-5.08-2.89-7.32-5.27-6.62,3.67-13.37,4.89-20.27,3.68-7.45-1.31-13.64-5.15-18.58-11.52-5.19-6.6-7.13-13.58-5.83-20.93l1.8-10.2-7.58-1.34,2.33-13.24c.29-.04,2.85.22,7.68.79l7.22-40.95c1.31-7.45,5.53-13.38,12.67-17.81,6.82-4.29,13.96-5.78,21.4-4.47,7.45,1.31,13.7,5.21,18.76,11.7,5.06,6.49,6.94,13.45,5.63,20.89l-11.45,64.94c-.55,3.13-1.74,6.09-3.56,8.9,1.14,1.05,2.24,1.82,3.29,2.29l7.86,1.39-2.46,13.93ZM334.92,77.65c5.49,1.63,10.65,5.2,15.46,10.69,3.01,3.37,6.68,8.57,11.04,15.59l10.92-61.91c.58-3.31-.48-6.57-3.18-9.8-2.7-3.22-5.89-5.16-9.57-5.81s-7.36.08-11.05,2.18c-3.69,2.1-5.82,4.8-6.41,8.11l-7.22,40.95ZM352.34,115.94l-14.69-20.72c-1.21-1.75-2.93-3.01-5.16-3.79l-1.77,10.05c-.57,3.26.51,6.52,3.25,9.78,2.74,3.26,5.95,5.22,9.63,5.87,2.85.5,5.76.11,8.74-1.19Z" style="fill: #231f20;"/>
    <path d="M301.04,229.47l46.67-122.8c.15-.51.34-1.01.56-1.49l9.06-23.83c-.07-1.61.03-3.24.31-4.84,1.04-5.93,4.32-11.11,9.25-14.57s10.91-4.8,16.85-3.76c3,.53,5.84,1.65,8.36,3.29.31-.44.69-.82,1.12-1.13-.04,0-.09-.01-.13-.02-1.34-.24-2.57-.86-3.55-1.82-1.31-1.27-2.04-2.97-2.07-4.79-.03-1.82.66-3.54,1.92-4.85l12.48-12.88,7.38,16.35c.75,1.66.8,3.51.16,5.21-.64,1.7-1.92,3.05-3.58,3.8-1.25.56-2.63.74-3.98.5-.04,0-.07-.01-.11-.02.3.44.53.93.68,1.44,2.93-.69,6-.78,8.98-.26,12.26,2.16,20.47,13.87,18.34,26.1-.83,4.74-3.17,9.11-6.63,12.42.06.62.03,1.26-.08,1.88l-.61,3.45c-.15.85-.45,1.65-.89,2.38,5.61,1.72,9.2,7.41,8.16,13.33l-6.95,39.39c-.45,2.56-1.7,4.78-3.44,6.45.17,0,.35,0,.53.04.02,0,.03,0,.05.01.57-.54,1.38-.81,2.2-.66.28.05.53.14.77.27.47-.23,1.02-.33,1.58-.23.45.09.85.27,1.18.54.28-.05.58-.05.88,0,1.43.28,2.34,1.62,2.08,3.01-.04.2-.1.39-.18.57.04.02.07.04.11.06.71-1.06,1.35-1.84,1.9-2.42-2.55-4.61-1.5-10.47,2.69-13.91.24-.19.44-.35.65-.49.44-.31,1.03-.44,1.61-.34.43.09.84.2,1.23.31l.4-.33c.13-1.1.85-2.09,1.95-2.5.52-.2,1.07-.25,1.62-.15.95.17,1.77.79,2.2,1.64.29-.03.59-.03.88.03,1.06.19,1.95.93,2.33,1.93.08.2.13.41.16.62.12,0,.24.02.36.04,1.06.19,1.96.93,2.33,1.94.19.49.24,1.02.17,1.53.82.31,1.49.96,1.81,1.8.25.65.26,1.36.05,2.02.44.34.78.8.98,1.33.29.76.26,1.59-.07,2.34-.34.75-.95,1.32-1.71,1.6-.42.16-.88.22-1.33.19l-.4.33c.04.4.06.8.06,1.2,0,.6-.22,1.15-.63,1.57l-.07.07s-.18.16-.24.2c-.11.1-.21.19-.32.28-1.54,1.26-3.38,2.07-5.3,2.37.28.31.47.73.51,1.18,0,.08.01.17.02.25.1,0,.2.02.31.03.64.11,1.21.46,1.6.99.41.54.58,1.21.49,1.88-.06.43-.22.83-.48,1.17.2.95-.14,1.97-.96,2.58,0,.13,0,.27-.03.41-.1.68-.45,1.28-1,1.69-.2.15-.43.27-.66.36-.15.53-.47,1-.93,1.34-.33.25-.73.42-1.14.48-.16.25-.37.48-.62.67-.57.43-1.29.6-1.98.48-.64-.11-1.21-.46-1.6-.98-.12-.15-.21-.32-.29-.49-.07.02-.13.04-.2.06-.31.09-.64.11-.95.06l-.27-.05-.41-.2-.17-.11c-.09-.05-.17-.11-.25-.16-1.58-1.08-2.62-2.7-3.01-4.47-1,1.47-2.34,3.87-3.98,7.78l1.87.33c2.2.39,3.68,2.49,3.29,4.69-.03.15-.06.3-.1.44l1.95.34c1.07.19,2,.78,2.62,1.67.62.89.86,1.96.67,3.03-.14.8-.51,1.52-1.06,2.1.31.71.43,1.51.28,2.33-.39,2.21-2.5,3.68-4.7,3.29l-1.95-.34c0,.15-.03.29-.05.44-.39,2.2-2.49,3.68-4.69,3.29l-2.73-.48c-.12,1.76-.33,3.52-.64,5.26-2.11,11.98-8.56,22.7-18.15,30.18l-.63.49-100.74-17.76ZM404.09,170.68c5.87,5.03,10.52,11.41,13.5,18.6.65-.24,1.37-.31,2.09-.19l.5.09c.57-3.52.79-5.66.86-6.93-.03,0-.05,0-.07-.01-3.2-.56-5.64-3.11-6.08-6.33-.02-.18-.05-.36-.05-.55-.03-.56.18-1.1.57-1.5.05-.05.1-.11.16-.16-.46-.57-.68-1.33-.53-2.11.04-.2.1-.39.18-.57-1.9.7-4,.93-6.13.55l-5-.88ZM349.65,164.39c1.73-.9,3.51-1.69,5.33-2.37l-4.61-.81-.73,3.19ZM433.22,172.94c-.55.65-1.29,1.65-2.17,3.16.07-.02.24-.05.26-.05.88-1.04,1.98-1.79,3.19-2.23-.45-.26-.88-.56-1.28-.88Z" style="fill: #fff;"/>
    <g>
      <path d="M426.21,170.18c-.42-.08-.82.19-.9.61-.08.42.19.82.61.9l.16,1.19c-.5-.17-1.02-.3-1.55-.38l-.19-1.42c.21-.11.37-.31.41-.54.08-.41-.19-.82-.61-.9-.42-.08-.82.19-.9.61-.08.41.19.82.61.9l.17,1.29c-.62-.06-1.23-.06-1.85,0l-.19-1.4c.21-.11.37-.31.41-.54.08-.41-.19-.82-.61-.9-.42-.08-.82.19-.9.61-.08.41.19.82.61.9l.19,1.4c-.61.1-1.21.25-1.79.47l-.17-1.29c.22-.11.37-.31.41-.54.08-.42-.19-.82-.61-.9-.42-.08-.82.19-.9.61-.08.42.19.82.61.9l.19,1.42c-.49.22-.95.48-1.39.78l-.16-1.19c.22-.11.37-.31.41-.54.08-.42-.19-.82-.61-.9-.42-.08-.82.19-.9.6-.08.42.19.82.61.9l.2,1.47c-.32.25-.62.52-.9.81-.05.05-.07.11-.06.18,0,.13.02.26.04.39.4,2.99,3.08,5.13,6.09,4.86h.08c.09.98.1,4.93-2.67,18.49l.49.1c2.74-13.4,2.77-17.53,2.67-18.67,2.92-.57,4.9-3.32,4.5-6.28-.02-.13-.05-.25-.06-.38-.02-.07-.06-.12-.11-.15-.34-.21-.71-.39-1.08-.55l-.2-1.47c.21-.11.37-.3.41-.54.08-.42-.19-.82-.61-.9ZM423.73,170.43c-.02-.15.09-.29.24-.31.15-.02.29.09.31.24.02.15-.09.29-.24.31-.15.02-.29-.09-.31-.24ZM421.38,170.39c-.02-.15.09-.29.24-.31.15-.02.29.09.31.24.02.15-.09.29-.24.31-.15.02-.29-.09-.31-.24ZM419.13,171.04c-.02-.15.09-.29.24-.31.15-.02.29.09.31.24h0c.02.15-.09.29-.24.31-.15.02-.29-.09-.31-.24ZM417.28,172.11c-.02-.15.09-.29.24-.31.15-.02.29.09.31.24.02.15-.09.29-.24.31-.15.02-.29-.09-.31-.24ZM422.25,172.93c.6-.07,1.2-.07,1.8,0,.28,2.34-.08,4.51-.99,6.09l-.81-6.09ZM420.02,173.46c.56-.22,1.15-.37,1.74-.47l.81,6.09c-1.3-1.28-2.21-3.28-2.55-5.62ZM417.14,175.35c.19-.2.39-.38.6-.56.78,2.49,2.4,4.44,4.33,5.26-2.6-.1-4.71-2.11-4.94-4.7ZM418.15,174.47c.44-.32.91-.59,1.4-.82h0c.4,2.57,1.47,4.74,2.98,6.06-1.98-.7-3.63-2.68-4.39-5.24ZM424.55,172.99c.53.09,1.06.23,1.57.42h0c-.06,2.66-1.14,5.01-2.85,6.2,1.11-1.67,1.58-4.05,1.29-6.63ZM427.33,174h0c.46,2.55-1.05,5.05-3.52,5.83,1.65-1.3,2.7-3.6,2.8-6.21.25.11.49.24.73.38ZM426.34,170.9h0c.02.15-.08.29-.23.31-.15.02-.29-.09-.31-.24-.02-.15.09-.29.24-.31.15-.02.29.09.31.24Z"/>
      <path d="M420.63,197.06l.68.18c5.56-21.09,10.72-25.93,11.89-26.79h0c3.31,3.7,8.94,4.14,12.79,1,.17-.13.31-.28.48-.42.07-.08.11-.18.11-.28,0-.66-.06-1.33-.17-1.98l1.89-1.54c.33.21.75.25,1.12.11.65-.24.98-.97.73-1.62-.24-.65-.97-.98-1.62-.73-.65.25-.98.97-.73,1.63l-1.54,1.26c-.19-.86-.46-1.69-.8-2.5l1.82-1.49c.33.21.75.25,1.12.11.65-.25.98-.97.73-1.63-.24-.65-.97-.98-1.62-.74-.65.25-.98.98-.73,1.63l-1.66,1.36c-.45-.91-.99-1.77-1.61-2.58l1.8-1.48c.33.21.75.25,1.12.11.65-.25.98-.97.73-1.63-.24-.65-.97-.98-1.63-.73-.65.25-.98.97-.73,1.62l-1.81,1.48c-.66-.77-1.4-1.47-2.2-2.09l1.66-1.36c.33.21.75.25,1.12.11.65-.25.98-.97.73-1.62-.25-.65-.97-.98-1.62-.73-.65.25-.98.97-.73,1.62l-1.82,1.49c-.72-.49-1.49-.92-2.29-1.28l1.54-1.26c.33.21.75.25,1.12.11.65-.24.98-.97.73-1.62-.24-.65-.97-.98-1.62-.73-.65.25-.98.97-.73,1.62l-1.89,1.55c-.62-.23-1.26-.42-1.91-.56-.11-.02-.22,0-.31.06-.18.12-.34.25-.5.39-3.84,3.15-4.52,8.75-1.55,12.73l.06.07c-1.43,1.07-6.59,6.18-12.12,27.15ZM432.75,168.46c-2.11-3.72-1.11-8.43,2.32-10.98.44.1.88.22,1.31.36-2.81,3.24-4.15,7.19-3.63,10.62ZM439.74,154.87c.2-.16.49-.13.65.06.16.2.13.48-.06.64-.2.16-.48.13-.64-.06-.16-.2-.13-.48.06-.64ZM433.63,168.81c-.72-3.38.62-7.41,3.55-10.68.82.34,1.61.76,2.35,1.26h0c-3.24,2.78-5.37,6.17-5.9,9.42ZM442.83,156.54c.19-.16.48-.13.64.07.16.19.13.48-.06.64h0c-.2.16-.48.13-.64-.06-.16-.2-.13-.49.07-.64ZM442.38,161.91l-7.83,6.4c.68-2.93,2.69-5.94,5.67-8.44.79.6,1.52,1.28,2.16,2.04ZM445.69,159.13c.2-.16.48-.13.65.06.16.2.13.49-.06.65-.2.16-.49.13-.64-.07-.16-.2-.13-.48.06-.64ZM447.66,162.45c.2-.16.48-.13.64.07.16.19.13.48-.06.65-.19.16-.48.13-.64-.07-.16-.2-.13-.48.06-.65ZM448.68,165.82c.19-.16.49-.13.64.06.16.2.13.49-.06.65h0c-.19.15-.48.13-.64-.06-.16-.2-.13-.48.06-.64ZM434.56,170.68c3.25,1.19,7.38.67,11.12-1.44.06.45.09.89.1,1.34h0c-3.18,2.85-7.98,2.89-11.22.1ZM434.39,169.74c3.3.12,7.04-1.29,10.4-3.92.34.83.59,1.69.76,2.56h0c-3.78,2.22-8,2.72-11.16,1.36ZM435.06,168.93l7.83-6.4c.61.78,1.13,1.63,1.56,2.52-3.04,2.42-6.39,3.79-9.39,3.87Z"/>
      <path d="M420.98,196.43l.47.16c5.33-15.23,8.7-17.99,10.24-18.28.11-.02.21-.03.3-.02-1.22,2.47-.47,5.5,1.85,7.08.11.07.22.13.32.21.06.03.12.04.18.02.38-.12.76-.26,1.12-.43l1.21.83c-.07.23-.02.47.12.66.25.34.73.4,1.06.15.34-.25.4-.73.15-1.06-.25-.33-.73-.4-1.06-.15l-.99-.68c.46-.25.9-.55,1.31-.88l1.17.8c-.07.23-.02.47.12.66.25.34.73.4,1.06.15.34-.25.4-.73.15-1.06-.25-.34-.73-.4-1.06-.15l-1.06-.73c.45-.41.86-.87,1.22-1.37l1.16.79c-.06.23-.02.47.12.66.25.33.73.4,1.06.15.34-.25.4-.73.15-1.06-.25-.33-.73-.4-1.06-.15l-1.16-.79c.33-.51.61-1.06.84-1.63l1.06.73c-.06.23-.02.47.12.66.25.34.73.4,1.06.15.33-.25.4-.73.15-1.06-.25-.33-.73-.4-1.06-.15l-1.17-.8c.16-.5.28-1.02.35-1.54l.99.68c-.06.23-.02.47.12.66.25.34.73.4,1.06.15.34-.25.4-.73.15-1.06-.25-.34-.73-.4-1.06-.15l-1.21-.83c.03-.4.03-.8,0-1.2,0-.07-.04-.13-.09-.17-.1-.08-.2-.15-.31-.23-2.47-1.69-5.82-1.13-7.62,1.25l-.27.4c-.19-.03-.4-.04-.66.01-2.01.38-5.48,3.91-10.61,18.6ZM442.35,178.97c.13.09.16.26.07.39-.09.12-.26.15-.38.07-.13-.09-.16-.26-.07-.38.09-.13.26-.16.38-.07ZM441.91,181.03c.13.09.16.26.07.38-.09.13-.26.16-.38.07h0c-.12-.09-.15-.26-.07-.38.09-.13.26-.16.38-.07ZM440.9,183.12c.13.09.16.26.07.38-.09.13-.26.16-.38.07-.13-.09-.16-.26-.07-.38.09-.13.26-.16.38-.07ZM439.31,184.83c.13.09.16.26.07.38-.08.13-.26.16-.38.07-.13-.09-.16-.26-.07-.38.09-.12.26-.16.38-.07ZM437.54,185.98c.13.08.16.26.07.38-.09.13-.26.16-.38.07h0c-.12-.09-.16-.26-.08-.38.09-.13.26-.16.38-.07ZM440.07,177.53c-2.35-1.07-4.86-1.19-6.75-.3,1.8-1.85,4.68-2.07,6.74-.51.02.27.02.54.01.82ZM439.71,179.62h0c-2.15-1.41-4.47-2.06-6.43-1.82,1.83-.99,4.39-.89,6.77.25-.06.54-.17,1.06-.33,1.57ZM438.73,181.68l-5.02-3.45c1.8-.1,3.89.55,5.83,1.85-.21.56-.48,1.09-.81,1.59ZM437.26,183.41c-1.91-1.35-3.27-3.05-3.82-4.77l5.02,3.44c-.35.48-.75.93-1.2,1.33ZM435.53,184.6c-1.92-1.81-2.93-4.16-2.67-6.22.49,1.93,1.94,3.85,4.02,5.35-.42.34-.87.63-1.35.87h0ZM432.35,178.64c-.14,2.08.86,4.38,2.71,6.18-.25.11-.5.2-.76.28h0c-2.19-1.35-3.02-4.12-1.95-6.47Z"/>
      <g>
        <g>
          <path d="M418.79,216.25c4.54-25.74-12.65-50.28-38.38-54.81-25.74-4.54-50.27,12.65-54.81,38.38-2.12,12,.49,23.73,6.48,33.3l69.22,12.21c8.9-6.95,15.37-17.08,17.48-29.08Z" style="fill: #fff;"/>
          <g style="clip-path: url(#h);">
            <g>
              <path d="M305.97,193.28c-2.26-2.15-4.61-4.29-7.04-6.34-1.12,2.98-2.15,5.99-3.04,8.98-.48,1.64.45,3.35,2.01,3.9,1.43.49,2.95-.18,3.59-1.56l.41,2.98,1.45-.37-1.1-2.8c1.23.89,2.89.75,3.91-.4,1.1-1.25,1.06-3.19-.17-4.38Z"/>
              <path d="M320.68,190.7c-2.06-2.34-4.2-4.7-6.41-6.96-1.38,2.85-2.68,5.74-3.89,8.63-.66,1.56.08,3.39,1.59,4.09,1.4.63,2.99.11,3.76-1.2l.12,3.01,1.49-.24-.84-2.89c1.15.99,2.83,1.02,3.95-.04,1.21-1.14,1.34-3.11.22-4.38Z"/>
              <path d="M335.55,189.39c-1.86-2.5-3.79-5.04-5.8-7.48-1.61,2.77-3.15,5.47-4.61,8.27-.79,1.51-.21,3.39,1.23,4.2,1.34.77,2.98.39,3.86-.87l-.14,3.01,1.51-.13-.59-2.95c1.06,1.09,2.74,1.27,3.95.3,1.3-1.04,1.6-2.99.59-4.35Z"/>
              <path d="M350.49,189.33c-.82-1.34-1.66-2.67-2.52-4.01-.86-1.32-1.74-2.62-2.64-3.93-1.84,2.6-3.6,5.18-5.28,7.86-.91,1.44-.49,3.36.88,4.29,1.27.84,2.93.63,3.92-.55l-.39,2.99h1.52s-.34-2.99-.34-2.99c.48.59,1.14.95,1.83,1.05.7.12,1.43,0,2.07-.43,1.39-.91,1.84-2.83.95-4.28Z"/>
              <path d="M365.38,190.49c-1.42-2.77-2.91-5.56-4.48-8.34-2.05,2.43-4.02,4.93-5.92,7.4-1.03,1.35-.77,3.3.52,4.36,1.2.98,2.87.84,3.95-.25l-.64,2.95c.5.03,1,.1,1.51.15l-.09-3.02c.86,1.28,2.49,1.7,3.84.95,1.46-.81,2.07-2.69,1.3-4.19Z"/>
              <path d="M380.11,192.92c-1.16-2.94-2.43-5.77-3.76-8.68-1.12,1.12-2.22,2.24-3.31,3.38-1.09,1.16-2.16,2.32-3.21,3.49-1.14,1.27-1.05,3.23.15,4.38.56.53,1.26.79,1.96.8.7.03,1.41-.2,1.99-.69l-.88,2.88,1.49.27.16-3.01c.75,1.34,2.34,1.88,3.75,1.23,1.51-.65,2.28-2.45,1.65-4.05Z"/>
              <path d="M394.58,196.6c-.9-3.05-1.92-5.98-3-8.97-2.43,2.06-4.77,4.08-7.08,6.27-1.25,1.17-1.32,3.13-.22,4.37,1.02,1.14,2.68,1.36,3.92.46l-1.13,2.8,1.46.39.42-2.98c.63,1.4,2.18,2.02,3.63,1.56,1.57-.52,2.49-2.25,1.99-3.89Z"/>
              <path d="M408.69,201.49c-.64-3.12-1.41-6.12-2.23-9.19-2.6,1.86-5.1,3.66-7.58,5.64-1.34,1.06-1.58,3.01-.59,4.33.91,1.25,2.55,1.59,3.87.81l-1.36,2.69,1.42.51.67-2.94c.51,1.45,2,2.19,3.49,1.86,1.6-.38,2.67-2.03,2.31-3.71Z"/>
              <path d="M422.34,207.55c-.39-3.13-.9-6.18-1.45-9.33-2.74,1.62-5.39,3.21-8.03,4.98-1.43.95-1.83,2.87-.95,4.27.82,1.29,2.41,1.8,3.79,1.13l-1.58,2.56,1.38.64.92-2.87c.39,1.48,1.79,2.4,3.33,2.13,1.63-.24,2.82-1.79,2.61-3.5Z"/>
              <path d="M435.45,214.72c-.16-3.1-.39-6.25-.68-9.43-1.43.69-2.83,1.36-4.23,2.09-1.41.74-2.81,1.48-4.19,2.23-1.5.82-2.06,2.7-1.31,4.18.35.68.92,1.16,1.59,1.4.65.26,1.4.28,2.11.01l-1.79,2.42,1.31.76,1.15-2.79c.27,1.51,1.58,2.56,3.13,2.42,1.67-.15,2.99-1.61,2.9-3.3Z"/>
              <path d="M447.92,222.93c.09-3.13.13-6.3.1-9.5-2.98,1.19-5.9,2.41-8.76,3.68-1.55.69-2.27,2.52-1.64,4.07.58,1.43,2.12,2.12,3.6,1.67l-1.98,2.28c.43.27.85.54,1.26.84l1.37-2.7c.14,1.54,1.36,2.71,2.91,2.71,1.67,0,3.09-1.35,3.14-3.06Z"/>
            </g>
            <path d="M317.48,207.38l-6.66,37.76,106.36,18.75,6.62-37.56c-46.1-31.78-91.7-23.02-106.32-18.95Z" style="fill: url(#e); stroke: #000; stroke-miterlimit: 10; stroke-width: 11px;"/>
          </g>
          <path d="M418.79,216.25c4.54-25.74-12.65-50.28-38.38-54.81-25.74-4.54-50.27,12.65-54.81,38.38-2.12,12,.49,23.73,6.48,33.3l69.22,12.21c8.9-6.95,15.37-17.08,17.48-29.08Z" style="fill: none; stroke: #000; stroke-miterlimit: 10;"/>
        </g>
        <path d="M427.37,192.27c1.23.22,2.04,1.38,1.83,2.6s-1.38,2.04-2.61,1.83l-2.94-.52,8.86,1.56c1.23.22,2.05,1.39,1.83,2.61-.21,1.22-1.38,2.04-2.61,1.82l-8.86-1.56,8.86,1.56c1.23.22,2.04,1.39,1.83,2.61-.22,1.22-1.38,2.05-2.61,1.83l-8.86-1.56,2.94.52c1.23.22,2.04,1.38,1.83,2.6s-1.38,2.05-2.61,1.83l-8-1.41h0c-1.22-.22-2.04-1.39-1.83-2.61l2.35-13.3c.21-1.22,1.39-2.03,2.61-1.82h0l8,1.4Z" style="fill: #fff; stroke: #000; stroke-linecap: round; stroke-miterlimit: 10;"/>
      </g>
      <polygon points="358.76 82.66 303.5 228.08 332.08 233.12 363.24 96.94 358.76 82.66" style="stroke: #000; stroke-miterlimit: 10;"/>
      <g>
        <path d="M407.62,53.09l-6.29-13.93-10.64,10.98c-1.93,1.99-1.88,5.16.11,7.09,1.85,1.79,4.71,1.87,6.66.28l-1.46,4.65,2.56.45.2-4.87c1.29,2.15,4.01,3.04,6.35,1.99,2.53-1.14,3.65-4.11,2.51-6.63Z"/>
        <path d="M411.11,64.8c-5.34-.93-10.56.29-14.79,3.01-3.06-3.99-7.54-6.91-12.89-7.84-11.29-1.97-22.04,5.58-24.02,16.87-1.97,11.29,5.58,22.04,16.87,24.02,5.34.93,10.56-.29,14.79-3.01,3.05,3.99,7.54,6.91,12.89,7.84,11.29,1.97,22.04-5.58,24.02-16.87,1.97-11.3-5.58-22.05-16.87-24.02Z" style="fill: #fff; stroke: #000; stroke-miterlimit: 10;"/>
        <g>
          <path d="M404.66,101.71c-4.13-.72-7.81-2.97-10.38-6.32l-2.26-2.95-3.13,2.01c-3.56,2.29-7.78,3.15-11.91,2.42-9.08-1.59-15.18-10.27-13.59-19.35,1.59-9.08,10.27-15.18,19.35-13.59,4.12.72,7.81,2.97,10.38,6.32l2.26,2.95,3.13-2.01c3.55-2.28,7.78-3.15,11.91-2.43,9.08,1.59,15.18,10.27,13.59,19.35-1.59,9.08-10.27,15.18-19.35,13.59Z" style="fill: #fff;"/>
          <g>
            <line x1="392.02" y1="92.44" x2="392.02" y2="92.44" style="fill: none; stroke: #000; stroke-linecap: round; stroke-miterlimit: 10; stroke-width: 2px;"/>
            <path d="M389.73,93.91l-.84.54c-3.55,2.28-7.78,3.15-11.91,2.43-9.08-1.59-15.18-10.27-13.59-19.35,1.59-9.08,10.27-15.18,19.35-13.59,4.13.72,7.81,2.97,10.38,6.32l1.43,1.86" style="fill: none; stroke: #000; stroke-dasharray: .01 3.04; stroke-linecap: round; stroke-miterlimit: 10; stroke-width: 2px;"/>
            <line x1="395.38" y1="73.21" x2="395.38" y2="73.21" style="fill: none; stroke: #000; stroke-linecap: round; stroke-miterlimit: 10; stroke-width: 2px;"/>
            <path d="M397.67,71.74l.84-.54c3.55-2.28,7.78-3.15,11.91-2.43,9.08,1.59,15.18,10.27,13.59,19.35-1.59,9.08-10.27,15.18-19.35,13.59-4.13-.72-7.81-2.97-10.38-6.32l-1.43-1.86" style="fill: none; stroke: #000; stroke-dasharray: .01 3.04; stroke-linecap: round; stroke-miterlimit: 10; stroke-width: 2px;"/>
          </g>
        </g>
        <path d="M389.63,101.53c-1.71-.3-2.86-1.93-2.56-3.64l5.96-34.08c.3-1.71,1.93-2.85,3.64-2.56l1.55.27c1.71.3,2.86,1.93,2.56,3.64l-5.96,34.08c-.3,1.71-1.93,2.86-3.64,2.56l-1.55-.27Z" style="fill: #fff; stroke: #000; stroke-miterlimit: 10;"/>
        <path d="M420.66,106.57c-.5,2.86-3.23,4.77-6.1,4.27l-50.1-8.83c-2.86-.5-4.77-3.23-4.27-6.1l.61-3.45c.5-2.86,3.23-4.77,6.1-4.27l50.1,8.83c2.86.5,4.77,3.23,4.27,6.1l-.61,3.45h0Z" style="fill: #fff; stroke: #000; stroke-miterlimit: 10;"/>
      </g>
      <g>
        <g>
          <path id="i" data-name="SVGID" d="M420.99,161.68c-.96,5.44-6.15,9.07-11.58,8.11l-59.09-10.42c-5.44-.96-9.07-6.15-8.11-11.58l6.95-39.39c.96-5.44,6.15-9.07,11.58-8.11l59.09,10.42c5.44.96,9.07,6.14,8.11,11.58l-6.95,39.39Z" style="fill: #fff;"/>
          <g style="clip-path: url(#j);">
            <path d="M360.73,100.28c-5.44-.96-10.63,2.67-11.58,8.11l-6.95,39.39c-.09.49-.1.97-.11,1.46,14.09-7.99,29.6-34.78,35.63-45.97l-16.99-3Z"/>
          </g>
          <path id="k" data-name="SVGID" d="M420.99,161.68c-.96,5.44-6.15,9.07-11.58,8.11l-59.09-10.42c-5.44-.96-9.07-6.15-8.11-11.58l6.95-39.39c.96-5.44,6.15-9.07,11.58-8.11l59.09,10.42c5.44.96,9.07,6.14,8.11,11.58l-6.95,39.39Z" style="fill: none; stroke: #000; stroke-miterlimit: 10;"/>
        </g>
        <g>
          <g>
            <path d="M377.43,128.57c1.8.32,2.74,3.49,2.11,7.09s-2.61,6.26-4.41,5.94-2.74-3.49-2.11-7.09,2.61-6.26,4.41-5.94Z"/>
            <path d="M403.48,133.16c1.8.32,2.74,3.49,2.11,7.09s-2.61,6.26-4.41,5.94-2.74-3.49-2.11-7.09,2.61-6.26,4.41-5.94Z"/>
          </g>
          <g>
            <ellipse cx="366.58" cy="147.26" rx="2.17" ry="4.33" transform="translate(157.9 482.69) rotate(-80)" style="fill: #b92026;"/>
            <path d="M407.66,152.3c2.36.42,4.1,1.71,3.89,2.89s-2.29,1.8-4.65,1.38-4.1-1.71-3.89-2.89,2.29-1.8,4.64-1.38Z" style="fill: #b92026;"/>
          </g>
        </g>
      </g>
    </g>
  </g>
  <g style="clip-path: url(#l);">
    <rect x="425.09" y="57.58" width="180" height="252" transform="translate(93.85 -165.1) rotate(20)" style="fill: #fff;"/>
    <path d="M466.67,117.98c-1.95,5.35-2.76,7.59-2.44,6.71-1.92,5.26-2.35,9.87-1.31,13.83,1.26,4.73,4.52,8.05,9.78,9.97,4.47,1.63,8.66,1.31,12.56-.94,3.54-2.09,6.13-5.37,7.75-9.84l23.7-65.12-11.97-4.36,5.7-15.65,38.55,14.03-5.7,15.65-11.45-4.17-23.7,65.12c-3.22,8.86-8.6,15.3-16.12,19.31-7.88,4.19-16.21,4.68-24.98,1.49s-15.02-8.94-18.49-17.16c-3.47-8.21-3.54-16.73-.23-25.56l3.21-8.81,15.13,5.51Z" style="fill: #231f20;"/>
    <path d="M420.4,256.02l53.96-63.52c-2.1-3.11-2.62-7.06-1.31-10.65l13.68-37.59c1.93-5.29,7.26-8.37,12.63-7.66-.04-.91.1-1.82.43-2.71l1.2-3.29c1.33-3.66,5.39-5.55,9.05-4.22l.51.19,2.93-23.28,2.12.78c1.94.72,3.84,1.54,5.67,2.47.39-1,1.27-3.15,15.45,1.45-.27-.26-.52-.55-.75-.86-1.01-1.4-1.41-3.1-1.14-4.8.28-1.7,1.2-3.19,2.59-4.2l13.64-9.84,4.12,16.31c.42,1.67.17,3.41-.71,4.88-.88,1.48-2.29,2.53-3.96,2.95-.37.09-.75.15-1.12.18,13.89,5.61,13.11,7.76,12.71,8.86l-.03.07c2.33.49,4.64,1.15,6.92,1.97l2.13.77-12.73,19.74c3.28,1.53,4.92,5.35,3.65,8.82l-1.2,3.29c-.3.82-.73,1.56-1.28,2.2,5.22,2.67,7.76,8.89,5.71,14.54l-13.68,37.59c-.39,1.08-.92,2.06-1.57,2.94.12.03.25.07.38.11l.77.28.55-1.51c.78-2,2.94-3.01,4.93-2.33,1.02.37,1.79,1.09,2.22,2.02.37.79.46,1.68.26,2.53.55-.29,1.08-.64,1.56-1.05.97-.8,2.23-1.07,3.4-.77.11.03.25.07.39.12,1.01.37,1.82,1.14,2.24,2.13,1.46,3.37,1.48,8.11.05,12.04-1.28,3.68-3.9,6.75-7.37,8.6-.99.5-2.1.56-3.1.2-.14-.05-.28-.11-.42-.18-1.07-.54-1.84-1.57-2.06-2.75-.13-.66-.37-1.3-.71-1.88l-2.13,6.15,1.17.43c2.1.76,3.19,3.09,2.42,5.19-.05.14-.11.28-.18.42l1.86.68c1.02.37,1.83,1.12,2.29,2.1.46.98.5,2.08.13,3.09-.28.76-.77,1.41-1.41,1.88.18.75.16,1.56-.12,2.34-.77,2.1-3.1,3.19-5.2,2.43l-1.86-.68c-.03.14-.08.29-.13.43-.76,2.1-3.09,3.19-5.19,2.42l-.85-.31-3.78,10.92.05.59-.76.6c-.59.46-1.22.48-2.15.25-4.59,8.77-11.63,15.85-20.44,20.52l-.71.38-57.45-20.91-.05.1-38.25-13.92ZM456.91,265.36l31.61-63.57c-17.03,1.99-31.54,13.36-37.47,29.65-3.77,10.35-3.66,21.64.29,31.89l5.57,2.03ZM531.72,215.76c4.58,5.57,7.9,12.1,9.7,19.12.65-.31,1.38-.45,2.13-.38l2.91-7.62c-1-.54-1.44-1.78-1.1-3.21.03-.15.06-.29.08-.42-.05.08-.1.16-.16.26-.39.71-1.04,1.18-1.78,1.26l-.41.04-.47-.15c-1.04-.38-1.56-1.5-1.27-2.73.13-.57.31-1.16.52-1.74.3-.79.65-1.53,1.03-2.21-2.07.43-4.28.31-6.41-.47l-4.77-1.74ZM551.99,223.66l1.37-3.77-.51-.18-1.36,3.77.5.19ZM521.34,106.56c.41.21.81.42,1.21.63l.06-.14-1.27-.5Z" style="fill: #fff;"/>
    <g>
      <g>
        <g>
          <path d="M538.28,263.19c8.94-24.56-3.73-51.71-28.28-60.64-24.56-8.94-51.71,3.73-60.64,28.28-4.17,11.45-3.64,23.46.6,33.92l66.05,24.04c9.97-5.29,18.1-14.15,22.27-25.6Z" style="fill: #fff;"/>
          <g style="clip-path: url(#m);">
            <g>
              <path d="M431.16,220.98c-1.85-2.51-3.79-5.02-5.83-7.47-1.62,2.74-3.15,5.52-4.56,8.32-.76,1.53-.14,3.38,1.3,4.19,1.33.74,2.93.34,3.8-.91l-.12,3.01,1.49-.11-.6-2.95c1.06,1.09,2.72,1.24,3.92.28,1.3-1.04,1.6-2.96.59-4.35Z"/>
              <path d="M446.09,220.99c-1.62-2.66-3.32-5.36-5.1-7.97-1.86,2.57-3.63,5.19-5.33,7.82-.92,1.43-.51,3.35.86,4.3,1.27.87,2.92.62,3.91-.53l-.41,2.99,1.51.02-.32-3c.96,1.17,2.61,1.49,3.9.65,1.39-.91,1.86-2.83.98-4.28Z"/>
              <path d="M460.97,222.28c-1.4-2.78-2.86-5.62-4.41-8.38-2.07,2.44-4.05,4.84-5.97,7.34-1.04,1.35-.8,3.3.49,4.35,1.19.99,2.86.9,3.95-.19l-.66,2.94,1.51.14-.07-3.01c.86,1.26,2.47,1.73,3.84.98,1.47-.8,2.09-2.66,1.33-4.18Z"/>
              <path d="M475.69,224.82c-.58-1.46-1.17-2.92-1.79-4.38-.62-1.45-1.26-2.88-1.91-4.33-2.26,2.24-4.44,4.48-6.56,6.82-1.15,1.26-1.07,3.22.12,4.38,1.11,1.05,2.78,1.13,3.95.14l-.9,2.88,1.49.27.18-3.01c.37.67.96,1.13,1.62,1.35.66.24,1.41.24,2.12-.07,1.52-.66,2.3-2.46,1.67-4.05Z"/>
              <path d="M490.15,228.54c-.91-2.98-1.9-5.98-2.96-9-2.44,2.04-4.82,4.16-7.11,6.26-1.25,1.15-1.33,3.12-.24,4.38,1.01,1.17,2.68,1.33,3.94.44l-1.14,2.8c.49.12.97.27,1.46.41l.43-2.99c.63,1.41,2.15,2.11,3.62,1.6,1.58-.55,2.51-2.29,2.01-3.9Z"/>
              <path d="M504.24,233.5c-.64-3.09-1.39-6.1-2.19-9.2-1.3.91-2.58,1.82-3.85,2.75-1.27.95-2.53,1.91-3.77,2.88-1.34,1.05-1.59,3-.61,4.34.45.62,1.1.99,1.79,1.13.69.15,1.43.04,2.08-.34l-1.37,2.68,1.42.53.68-2.94c.51,1.45,1.98,2.25,3.48,1.87,1.6-.37,2.67-2.02,2.33-3.7Z"/>
              <path d="M517.85,239.64c-.36-3.16-.85-6.22-1.4-9.36-2.75,1.61-5.41,3.19-8.06,4.95-1.43.94-1.84,2.86-.97,4.26.81,1.3,2.4,1.8,3.78,1.14l-1.59,2.56,1.37.64.93-2.87c.38,1.49,1.8,2.37,3.31,2.17,1.63-.24,2.84-1.79,2.63-3.49Z"/>
              <path d="M530.9,246.9c-.09-3.18-.32-6.27-.6-9.44-2.89,1.38-5.66,2.71-8.45,4.24-1.51.82-2.08,2.69-1.33,4.16.68,1.39,2.23,2.01,3.67,1.47l-1.81,2.41,1.31.75,1.17-2.78c.25,1.52,1.59,2.51,3.11,2.44,1.65-.1,2.98-1.54,2.92-3.25Z"/>
              <path d="M543.29,255.24c.16-3.15.19-6.25.19-9.44-2.98,1.12-5.86,2.22-8.78,3.51-1.57.68-2.3,2.5-1.68,4.03.58,1.41,2.06,2.19,3.54,1.77l-2,2.25,1.24.87,1.4-2.67c.13,1.52,1.35,2.68,2.91,2.67,1.65.05,3.09-1.28,3.18-2.99Z"/>
              <path d="M554.95,264.58c.38-3.09.7-6.22.97-9.4-1.53.43-3.02.85-4.53,1.32-1.52.48-3.02.97-4.51,1.47-1.62.55-2.5,2.3-2.01,3.89.23.73.71,1.3,1.32,1.65.6.37,1.33.52,2.07.38l-2.18,2.08,1.16.98,1.62-2.55c0,1.54,1.11,2.8,2.66,2.93,1.67.14,3.23-1.07,3.43-2.75Z"/>
              <path d="M565.81,274.83c.63-3.06,1.22-6.18,1.75-9.34-3.14.65-6.23,1.35-9.27,2.1-1.65.41-2.67,2.09-2.32,3.72.32,1.51,1.72,2.45,3.26,2.27l-2.35,1.91c.38.34.75.68,1.1,1.05l1.81-2.42c-.13,1.54.87,2.91,2.39,3.17,1.64.29,3.28-.8,3.63-2.46Z"/>
            </g>
            <path d="M440.04,236.86l-13.11,36.03,101.49,36.94,13.05-35.84c-39.88-39.3-86.3-38.6-101.42-37.13Z" style="fill: url(#e); stroke: #000; stroke-miterlimit: 10; stroke-width: 11px;"/>
          </g>
          <path d="M538.28,263.19c8.94-24.56-3.73-51.71-28.28-60.64-24.56-8.94-51.71,3.73-60.64,28.28-4.17,11.45-3.64,23.46.6,33.92l66.05,24.04c9.97-5.29,18.1-14.15,22.27-25.6Z" style="fill: none; stroke: #000; stroke-miterlimit: 10;"/>
        </g>
        <g>
          <path d="M565.09,215.6c-.26-.6-.79-1.05-1.42-1.21-.62-.16-1.28-.01-1.78.39-1.57,1.35-3.52,2.17-5.59,2.34l1.03-2.84c.19-.52.16-1.09-.07-1.58-.23-.5-.65-.88-1.17-1.07-1.08-.36-2.25.18-2.66,1.24l-1.17,3.21-2.43-.89c-.18-.06-.36-.1-.55-.12-1.92-.29-4.36,2.16-5.72,5.73-.19.51-.34,1.02-.46,1.54-.09.36,0,.65.21.63.13-.01.28-.15.4-.36.78-1.38,1.84-2.1,2.6-1.78.24.09.44.26.6.51.39.58.46,1.6.2,2.74-.15.61-.04,1.13.27,1.23l1.34.5.07.03-15.47,40.5s.55.49,2.62,1.2c2.44.83,2.42.64,2.42.64l14.07-40.66.09.04c1.62,1.2,2.73,2.95,3.11,4.93.11.63.52,1.17,1.09,1.46.58.29,1.28.3,1.86,0,3.06-1.63,5.39-4.35,6.53-7.62,1.26-3.47,1.26-7.78-.02-10.72ZM534.42,266.24l14.77-40.05.89.32-14.43,40.18-1.23-.45ZM552.43,225.74l-.63-.23-1.95-.72c-.11-.04-.21-.1-.29-.19-.17-.19-.22-.46-.13-.7l2.12-5.85c.03-.07.07-.14.13-.2l.04-.02c.06-.06.12-.11.2-.14.06-.04.12-.06.18-.09.12-.02.23,0,.34.03l1.95.71.65.23c.11.04.2.11.27.19.17.19.23.46.14.69l-2.13,5.87c-.13.35-.52.53-.87.41ZM558.83,230.45l-.14.06c-.33.2-.76.1-.96-.23-.2-.33-.1-.76.23-.96,1.45-1.19,2.54-2.76,3.16-4.52.69-1.96.87-4.06.53-6.11-.07-.38.18-.74.55-.81.38-.07.74.18.81.55l.06.05c.38,2.3.17,4.66-.62,6.86-.72,2.01-1.97,3.77-3.62,5.11Z"/>
          <path d="M551.58,239.19c1.17.43,1.77,1.71,1.35,2.88s-1.72,1.77-2.89,1.35l-2.81-1.02,8.45,3.08c1.17.43,1.77,1.72,1.35,2.89-.42,1.17-1.72,1.77-2.89,1.34l-8.45-3.08,8.45,3.08c1.17.43,1.77,1.72,1.35,2.89-.42,1.17-1.72,1.77-2.89,1.35l-8.45-3.08,2.81,1.02c1.17.43,1.77,1.71,1.35,2.88s-1.72,1.77-2.89,1.35l-7.63-2.77h0c-1.17-.42-1.77-1.72-1.35-2.89l4.62-12.69c.42-1.16,1.72-1.76,2.89-1.34h0l7.63,2.77Z" style="fill: #fff; stroke: #000; stroke-linecap: round; stroke-miterlimit: 10;"/>
        </g>
      </g>
      <polygon points="482.41 185.81 423.45 255.21 457.76 267.7 492.92 196.99 482.41 185.81" style="stroke: #000; stroke-miterlimit: 10;"/>
      <g>
        <path d="M549.92,209.83c-1.89,5.19-7.63,7.87-12.82,5.98l-56.38-20.52c-5.19-1.89-7.87-7.63-5.98-12.82l13.68-37.59c1.89-5.19,7.63-7.87,12.82-5.98l56.38,20.52c5.19,1.89,7.87,7.63,5.98,12.82l-13.68,37.59Z" style="fill: #fff; stroke: #000; stroke-miterlimit: 10;"/>
        <g>
          <g>
            <path d="M513.62,177.01c-1.25,3.43-3.65,5.71-5.37,5.08s-2.1-3.91-.85-7.35,3.65-5.71,5.37-5.08,2.09,3.91.85,7.34Z"/>
            <path d="M537.63,178.71c1.72.62,2.09,3.91.85,7.34s-3.65,5.71-5.37,5.08-2.1-3.91-.85-7.35,3.65-5.71,5.37-5.08Z"/>
          </g>
          <g>
            <path d="M499.58,184.14c2.25.82,3.74,2.39,3.33,3.52s-2.56,1.37-4.81.55-3.74-2.39-3.33-3.52,2.56-1.37,4.81-.55Z" style="fill: #b92026;"/>
            <path d="M538.42,198.28c2.25.82,3.74,2.4,3.33,3.52s-2.57,1.37-4.82.55-3.74-2.39-3.33-3.52,2.57-1.37,4.81-.56Z" style="fill: #b92026;"/>
          </g>
        </g>
      </g>
      <g>
        <g>
          <path d="M537.28,121.96c-5.72-7.32-13.37-12.92-22.29-16.21l-3.25,25.8,4.62,1.68.98-.82c5.9-4.96,12.73-8.46,19.95-10.45Z"/>
          <path d="M518.77,134.11l35.54,12.94,14.09-21.86c-17.52-6.31-36.3-2.29-49.64,8.92Z"/>
          <path d="M560.43,120.84c.43-1.19-7.61-5.2-17.96-8.97s-19.06-5.85-19.52-4.68l-.22-.08c6.7,3.64,12.58,8.39,17.37,14,6.47-1.21,13.25-1.34,20-.4l.32.12Z"/>
        </g>
        <path d="M559.17,155.5c-.99,2.73-4.01,4.14-6.74,3.15l-47.8-17.4c-2.73-.99-4.14-4.01-3.14-6.75l1.2-3.29c.99-2.73,4.01-4.14,6.74-3.15l47.8,17.4c2.73.99,4.14,4.01,3.15,6.75l-1.2,3.29h0Z" style="fill: #fff; stroke: #000; stroke-miterlimit: 10;"/>
        <path d="M553.46,105.03l-3.48-13.74-11.49,8.29c-2.08,1.5-2.56,4.41-1.05,6.49,1.39,1.93,4,2.48,6.03,1.34l-2.09,4.01,2.26.82.98-4.42c.83,2.17,3.17,3.43,5.48,2.85,2.49-.63,4-3.16,3.37-5.65Z"/>
      </g>
      <path d="M528.86,206.85c-1.21-1.42-2.94-3.02-4.61-4.53-.41-.37-.82-.75-1.23-1.11-.37-.38-.81-.71-1.14-1.07-.36-.35-.73-.68-1.01-1.01-.34-.32-.61-.64-.85-.95-.27-.32-.45-.62-.62-.91-.18-.3-.34-.58-.4-.83-.19-.55-.3-.86-.3-.86,0,0-.29.17-.79.47-.2.16-.51.27-.84.38-.32.12-.64.24-1.06.3-.38.09-.79.15-1.26.18-.43.08-.92.09-1.43.13-.48.07-1.03.03-1.56.09-.55.02-1.1.04-1.66.07-2.25.09-4.6.2-6.44.5-1.83.25-3.16.67-3.16.67,0,0,1.05.94,2.84,1.69.89.41,1.96.74,3.14.98,1.18.24,2.47.34,3.77.32.66-.06,1.31-.08,1.96-.22.66-.13,1.28-.25,1.91-.5.61-.21,1.2-.46,1.73-.8.26-.17.52-.3.75-.48.22-.21.43-.4.64-.59.18-.14.33-.32.46-.49-.01.22,0,.45.04.67.04.28.07.57.11.86.06.29.17.56.27.85.19.61.48,1.17.81,1.72.32.59.72,1.08,1.14,1.61.41.53.91.96,1.37,1.43.98.86,2.04,1.61,3.1,2.18,1.05.57,2.09,1.01,3.03,1.27,1.85.58,3.26.53,3.26.53,0,0-.75-1.18-1.99-2.54Z"/>
    </g>
  </g>
  <g style="clip-path: url(#n);">
    <rect x="536.31" y="132.11" width="180" height="252" transform="translate(212.97 -278.57) rotate(30)" style="fill: #fff;"/>
    <path d="M613.24,112.67l12.97,7.49-58.45,101.24-12.97-7.49,58.45-101.24ZM595.36,240.24c-5.9-3.41-9.7-8.45-11.38-15.14-1.69-6.69-.81-13.02,2.65-19l35.56-61.59c3.41-5.9,8.44-9.81,15.1-11.73,6.66-1.92,12.94-1.18,18.84,2.23s9.8,8.54,11.47,15.27c1.66,6.73.8,13.04-2.61,18.94l-35.56,61.59c-3.45,5.98-8.5,9.91-15.13,11.79-6.64,1.88-12.95,1.09-18.93-2.36ZM648.42,148.34c-2.3-1.33-4.76-1.61-7.37-.87-2.62.75-4.58,2.25-5.88,4.51l-35.51,61.5c-1.35,2.34-1.7,4.83-1.04,7.47.66,2.64,2.14,4.63,4.44,5.95s4.87,1.69,7.49.94c2.62-.75,4.6-2.29,5.96-4.63l35.51-61.5c1.3-2.26,1.63-4.71.96-7.35-.66-2.64-2.18-4.65-4.56-6.02Z" style="fill: #231f20;"/>
    <g>
      <path d="M605.33,186.2l3.37-4.39c-1.19-.17-2.35-.57-3.42-1.19-1.66-.96-2.98-2.38-3.82-4.12-1.11-2.3-1.26-4.89-.42-7.31.84-2.41,2.57-4.35,4.87-5.47l23.7-11.46,1.93,26.25c.19,2.55-.63,5.02-2.3,6.95-1.67,1.93-3.99,3.1-6.54,3.29-1.92.14-3.81-.29-5.47-1.25h0c-1.07-.62-1.99-1.42-2.74-2.37l-2.11,5.12-7.04-4.06Z" style="fill: #fff;"/>
      <path d="M629.75,178.66l-1.73-23.61-21.31,10.3c-3.86,1.87-5.48,6.51-3.61,10.37,1.73,3.59,5.85,5.23,9.53,3.96l-4.6,5.99,3.48,2.01,2.88-6.98c.73,3.82,4.22,6.56,8.19,6.27,4.28-.31,7.49-4.03,7.18-8.31Z" style="fill: #231f20;"/>
      <path d="M692.12,236.31l3.37-4.39c-1.19-.17-2.35-.57-3.42-1.19-1.66-.96-2.98-2.38-3.82-4.12-1.11-2.3-1.26-4.89-.42-7.31.84-2.41,2.57-4.36,4.87-5.47l23.69-11.46,1.93,26.25c.19,2.55-.63,5.02-2.3,6.95-1.67,1.93-3.99,3.1-6.54,3.29-1.92.14-3.81-.29-5.47-1.25h0c-1.07-.62-1.99-1.42-2.74-2.37l-2.11,5.12-7.04-4.06Z" style="fill: #fff;"/>
      <path d="M716.53,228.76l-1.73-23.61-21.31,10.3c-3.86,1.87-5.48,6.51-3.61,10.37,1.73,3.59,5.86,5.23,9.53,3.96l-4.6,5.99,3.48,2.01,2.88-6.98c.73,3.82,4.22,6.56,8.19,6.27,4.28-.31,7.49-4.03,7.18-8.31Z" style="fill: #231f20;"/>
      <path d="M634.51,231.74l3.38-4.39c-1.19-.17-2.35-.57-3.42-1.19-1.66-.96-2.98-2.39-3.82-4.12-1.11-2.3-1.26-4.89-.42-7.31.84-2.41,2.57-4.35,4.87-5.47l23.7-11.46,1.93,26.25c.19,2.55-.63,5.02-2.3,6.95-1.67,1.93-3.99,3.1-6.54,3.29-1.92.14-3.81-.29-5.47-1.25h0c-1.07-.62-1.99-1.42-2.74-2.37l-2.11,5.12-7.04-4.06Z" style="fill: #fff;"/>
      <path d="M658.92,224.2l-1.73-23.61-21.31,10.3c-3.86,1.87-5.48,6.51-3.61,10.37,1.73,3.59,5.85,5.23,9.53,3.96l-4.6,5.99,3.48,2.01,2.88-6.98c.73,3.82,4.22,6.56,8.19,6.27,4.28-.31,7.49-4.03,7.18-8.31Z" style="fill: #231f20;"/>
      <path d="M580.92,228.29l3.38-4.39c-1.19-.17-2.35-.57-3.42-1.19-1.66-.96-2.98-2.38-3.82-4.12-1.11-2.3-1.26-4.89-.42-7.31.84-2.41,2.57-4.35,4.87-5.47l23.7-11.45,1.93,26.25c.38,5.26-3.59,9.85-8.84,10.24-1.92.14-3.81-.29-5.48-1.25h0c-1.07-.62-1.99-1.42-2.74-2.37l-2.11,5.12-7.04-4.06Z" style="fill: #fff;"/>
      <path d="M605.34,220.75l-1.73-23.61-21.31,10.3c-3.86,1.86-5.48,6.51-3.61,10.37,1.73,3.59,5.85,5.23,9.53,3.96l-4.6,5.99,3.48,2.01,2.88-6.98c.73,3.82,4.22,6.56,8.19,6.27,4.28-.31,7.49-4.03,7.18-8.31Z" style="fill: #231f20;"/>
      <path d="M667.79,278.44l3.37-4.39c-1.19-.17-2.35-.57-3.42-1.19-1.66-.96-2.98-2.38-3.82-4.12-1.11-2.3-1.26-4.89-.42-7.31.84-2.41,2.57-4.35,4.87-5.47l23.69-11.46,1.93,26.25c.19,2.55-.63,5.02-2.3,6.95-1.67,1.93-3.99,3.1-6.54,3.29-1.92.14-3.81-.29-5.47-1.25h0c-1.07-.62-1.99-1.42-2.74-2.37l-2.11,5.12-7.04-4.06Z" style="fill: #fff;"/>
      <path d="M692.2,270.9l-1.74-23.61-21.31,10.3c-3.86,1.86-5.48,6.51-3.61,10.37,1.73,3.59,5.86,5.23,9.53,3.96l-4.6,5.99,3.48,2.01,2.88-6.98c.73,3.82,4.22,6.56,8.19,6.27,4.28-.31,7.49-4.03,7.18-8.31Z" style="fill: #231f20;"/>
      <path d="M557.81,268.51l3.38-4.39c-1.19-.17-2.35-.57-3.42-1.19-1.66-.96-2.98-2.39-3.82-4.12-1.11-2.3-1.26-4.89-.42-7.31.84-2.41,2.57-4.35,4.87-5.47l23.7-11.45,1.93,26.25c.19,2.55-.63,5.02-2.3,6.95-1.67,1.93-3.99,3.1-6.54,3.29-1.92.14-3.81-.29-5.47-1.25h0c-1.07-.62-1.99-1.42-2.74-2.37l-2.12,5.12-7.04-4.06Z" style="fill: #fff;"/>
      <path d="M582.23,260.97l-1.74-23.61-21.31,10.3c-3.86,1.87-5.48,6.51-3.61,10.37,1.73,3.59,5.85,5.23,9.53,3.96l-4.6,5.99,3.48,2.01,2.89-6.98c.73,3.82,4.22,6.56,8.19,6.27,4.28-.31,7.49-4.03,7.18-8.31Z" style="fill: #231f20;"/>
      <path d="M644.59,318.61l3.38-4.39c-1.19-.17-2.35-.57-3.42-1.19-1.66-.96-2.98-2.39-3.82-4.12-1.11-2.3-1.26-4.89-.42-7.31.84-2.41,2.57-4.35,4.87-5.47l23.7-11.45,1.93,26.25c.19,2.55-.63,5.02-2.3,6.95-1.67,1.93-3.99,3.1-6.54,3.29-1.92.14-3.81-.29-5.47-1.25h0c-1.07-.62-1.99-1.42-2.74-2.37l-2.11,5.12-7.04-4.06Z" style="fill: #fff;"/>
      <path d="M669.01,311.07l-1.74-23.61-21.31,10.3c-3.86,1.87-5.48,6.51-3.61,10.37,1.73,3.59,5.85,5.23,9.53,3.96l-4.6,5.99,3.48,2.01,2.88-6.98c.73,3.82,4.22,6.56,8.19,6.27,4.28-.31,7.49-4.03,7.18-8.31Z" style="fill: #231f20;"/>
      <path d="M586.99,314.05l3.38-4.39c-1.19-.17-2.35-.57-3.42-1.19-1.66-.96-2.98-2.38-3.82-4.12-1.11-2.3-1.26-4.89-.42-7.31.84-2.41,2.57-4.35,4.87-5.47l23.7-11.45,1.93,26.25c.19,2.55-.63,5.02-2.3,6.95-1.67,1.93-3.99,3.1-6.54,3.29-1.92.14-3.81-.29-5.47-1.25h0c-1.07-.62-1.99-1.42-2.74-2.37l-2.12,5.12-7.04-4.06Z" style="fill: #fff;"/>
      <path d="M611.4,306.51l-1.74-23.61-21.31,10.3c-3.86,1.87-5.48,6.51-3.61,10.37,1.73,3.59,5.85,5.23,9.53,3.96l-4.6,5.99,3.48,2.01,2.89-6.98c.73,3.82,4.22,6.56,8.19,6.27,4.28-.31,7.49-4.03,7.18-8.31Z" style="fill: #231f20;"/>
      <path d="M533.4,310.6l3.38-4.39c-1.19-.17-2.35-.57-3.42-1.19-1.66-.96-2.98-2.38-3.82-4.12-1.11-2.3-1.26-4.89-.42-7.31.84-2.41,2.57-4.35,4.87-5.47l23.7-11.45,1.93,26.25c.19,2.55-.63,5.02-2.3,6.95-1.67,1.93-3.99,3.1-6.54,3.29-1.92.14-3.81-.29-5.47-1.25h0c-1.07-.62-1.99-1.42-2.74-2.37l-2.12,5.12-7.04-4.06Z" style="fill: #fff;"/>
      <path d="M557.82,303.06l-1.73-23.61-21.31,10.3c-3.86,1.87-5.48,6.51-3.61,10.37,1.73,3.59,5.85,5.23,9.53,3.96l-4.6,5.99,3.48,2.01,2.88-6.98c.73,3.82,4.22,6.56,8.19,6.27,4.28-.31,7.49-4.03,7.18-8.31Z" style="fill: #231f20;"/>
      <path d="M620.27,360.75l3.38-4.39c-1.19-.17-2.35-.57-3.42-1.19-1.66-.96-2.98-2.38-3.82-4.12-1.11-2.3-1.26-4.89-.42-7.31.84-2.41,2.57-4.36,4.87-5.47l23.7-11.45,1.93,26.25c.19,2.55-.63,5.02-2.3,6.95-1.67,1.93-3.99,3.1-6.54,3.29-1.92.14-3.81-.29-5.47-1.25h0c-1.07-.62-1.99-1.42-2.74-2.37l-2.11,5.12-7.04-4.06Z" style="fill: #fff;"/>
      <path d="M644.68,353.21l-1.74-23.61-21.31,10.3c-3.86,1.87-5.48,6.51-3.61,10.37,1.73,3.59,5.85,5.23,9.53,3.96l-4.6,5.99,3.48,2.01,2.88-6.98c.73,3.82,4.22,6.56,8.19,6.27,4.28-.31,7.49-4.03,7.18-8.31Z" style="fill: #231f20;"/>
    </g>
  </g>
</svg>